<svg xmlns="http://www.w3.org/2000/svg" xmlns:xlink="http://www.w3.org/1999/xlink" width="288" height="273" viewBox="0 0 288 273">
  <defs>
    <polygon id="capitel-+-ninﾌバ-a" points="0 .629 286.416 .629 286.416 280.234 0 280.234"/>
  </defs>
  <g fill="none" fill-rule="evenodd" transform="translate(1 -9)">
    <g transform="translate(0 1)">
      <mask id="capitel-+-ninﾌバ-b" fill="#fff">
        <use xlink:href="#capitel-+-ninﾌバ-a"/>
      </mask>
      <path fill="#B4A9A4" d="M286.415871,5.26702725 C279.893143,5.80835422 274.173863,11.4589809 273.566865,17.9617956 C272.952961,12.0309346 274.107101,5.92856403 276.845111,0.628613079 C271.441991,3.45392643 267.398667,8.45909537 264.881662,14.0025286 C262.363889,19.5474932 261.261932,25.6299564 260.672584,31.6879183 C261.365528,22.1017602 261.933389,11.9007711 257.301486,3.47306812 C258.864638,7.54335695 260.446207,11.6955722 260.687165,16.046861 C260.928122,20.3989155 259.614368,25.0625967 256.256314,27.8496267 C258.548478,20.7970627 257.699756,12.7904768 253.980266,6.37188556 C255.101408,12.8616839 252.017309,19.8805586 246.474526,23.4554605 C246.39702,21.8460272 246.319515,20.236594 246.241242,18.6271608 C244.302074,23.2096812 243.239253,28.1826921 243.151004,33.1572343 C243.081173,37.0858747 244.878376,41.1492725 244.188502,44.9883297 C231.980258,38.8063297 229.708814,21.4486458 219.130486,13.1258392 C218.482817,12.6159046 217.803686,12.1473161 217.106905,11.7078229 C220.639921,15.1142779 223.826082,18.8737057 226.608601,22.9133678 C227.008405,23.4416785 227.391328,23.9860681 227.738183,24.5641471 C227.375213,24.0052098 226.986919,23.4623515 226.608601,22.9133678 C221.801734,16.562921 213.306074,13.7337793 205.293863,12.4428638 C204.959285,12.389267 204.622405,12.3379673 204.284758,12.2912616 C207.762523,16.2321526 210.491325,20.830752 212.241718,25.7838556 C205.582397,25.4515559 199.112619,27.8343134 193.228352,31.0554768 C193.826908,32.7889482 194.543641,34.4948556 195.257304,36.1747302 C193.935109,34.8792207 192.681978,33.4834087 191.570044,31.9941853 C191.37513,32.1082698 191.179448,32.2200572 190.986068,32.335673 C190.695999,32.5071826 190.405929,32.6932398 190.116627,32.8716403 C190.299264,34.8294523 189.758261,36.4863569 187.839812,37.3607493 C186.579774,37.9357657 185.092593,37.7734441 183.879365,37.1203297 C164.503028,51.6412153 147.374347,77.000891 148.018945,100.934894 C147.908443,96.8431662 159.562638,89.058624 162.464868,87.2707902 C167.963911,83.8834768 175.259389,78.5467738 182.165806,80.1615668 C185.741796,80.9984414 188.464459,83.8069101 190.969953,86.4859809 C194.729347,90.5057357 200.817737,94.8447738 199.147919,101.271787 C155.088814,101.851398 110.992109,101.795504 66.9237957,102.056597 C44.784892,102.187526 22.6459882,102.318455 0.507084492,102.449384 L-0.000153475936,279.884422 C16.4670471,279.659316 35.1903439,281.816202 51.1203786,277.561387 C51.115007,275.653343 51.1088679,273.7453 51.1034963,271.838022 C46.8430043,271.904635 41.9448198,267.544158 44.3190925,264.013665 C45.2276701,262.662262 46.8821406,262.042071 48.4529668,261.606406 C53.8230898,260.118714 59.4955604,259.831589 64.7759,258.053708 C70.057007,256.276594 75.1923118,252.465101 76.249761,247.005125 C77.3064428,241.544384 72.1289321,235.20236 66.7933412,236.80873 C69.9810364,232.869371 71.5863947,227.689629 71.1842877,222.642349 C89.8032209,222.790123 108.443641,219.408169 125.818651,212.730016 C132.79797,210.047883 140.774114,204.816076 139.739686,197.425087 C138.716769,190.119853 129.855836,187.242474 122.583379,185.920166 C127.306601,184.672894 132.222435,183.326084 135.857512,180.068935 C139.493357,176.81255 141.35502,171.025635 138.679167,166.947689 C137.698456,165.454638 136.233528,164.34442 135.130804,162.938654 C131.618507,158.457202 132.423488,152.091441 133.403432,146.486755 C140.513205,147.031144 147.901536,147.537251 154.550114,144.969202 C161.199459,142.401153 166.860419,135.798801 165.890451,128.750831 C165.307242,124.51133 163.067261,118.902815 166.858884,116.903657 C168.085924,116.256668 169.557758,116.353907 170.939042,116.487134 C176.126528,116.988646 181.245718,117.970997 186.385627,118.653973 C187.069363,110.694858 193.294347,116.736741 197.292395,114.554589 C201.641135,112.181785 200.697258,105.998253 201.158453,101.248052 C200.489298,101.25724 199.820143,101.263365 199.150988,101.271787 C200.318173,97.3171144 201.126224,93.2521853 201.54598,89.1474414 C202.003339,84.6797711 204.285526,77.9763515 202.007943,74.1028392 C199.73036,70.2300926 191.269999,65.7386866 187.227443,67.7125777 C193.502306,61.1109918 197.677619,58.9717166 205.457314,54.2253433 C213.238544,49.47897 222.726427,46.8175095 231.582756,48.9866458 C233.163558,49.3725422 234.768916,49.9460272 235.907707,51.1060136 C237.052638,52.2713597 237.589804,53.8823243 238.163804,55.4105967 C241.158887,63.3888529 248.904817,79.4104469 260.084004,72.3441008 C260.593544,73.640376 261.591905,74.7383433 262.835828,75.3692534 C262.937122,72.8257057 265.133363,70.848752 267.422456,69.7262834 C269.710015,68.603049 272.267691,67.995109 274.351127,66.5273243 C281.160855,61.7296512 282.390964,47.8389101 281.729483,40.4081063 C281.179272,34.2391226 279.695927,28.1451744 279.726622,21.952455 C279.75655,15.75897 281.593657,9.16580654 286.415871,5.26702725" mask="url(#capitel-+-ninﾌバ-b)"/>
    </g>
    <path fill="#B4A9A4" d="M199.648961,9 C198.828069,9.12150341 198.011042,9.27684322 197.206382,9.48293761 C194.729791,10.116601 192.29726,11.1662982 190.463779,12.9396328 C187.153156,16.140248 186.326853,21.3087571 187.512586,25.7467077 C188.218306,28.3897914 189.546266,30.7998654 191.193461,33 C191.744588,32.6793233 192.301125,32.3640296 192.863073,32.056426 C191.9587,29.4471787 191.324093,26.7741036 191.387476,24.0287417 C191.491827,19.4508315 194.086682,14.593002 198.514244,13.3418245 C200.288206,12.8404306 202.161108,12.955782 204,13.211093 C203.298918,12.4182447 202.578511,11.6438527 201.817138,10.9071422 C201.129196,10.2411804 200.404151,9.60059598 199.648961,9"/>
    <path fill="#B4A9A4" d="M185.643022,22.070566 C183.884566,17.5753687 182.258924,12.0353292 185.277214,8.28524304 C187.304334,5.76474358 190.950264,5.01503297 194.074806,5.78084166 C196.282552,6.32127722 198.260341,7.5025697 200.046877,8.94449777 C205.879304,8.06830224 212.015305,9.37684622 217,12.5581336 C214.232918,9.85748891 211.266994,7.36458615 208.110577,5.14228446 C204.114018,2.32665352 199.549774,-0.157050337 194.678919,0.00776334445 C187.273976,0.25766688 181.090162,7.07558728 180.116446,14.4952693 C179.069114,22.4760843 185.429002,27.5232159 185.512485,34.6247691 C184.329303,34.8739061 183.146121,35.123043 181.963698,35.37218 C182.276379,36.5166769 183.108174,37.4396335 184.138051,38 C186.175795,36.4545843 188.237067,35.0318206 190.306686,33.7462739 C189.94012,29.7646819 186.606871,24.5351055 185.643022,22.070566"/>
  </g>
</svg>
