<svg xmlns="http://www.w3.org/2000/svg" xmlns:xlink="http://www.w3.org/1999/xlink" width="267" height="361" viewBox="0 0 267 361">
  <defs>
    <polygon id="capitel-ninna-a" points=".363 .451 106.448 .451 106.448 186.858 .363 186.858"/>
  </defs>
  <g fill="none" fill-rule="evenodd" opacity=".3" transform="translate(0 -1)">
    <path fill="#D4B19D" d="M0.494218804,188.156823 L196,187 L194.840343,198.564497 L175.132901,199.72132 L175.437956,204.231511 L163.083233,205.217533 C163.083233,205.217533 163.577452,217.048301 154.682261,218.035068 C145.786323,219.02109 147.268979,223.950452 147.268979,223.950452 C147.268979,223.950452 146.779994,227.855008 146.775508,227.893793 C146.805415,227.654373 138.202569,227.360506 137.395071,227.393323 C137.98275,245.589972 131.808379,261.020241 116.622927,272.001479 C109.87284,276.883106 97.1300702,285.754318 88.3732009,283.971722 C92.5340597,286.304013 96.2380838,289.445559 99.2138642,293.16738 C100.218751,294.424894 101.178776,295.851716 101.228871,297.459036 C101.283452,299.199864 100.260621,300.784062 99.1510588,302.129586 C92.1564795,310.608477 80.4260728,314.204995 69.4493311,313.383061 C64.3792892,313.003421 59.3204625,311.786184 54.2653742,312.329913 C49.2095383,312.873642 43.915939,315.778005 42.6396432,320.687975 C41.6198029,324.611923 43.4628428,328.831977 46.3174985,331.716202 C49.1721541,334.600427 52.9135624,336.408382 56.5772117,338.161143 L56.8456301,340.986446 C53.8190072,341.936667 50.6136879,342.315561 47.4479959,342.098517 C46.4872226,348.310752 46.1350637,354.614727 46.3975006,360.894088 C38.6432749,360.278757 29.9282758,360.591271 22.0880664,360.698674 C14.7256269,360.798619 7.36318727,360.900055 0,361 L0.494218804,188.156823 Z"/>
    <g transform="translate(156)">
      <mask id="capitel-ninna-b" fill="#fff">
        <use xlink:href="#capitel-ninna-a"/>
      </mask>
      <path fill="#D4B19D" d="M68.6082503,82.7349837 C66.7413622,78.3676769 65.4184531,73.8208203 64.9919497,69.0862187 C64.0409217,58.5158761 68.6134881,46.8302386 78.2143063,42.2230355 C79.4182434,41.645645 80.7329217,41.1785175 82.062565,41.3044259 C83.8920406,41.4780155 85.4094951,42.7214538 87.064628,43.5171351 C91.7771175,45.7827406 97.7810895,44.1615773 101.43181,40.4282825 C105.083278,36.6949876 106.591006,31.2600673 106.437614,26.0516331 C106.314152,21.8541908 104.653782,17.0793582 100.662607,15.7234219 C97.7070126,14.71839 94.438649,15.9357526 91.350614,15.4693701 C88.1002084,14.979147 85.2501175,12.4587446 84.3776559,9.30284024 C83.5059427,6.14544582 84.6589986,2.5283741 87.2000615,0.451258566 C86.654586,6.36597171 84.7630056,13.7893502 78.8607958,14.6520833 C76.9781944,14.9277406 75.0237608,14.4017566 73.1688448,14.827908 C71.3146769,15.2533143 69.6116559,17.4012068 70.684649,18.9657486 C77.1458028,18.8539956 83.6062084,18.7407526 90.0673622,18.6282546 C93.2556629,18.5723781 96.822579,18.6610355 99.0740685,20.9087606 C102.665677,24.4900713 99.8851734,31.2511271 95.1614601,33.1196371 C90.4377469,34.988147 85.0735301,33.4027446 80.4463413,31.3084936 C75.8191524,29.2134976 71.2428448,26.5656968 66.1682014,26.2661988 C57.657586,25.7648004 49.9401175,32.3247008 46.7009357,40.1772108 C45.2508238,43.6922147 44.6424951,48.0930474 47.1012503,50.9993701 C49.3639636,53.6747367 53.6581804,54.3504697 55.2287608,57.4802984 C57.4817469,61.9690434 52.4722014,66.4056371 49.0033063,70.0472944 C45.2710266,73.9653542 42.8407049,79.0955614 42.1792503,84.4559797 C41.9667469,86.1762307 41.9704881,88.058151 42.9761385,89.4729438 C44.7734392,92.0030315 48.6381594,91.7094936 51.5638238,90.6515653 C54.4894881,89.592892 57.5662993,88.021645 60.5503273,88.9007685 C63.5919706,89.7970275 65.3294112,92.8925853 66.7518378,95.7147207 C68.6733483,99.5269876 70.6292783,103.459948 70.9757189,107.711776 C71.3977329,112.89488 68.7489217,114.451972 66.541579,118.287334 C64.2616559,122.24786 64.2436979,125.633231 65.2590755,130.584633 C53.1860336,123.257362 41.8821944,126.034051 29.7994252,132.264653 C20.5487888,137.035761 10.6307119,142.555613 0.363201399,140.800346 C0.600397203,147.720836 5.64511049,153.775613 11.7486,157.095422 C17.8528378,160.414486 24.9103483,161.466454 31.8189566,162.259155 C30.9427538,170.506525 27.9834182,178.52443 23.2888867,185.374888 C28.6171874,180.571 30.4167329,174.099012 34.973586,168.722203 C36.5194741,174.692047 38.0354322,181.175956 35.6342923,186.858223 C38.3369776,180.462972 42.344614,174.589235 41.6771734,167.13978 C41.271621,162.610059 39.0208797,158.53629 37.5258727,154.312773 C36.9407399,152.659573 35.8714881,151.266386 35.8774741,149.473123 C35.8834601,147.445924 36.5306979,145.403824 37.6934811,143.74094 C38.8143622,142.136912 40.421607,140.881553 42.2361175,140.144729 C42.674593,139.965924 46.9231664,139.404924 46.9126909,139.433235 C46.1180476,141.521525 44.4831175,143.297653 43.533586,145.337518 C42.5114741,147.535326 41.6869007,149.824027 41.0733343,152.167115 C40.4597678,154.510203 40.0557119,156.907677 39.8738867,159.321541 C39.7010406,161.625143 40.2427748,164.100099 39.9831315,166.346334 C40.6894811,160.232701 42.5720825,154.265836 45.4408797,148.818251 C46.3911594,147.013812 47.4491874,145.267486 48.6089776,143.589701 C49.5181035,142.274741 50.4070266,140.274362 52.2387469,140.114928 C53.1014811,140.038936 53.9769357,140.494888 54.8142294,140.275852 C52.9241455,141.355386 51.7082364,143.848223 50.5664042,145.608705 C49.1851315,147.737972 47.8712014,149.911195 46.6261105,152.122414 C44.9260825,155.14198 43.7064322,158.762776 41.1990406,161.257103 C40.7904951,161.663139 40.3280755,162.072155 40.1881524,162.630175 C40.0751664,163.083892 40.195635,163.557725 40.3161035,164.008462 C40.6939706,165.42251 41.0710895,166.837302 41.4489566,168.25135 C41.5379986,165.693697 41.6494881,163.045896 42.7898238,160.752725 C44.4636629,157.386725 47.5060545,154.213685 49.8406,151.256701 C51.5144392,149.136374 53.2256909,147.026478 55.0641455,145.06335 C56.920558,143.080107 58.5173273,140.828657 60.7029706,139.174713 C61.8507888,138.306765 62.9222853,137.342709 64.0730965,136.478486 C65.5912993,135.338605 65.8389706,135.781892 66.5168867,137.436581 C67.5060755,139.849701 67.6647049,142.043784 68.134607,144.529916 C68.4817958,146.3649 69.3153483,147.667195 71.2982154,147.948812 C72.4011385,148.104522 73.5212713,147.919012 74.6197049,147.732757 C74.7813273,148.258741 74.9422014,148.78398 75.1038238,149.309219 C75.5610056,148.143263 76.7439916,147.296175 77.9988098,147.235083 C78.635572,147.204537 79.2708378,147.358757 79.9076,147.325231 C82.0812713,147.212733 83.5051944,145.084211 84.5684601,143.192605 C84.9119077,142.581689 85.2553552,141.970027 85.5988028,141.359111 C86.5947259,139.585964 87.3654252,137.864223 87.9984462,135.935366 C89.9768238,129.89996 90.0007678,123.432442 88.1600685,117.359039 C86.0148308,110.27986 81.4692014,104.216888 77.3193972,98.0846291 C74.0323273,93.2270992 70.907628,88.1170076 68.6082503,82.7349837" mask="url(#capitel-ninna-b)"/>
    </g>
  </g>
</svg>
