<svg xmlns="http://www.w3.org/2000/svg" xmlns:xlink="http://www.w3.org/1999/xlink" width="288" height="290" viewBox="0 0 288 290">
  <defs>
    <polygon id="capitel-ninno-a" points="0 0 286.416 0 286.416 279.606 0 279.606"/>
  </defs>
  <g fill="none" fill-rule="evenodd" opacity=".8" transform="translate(-2 8)">
    <g transform="translate(0 1.629)">
      <mask id="capitel-ninno-b" fill="#fff">
        <use xlink:href="#capitel-ninno-a"/>
      </mask>
      <path fill="#B4A9A4" fill-opacity=".4" d="M286.415871,4.63841417 C279.893143,5.17974114 274.173863,10.8303678 273.566865,17.3331826 C272.952961,11.4023215 274.107101,5.29995095 276.845111,1.13686838e-13 C271.441991,2.82531335 267.398667,7.83048229 264.881662,13.3739155 C262.363889,18.9188801 261.261932,25.0013433 260.672584,31.0593052 C261.365528,21.4731471 261.933389,11.272158 257.301486,2.84445504 C258.864638,6.91474387 260.446207,11.0669591 260.687165,15.418248 C260.928122,19.7703025 259.614368,24.4339837 256.256314,27.2210136 C258.548478,20.1684496 257.699756,12.1618638 253.980266,5.74327248 C255.101408,12.2330708 252.017309,19.2519455 246.474526,22.8268474 C246.39702,21.2174142 246.319515,19.6079809 246.241242,17.9985477 C244.302074,22.5810681 243.239253,27.554079 243.151004,32.5286213 C243.081173,36.4572616 244.878376,40.5206594 244.188502,44.3597166 C231.980258,38.1777166 229.708814,20.8200327 219.130486,12.4972262 C218.482817,11.9872916 217.803686,11.518703 217.106905,11.0792098 C220.639921,14.4856649 223.826082,18.2450926 226.608601,22.2847548 C227.008405,22.8130654 227.391328,23.357455 227.738183,23.9355341 C227.375213,23.3765967 226.986919,22.8337384 226.608601,22.2847548 C221.801734,15.9343079 213.306074,13.1051662 205.293863,11.8142507 C204.959285,11.760654 204.622405,11.7093542 204.284758,11.6626485 C207.762523,15.6035395 210.491325,20.202139 212.241718,25.1552425 C205.582397,24.8229428 199.112619,27.2057003 193.228352,30.4268638 C193.826908,32.1603351 194.543641,33.8662425 195.257304,35.5461172 C193.935109,34.2506076 192.681978,32.8547956 191.570044,31.3655722 C191.37513,31.4796567 191.179448,31.5914441 190.986068,31.7070599 C190.695999,31.8785695 190.405929,32.0646267 190.116627,32.2430272 C190.299264,34.2008392 189.758261,35.8577439 187.839812,36.7321362 C186.579774,37.3071526 185.092593,37.1448311 183.879365,36.4917166 C164.503028,51.0126022 147.374347,76.3722779 148.018945,100.306281 C147.908443,96.2145531 159.562638,88.4300109 162.464868,86.6421771 C167.963911,83.2548638 175.259389,77.9181608 182.165806,79.5329537 C185.741796,80.3698283 188.464459,83.178297 190.969953,85.8573678 C194.729347,89.8771226 200.817737,94.2161608 199.147919,100.643174 C155.088814,101.222785 110.992109,101.166891 66.9237957,101.427984 C44.784892,101.558913 22.6459882,101.689842 0.507084492,101.820771 L-0.000153475936,279.255809 C16.4670471,279.030703 35.1903439,281.187589 51.1203786,276.932774 C51.115007,275.02473 51.1088679,273.116687 51.1034963,271.209409 C46.8430043,271.276022 41.9448198,266.915545 44.3190925,263.385052 C45.2276701,262.033649 46.8821406,261.413458 48.4529668,260.977793 C53.8230898,259.490101 59.4955604,259.202975 64.7759,257.425095 C70.057007,255.647981 75.1923118,251.836488 76.249761,246.376512 C77.3064428,240.915771 72.1289321,234.573747 66.7933412,236.180117 C69.9810364,232.240757 71.5863947,227.061016 71.1842877,222.013736 C89.8032209,222.16151 108.443641,218.779556 125.818651,212.101403 C132.79797,209.41927 140.774114,204.187463 139.739686,196.796474 C138.716769,189.49124 129.855836,186.613861 122.583379,185.291553 C127.306601,184.044281 132.222435,182.697471 135.857512,179.440322 C139.493357,176.183937 141.35502,170.397022 138.679167,166.319076 C137.698456,164.826025 136.233528,163.715807 135.130804,162.310041 C131.618507,157.828589 132.423488,151.462828 133.403432,145.858142 C140.513205,146.402531 147.901536,146.908638 154.550114,144.340589 C161.199459,141.77254 166.860419,135.170188 165.890451,128.122218 C165.307242,123.882717 163.067261,118.274202 166.858884,116.275044 C168.085924,115.628054 169.557758,115.725294 170.939042,115.85852 C176.126528,116.360033 181.245718,117.342384 186.385627,118.02536 C187.069363,110.066245 193.294347,116.108128 197.292395,113.925975 C201.641135,111.553172 200.697258,105.36964 201.158453,100.619439 C200.489298,100.628627 199.820143,100.634752 199.150988,100.643174 C200.318173,96.6885014 201.126224,92.6235722 201.54598,88.5188283 C202.003339,84.051158 204.285526,77.3477384 202.007943,73.4742262 C199.73036,69.6014796 191.269999,65.1100736 187.227443,67.0839646 C193.502306,60.4823787 197.677619,58.3431035 205.457314,53.5967302 C213.238544,48.8503569 222.726427,46.1888965 231.582756,48.3580327 C233.163558,48.7439292 234.768916,49.3174142 235.907707,50.4774005 C237.052638,51.6427466 237.589804,53.2537112 238.163804,54.7819837 C241.158887,62.7602398 248.904817,78.7818338 260.084004,71.7154877 C260.593544,73.0117629 261.591905,74.1097302 262.835828,74.7406403 C262.937122,72.1970926 265.133363,70.220139 267.422456,69.0976703 C269.710015,67.974436 272.267691,67.3664959 274.351127,65.8987112 C281.160855,61.1010381 282.390964,47.210297 281.729483,39.7794932 C281.179272,33.6105095 279.695927,27.5165613 279.726622,21.323842 C279.75655,15.1303569 281.593657,8.53719346 286.415871,4.63841417 L63.5,166.371387" mask="url(#capitel-ninno-b)"/>
    </g>
    <path fill="#B4A9A4" fill-opacity=".5" d="M199.648961,9 C198.828069,9.12150341 198.011042,9.27684322 197.206382,9.48293761 C194.729791,10.116601 192.29726,11.1662982 190.463779,12.9396328 C187.153156,16.140248 186.326853,21.3087571 187.512586,25.7467077 C188.218306,28.3897914 189.546266,30.7998654 191.193461,33 C191.744588,32.6793233 192.301125,32.3640296 192.863073,32.056426 C191.9587,29.4471787 191.324093,26.7741036 191.387476,24.0287417 C191.491827,19.4508315 194.086682,14.593002 198.514244,13.3418245 C200.288206,12.8404306 202.161108,12.955782 204,13.211093 C203.298918,12.4182447 202.578511,11.6438527 201.817138,10.9071422 C201.129196,10.2411804 200.404151,9.60059598 199.648961,9"/>
    <path fill="#B4A9A4" fill-opacity=".5" d="M185.643022,22.070566 C183.884566,17.5753687 182.258924,12.0353292 185.277214,8.28524304 C187.304334,5.76474358 190.950264,5.01503297 194.074806,5.78084166 C196.282552,6.32127722 198.260341,7.5025697 200.046877,8.94449777 C205.879304,8.06830224 212.015305,9.37684622 217,12.5581336 C214.232918,9.85748891 211.266994,7.36458615 208.110577,5.14228446 C204.114018,2.32665352 199.549774,-0.157050337 194.678919,0.00776334445 C187.273976,0.25766688 181.090162,7.07558728 180.116446,14.4952693 C179.069114,22.4760843 185.429002,27.5232159 185.512485,34.6247691 C184.329303,34.8739061 183.146121,35.123043 181.963698,35.37218 C182.276379,36.5166769 183.108174,37.4396335 184.138051,38 C186.175795,36.4545843 188.237067,35.0318206 190.306686,33.7462739 C189.94012,29.7646819 186.606871,24.5351055 185.643022,22.070566 L190.5,17.5"/>
  </g>
</svg>
