<svg xmlns="http://www.w3.org/2000/svg" xmlns:xlink="http://www.w3.org/1999/xlink" width="227" height="283" viewBox="0 0 227 283">
  <defs>
    <polygon id="capitel-+-pajaro-a" points="0 .541 199.348 .541 199.348 178 0 178"/>
  </defs>
  <g fill="none" fill-rule="evenodd">
    <g transform="translate(0 105)">
      <mask id="capitel-+-pajaro-b" fill="#fff">
        <use xlink:href="#capitel-+-pajaro-a"/>
      </mask>
      <path fill="#897A72" d="M0.502661597,1.71998205 L199.348289,0.540922222 L198.169582,12.3345632 L178.125475,13.5143838 L178.434981,18.1142385 L165.869962,19.1198624 C165.869962,19.1198624 166.371863,31.1865889 157.324715,32.1929735 C148.277567,33.1978368 149.785551,38.2259564 149.785551,38.2259564 L149.28289,42.2476915 C149.28289,42.2476915 139.732319,41.2428282 139.732319,41.7448795 C139.732319,42.2476915 152.80076,96.5491017 101.029658,96.5491017 C49.2577947,96.5491017 66.8501901,121.185367 66.8501901,121.185367 C66.8501901,121.185367 67.3528517,107.107392 80.9239544,108.113016 C94.495057,109.11864 93.9923954,119.676931 92.9870722,124.202238 C91.981749,128.727546 88.9665399,143.308332 62.3269962,141.296324 C35.6874525,139.285837 39.7079848,129.732409 39.7079848,129.732409 L39.2053232,146.324444 L47.7505703,146.324444 L47.2479087,152.860238 C47.2479087,152.860238 41.2159696,153.866623 40.713308,159.396794 C40.2106464,164.927726 37.1946768,163.41929 37.1946768,163.41929 L37.1946768,168.447409 L36.6920152,177.497264 L0,178.000076 L0.502661597,1.71998205 Z" mask="url(#capitel-+-pajaro-b)"/>
    </g>
    <path fill="#897A72" d="M161 106.456705C160.667185 106.449705 160.333593 106.441705 160 106.435705 160.303266 106.588705 160.636081 106.616705 161 106.456705M149.949437 0C146.999735 3.33144409 146.453636 8.38607552 147.470457 12.7904621 148.315756 16.4535851 150.091731 19.7804011 152 23 150.066349 15.7146355 152.596094 7.21902877 149.949437 0M153 24.8819158C152.665449 24.2576383 152.330898 23.6300578 152 23 152.123448 23.5235343 152.263696 24.0429397 152.42805 24.5549133 152.61943 24.702725 152.814463 24.8422791 153 25 153 24.9603633 153 24.9215524 153 24.8819158"/>
    <path fill="#897A72" d="M205.231221,84.3919838 C204.812863,84.5682418 204.322112,84.6201273 203.917471,84.4118224 C203.51283,84.2035174 203.24307,83.6869516 203.397763,83.2459249 C203.552456,82.8056613 204.193328,82.6171949 204.48976,82.970474 L203.973862,82.2578116 C204.984321,82.096051 205.829419,83.5312951 205.231221,84.3919838 M205.942962,77.8185504 C203.765064,76.5732987 201.243488,76.0780975 199.088451,74.7893536 C197.602482,73.9019592 196.341313,72.6673898 195.109101,71.4297683 C185.150058,61.4273147 176.085644,50.4642165 168.072078,38.7258881 C166.218807,36.0102933 164.843333,32.9002162 162.99692,30.2242985 C162.080953,28.8958774 161.395883,29.5658106 161.711366,27.4034067 C161.913306,26.0231001 162.890235,24.658817 163.974612,23.8835868 C162.076381,24.0201677 160.203298,24.5298663 158.483383,25.3768206 C161.937691,18.5615093 165.440769,11.5974087 166.66155,4 C158.831634,6.92008468 153.210097,15.2194735 153.050831,23.8378055 C153.088933,23.9003733 153.127035,23.9629411 153.164375,24.0247458 C153.127797,23.9972771 153.087409,23.9743864 153.050831,23.9461546 C153.046259,24.2818842 153.033305,24.6168508 153.046259,24.9525804 C152.822221,24.4871371 152.627902,24.0140635 152.454157,23.5356488 C149.110345,21.2465832 144.97173,20.2287121 141,20.7780878 C143.816484,24.8419423 147.730299,28.0756289 152.175252,30.0114154 C149.928771,35.9217828 148.522816,42.1785621 148.01911,48.5108805 C147.570271,54.1473231 146.556002,59.7364582 147.79812,65.3950284 C148.938887,70.5942594 151.968741,75.1258462 154.671681,79.4025838 C155.179959,80.2068088 155.293502,81.190344 155.394853,82.1357281 C156.243761,90.0772597 157.092668,98.0187913 157.941576,105.960323 L160.335892,106 C159.294189,105.589494 158.636552,103.936789 158.477287,102.621339 C157.648192,95.7968716 156.819098,88.9731671 155.990003,82.1494625 C158.065026,80.8363019 160.968381,82.0983401 162.332425,84.1417126 C163.696469,86.1850852 163.957085,88.7419714 164.300763,91.1760112 C164.701594,94.0152156 165.267024,96.8330553 165.992482,99.6066398 C166.298821,100.777115 166.808622,101.978112 166.912259,103.185975 C167.043329,104.710493 166.876444,104.345006 166.038204,105.094293 C166.301107,104.859282 166.699651,104.888277 167.049426,104.932532 C169.151882,105.194249 171.255862,105.455202 173.358319,105.716919 C172.350146,104.744829 171.096597,103.695674 169.724933,103.978755 C167.086003,104.523553 166.817005,89.8216474 166.854345,87.7469909 C166.868823,86.9046148 166.903115,86.0614756 166.955695,85.2206255 C166.845962,86.9671826 181.139464,88.2994188 182.669632,88.3329917 C187.910913,88.445919 192.991404,87.1831178 198.195346,87.1083416 C198.716578,87.1007114 199.266006,87.1144458 199.714083,87.3830295 C200.271131,87.7164701 200.545464,88.3635126 200.785505,88.9678259 C202.363681,92.9508001 203.942618,96.9330112 205.521556,100.915222 C206.007735,97.3763269 206.493914,93.8366684 206.980092,90.296247 C207.133262,89.1845241 207.288717,88.062882 207.680403,87.0122009 C209.132843,83.1177373 210.312474,80.315158 205.942962,77.8185504"/>
  </g>
</svg>
