<svg xmlns="http://www.w3.org/2000/svg" xmlns:xlink="http://www.w3.org/1999/xlink" width="135" height="176" viewBox="0 0 135 176">
  <defs>
    <polygon id="cris-y-sofi-a" points=".495 .655 44.827 .655 44.827 148 .495 148"/>
  </defs>
  <g fill="none" fill-rule="evenodd" transform="translate(9 16)">
    <path fill="#4C655B" d="M43.6202,64.2271 C38.8942,65.4301 32.5762,65.9611 30.4252,61.5841 C29.0692,58.8231 30.3572,55.3751 32.5452,53.2141 C34.7342,51.0531 37.6502,49.8341 40.3882,48.4321 C47.6532,44.7111 54.0832,39.3721 59.0772,32.9151 C44.8032,39.6361 27.9372,38.0691 12.7982,33.6241 C9.3902,32.6241 5.9122,31.4231 3.3002,29.0181 C0.6872,26.6131 -0.8468,22.6991 0.4962,19.4121 C1.8182,16.1761 5.4262,14.4871 8.8632,13.8511 C12.3592,13.2051 16.5202,13.5981 18.6212,16.4651 C20.7232,19.3321 18.2722,24.6431 14.8572,23.6571 C17.8202,20.9211 15.3092,15.0081 11.2772,14.8961 C7.2442,14.7841 4.2902,19.9061 6.0672,23.5281 C7.2412,25.9191 9.7602,27.3271 12.2352,28.3111 C25.9792,33.7811 42.9322,29.8331 52.8452,18.8541 C51.5222,17.5911 49.7652,16.7911 47.9422,16.6231 C51.1392,16.9021 54.1302,14.9261 56.2782,12.5431 C57.6982,10.9671 59.2062,8.9571 60.2392,7.1181 C61.4492,4.9621 60.2482,4.0351 59.9252,1.9161 C60.0722,2.8791 60.2192,3.8411 60.3662,4.8031 C59.8322,3.7671 59.2882,2.5601 59.7312,1.4821 C60.1522,0.4571 61.3692,-0.0539 62.4752,0.0051 C63.5822,0.0631 64.6102,0.5701 65.6012,1.0661 C67.7362,2.1351 69.9552,3.2741 71.3512,5.2101 C72.7472,7.1461 73.0012,10.1321 71.2552,11.7601 C72.8052,11.1621 74.5932,11.2121 76.1062,11.8951 C74.3622,11.8851 72.8052,13.1271 71.9392,14.6421 C71.0742,16.1561 70.7692,17.9161 70.4802,19.6361 C70.1312,21.7061 69.7832,23.7761 69.4342,25.8461 C69.0932,27.8681 68.7512,29.9151 68.9232,31.9591 C69.1882,35.1211 70.6682,38.0921 70.8722,41.2591 C71.0252,43.6271 70.4562,45.9771 69.8912,48.2821 C68.9202,52.2441 67.8082,56.0531 67.6122,60.1271 C67.4012,64.4961 67.3092,68.8701 67.3212,73.2451 C67.3442,81.8451 67.7632,90.4421 68.4472,99.0141 C69.2022,108.4821 70.2792,117.9211 71.4972,127.3401 C72.0542,131.6471 72.5902,135.9561 73.4242,140.2071 C74.1722,144.0221 75.7862,148.4291 74.3222,152.2541 C72.0472,146.4311 69.3862,140.7581 66.3622,135.2861 C65.1052,133.0121 63.7672,130.7471 61.9442,128.8961 C55.4212,122.2721 49.2842,125.2881 46.3472,133.0381 C44.9292,136.7781 43.5652,140.5481 42.0612,144.2521 C42.5402,138.6441 40.5692,132.6551 40.0712,127.0261 C39.3672,119.0771 39.3282,111.0921 39.1422,103.1211 C38.9862,96.4611 39.1662,89.7851 39.8932,83.1601 C40.1412,80.9041 41.4882,64.7701 43.6202,64.2271"/>
    <g transform="translate(67 4.466)">
      <mask id="cris-y-sofi-b" fill="#fff">
        <use xlink:href="#cris-y-sofi-a"/>
      </mask>
      <path fill="#339395" d="M24.4626,18.0645 C26.4366,18.2155 28.5816,18.1865 30.5666,17.8315 C32.7516,17.4375 34.8526,16.6085 36.7456,15.4545 C40.6346,13.0815 43.7036,9.2675 44.8276,4.8185 C42.5806,8.1075 38.9346,10.4055 34.9986,11.0135 C37.6846,9.0455 39.7596,6.2545 40.8706,3.1145 C37.3906,6.7315 32.7726,10.6755 27.9746,9.2025 C24.9256,8.2675 22.9596,5.4035 20.5046,3.3675 C16.5176,0.0595 9.6706,-0.6295 6.6806,3.6015 C5.7026,4.9845 5.2826,6.6725 4.8816,8.3175 C2.9366,16.3045 0.9856,24.6575 2.8956,32.6525 C3.3196,34.4265 3.9336,36.1845 3.9326,38.0085 C3.9316,40.5815 2.7156,42.9725 1.9836,45.4395 C1.0236,48.6685 0.8886,52.0785 0.7836,55.4455 C-0.1784,86.4885 0.9926,117.8635 8.5016,147.9995 C8.8426,142.5885 10.0056,137.2285 11.9386,132.1625 C12.4716,130.7665 13.6916,129.1045 15.0706,129.6815 C17.1596,135.2975 18.3876,141.2325 18.6986,147.2165 C20.2796,138.7665 21.4346,130.2375 22.1556,121.6715 C22.2306,120.7785 21.6236,119.4485 20.8936,119.9675 C29.1786,117.6815 36.9836,113.6685 43.6636,108.2595 C42.3666,109.3095 33.1456,96.1485 32.1826,94.5285 C30.9466,92.4505 27.4966,88.5120004 27.2626,86.1050004 C27.1496,84.9310004 29.5746,85.4285 29.1886,84.3135 C28.8886,83.4475 28.3176,82.7065 27.7556,81.9825 C25.4446,79.0035 23.1336,76.0235 20.8226,73.0445 C21.8406,74.3565 26.4856,71.8945 27.3316,70.9085 C29.0126,68.9465 28.6366,65.5115 27.2626,63.5135 C26.2186,61.9975 24.5146,60.9525 22.6896,60.7105 C21.0366,60.4915 19.2446,60.8815 17.7666,60.1105 C16.8236,59.6185 16.1686,58.7285 15.4886,57.9115 C14.0246,56.1505 12.2986,54.6065 10.3866,53.3465 C12.4066,55.0075 14.4456,56.6815 16.7636,57.8925 C19.0816,59.1035 21.7306,59.8335 24.3206,59.4725 C22.9446,59.6435 21.5426,59.6025 20.1786,59.3535 C21.4366,59.0515 22.4726,57.9725 22.7236,56.7035 C23.0126,57.1745 23.1696,57.7605 22.9986,58.2865 C22.8276,58.8125 22.2596,59.2225 21.7226,59.0885 C21.7516,59.6475 22.4426,59.8655 22.9856,60.0035 C26.1276,60.7995 28.5466,63.8615 28.5936,67.1025 C28.5126,61.4815 25.7626,55.9455 21.0916,52.7915 C17.8996,50.6355 15.0666,47.9545 12.7156,44.9045 C10.6246,42.1905 7.2516,38.4935 8.4806,35.2755 C8.5846,35.0015 8.6726,34.6985 8.9076,34.5225 C9.1526,34.3405 9.4856,34.3485 9.7906,34.3655 C13.0856,34.5485 17.4456,35.4365 20.5526,33.8565 C21.6556,33.2955 22.2246,32.6415 22.6796,31.4815 C22.9516,30.7905 22.7616,29.2555 23.1616,28.7705 C23.3466,28.5455 25.7786,27.8315 25.9886,27.9795 C24.5566,26.9695 24.4036,24.9185 24.5846,23.1745 C24.6866,22.1975 24.7366,21.2885 24.7096,20.3825 C24.6866,19.6215 24.6096,18.8625 24.4626,18.0645 Z" mask="url(#cris-y-sofi-b)"/>
    </g>
  </g>
</svg>
