<svg xmlns="http://www.w3.org/2000/svg" xmlns:xlink="http://www.w3.org/1999/xlink" width="106" height="99" viewBox="0 0 106 99">
  <defs>
    <polygon id="filmaker-a" points="0 0 106 0 106 83 0 83"/>
  </defs>
  <g fill="none" fill-rule="evenodd" transform="translate(0 10)">
    <mask id="filmaker-b" fill="#fff">
      <use xlink:href="#filmaker-a"/>
    </mask>
    <path fill="#A5533E" d="M65.8660283,25.5434838 C65.7043464,24.5378793 67.00081,23.6026974 67.8385481,24.1736506 L68.8605284,23.8859023 C69.3591104,24.7718641 69.1094434,26.0561301 68.2363609,26.5702908 C67.3632784,27.0852088 66.0277103,26.5490883 65.8660283,25.5434838 L65.8660283,25.5434838 Z M41.8769392,41.3628241 C44.5352913,38.6413311 46.501043,35.2322713 47.4824148,31.4233927 C48.6074204,35.244387 50.7626783,38.6178569 53.6293369,41.2136493 C49.7121217,41.0765902 45.7888904,41.1265676 41.8769392,41.3628241 L41.8769392,41.3628241 Z M26.9563274,26.9367913 C26.087757,27.8727304 25.0665287,27.4941143 24.1445656,26.6657021 C23.4421891,25.5078939 25.3267238,24.1577487 26.091517,24.1804657 C27.1856902,24.2130266 27.8188818,26.0053955 26.9563274,26.9367913 L26.9563274,26.9367913 Z M105.514202,83 L106,40.1065757 L68.0280544,54.6893555 C68.1122794,51.6679986 68.1837203,48.8495799 68.2130486,46.675566 C79.7210433,46.4499107 88.9820349,36.9928364 88.9820349,25.351904 C88.9820349,13.5693693 79.4961926,4.01688364 67.7941796,4.01688364 C58.0082856,4.01688364 49.7760424,10.6994588 47.3417891,19.7794315 C44.7202855,10.5124224 40.0262449,-0.811986821 25.5508225,0.0459573887 C13.4359565,0.763056389 -0.279184784,7.4774353 0.00432263301,24.3394844 C0.195332935,35.6919113 12.7358361,46.5559233 23.6738079,47.8242874 C23.3158516,52.3850976 23.3128435,56.9754399 23.6715518,61.5362501 C23.7535208,62.5797162 25.4553173,75.519302 25.1988823,75.519302 L67.7941796,75.519302 C67.5520327,75.519302 67.5873771,71.4991556 67.7114586,66.262137 L105.514202,83 Z" mask="url(#filmaker-b)"/>
  </g>
</svg>
