<svg xmlns="http://www.w3.org/2000/svg" xmlns:xlink="http://www.w3.org/1999/xlink" width="85" height="133" viewBox="0 0 85 133">
  <defs>
    <polygon id="hello-a" points="0 .001 69.986 .001 69.986 127.907 0 127.907"/>
  </defs>
  <g fill="none" fill-rule="evenodd" transform="translate(10 5)">
    <mask id="hello-b" fill="#fff">
      <use xlink:href="#hello-a"/>
    </mask>
    <path fill="#357591" d="M11.063,66.1397 C13.164,65.7537 13.727,63.5537 12.866,62.0497 C12.004,60.5457 10.264,59.4427 9.096,58.0637 C5.595,53.9267 8.91,47.5167 15.186,46.2887 C13.934,55.7997 12.681,65.3117 11.429,74.8237 C10.794,79.6457 10.159,84.4687 9.524,89.2917 C9.192,91.8127 8.571,94.3047 8.205,96.8227 C7.843,99.3147 8.075,101.4037 6.854,103.7407 C7.699,103.5987 8.545,103.4567 9.391,103.3137 C8.154,108.3897 9.262,113.6047 10.37,118.6977 C11.036,121.7587 11.914,124.8267 12.303,127.9067 C11.888,124.6157 13.25,120.0627 14.023,116.7977 C14.583,114.4367 14.935,110.7007 14.748,108.2777 C14.663,107.1657 13.498,103.1267 15.175,102.4197 C17.384,101.4887 20.441,101.3317 22.877,100.7707 C24.953,100.2917 26.992,99.7027 29.042,99.1717 C29.397,100.7887 29.168,102.1047 29.042,103.7407 C28.932,105.1557 28.932,106.469543 29.042,109.202117 C29.152,111.93469 30.76,114.4117 31.258,117.4917 C31.603,119.6187 32.934,123.7017 31.763,125.6967 C32.485,124.4667 32.486,123.0737 32.563,121.7287 C32.767,118.1407 34.038,114.8957 34.919,111.4187 C35.791,107.9847 35.587,104.0147 34.678,100.6037 C34.562,100.1667 34.429,99.7207 34.515,99.2797 C34.85,97.5707 36.573,98.1477 37.873,98.0467 C39.536,97.9177 40.979,97.1097 42.314,96.3447 C42.539,96.2157 42.786,96.0557 42.787,95.8417 C42.788,95.7177 42.705,95.6037 42.606,95.5057 C41.905,94.8027 40.647,94.4677 39.862,93.7977 C38.904,92.9817 38.25,91.8187 37.553,90.8737 C35.661,88.3077 33.988,85.6357 32.884,82.8107 C28.031,70.3897 34.605,57.1167 33.754,44.1787 C32.73,45.2467 33.653,46.8667 35.167,47.5217 C36.68,48.1757 38.526,48.1387 40.267,48.0837 C42.913,47.9997 45.64,47.9007 48.037,47.0467 C52.461,45.4717 54.701,41.7807 56.896,38.4697 C60.501,33.0307 62.4247085,28.6583993 67.5107085,23.9483993 C66.1657085,24.2333993 66.1189579,24.6807 65.0259579,25.3407 C65.7979579,23.6737 65.8780108,22.5457 66.6500108,20.8787 C65.5770108,22.3147 64.9441928,22.9103993 63.2521928,23.9483993 C63.1041928,22.6853993 64.1,20.8497 63.952,19.5867 C63.294,20.7857 62.637,21.9837 61.98,23.1817 C61.106,22.5517 62.5977194,20.8787 61.5310933,19.5867 C61.106,21.0207 61.106,21.5487 59.635,25.3407 C59.1271164,24.6191459 59.635,23.9483993 57.5030635,23.9483993 C60.4450635,27.0873993 58.057,32.6617 55.445,35.9647 C52.03,40.2837 46.437,44.6897 39.89,43.8467 C33.703,43.0497 30.074,37.9467 24.243,36.1877 C22.971,33.8787 22.044,30.6507 24.859,29.3447 C25.868,28.8767 27.104,28.8277 28.273,28.6917 C34.342,27.9887 39.383,24.7147 43.121,21.0207 C46.858,17.3267 49.635,13.1177 53.36,9.4167 C55.194,7.5947 57.365,5.8427 60.198,5.0437 C63.031,4.2437 66.653,4.6667 68.388,6.5427 C65.084,1.8587 57.498,-0.8373 50.637,0.2347 C44.438,1.2027 39.508,4.7977 35.868,8.7247 C33.437,11.3477 30.588,14.5427 26.363,14.4227 C21.029,14.2717 16.996,8.6917 11.989,10.0957 C8.422,11.0967 6.871,14.6487 7.44,17.3087 C7.518,17.1507 7.714,17.0287 7.934,17.0027 C7.659,17.2247 7.383,17.4467 7.107,17.6697 C7.326,17.4837 7.544,17.2987 7.763,17.1127 C6.56,18.3617 7.659,20.0667 8.242,21.5487 C8.837,23.0627 8.834,24.7087 8.233,26.2207 C8.578,26.4697 9.074,26.5937 9.546,26.5487 C9.575,27.5547 9.818,29.1717 10.736,29.9687 C11.66,30.7707 12.487,30.2997 13.588,30.7297 C12.948,29.4817 11.599,28.4617 9.929,28.0127 C10.502,30.6717 13.132,31.8877 16.345,31.8827 C19.599,31.8787 21.126,33.5477 20.011,36.2637 C19.114,38.4487 14.93,39.4437 12.674,40.7707 C9.694,42.5257 6.91,44.4707 4.362,46.5817 C2.511,48.1147 0.728,49.8237 0.178,51.8597 C-0.958,56.0717 3.517,59.9907 8.334,62.2567 C9.452,62.7817 10.705,63.3537 11.067,64.3117 C11.431,65.2707 9.929,65.6389431 8.88943264,66.1397 C9.66943264,66.2897 10.283,65.9897 11.063,66.1397 C11.394,65.7322262 11.067,66.1127 12.303,64.3117" mask="url(#hello-b)"/>
  </g>
</svg>
