<svg xmlns="http://www.w3.org/2000/svg" xmlns:xlink="http://www.w3.org/1999/xlink" width="70" height="140" viewBox="0 0 70 140">
  <defs>
    <polygon id="hombrecito-a" points="0 0 55.688 0 55.688 131.763 0 131.763"/>
  </defs>
  <g fill="none" fill-rule="evenodd" transform="translate(3 5)">
    <mask id="hombrecito-b" fill="#fff">
      <use xlink:href="#hombrecito-a"/>
    </mask>
    <path fill="#814843" d="M33.1733,110.5174 C36.7503,111.2274 38.2373,115.1854 39.5203,118.2044 C41.2223,122.2104 42.9243,126.2154 44.6273,130.2214 C44.4713,125.1884 44.3163,120.1554 44.1603,115.1214 C44.0443,111.3764 43.9283,107.6294 43.9793,103.8824 C44.0293,100.1254 44.2473,96.3724 44.4653,92.6214 C44.9383,84.4914 45.4103,76.3604 45.8823,68.2294 C47.9803,71.4634 50.7053,74.2884 53.8613,76.5014 C49.4893,70.2364 48.1913,62.3974 47.0053,54.8504 C46.2223,49.8654 45.4393,44.8794 44.6563,39.8944 C44.2183,37.1054 43.4893,33.0414 40.4353,31.8694 C39.8153,31.6314 38.9723,31.6964 38.3343,31.9164 C37.6963,32.1364 37.2173,32.4864 36.7533,32.8274 C37.8283,32.1844 39.1433,31.6844 40.5753,31.3744 C34.0273,28.9884 42.9873,24.7504 46.2983,23.2774 C48.7693,22.1784 51.2313,20.8074 51.7573,18.9974 C50.9413,19.6884 49.6603,20.1794 48.2663,20.3354 C52.5163,18.8734 55.3473,16.0504 55.4933,13.1294 C54.9633,13.6864 54.1783,14.1574 53.2463,14.4774 C56.3393,12.4654 56.5173,9.0924 53.6433,6.9684 C52.6953,6.2674 51.4643,5.2184 52.6113,4.6324 C50.7733,4.5954 49.5513,3.5674 47.8713,4.0804 C47.9993,2.8304 47.1423,1.5734 45.4343,0.8164 C46.0343,1.0824 40.2563,3.1314 38.4923,2.6434 C37.4623,2.3584 36.5503,0.5854 36.2613,-0.0006 C33.5193,1.0014 31.9633,2.6344 30.9973,4.4114 C30.2113,5.8584 30.4253,7.6514 29.4343,8.9954 C29.1243,9.4164 28.5673,9.7524 28.0973,10.1184 C26.1863,11.6044 25.7363,13.7124 26.9623,15.4364 C27.2883,15.8944 27.7243,16.3314 27.8983,16.8174 C28.4353,18.3254 26.3753,19.6784 24.4873,20.7324 C25.3443,20.6624 26.2013,20.5924 27.0583,20.5234 C26.7063,22.8034 27.7743,26.1984 31.5913,27.3004 C32.4823,27.5574 33.4783,27.6894 34.2933,28.0224 C37.2293,29.2214 36.0583,31.9194 34.5483,33.8394 C30.7743,38.6374 26.8003,43.3984 23.9423,48.4154 C21.2053,53.2184 19.5043,58.2324 16.2053,62.9084 C12.9063,67.5844 7.6813,72.0424 0.0003,74.2344 C3.8403,74.7894 7.0173,73.8404 10.4553,72.2674 C14.4963,70.4194 17.7723,68.8034 20.4573,65.0364 C17.7383,75.7254 16.0543,86.5924 15.2643,97.5874 C14.8493,103.3694 14.4333,109.1504 14.0373,114.9334 C13.8323,117.9224 13.6313,120.9114 13.4393,123.9004 C13.3133,125.8464 13.8763,130.0954 12.9493,131.7634 C15.7393,126.7414 17.9473,121.6684 21.3593,116.8054 C23.3933,113.9004 29.1763,109.7244 33.1733,110.5174" mask="url(#hombrecito-b)"/>
  </g>
</svg>
