<svg xmlns="http://www.w3.org/2000/svg" xmlns:xlink="http://www.w3.org/1999/xlink" width="144" height="184" viewBox="0 0 144 184">
  <defs>
    <polygon id="juggling-a" points="0 0 126.941 0 126.941 11.885 0 11.885"/>
    <polygon id="juggling-c" points="0 .537 118.724 .537 118.724 163 0 163"/>
  </defs>
  <g fill="none" fill-rule="evenodd">
    <g transform="translate(3 165)">
      <mask id="juggling-b" fill="#fff">
        <use xlink:href="#juggling-a"/>
      </mask>
      <path fill="#B7B2A7" d="M118.0325,5.4211 C121.0385,4.5621 124.0105,3.5451 126.9415,2.3371 C107.9695,-1.3369 86.1565,-0.1729 66.8165,2.3601 C44.5725,5.2731 22.3795,8.5121 -0.0005,10.1051 C18.0335,9.7181 37.4135,12.9461 55.1135,11.5191 C76.1675,9.8211 97.8625,11.1831 118.0325,5.4211" mask="url(#juggling-b)"/>
    </g>
    <g transform="translate(3 7)">
      <g transform="translate(0 .463)">
        <mask id="juggling-d" fill="#fff">
          <use xlink:href="#juggling-c"/>
        </mask>
        <path fill="#4C655B" d="M41.2874,16.5071 C44.2234,20.1261 47.0514,23.8401 49.6354,27.7201 C51.6724,30.7771 53.7524,34.3801 56.2124,37.0261 C56.3624,37.1871 56.5174,37.3501 56.6104,37.5491 C56.7914,37.9361 56.7094,38.3901 56.6234,38.8081 C56.6024,38.9101 56.5784,39.0171 56.5074,39.0921 C56.4244,39.1791 56.2984,39.2031 56.1824,39.2261 C53.5934,39.7451 51.8734,41.8001 52.0014,44.4061 C52.1704,47.8641 55.9974,51.2581 57.8734,54.1211 C58.0294,54.3581 58.1904,54.6121 58.1984,54.8961 C58.2154,55.4861 57.6004,55.8721 57.0594,56.1091 C54.4484,57.2541 51.2494,58.1751 48.3544,58.1151 C41.5594,57.9761 36.1874,52.5431 29.9384,49.8741 C25.3294,47.9051 20.0774,46.8601 15.1624,48.0371 C15.0864,48.6511 16.0684,48.8991 16.5144,48.4701 C16.9594,48.0411 16.9804,47.3471 16.9714,46.7281 C16.9384,44.5251 16.9054,42.3211 16.8724,40.1171 C16.7744,33.5441 16.6724,26.9331 15.4624,20.4711 C18.8204,18.4101 22.0394,16.1241 25.0914,13.6331 C16.7094,13.8981 8.2554,14.1571 -0.0006,12.6821 C4.7274,13.8751 9.2484,15.8791 13.3084,18.5801 C13.7214,18.8541 14.1424,19.1501 14.3944,19.5761 C14.7274,20.1391 14.7144,20.8321 14.6954,21.4851 C14.4344,30.4351 14.8774,39.4051 16.0184,48.2861 C15.8714,47.1481 11.9274,49.4721 11.4964,49.8911 C17.1594,49.5071 22.9244,51.4981 27.1154,55.3331 C29.7414,57.7361 31.7194,60.7741 34.3154,63.2091 C39.4604,68.0341 47.0164,70.1461 53.9164,68.6891 C52.4324,68.3451 51.4244,66.6321 51.8434,65.1661 C51.1064,71.0731 50.3924,82.0151 56.4524,106.2521 C61.5904,126.8071 61.5564,118.5881 65.2614,140.7541 C66.0464,145.4531 67.8244,158.4281 68.3564,163.0001 C73.5174,149.6911 74.3234,133.7861 78.9474,119.9541 C81.4394,124.1351 87.3504,124.9821 91.9954,123.5271 C96.6404,122.0721 100.5254,118.9131 104.7844,116.5561 C109.0434,114.2001 114.2944,112.6471 118.7244,114.6661 C113.0024,106.9341 102.0244,105.9291 92.4114,105.6051 C95.2924,105.6621 97.6574,102.6601 100.5194,102.9961 C103.7084,103.3711 104.8734,107.3401 105.2374,110.5301 C106.3414,120.2131 106.5394,131.1191 100.0534,138.3921 C99.1884,139.3611 98.0774,140.2981 96.7784,140.2611 C94.6594,140.2001 93.5514,137.7551 93.0384,135.6971 C91.8684,130.9971 91.2084,126.1691 91.0744,121.3271 C87.4094,127.2401 88.9664,135.8171 94.4754,140.0641 C95.6474,140.9671 97.0384,141.7051 98.5174,141.6781 C101.6344,141.6201 103.6374,138.3841 104.7144,135.4581 C108.7094,124.5981 108.2204,112.1631 103.3824,101.6511 C99.9384,99.3971 96.4954,105.7211 92.3804,105.6291 C90.2114,105.5801 88.5564,103.7411 87.2584,102.0021 C79.6234,91.7731 74.3944,79.7611 72.1074,67.2031 C80.5044,67.4871 93.2154,71.2451 95.4874,60.1151 C96.2264,56.4911 95.8914,52.6831 96.9154,49.1281 C98.3564,44.1301 102.2644,40.2891 106.0214,36.6911 C105.0634,36.7481 104.1064,36.8061 103.1484,36.8631 C104.4274,26.9781 103.2734,16.7871 99.8184,7.4381 C100.8904,7.0361 101.7844,6.1831 102.2364,5.1311 C101.1534,4.6241 100.0174,4.1051 98.8224,4.1511 C97.6274,4.1961 96.3694,5.0011 96.2414,6.1901 L98.8764,7.4421 C98.2804,13.3431 97.6834,19.2441 97.0864,25.1451 C96.8174,27.8011 96.5644,30.5791 97.5534,33.0581 C98.5424,35.5381 101.2014,37.5721 103.7874,36.9111 C98.3964,40.2221 94.0954,45.2771 91.6894,51.1281 C90.7014,53.5301 89.9964,56.1101 88.4004,58.1601 C86.0864,61.1291 81.1074,61.6171 77.5664,62.0001 C71.4424,62.6621 65.8844,60.6371 62.6694,55.3321 C63.3984,55.2161 74.2474,51.3781 74.1444,53.9821 C74.1864,52.9321 73.6594,51.8751 72.7944,51.2771 C73.8414,51.2641 74.8894,51.2511 75.9364,51.2381 C75.2464,49.4831 74.5564,47.7281 73.8674,45.9731 C73.8654,46.8501 75.4574,46.6801 75.6444,45.8231 C75.8304,44.9661 75.1774,44.1751 74.5714,43.5401 C73.0054,41.8991 71.3154,40.2611 69.2814,39.2111 C68.3444,38.7271 67.3444,38.3791 66.3004,38.2201 C65.2834,38.0661 64.1324,38.4491 63.1934,38.0021 C63.1654,38.0561 63.1394,38.1091 63.1114,38.1621 L62.9254,37.7041 C62.9194,37.8701 62.9134,38.0361 62.9074,38.2011 C62.1884,38.1141 61.4494,38.2031 60.7724,38.4591 C60.1784,38.6831 59.5764,39.0411 58.9544,38.9131 C58.6174,38.8441 58.3244,38.6371 58.0624,38.4131 C57.6724,38.0801 57.3044,37.5171 57.5954,37.0941 C57.7994,36.7971 58.1604,36.8691 58.4044,36.6621 C58.7004,36.4091 58.9324,35.9101 59.1584,35.5911 C59.7104,34.8121 60.2684,34.0371 60.8244,33.2601 C61.9294,31.7131 62.9694,30.0811 64.1564,28.5971 C64.3854,28.2771 64.6214,27.9401 64.6724,27.5491 C64.7324,27.0861 64.5214,26.6351 64.3204,26.2131 C61.1994,19.6831 58.9224,12.7511 57.5624,5.6421 C57.3574,4.5691 57.1624,3.4631 56.5864,2.5351 C55.6124,0.9641 53.5364,0.1741 51.7654,0.6991 C50.0164,1.2171 48.8014,2.7751 47.8194,4.3111 C45.2854,8.2781 43.4854,12.7141 42.5374,17.3251 C44.0684,18.1961 45.8174,16.6331 46.8314,15.1931 C49.8444,10.9121 52.3214,6.2541 54.1864,1.3631 C51.6814,6.3021 49.1764,11.2411 46.6714,16.1801 C44.8754,16.2881 43.0804,16.3961 41.2874,16.5071" mask="url(#juggling-d)"/>
      </g>
      <path fill="#4C655B" d="M8.8548 12.567C9.4788 14.319 12.2938 14.675 13.3348 13.134 14.0738 12.038 13.7248 10.335 12.5728 9.686 11.4218 9.037 9.7258 9.691 9.3778 10.966 9.1418 11.835 9.4818 12.746 9.8178 13.582M110.866 100.3253C109.942 98.3243 108.65 96.5293 107.064 94.9993 105.905 93.8833 104.135 95.6483 105.296 96.7673 106.743 98.1623 107.865 99.7633 108.707 101.5873 109.381 103.0463 111.536 101.7783 110.866 100.3253M115.5496 100.5231C115.3736 99.2501 114.9876 98.0601 114.4556 96.8931 114.1756 96.2791 113.2856 96.1281 112.7456 96.4441 112.1146 96.8141 112.0156 97.5381 112.2966 98.1551 112.7356 99.1151 112.9946 100.1451 113.1386 101.1881 113.2316 101.8571 114.0876 102.2231 114.6766 102.0611 115.3976 101.8621 115.6426 101.1941 115.5496 100.5231"/>
    </g>
  </g>
</svg>
