<svg xmlns="http://www.w3.org/2000/svg" xmlns:xlink="http://www.w3.org/1999/xlink" width="85" height="155" viewBox="0 0 85 155">
  <defs>
    <polygon id="musico-a" points="0 .29 66.027 .29 66.027 146.118 0 146.118"/>
  </defs>
  <g fill="none" fill-rule="evenodd" transform="translate(5 3)">
    <g transform="translate(0 .71)">
      <mask id="musico-b" fill="#fff">
        <use xlink:href="#musico-a"/>
      </mask>
      <path fill="#2577BB" d="M31.3646,114.8738 C30.5036,113.3378 30.4346,111.4928 30.4816,109.7328 C30.6636,102.9068 32.2736,96.1848 32.5586,89.3628 C32.8436,82.5398 31.5786,75.2228 26.9146,70.2348 C25.2756,68.4808 22.4026,66.4228 23.0426,63.5948 C23.3226,62.3558 24.2936,61.2278 24.0706,59.9778 C21.2686,61.4658 19.9096,64.0888 17.7096,66.2188 C15.3066,68.5438 12.7746,70.7338 10.1266,72.7758 C8.8956,73.7248 7.3526,74.6908 5.8896,74.1668 C5.1236,73.8928 4.5536,73.2528 4.0526,72.6128 C1.6486,69.5408 0.0036,65.4818 1.1236,61.7468 C2.2446,58.0118 7.0366,55.4158 10.2886,57.5688 C6.8506,56.4378 2.8096,57.4168 0.2706,59.9968 C-0.2014,55.8948 -0.4074,51.0678 2.7346,48.3888 C3.7546,47.5188 4.8616,47.7798 5.8926,46.9568 C6.5896,46.4018 7.3276,45.8478 8.1956,45.6478 C8.8586,45.4948 9.5496,45.5608 10.2256,45.6268 C11.9936,45.7998 14.1356,46.3188 15.7746,45.3268 C16.7546,44.7348 17.1296,43.5218 17.4266,42.4158 C17.8556,42.6398 18.1876,43.0438 18.3226,43.5088 C18.0516,43.7398 17.6416,43.7928 17.3206,43.6378 C18.4676,43.0818 19.7126,42.4228 20.1656,41.2318 C20.3766,40.6758 20.3856,40.0678 20.3916,39.4738 C20.4576,33.0738 20.4676,26.7668 21.1756,20.3948 C21.4696,16.9278 21.7506,13.3438 20.6316,10.0488 C19.2996,6.1238 16.1636,3.1238 13.1386,0.2898 C18.9576,1.7198 24.9266,2.5358 30.9146,2.7208 C27.4596,2.2808 24.0056,1.8418 20.5506,1.4018 C24.3236,1.9988 28.0966,2.5948 31.8696,3.1908 C29.8376,5.2458 27.3066,6.7618 25.3156,8.8558 C21.8566,12.4918 22.5586,17.1938 22.3376,21.8548 L21.5886,37.5928 C21.4866,39.7578 21.6216,42.3808 23.5136,43.4378 C24.1696,43.8048 24.9516,43.9118 25.5846,44.3168 C26.7866,45.0878 27.1236,46.7148 26.9916,48.1368 C26.8826,49.3118 25.5216,52.0788 26.4906,53.1058 C27.7776,54.4678 30.8856,52.4158 31.7906,51.4438 C33.1046,50.0328 33.8396,48.1878 34.4566,46.3618 C35.7366,42.5688 36.6356,38.5398 36.0886,34.5748 C35.5406,30.6088 33.3296,26.7038 29.7266,24.9588 C28.0906,24.1658 26.2606,23.8478 24.6036,23.0978 C22.9476,22.3468 21.3776,20.9648 21.2076,19.1548 C21.1486,18.5328 21.2776,17.8698 21.6846,17.3968 C22.5846,16.3548 24.3206,16.7168 25.4376,17.5198 C27.1856,18.7768 28.2416,20.8208 28.7016,22.9238 C29.1616,25.0258 29.0826,27.2058 28.9426,29.3538 C28.7426,32.4158 28.3436,35.6738 26.3766,38.0298 C25.1406,39.5108 22.6846,40.4288 21.3626,39.0238 C20.3046,37.8998 20.6946,36.0978 21.1506,34.6228 C21.2936,35.3568 21.4446,36.1138 21.8646,36.7328 C22.2836,37.3518 23.0466,37.8018 23.7736,37.6268 C24.4156,37.4718 24.8576,36.8918 25.1896,36.3198 C26.6116,33.8738 26.9966,30.9688 27.1436,28.1428 C27.2596,25.9168 27.2436,23.6698 26.8446,21.4768 C26.6116,20.1888 26.1416,18.7898 24.9856,18.1768 C23.8296,17.5648 21.9946,18.4978 22.3136,19.7658 C22.5906,20.8648 24.0086,21.1088 25.1356,21.2138 C31.8376,21.8358 38.6386,25.8978 40.5366,32.3548 C41.5156,35.6858 41.1106,39.3128 39.9366,42.5798 C38.0886,47.7208 34.3206,52.1458 29.5396,54.7888 C33.2616,54.4298 36.6766,52.3368 39.1596,49.5398 C41.6436,46.7428 43.2726,43.2828 44.4596,39.7358 C44.9536,38.2578 45.2146,36.2828 43.8956,35.4528 C43.4076,35.1458 42.8086,35.0878 42.2346,35.0328 C35.9736,34.4318 29.7746,33.2018 23.7586,31.3668 C22.4026,30.9538 20.7426,29.9888 21.0936,28.6148 C22.6866,30.3618 25.4576,29.9788 27.8136,29.7828 C35.5886,29.1358 43.1606,32.0888 50.4036,34.9878 C50.6806,35.0988 50.9686,35.2178 51.1626,35.4438 C51.3866,35.7048 51.4486,36.0648 51.4896,36.4068 C52.0686,41.2418 50.1776,46.1398 47.1796,49.9778 C44.3456,53.6048 40.2766,55.2498 37.3436,58.4308 C36.0536,59.8288 34.4276,60.9148 32.6406,61.5678 C35.0666,60.6808 36.8326,59.2028 38.9846,60.9548 C40.8076,62.4378 42.4226,65.2968 43.8246,67.2098 C46.4026,70.7258 48.1726,74.8418 48.8866,79.1458 C49.3966,82.2198 49.6846,85.4318 52.1726,87.5748 C51.3836,86.8948 49.8886,89.0598 49.7566,89.4838 C49.4686,90.4028 50.4066,93.2388 50.8326,94.1028 C53.7076,99.9178 61.4376,96.3458 65.0556,100.5818 C67.1456,103.0298 65.2426,109.6958 65.0436,112.5478 C64.6466,118.2438 64.3526,123.9498 64.3566,129.6618 C64.3596,132.4108 64.4276,135.1608 64.5866,137.9048 C64.6986,139.8248 64.2646,144.5398 65.3516,146.1178 C60.7136,139.3838 58.1766,131.2238 58.1816,123.0468 C54.2906,130.1838 51.6556,138.0018 50.4306,146.0378 C50.7066,144.2278 49.1416,140.9238 48.9796,138.9498 C48.7736,136.4338 48.8806,133.8948 49.2886,131.4038 C49.6566,129.1568 54.0226,120.9708 52.9226,119.3958 C51.5636,117.4508 45.4636,118.8608 43.5316,118.8678 C39.5436,118.8838 33.6126,118.8848 31.3646,114.8738" mask="url(#musico-b)"/>
    </g>
    <path fill="#2577BB" d="M15.5413,117.7831 C15.5233,110.3991 15.5043,103.0161 15.4863,95.6321 C17.5483,95.5921 19.6463,95.4271 21.4143,95.0371 C21.5573,99.6011 21.7003,104.1641 21.8433,108.7271 C21.9233,111.2781 21.2423,115.1891 22.2743,117.9111 C20.0303,117.8681 17.7863,117.8261 15.5413,117.7831 M53.2233,119.8971 C53.0943,119.1371 52.5133,118.4851 51.4513,118.4651 C46.0073,118.3621 40.5633,118.2581 35.1203,118.1551 C33.3323,117.9581 31.5463,117.7431 29.7793,117.4581 C29.1643,117.3841 28.5493,117.3101 27.9343,117.2371 C25.9273,117.3791 25.2093,116.5201 25.7793,114.6581 C25.2353,113.0051 25.6463,110.4331 25.5933,108.7271 C25.4323,103.6021 25.2713,98.4771 25.1113,93.3511 C25.8423,92.5971 26.0813,91.6101 25.5883,90.3251 C25.4523,89.9681 25.2393,89.7011 24.9903,89.5001 C24.9433,88.0011 24.8963,86.5031 24.8493,85.0051 C24.8083,83.6921 23.6903,82.9931 22.4763,83.1971 C16.2413,84.2401 10.0163,84.6131 3.7033,84.3941 C2.8943,84.3661 2.0983,84.9951 1.8953,85.7701 C1.5093,87.2471 1.3713,88.5021 1.4863,90.0391 C1.5603,91.0231 2.2863,91.9521 3.3613,91.9141 C3.8543,91.8971 4.3473,91.8811 4.8393,91.8641 C4.8173,92.5071 4.8823,93.1741 5.0503,93.8581 C5.2623,94.7251 6.0423,95.1471 6.8573,95.2351 C7.6303,95.3181 9.4813,95.4951 11.7363,95.5861 C11.7563,103.6601 11.7763,111.7351 11.7963,119.8091 C11.1553,120.2311 10.8703,121.0491 10.9873,121.8861 C11.3883,124.7551 11.6603,127.6241 11.8233,130.4971 C11.8333,134.5481 11.8433,138.5981 11.8533,142.6491 C11.8593,145.0751 15.4803,145.0491 15.6033,142.6491 C15.8043,138.7181 15.7853,134.8151 15.5743,130.9211 C15.5673,128.3681 15.5613,125.8151 15.5553,123.2621 C23.9883,123.2951 32.3903,123.8081 40.7613,124.8401 C41.4053,131.8481 41.7303,138.8601 41.7233,145.9001 C41.7213,148.3261 45.3533,148.3001 45.4733,145.9001 C45.8243,138.9111 45.9313,131.9241 45.8143,124.9291 C46.6783,124.6061 47.5413,124.2831 48.4043,123.9601 C48.7733,124.4341 48.8083,125.1231 48.5013,126.0341 C48.8763,127.4161 48.4683,129.3851 48.4543,130.8001 C48.4123,134.9291 48.3703,139.0591 48.3293,143.1891 C48.3043,145.6721 51.7843,145.5101 52.0793,143.1891 C53.0263,135.7401 53.4883,128.2831 53.4683,120.7731 C53.4673,120.4691 53.3743,120.1691 53.2233,119.8971"/>
  </g>
</svg>
