<svg xmlns="http://www.w3.org/2000/svg" xmlns:xlink="http://www.w3.org/1999/xlink" width="141" height="184" viewBox="0 0 141 184">
  <defs>
    <polygon id="musico3-a" points="0 .574 104.73 .574 104.73 160 0 160"/>
    <polygon id="musico3-c" points=".472 .62 11.961 .62 11.961 21.742 .472 21.742"/>
  </defs>
  <g fill="none" fill-rule="evenodd" transform="translate(6 9)">
    <g transform="translate(0 .426)">
      <mask id="musico3-b" fill="#fff">
        <use xlink:href="#musico3-a"/>
      </mask>
      <path fill="#357591" d="M36.882,124.1278 C36.561,132.0448 38.132,145.9688 43.218,152.0438 C42.193,148.6838 43.781,139.1508 44.225,135.6648 C46.788,115.5288 49.399,95.1938 56.379,76.1328 C57.813,80.3758 60.568,84.1608 64.163,86.8308 C65.901,88.1218 67.975,89.1888 70.131,88.9918 C72.271,88.7968 74.092,87.4048 75.725,86.0068 C79.786,82.5328 83.52,78.6758 86.861,74.5048 C85.85,74.6678 84.839,74.8298 83.828,74.9928 C84.709,74.5738 85.59,74.1548 86.472,73.7348 C85.466,73.7418 84.46,73.7478 83.454,73.7538 C84.705,72.9868 85.955,72.2198 87.206,71.4518 C85.434,70.2578 82.977,71.6458 81.814,73.4388 C80.651,75.2308 80.134,77.4318 78.708,79.0238 C75.459,82.6528 69.007,81.0968 66.036,77.2368 C63.679,74.1758 62.774,70.2418 62.269,66.4868 C61.895,63.6978 60.143,58.3448 64.121,57.7798 C65.338,57.6068 66.572,57.9358 67.716,58.3868 C69.611,59.1338 71.371,60.2228 72.883,61.5868 C73.74,62.3588 74.582,63.2548 75.705,63.5188 C77.263,63.8858 78.832,62.8578 80.274,62.3878 C80.42,62.3408 80.571,62.2898 80.68,62.1828 C80.855,62.0138 80.882,61.7498 80.916,61.5088 C81.261,59.0288 83.171,57.0898 85.044,55.4278 C85.35,55.1558 85.682,54.8748 86.087,54.8108 C87.07,54.6548 87.769,55.5208 88.175,56.2758 C88.379,56.1488 90.645,54.7028 90.701,54.7938 C91.11,55.4548 91.676,56.0178 92.339,56.4248 C91.661,56.0088 92.275,53.6628 92.51,53.0548 C93.563,50.3458 96.627,50.1858 98.312,47.9938 C99.907,45.9188 100.57,43.1078 99.952,40.5528 C99.577,38.9978 98.769,37.4808 98.971,35.8938 C99.059,35.1988 99.339,34.5448 99.501,33.8638 C100.16,31.0818 98.82,28.2758 98.04,25.5258 C97.267,22.8018 97.665,20.0938 98.868,17.5538 C99.646,15.9118 101.913,11.6168 103.59,11.0558 C100.894,11.9568 98.199,12.8578 95.504,13.7578 C98.204,10.9308 101.324,8.5058 104.73,6.5868 C97.863,7.3478 91.296,10.5738 86.496,15.5428 C85.584,9.0618 90.094,2.2578 96.419,0.5738 C89.27,2.1048 82.704,6.2198 78.209,11.9848 C79.419,9.2528 81.266,6.8048 83.563,4.8928 C81.146,7.1588 79.128,9.8488 77.626,12.8018 C77.561,11.1398 77.497,9.4778 77.433,7.8158 C74.912,10.5828 72.092,11.9288 72.745,16.3748 C69.078,13.1468 69.134,7.5008 69.653,2.6428 C68.511,6.8148 68.13,11.1948 68.534,15.5028 C68.445,13.4708 67.654,11.4768 66.327,9.9358 C65.891,11.7508 66.054,13.7048 66.785,15.4228 C65.697,13.7548 64.609,12.0878 63.52,10.4198 C63.822,12.6888 64.124,14.9568 64.426,17.2248 C64.311,16.1118 63.828,15.0398 63.069,14.2168 C64.428,16.9078 64.816,20.0768 64.144,23.0158 C64.225,20.6058 64.294,18.1168 63.412,15.8728 C62.53,13.6288 60.435,11.6768 58.025,11.7458 C59.255,11.7498 60.479,12.2058 61.412,13.0078 C60.194,11.4698 57.682,11.3478 56.124,12.5388 C54.567,13.7298 53.98,15.9248 54.415,17.8368 C54.85,19.7498 56.174,21.3728 57.773,22.5078 C57.964,21.3858 57.015,20.4418 56.321,19.5388 C55.355,18.2798 54.773,16.6498 55.067,15.0908 C55.362,13.5308 56.678,12.1298 58.262,12.0368 C59.64,11.9558 60.935,12.8418 61.699,13.9908 C62.464,15.1398 62.787,16.5198 63.041,17.8768 C63.338,19.4668 63.548,21.1688 62.907,22.6548 C60.721,22.0898 58.776,20.6488 57.599,18.7228 C57.378,18.3608 57.178,17.9638 57.182,17.5408 C57.192,16.2838 59.028,15.7698 60.069,16.4748 C61.111,17.1788 61.503,18.5008 61.822,19.7168 C61.478,18.2028 60.533,16.8338 59.239,15.9748 C58.921,15.7638 58.566,15.5778 58.184,15.5718 C57.337,15.5598 56.713,16.4708 56.715,17.3178 C56.718,18.1658 57.161,18.9408 57.591,19.6708 C57.965,20.3058 58.449,21.0128 59.183,21.0768 C59.891,21.1378 60.515,20.5208 60.711,19.8378 C60.907,19.1548 60.782,18.4248 60.655,17.7258 L63.207,16.4808 C63.82,17.2438 62.788,18.2518 61.876,18.6088 C60.268,19.2398 58.553,19.5968 56.826,19.6588 C56.469,19.6718 56.087,19.6808 55.797,19.8898 C55.513,20.0958 55.383,20.4488 55.269,20.7798 C54.885,21.8958 54.501,23.0108 54.117,24.1268 C52.33,22.4768 51.235,20.1028 51.138,17.6728 C51.417,20.9018 52.497,24.0578 54.254,26.7808 C53.216,25.2718 52.179,23.7618 51.143,22.2528 C52.181,24.3428 53.219,26.4338 54.257,28.5238 C53.355,27.4868 52.452,26.4508 51.549,25.4138 C54.875,29.2318 57.048,31.4338 58.172,36.3738 C59.16,40.7198 64.025,45.7598 61.644,50.3898 C59.536,54.4888 54.322,53.7358 50.514,54.1088 C45.614,54.5898 41.037,56.0758 36.687,58.3798 C27.781,63.0978 20.432,73.1828 10.612,75.6588 C6.884,76.5988 2.441,76.5358 0,79.5078 C2.715,78.7848 5.431,78.0628 8.147,77.3408 C6.932,78.0218 6.013,79.2128 5.663,80.5608 C14.898,77.0988 24.132,73.6368 33.367,70.1748 C24.145,83.0428 11.075,96.0918 7.604,111.7658 C8.416,111.7238 9.17,112.1438 9.887,112.5278 C18.061,116.9018 27.947,117.9638 36.864,115.4278 C33.789,117.2648 30.042,117.9478 26.516,117.3148 C23.135,116.7068 20,114.9478 16.574,114.6908 C15.667,121.8778 16.696,132.5508 18.285,139.6698 C19.671,145.8838 21.713,155.3848 26.225,159.9998 C27.465,155.9938 26.226,151.3618 27.521,147.1928 C30.023,139.1348 35.232,132.6908 36.882,124.1278" mask="url(#musico3-b)"/>
    </g>
    <path fill="#357591" d="M91.1325 87.7545C91.0285 87.6965 90.9185 87.6415 90.7785 87.6135 84.8995 86.4425 83.9125 76.9945 86.7435 72.6395 87.6915 71.1815 89.0305 70.1765 90.5165 69.6165 90.5225 71.1755 90.5285 72.7345 90.5345 74.2935 90.5325 74.5025 90.5335 74.7125 90.5325 74.9215 89.6725 75.5545 88.9935 76.3675 88.6635 77.2885 88.6225 77.4045 88.5955 77.5345 88.5615 77.6575 88.1825 78.1655 87.9465 78.7615 87.9505 79.4495 87.9575 80.4385 88.3595 81.1615 88.9735 81.6525 89.1385 82.2395 89.4985 82.7565 90.0745 83.1065 91.0425 83.6925 91.2525 85.5445 91.1325 87.7545M100.1035 72.7225C102.1475 75.9535 102.0595 81.0785 100.3355 84.4645 99.2875 86.5215 97.7035 87.5875 95.8935 88.0225 95.9045 87.9165 95.9165 87.8105 95.9275 87.7035 96.0745 86.3155 96.0985 84.9685 95.8875 83.7235 96.4235 83.4095 96.8465 82.9235 97.0085 82.2815 97.0875 81.9705 97.1265 81.6765 97.1555 81.3885 97.1785 81.3745 97.2055 81.3605 97.2275 81.3475 99.0005 80.2565 99.4965 77.7355 98.6945 75.8985 97.7095 73.6395 95.2905 73.1515 93.0495 73.7395 93.0705 72.1935 93.1075 70.6495 93.1705 69.1055 95.8305 69.0315 98.5235 70.2275 100.1035 72.7225M103.3305 156.7605C97.1775 155.3745 90.7915 154.8835 90.9435 147.4025 91.1185 138.7435 93.5575 130.2845 93.4585 121.6015 93.4055 117.0445 94.0965 112.4045 94.2245 107.7895 94.3875 101.9565 95.0055 96.2615 95.6285 90.4995 98.8145 89.9925 101.5775 88.2305 103.0275 84.4775 105.2715 78.6715 104.1325 70.8395 98.2305 67.7155 96.6605 66.8855 94.9585 66.5215 93.2805 66.5525 93.3405 65.4795 93.4205 64.4055 93.5005 63.3325 93.5635 63.2125 93.6105 63.0775 93.6855 62.9695 94.0725 62.4175 93.9155 61.8805 93.5385 61.5345 93.1855 60.4335 91.2075 60.5965 91.0905 62.0125 91.0765 62.1915 91.0685 62.3705 91.0535 62.5495 90.4405 63.9135 90.4225 65.4625 90.4665 66.9925 87.6175 67.8365 85.1215 69.8505 83.8615 72.7545 82.0075 77.0295 82.3635 83.4775 85.4795 87.2195 85.1495 87.8475 85.2865 88.8055 86.1515 89.1435 87.6635 89.7325 89.2655 90.1875 90.8665 90.4415 90.4805 93.3455 90.9055 98.0935 90.8045 99.3455 90.3525 104.9405 90.2425 110.5555 90.1575 116.1655 89.9845 127.6065 87.1755 142.0155 86.2475 153.3665 82.0765 155.1235 77.9855 157.0675 73.9885 159.1905 77.4955 157.3275 83.1145 159.0155 86.9475 159.1075 93.8495 159.1075 99.9135 158.8835 106.7145 157.7465 105.7505 157.3525 104.5825 157.0435 103.3305 156.7605M111.2443 74.8902C110.4143 70.4512 110.2453 63.7652 105.4323 61.6642 104.5993 61.3022 101.9513 62.5282 103.1183 63.0372 107.4583 64.9312 107.6003 71.6802 108.3463 75.6662 108.5233 76.6142 111.4353 75.9162 111.2443 74.8902"/>
    <g transform="translate(109 54.426)">
      <mask id="musico3-d" fill="#fff">
        <use xlink:href="#musico3-c"/>
      </mask>
      <path fill="#357591" d="M11.8258,20.0199 C11.7738,19.9769 11.7218,19.9329 11.6688,19.8889 C11.5868,19.8199 11.4838,19.7739 11.3718,19.7389 C10.9438,18.3979 11.3118,15.3629 11.2078,14.3789 C10.9628,12.0579 10.4898,9.7459 9.5258,7.6089 C8.1658,4.5949 6.0438,2.2259 3.0968,0.7209 C2.1728,0.2489 -0.4602,1.5569 0.8138,2.2069 C4.6508,4.1659 6.8058,7.7209 7.7668,11.8389 C8.2268,13.8119 8.4078,15.8319 8.4898,17.8529 C8.5328,18.8949 8.1168,20.5789 8.9598,21.4159 C9.5618,22.0119 10.9648,21.7189 11.4778,21.1239 C11.5398,21.0509 11.6018,20.9789 11.6638,20.9069 C11.8438,20.6969 12.1348,20.2779 11.8258,20.0199" mask="url(#musico3-d)"/>
    </g>
  </g>
</svg>
