<svg xmlns="http://www.w3.org/2000/svg" xmlns:xlink="http://www.w3.org/1999/xlink" width="99" height="173" viewBox="0 0 99 173">
  <defs>
    <polygon id="musico2-a" points="0 .079 81.863 .079 81.863 152 0 152"/>
  </defs>
  <g fill="none" fill-rule="evenodd" transform="translate(5 8)">
    <path fill="#BE4251" d="M15.741,5.1633 C16.459,5.7053 17.616,5.5173 18.126,4.7753 C18.636,4.0343 18.397,2.8873 17.635,2.4103 C16.321,4.2433 15.008,6.0763 13.694,7.9093 C14.628,7.2203 15.363,6.2623 15.741,5.1633"/>
    <g transform="translate(0 .922)">
      <mask id="musico2-b" fill="#fff">
        <use xlink:href="#musico2-a"/>
      </mask>
      <path fill="#BE4251" d="M63.9681,84.5275 C64.1691,84.2145 63.8991,83.8565 63.5491,83.7235 C63.5541,83.5445 63.5611,83.3655 63.5671,83.1865 C64.8751,83.2305 66.1931,82.8725 67.0121,81.8875 C66.6511,83.2675 65.3861,84.3645 63.9681,84.5275 M59.0661,123.4005 C58.5781,122.3105 58.0561,121.2455 57.5241,120.1885 C58.4231,116.6785 59.3011,113.1635 60.1601,109.6425 C59.9871,114.6905 59.8141,119.7375 59.6411,124.7845 C59.4601,124.3205 59.2721,123.8585 59.0661,123.4005 M52.6811,138.3515 C54.0191,133.5235 55.3121,128.6845 56.5731,123.8375 C56.8431,124.4645 57.1081,125.0965 57.3621,125.7415 C58.3991,128.3755 59.0091,131.1075 59.3301,133.8815 L59.2021,137.5895 C57.0351,138.1475 54.8981,138.3925 52.6811,138.3515 M54.9331,120.2165 C53.9851,123.9105 53.0121,127.5965 52.0191,131.2785 L51.9401,113.7675 C52.8801,115.9385 53.9151,118.0575 54.9331,120.2165 M57.0491,59.3475 C56.8801,59.5625 56.5821,59.6575 56.3201,59.6255 C56.5791,59.0655 56.9111,58.5385 57.3121,58.0695 C57.3391,58.5135 57.3251,58.9985 57.0491,59.3475 M55.7511,58.7425 C55.6861,58.7845 55.6211,58.8255 55.5561,58.8675 C55.7051,58.5245 55.8551,58.1825 56.0051,57.8405 L56.0191,59.1535 C55.5941,59.8765 55.1701,60.5995 54.7451,61.3215 C55.0811,60.4625 55.4161,59.6025 55.7511,58.7425 M52.5591,58.6805 C52.9231,56.3845 55.3641,54.6385 57.6541,55.0355 C57.7831,55.0585 57.9081,55.0945 58.0341,55.1275 C56.3371,55.1025 54.5821,55.6575 53.6891,57.0625 C53.4741,57.4015 53.3361,57.8875 53.6191,58.1705 C54.2221,57.8455 54.8241,57.5215 55.4261,57.1965 C55.1871,57.8415 55.0541,58.5235 55.0191,59.2095 C54.7111,59.4065 54.4021,59.6025 54.0931,59.7995 C54.0181,59.1025 54.3191,58.3755 54.8641,57.9355 C54.2921,58.5555 53.3861,58.8485 52.5591,58.6805 M70.9221,49.0795 C72.8421,52.7435 70.0471,56.2545 66.5341,56.7205 C66.8201,53.3605 66.5351,49.9565 65.6991,46.6895 C65.6221,46.3865 65.5281,46.0915 65.4311,45.7985 C65.7151,46.0965 66.0521,46.3605 66.4881,46.5565 C68.2051,47.3265 69.9051,47.1395 70.9221,49.0795 M51.8721,98.7245 C54.2841,99.6215 56.7211,99.9595 59.4401,99.7415 C59.6241,99.7265 59.8111,99.6705 59.9851,99.5865 C58.6441,105.3355 57.2541,111.0715 55.8071,116.7935 C54.7191,114.6105 53.6941,112.3975 52.9351,110.0215 C52.5461,108.8015 52.2051,107.5645 51.9061,106.3185 C51.8951,103.7865 51.8841,101.2555 51.8721,98.7245 M61.0861,84.3045 C61.1691,84.3015 61.2521,84.2985 61.3351,84.2945 C60.9261,85.9625 61.2151,87.7425 60.8541,89.3905 C60.3671,91.6165 60.0891,93.8885 60.0251,96.1665 C58.5631,93.5195 55.0391,93.0825 51.8501,93.9495 C52.4771,93.7615 51.4431,86.4995 51.4041,85.7745 C51.3851,85.4335 51.3951,85.0365 51.6631,84.8245 C51.8431,84.6835 52.0871,84.6675 52.3161,84.6585 C55.2391,84.5405 58.1621,84.4225 61.0861,84.3045 M37.1271,52.4335 C36.1981,53.3215 35.3021,54.2405 34.3181,55.0705 C32.2951,56.7755 29.8971,58.3295 27.1651,58.3955 C23.9661,58.4735 21.1511,55.7585 20.4031,52.6475 C19.6551,49.5365 20.6381,46.2195 22.3141,43.4935 C23.9891,40.7675 26.3111,38.5115 28.5291,36.2055 C28.5831,36.1485 28.6361,36.0895 28.6901,36.0315 C29.7581,37.1395 30.6291,38.5445 31.5091,39.6625 C33.2501,41.8745 34.9911,44.0875 36.7321,46.2985 C37.7871,47.6395 38.8561,48.9945 40.2041,50.0395 C39.2231,50.9355 38.0691,51.5345 37.1271,52.4335 M67.9371,72.0085 C67.3991,68.6785 67.5071,65.1845 67.3401,61.8105 C69.9611,62.5625 72.7561,63.0975 74.1001,60.2125 C75.2201,57.8075 75.8911,55.2735 76.3271,52.6615 C76.8211,49.6975 77.0161,46.4675 75.5081,43.8675 C73.7621,40.8605 67.6561,37.7135 64.6491,40.5805 C64.6051,40.6225 64.5731,40.6735 64.5411,40.7235 C64.5861,39.6845 64.6821,38.6345 64.6521,37.6275 C64.5971,35.7745 64.5081,33.9015 64.5741,32.0485 C68.6091,32.7875 72.9691,31.4465 75.8911,28.5675 C74.0521,27.7615 72.2151,26.9565 70.3761,26.1505 C75.6901,21.3155 79.6961,15.0575 81.8631,8.2075 C79.7601,10.2475 77.6271,12.3095 75.0801,13.7565 C72.5331,15.2045 69.4831,15.9925 66.6401,15.2865 C67.7531,14.6075 68.6921,13.6485 69.3491,12.5235 C68.3731,12.4615 67.3841,12.5995 66.4611,12.9255 C67.1231,12.0105 67.7851,11.0965 68.4471,10.1815 C67.1811,11.6245 65.0481,11.9855 63.1431,11.7465 C61.2391,11.5085 59.4321,10.7765 57.5511,10.3965 C49.5111,8.7735 38.5221,15.7735 41.8661,24.9435 C42.1211,25.6425 42.4631,26.3365 42.4651,27.0805 C42.4661,27.8235 41.9781,28.6425 41.2361,28.6885 C41.4841,28.7815 41.7321,28.8745 41.9801,28.9675 C42.1731,29.0395 42.0731,32.1655 42.1641,32.6165 C42.4041,33.8065 42.9221,34.9985 43.9111,35.7605 C45.3071,36.8375 47.2471,36.7535 49.0021,36.5905 C53.0021,36.2205 56.9891,35.7035 60.9521,35.0415 C61.0821,36.6185 61.0401,38.1675 61.1231,39.7495 C61.1381,40.0375 61.1521,40.3375 61.0441,40.6045 C60.7831,41.2495 59.9751,41.4325 59.2881,41.5405 C56.4831,41.9835 53.7141,42.6585 51.0191,43.5555 C48.5681,44.3725 46.2601,45.9745 43.7351,46.4135 C45.2171,48.4225 47.4781,49.8395 49.9321,50.2975 C49.9461,50.2325 49.9601,50.1665 49.9741,50.1005 C51.8991,50.1595 53.9621,49.3845 55.9381,49.5485 C57.1711,49.6495 58.3701,50.1325 59.3301,50.9135 C58.0691,50.1715 56.5091,50.1795 55.0571,50.3665 C53.6061,50.5545 52.1531,50.8995 50.6971,50.7525 C47.9891,50.4775 45.7651,48.5785 43.7341,46.7675 C39.1981,42.7225 35.5961,37.7695 31.8641,32.9905 C31.6721,32.7445 31.4721,32.4785 31.4471,32.1675 C31.3771,31.3215 32.5941,30.5535 32.1391,29.8365 C31.4681,29.6905 30.7421,29.8205 30.1641,30.1905 C30.5611,29.8265 30.6311,29.1585 30.3181,28.7205 C30.0051,28.2825 29.3501,28.1315 28.8771,28.3885 C29.0271,27.7675 29.1681,27.0905 28.9041,26.5085 C28.6381,25.9265 27.7781,25.5965 27.3431,26.0655 C26.1911,23.3135 24.0661,20.8285 22.3271,18.4275 C21.7031,17.5655 16.8971,9.8855 16.2461,10.0275 C18.6671,9.5015 21.6421,8.3465 21.7061,5.8695 C19.9321,7.1555 18.1911,8.4855 16.4861,9.8605 C15.4661,9.0275 14.4451,8.1955 13.4101,7.3825 C12.6811,6.4945 11.7821,5.7475 10.7751,5.1935 C9.8491,7.3415 6.6211,7.5485 4.7581,6.1325 C2.8941,4.7175 2.0911,2.3345 1.4731,0.0785 C0.3511,3.1945 -0.1409,6.5375 0.0351,9.8455 C0.1131,11.3145 0.3511,12.8525 1.2521,14.0155 C2.8191,16.0395 5.7461,16.2425 8.3051,16.2735 C10.0341,16.2945 11.7621,16.3145 13.4911,16.3355 C14.2811,16.3445 15.1011,16.3605 15.8141,16.7025 C16.7051,17.1295 17.2901,17.9945 17.8321,18.8225 C20.0141,22.1525 21.6551,25.4675 24.3881,28.4015 C24.5281,28.5515 24.6741,28.7115 24.7161,28.9125 C24.8221,29.4135 24.2671,29.7715 23.9681,30.1885 C23.4181,30.9555 22.5261,32.8045 22.3201,33.6855 C20.6071,41.0155 15.6741,48.1925 17.7361,55.4315 C19.4661,61.5055 26.6241,65.4195 32.6701,63.5975 C34.3301,63.0975 35.8431,62.2425 37.3201,61.3545 C38.4931,60.6505 40.1631,60.1585 41.0921,59.1545 C41.2521,58.9815 41.4091,58.7845 41.6341,58.7145 C41.9751,58.6065 42.3311,58.8305 42.5871,59.0805 C44.0221,60.4835 43.7981,62.8425 45.1671,64.4665 C46.4961,66.0435 48.3911,67.2065 50.4281,67.5755 C54.7881,68.3675 59.1681,66.4895 63.0501,64.3535 C59.4851,69.3855 51.3791,70.3325 46.7511,66.2565 C47.7191,67.6805 45.9431,69.4845 44.2551,69.8215 C42.5671,70.1595 40.6231,69.9445 39.3291,71.0815 C38.2751,72.0075 38.0301,73.5275 37.8511,74.9185 C37.2881,79.2785 37.0341,84.4565 39.6831,88.2425 C41.0771,90.2345 43.2001,90.9745 44.8851,92.6305 C46.9321,94.6445 48.4551,97.4045 49.3921,100.0965 C49.7941,94.8565 47.9241,89.6975 45.5391,85.0145 C45.2981,84.5415 45.0441,84.0125 45.1871,83.5015 C45.2921,83.1245 45.5941,82.8385 45.9011,82.5955 C46.9121,81.7925 48.1051,81.2025 49.3701,81.0535 C49.6341,83.2545 50.5011,94.1175 49.3561,95.2345 C47.1221,97.4145 48.3661,101.4035 49.0081,104.7185 C49.1251,105.3235 49.2611,105.9145 49.4071,106.4995 C49.4741,121.2635 49.5411,136.0275 49.6071,150.7925 C49.6151,152.4015 52.1151,152.4035 52.1071,150.7925 C52.0931,147.4735 52.0771,144.1545 52.0621,140.8355 C54.5001,140.9465 56.7731,140.7345 59.1141,140.1865 C59.0011,143.4725 58.8881,146.7595 58.7761,150.0465 C58.7191,151.6995 61.0731,151.5885 61.2761,150.0465 C61.9691,144.7645 62.3791,139.3435 61.8231,134.0565 C62.2571,121.4195 62.6901,108.7815 63.1231,96.1445 C65.9741,91.1405 70.3771,86.8185 74.0941,82.2915 C75.1781,80.9705 76.2381,79.5675 76.7091,77.9245 C77.1791,76.2815 76.9471,74.3345 75.7191,73.1465 C73.7831,71.2745 70.7011,72.1035 67.9371,72.0085" mask="url(#musico2-b)"/>
    </g>
    <path fill="#BE4251" d="M13.3113,8.1926 C13.3493,8.2236 13.3863,8.2546 13.4243,8.2846 C13.5143,8.1596 13.6043,8.0346 13.6933,7.9086 C13.5663,8.0036 13.4473,8.1096 13.3113,8.1926"/>
  </g>
</svg>
