<svg xmlns="http://www.w3.org/2000/svg" width="140" height="438" viewBox="0 0 140 438">
  <g fill="none" fill-rule="evenodd" transform="translate(21 19)">
    <g stroke="#D2D2D2" stroke-width="2.5" transform="translate(0 1.438)">
      <line x1="53.638" x2="101.193" y1="408" y2="368.491"/>
      <line x1="85.967" x2="101.194" y1="1.818" y2="368.491"/>
      <line x2="47.076" y1="402.54" y2="363.788"/>
      <line x1="44.926" x2="47.075" y1=".346" y2="363.788"/>
    </g>
    <line x1="31.8" x2="83.256" y1="378.509" y2="383.595" stroke="#D2D2D2" stroke-width="2.5"/>
    <g stroke="#D2D2D2" stroke-width="2.5" transform="translate(46 312.438)">
      <line x1=".318" x2="54.339" y1="36.381" y2="39.554"/>
      <line x1=".315" x2="52.636" y1=".712" y2="1.849"/>
    </g>
    <line x1="46.544" x2="96.186" y1="288.567" y2="290.032" stroke="#D2D2D2" stroke-width="2.5"/>
    <line x1="45.896" x2="95.466" y1="253.533" y2="254.448" stroke="#D2D2D2" stroke-width="2.5"/>
    <line x1="45.888" x2="94.263" y1="224.805" y2="225.984" stroke="#D2D2D2" stroke-width="2.5"/>
    <line x1="45.398" x2="93.774" y1="177.537" y2="178.716" stroke="#D2D2D2" stroke-width="2.5"/>
    <line x1="45.889" x2="92.257" y1="199.622" y2="200.665" stroke="#D2D2D2" stroke-width="2.5"/>
    <line x1="44.675" x2="91.354" y1="138.224" y2="139.153" stroke="#D2D2D2" stroke-width="2.5"/>
    <line x1="45.308" x2="90.865" y1="111.696" y2="112.889" stroke="#D2D2D2" stroke-width="2.5"/>
    <line x1="42.847" x2="88.404" y1="58.706" y2="59.899" stroke="#D2D2D2" stroke-width="2.5"/>
    <line x1="44.691" x2="88.356" y1="84.493" y2="85.55" stroke="#D2D2D2" stroke-width="2.5"/>
    <g stroke="#AB514E" stroke-linecap="round" stroke-width="4" transform="translate(0 .438)">
      <line x1="85.967" x2="53.638" y1="2.818" y2="409"/>
      <line x1="43.109" y1=".562" y2="403.54"/>
      <line x1="4.597" x2="55.17" y1="373.118" y2="374.678"/>
    </g>
    <line x1="6.896" x2="57.469" y1="340.015" y2="341.575" stroke="#AB514E" stroke-linecap="round" stroke-width="4"/>
    <line x1="9.195" x2="61.501" y1="306.474" y2="308.011" stroke="#AB514E" stroke-linecap="round" stroke-width="4"/>
    <line x1="14.143" x2="63.72" y1="281.373" y2="283.254" stroke="#AB514E" stroke-linecap="round" stroke-width="4"/>
    <line x1="15.935" x2="65.512" y1="246.651" y2="247.927" stroke="#AB514E" stroke-linecap="round" stroke-width="4"/>
    <line x1="19.141" x2="67.486" y1="219.802" y2="221.362" stroke="#AB514E" stroke-linecap="round" stroke-width="4"/>
    <line x1="24.525" x2="72.87" y1="170.721" y2="172.281" stroke="#AB514E" stroke-linecap="round" stroke-width="4"/>
    <line x1="23.084" x2="69.433" y1="194.036" y2="195.436" stroke="#AB514E" stroke-linecap="round" stroke-width="4"/>
    <line x1="29.41" x2="76.086" y1="124.28" y2="125.556" stroke="#AB514E" stroke-linecap="round" stroke-width="4"/>
    <line x1="32.428" x2="77.945" y1="97.431" y2="98.991" stroke="#AB514E" stroke-linecap="round" stroke-width="4"/>
    <line x1="37.497" x2="83.014" y1="48.35" y2="49.91" stroke="#AB514E" stroke-linecap="round" stroke-width="4"/>
    <line x1="36.14" x2="79.777" y1="71.664" y2="73.064" stroke="#AB514E" stroke-linecap="round" stroke-width="4"/>
    <path fill="#BE4251" d="M45.3313,133.3135 C46.7583,133.0405 48.3173,133.3815 49.9883,134.6175 C51.8083,135.9635 52.4393,138.4755 52.7303,140.7995 C53.0213,143.1235 53.1413,145.5895 54.3633,147.5475 C54.8033,140.5705 60.6223,135.4035 63.0603,128.9005 C64.0443,126.2755 64.9923,123.6355 65.9673,121.1005 C67.2603,117.7365 66.1103,115.6975 62.5643,115.7535 C56.7423,115.8445 50.9273,116.4645 45.2063,117.6045 C47.4653,116.9505 49.7243,116.2955 51.9833,115.6415 C52.6053,115.4615 53.3283,115.2975 53.8503,115.6975 C54.3723,116.0975 54.1633,117.2545 53.5283,117.1345 C51.5593,111.4795 53.3933,105.9665 54.8513,100.4635 C55.3103,98.7305 56.0283,96.7185 57.6853,96.2855 C57.0273,96.6655 56.3263,96.9655 55.6013,97.1755 L66.7093,90.2345 C64.7673,87.5335 62.6143,85.0005 60.2813,82.6695 C60.6653,83.2525 61.0503,83.8355 61.4353,84.4185 C64.5673,81.1205 68.7873,77.9455 71.3963,74.3155 C73.8843,70.8545 74.5533,65.8115 74.7133,61.6115 C74.7683,60.1975 77.4733,49.4055 77.6873,49.6015 C77.3733,49.3145 77.0593,49.0275 76.7453,48.7405 C77.3643,48.5825 77.8213,47.9005 77.7553,47.2325 C76.9013,47.5135 76.0473,47.7955 75.1933,48.0765 C75.2633,47.3635 75.3333,46.6505 75.4043,45.9365 C73.7853,46.6105 72.5293,48.8045 71.3063,50.0405 C70.9003,50.4505 71.1123,51.1555 71.3033,51.7125 C72.7313,55.8755 71.3743,61.4025 70.5183,65.5595 C69.6693,69.6795 66.9103,73.4785 63.8183,76.0355 C61.0033,78.3635 54.4653,82.3785 50.5353,81.4605 C44.9143,80.1485 48.8663,74.7755 51.9843,73.1055 C54.2603,71.8865 56.5353,70.6675 58.8103,69.4485 C58.7653,69.8975 58.7193,70.3465 58.6723,70.7955 C58.7853,68.0445 60.1003,65.3635 62.2063,63.5905 C61.4803,63.5675 60.7513,63.9015 60.2943,64.4665 C61.9753,60.1895 62.8753,55.4665 61.9043,50.9745 C60.9323,46.4835 57.8363,42.2905 53.4693,40.8605 C49.5033,39.5625 44.6343,40.4415 41.5683,37.6093554 C43.0513,37.5675 44.4753,38.7415 44.7133,40.2065 C39.0783,40.6045 32.9123,41.2355 28.9403,45.2535 C26.7113,47.5105 25.2563,50.7635 22.3023,51.9195 C23.3893,51.1585 24.9143,51.0775 26.0753,51.7205 C22.1813,55.9675 26.8723,64.1075 22.7293,68.1135 C23.4953,67.5305 24.4323,67.1745 25.3913,67.1025 C26.3523,69.7185 27.5273,72.4155 29.7453,74.1045 C34.2493,77.5355 41.8383,75.9405 45.0723,80.5885 C41.5773,81.0405 38.3333,80.2685 34.9473,81.0925 C31.0863,82.0325 27.3463,83.3505 23.3303,83.4735 C22.0573,83.5125 20.7533,83.4885 19.5553,83.0565 C17.3603,82.2645 15.8113,80.1395 15.3173,77.8585 C14.5303,74.2235 16.4843,71.4145 17.0773,67.9945 C17.4703,65.7275 16.7653,63.9385 19.0083,62.3715 C18.6533,62.3675 15.7893,63.1725 16.2513,63.8995 C15.7443,63.1005 16.1793,61.1895 15.9533,60.1575 C15.6393,58.7265 15.3263,57.2945 15.0123,55.8635 C14.8223,57.2995 14.6323,58.7365 14.4413,60.1725 C13.6303,60.4695 12.7983,59.7895 12.2633,59.0805 C11.7273,58.3725 11.2113,57.5255 10.3763,57.3115 C10.9653,58.3365 11.4903,59.4035 11.9443,60.5025 C12.0043,60.6475 12.0643,60.7995 12.0623,60.9585 C12.0543,61.4725 11.3963,61.7175 10.9433,61.5295 C10.4903,61.3425 10.1823,60.9055 9.8223,60.5585 C9.2923,60.0475 8.6113,59.7135 7.8983,59.6155 L9.8013,62.3785 C10.1603,62.8995 10.4623,63.7565 9.9293,64.0705 C8.8823,63.4595 7.7043,63.0805 6.4973,62.9685 C7.9963,63.8265 12.2563,66.3005 12.7143,67.9705 C13.1313,69.4955 11.5233,71.8145 11.2543,73.3165 C10.9153,75.2055 10.9833,77.1725 11.6743,78.9805 C13.1743,82.9085 17.3083,85.3575 21.4703,85.9615 C22.3913,86.0955 23.4983,86.2775 23.8543,87.1385 C24.3983,88.4575 23.3073,91.2845 23.0393,92.6485 C26.6313,93.6825 27.1803,98.7375 26.9993,102.6575 C26.6893,109.4045 25.8403,116.0825 25.5003,122.7865 C26.9363,122.8315 28.3773,122.6855 29.7793,122.3545 C28.0603,123.6355 26.2513,124.7805 24.3723,125.7795 C22.9253,126.5505 26.0803,147.0145 26.7913,149.2695 C28.8693,155.8565 31.8733,161.5015 33.6233,168.4215 C34.7233,169.1055 35.5273,167.1365 35.4613,165.7915 C35.1253,158.9575 34.6863,152.8105 36.3043,146.1285 C37.3353,141.8655 40.6063,134.2185 45.3313,133.3135"/>
  </g>
</svg>
