<svg xmlns="http://www.w3.org/2000/svg" xmlns:xlink="http://www.w3.org/1999/xlink" width="125" height="184" viewBox="0 0 125 184">
  <defs>
    <polygon id="painting-a" points="0 .758 1.188 .758 1.188 1.758 0 1.758"/>
    <polygon id="painting-c" points=".978 .236 75.643 .236 75.643 30.62 .978 30.62"/>
    <polygon id="painting-e" points=".538 .55 68.629 .55 68.629 151 .538 151"/>
  </defs>
  <g fill="none" fill-rule="evenodd" transform="translate(7 9)">
    <g transform="translate(0 20.764)">
      <mask id="painting-b" fill="#fff">
        <use xlink:href="#painting-a"/>
      </mask>
      <path fill="#ECBA1D" d="M1.1499,0.8861 C1.0969,0.6651 0.1919,1.5371 -0.0001,1.6611 C0.4529,1.7451 1.3879,0.6621 1.1499,0.8861" mask="url(#painting-b)"/>
    </g>
    <path fill="#ECBA1D" d="M5.3599 21.7893L4.9909 22.1473C5.3709 21.9213 5.7389 21.6963 6.1109 21.4473 5.8599 21.5723 5.6129 21.6803 5.3599 21.7893M7.4966 23.3615C8.4476 21.4325 6.5116 23.1565 6.5596 22.2235L6.7876 21.7865 5.5846 23.0375C5.9086 23.1095 6.3906 23.0285 6.7796 23.0065 7.1786 22.9695 7.4856 23.0015 7.4966 23.3615M6.519 28.1457C6.82 27.3607 7.177 27.6827 6.297 27.7317 6.287 27.8297 6.271 27.8807 6.257 27.9507 6.324 27.9717 6.406 28.0177 6.519 28.1457M6.2573 27.9504C5.9333 27.8454 6.1133 28.6674 6.2573 27.9504M7.8276 28.2253C7.5936 28.3933 7.3546 28.5433 7.1136 28.7003 6.9756 29.1833 7.2896 29.4673 7.0016 29.7213 7.5966 29.5443 7.7046 29.0553 7.8276 28.2253M8.8413 26.966L8.5203 27.168C8.4663 27.37 8.4883 27.459 8.8413 26.966"/>
    <path fill="#ECBA1D" d="M7.8276 27.5749C8.0616 27.4499 8.2926 27.3109 8.5206 27.1679 8.6126 26.8299 8.9076 26.2019 8.2326 27.3029 8.5376 26.7449 8.1996 27.2629 7.8276 27.5749M7.7412 27.1633C7.7412 26.6383 7.6292 26.2493 8.3172 25.7723 7.5252 25.6883 6.8872 27.0563 7.7412 27.1633M8.7739 21.5481L8.9039 20.8891 8.3389 21.3821C8.6189 21.1371 8.4309 22.1261 8.7739 21.5481M9.853 30.258C10.031 29.838 10.133 29.069 10.308 28.512L9.844 28.9C9.878 29.244 10.061 29.615 9.853 30.258M10.3081 28.5119L10.9831 27.9219C10.6541 27.7069 10.4591 28.0319 10.3081 28.5119M9.8872 24.8288C9.4632 25.2368 9.0242 25.6538 8.5732 26.0318 9.0682 25.6678 9.5482 25.2578 10.0102 24.8588L9.8872 24.8288z"/>
    <polygon fill="#ECBA1D" points="11.53 30.866 10.973 31.802 11.875 30.405"/>
    <path fill="#ECBA1D" d="M12.6958 31.0002C12.2938 31.8022 12.5938 32.4942 12.2628 32.9692 12.6208 32.8932 13.0648 32.2242 13.4448 31.6192 13.1148 31.9302 12.8598 31.7722 12.6958 31.0002M14.041 30.7453C13.877 30.9233 13.672 31.2623 13.445 31.6193 13.621 31.4523 13.812 31.1973 14.041 30.7453M11.604 28.3747C11.552 28.6467 11.394 29.3517 11.544 29.7137L11.758 28.4407C11.711 28.4207 11.658 28.3977 11.604 28.3747M11.7651 28.3996L11.7581 28.4406C11.9241 28.5186 12.0361 28.5816 12.0841 28.6106 12.0441 28.5846 11.9481 28.5206 11.7651 28.3996M11.5654 28.3576C11.5794 28.3646 11.5894 28.3706 11.6044 28.3746 11.6264 28.2506 11.6304 28.2076 11.5654 28.3576M10.4077 26.3191C10.9067 25.7451 11.6027 25.1741 11.5767 24.0051 11.1077 24.7661 11.1367 25.4441 10.4077 26.3191M11.8667 26.7683L11.5557 26.3473C11.4507 26.6693 11.3657 27.1633 11.1337 27.4583L11.8667 26.7683z"/>
    <polygon fill="#ECBA1D" points="12.19 26.447 11.867 26.768 11.985 26.924"/>
    <path fill="#ECBA1D" d="M13.5386 29.4021C13.8556 28.9021 14.0666 28.9021 14.3146 28.8661 14.1226 28.5651 13.9046 28.3761 13.6676 28.3231 13.5396 28.7081 13.2596 29.3841 13.5386 29.4021M12.6992 28.8215C12.7202 28.7975 12.7402 28.7875 12.7602 28.7625 12.7632 28.6505 12.7512 28.6115 12.6992 28.8215M16.5483 29.2741C16.5473 29.2021 16.5463 29.1151 16.5453 29.0391L16.5063 29.2571 16.5483 29.2741zM13.6831 28.0822C13.5631 27.7992 13.3821 28.0822 13.1781 28.4362 13.3471 28.3482 13.5101 28.2972 13.6671 28.3232 13.7251 28.1502 13.7561 28.0352 13.6831 28.0822M14.8169 30.2912C14.7679 30.0092 14.7009 29.7712 14.6259 29.5392 14.6399 29.9592 14.7189 30.6122 14.8169 30.2912M12.731 29.1228C12.716 29.1398 12.702 29.1598 12.688 29.1698 12.679 29.4538 12.706 29.3208 12.731 29.1228M12.731 29.1228C12.877 28.9728 13.033 28.6878 13.178 28.4358 13.041 28.5028 12.901 28.6058 12.76 28.7628 12.759 28.8568 12.747 28.9968 12.731 29.1228M18.187 21.1818C18.035 22.3578 17.495 23.4078 17.351 22.0978 16.907 22.9238 16.483 26.8218 16.545 29.0388 16.628 28.5268 16.703 28.0538 17.186 27.4048 17.12 26.7498 16.548 25.7898 17.018 24.7718 17.577 24.2258 17.348 25.2358 17.512 25.8888 17.504 24.3968 18.368 23.8198 18.482 21.6408L18.022 22.3588C18.057 22.0218 18.252 21.5008 18.187 21.1818"/>
    <path fill="#ECBA1D" d="M15.7715 28.7907L15.5755 28.9077C15.7365 29.1447 15.7965 29.6357 15.9265 30.6007 16.3135 30.0777 16.4315 29.6467 16.5065 29.2567L15.6835 28.9557 15.7715 28.7907zM14.8042 28.7761C15.1962 27.5361 15.6732 27.0581 15.7002 25.6441 15.2312 25.6541 15.1732 26.6391 14.7732 27.1301 15.6162 26.9891 14.3972 27.7841 14.8262 28.6301 14.6232 28.8101 14.4632 28.8431 14.3142 28.8661 14.4302 29.0521 14.5342 29.2751 14.6252 29.5391 14.6242 29.5081 14.6232 29.4851 14.6212 29.4561L14.6172 29.4591C14.6182 29.4511 14.6192 29.4481 14.6212 29.4401 14.6172 29.2741 14.6252 29.1751 14.6472 29.2761 14.6532 29.2601 14.6642 29.2571 14.6692 29.2541 14.7102 29.0781 14.7572 28.9281 14.8022 28.7831 14.9872 29.0891 14.7762 29.1231 14.6692 29.2541 14.6542 29.3141 14.6382 29.3751 14.6212 29.4401L14.6212 29.4561C14.9472 29.2821 15.2632 29.0921 15.5752 28.9071 15.4332 28.6991 15.2152 28.7021 14.8042 28.7761M12.9087 21.5295C12.8877 21.6435 12.8557 21.7305 12.8257 21.8195 12.9207 21.6845 12.9717 21.5885 12.9087 21.5295"/>
    <path fill="#ECBA1D" d="M12.9048 22.3576C12.7988 22.5106 12.5858 22.9836 12.4738 22.8026 12.4728 22.3896 12.6878 22.2206 12.8258 21.8186 12.6228 22.1096 12.1758 22.5706 12.2578 23.2676L12.3648 23.1196C12.4728 23.6306 12.3338 25.2916 12.2318 25.4436 12.5118 24.3096 12.7018 23.4966 12.9048 22.3576M13.7642 25.2639C14.0212 25.1219 14.2732 24.9639 14.5202 24.8019L14.4952 23.6479 14.3442 24.3029C14.0822 23.9589 13.9412 24.7759 13.7642 25.2639"/>
    <polygon fill="#ECBA1D" points="16.539 29.921 16.259 31.262 16.918 29.4"/>
    <polygon fill="#ECBA1D" points="17.454 29.864 17.291 31.041 17.608 30.357"/>
    <path fill="#ECBA1D" d="M54.3257 6.0295L54.4207 5.6635C54.3627 5.7825 54.3357 5.9045 54.3257 6.0295M53.0825 6.2712L53.2005 6.8452C53.1755 6.5182 53.1395 6.2822 53.0825 6.2712M37.27 27.0988C37.835 28.0828 38.628 29.6368 38.194 28.3728L37.727 27.1568C37.632 27.4308 37.46 27.3318 37.27 27.0988M45.9453 15.8039C45.8823 15.6919 45.8143 15.5729 45.7483 15.4549 45.8473 15.8929 45.9403 16.2999 46.0263 16.6789 46.0013 16.4079 45.9743 16.1139 45.9453 15.8039M44.2729 10.6814L44.8459 11.3674C44.6819 11.1144 44.4949 10.8844 44.2729 10.6814M61.2065 3.4182L61.2905 2.0732C60.9385 2.1222 61.1655 2.7682 61.2065 3.4182M26.2764 29.2649C26.5684 29.7359 26.7814 29.9209 26.9514 29.9599 26.5684 29.2609 26.2104 28.1809 26.2764 29.2649M57.1968 19.5544C57.2218 19.3034 57.1948 19.0364 57.1228 18.7564 57.0898 18.9944 57.1008 19.2494 57.1968 19.5544"/>
    <path fill="#ECBA1D" d="M27.6172 29.8567C27.5572 29.7337 27.5072 29.6747 27.4502 29.5727 27.3152 29.8127 27.1692 30.0117 26.9512 29.9597 27.2332 30.4817 27.5272 30.7837 27.6172 29.8567M87.064 8.466C87.059 8.527 87.069 8.562 87.057 8.632 87.132 8.473 87.112 8.454 87.064 8.466M86.8452 23.1594C86.7562 23.1954 86.6792 23.1474 86.5952 23.1204 86.5842 23.2184 86.6502 23.2434 86.8452 23.1594M21 30.6408C20.81 30.7218 20.969 30.7838 21 30.6408M20.2524 25.4753C20.2914 25.3293 20.3234 25.1443 20.3364 24.8443 20.3144 25.1573 20.2844 25.3553 20.2524 25.4753M27.8311 21.6091C27.8311 21.6091 27.8391 21.6101 27.8441 21.6111 27.7551 21.3691 27.7711 21.4151 27.8311 21.6091M20.7256 30.0432C20.7926 30.2042 20.8716 30.3392 20.9596 30.4352 20.9216 30.3332 20.8506 30.2062 20.7256 30.0432M20.7539 30.6589C20.6899 30.5989 20.6389 30.5659 20.5909 30.5299 20.5629 30.7459 20.5829 30.8829 20.7539 30.6589"/>
    <path fill="#ECBA1D" d="M21.2627 30.5749C21.1557 30.5949 21.0547 30.5309 20.9597 30.4349 20.9957 30.5239 21.0107 30.5969 20.9997 30.6409 21.0547 30.6209 21.1347 30.5979 21.2627 30.5749M73.0649 8.1286C73.0709 8.1696 73.0749 8.2026 73.0819 8.2546 73.3169 7.7386 73.2349 7.8156 73.0649 8.1286M36.6772 13.0559C36.6752 13.0709 36.6832 13.1039 36.6822 13.1209L36.7172 13.1569 36.6772 13.0559z"/>
    <path fill="#ECBA1D" d="M36.8369,11.9694 C37.1709,13.5704 36.9859,13.4244 36.7169,13.1564 L38.1209,16.6404 L36.8369,11.9694 Z"/>
    <g transform="translate(17 .764)">
      <mask id="painting-d" fill="#fff">
        <use xlink:href="#painting-c"/>
      </mask>
      <path fill="#ECBA1D" d="M56.0903,17.2313 L56.0703,16.8453 C56.3323,16.4653 56.2143,16.8273 56.0903,17.2313 M5.3663,28.0553 C5.3113,28.2583 5.3203,28.4583 5.3523,28.6603 C5.3853,28.2933 5.5193,28.2653 5.6783,28.3643 C5.6203,27.9863 5.5363,27.7273 5.3663,28.0553 M5.9953,28.6633 C5.9993,28.6383 6.0023,28.6203 6.0063,28.5913 C6.3263,29.1383 6.2123,28.9213 5.9953,28.6633 M27.2243,12.7043 C27.1363,12.2263 27.3363,12.4063 27.6553,12.8743 C27.5993,13.0203 27.4723,13.0083 27.2243,12.7043 M34.4543,6.6163 C34.4813,6.2923 34.4493,5.3233 34.7653,6.1213 C35.0903,7.7543 34.7783,7.0193 34.4543,6.6163 M40.2803,4.2523 L39.6303,3.1793 C39.7883,1.1973 40.3213,1.7783 39.5923,0.2353 C40.2753,4.2323 37.9513,0.9923 38.7483,4.9893 L38.2913,4.2123 C38.3783,4.2333 38.3393,3.9963 38.4263,4.0193 C37.4613,2.2343 38.6733,6.9813 37.8873,6.5613 C37.5833,6.3073 37.2833,5.7763 37.3253,5.2653 L37.0583,6.3773 C36.8923,6.3383 36.7543,5.6433 36.9213,5.6803 L36.2263,6.1983 L36.2003,6.0813 C36.2513,6.7293 36.2593,7.7483 36.2503,8.1853 C35.9053,7.6713 36.2343,7.7423 36.0533,7.2643 L35.8933,8.3283 C35.4393,7.3553 35.5183,6.2753 35.8563,6.3423 C34.3893,2.5283 35.7643,7.4143 34.2763,5.3753 L34.5363,4.7593 C33.6463,2.6113 33.5563,3.5133 32.6833,2.2683 C33.0183,2.9543 34.6163,5.4823 34.4363,6.5943 C34.2233,6.3363 34.0103,6.2473 33.9993,7.1063 C33.5863,5.7183 33.4453,6.1313 33.1683,6.2993 L32.6323,4.4573 C32.4613,5.0863 32.7743,6.0123 32.8383,6.8953 C32.4213,6.8213 31.9043,5.4293 31.4423,4.2623 C30.7773,4.1583 32.5533,6.4073 31.9903,6.9703 C31.2993,6.4243 31.2033,7.2803 31.0123,8.5513 C30.4773,8.0303 30.6973,7.4183 30.4073,6.9363 L30.6043,8.4823 C30.5223,8.4703 30.3943,8.0173 30.3293,7.7893 C30.2773,8.4313 30.9213,9.6123 30.7193,10.2333 C31.3083,12.2663 28.9543,7.5763 29.2783,10.0053 C28.9863,9.5303 28.9443,8.8763 28.6653,8.1873 C28.5543,9.8943 28.4943,9.4543 28.7003,11.6333 L27.8453,10.6033 C28.6483,11.8453 28.8183,13.5973 28.9453,15.0403 C29.2923,15.6543 29.5923,16.1933 29.7533,16.4443 L29.5503,17.6123 C29.3763,17.3403 29.2073,16.7003 29.0263,15.9143 C29.0453,16.0803 29.0643,16.2413 29.0803,16.3833 C28.6413,15.7883 28.3653,14.7103 28.1443,13.6503 C28.3403,13.9873 28.5453,14.3413 28.7483,14.6903 C28.4893,13.5443 28.1833,12.2833 27.7743,11.2363 C27.8123,11.4573 27.8053,11.6623 27.7643,11.7913 C27.6933,11.4803 27.6203,11.2053 27.5393,11.0313 C27.4513,10.8483 27.5363,11.2693 27.6103,11.7623 L26.7543,9.7973 L27.0123,10.6083 L25.8113,9.6183 C26.0263,11.8333 26.6633,14.9763 26.1433,16.1073 C25.8073,14.5603 25.3043,13.6863 24.6743,11.9373 C25.5783,13.7013 25.0283,10.9173 25.5953,11.1343 C25.3003,11.0233 25.0443,10.1723 24.9953,9.8613 L24.8453,11.8233 C24.3393,10.3893 24.2903,10.8133 23.8733,10.2963 C25.0583,13.0623 23.9933,12.3833 24.0053,13.3603 C23.6393,12.4193 23.3593,11.4253 23.8173,11.5173 C22.6263,9.5443 24.4953,15.0263 23.4283,13.3703 C23.5113,13.3133 23.6133,13.4403 23.4743,12.9463 C23.5683,13.8663 22.8003,13.3913 22.6233,12.5193 L22.7073,12.4663 C21.9733,12.3603 20.8683,13.1043 21.6263,15.5443 C21.5103,15.2353 20.6773,12.6163 20.5403,12.1183 L22.3013,20.6043 C21.6733,18.5013 19.5943,13.7013 19.6823,12.3563 C19.4363,12.1143 19.1443,11.8293 19.1013,12.6593 C19.2973,12.9223 20.3793,15.5713 20.3113,15.8073 C19.1483,13.6243 19.6273,14.6603 18.5113,12.8423 C18.8073,13.2383 19.7523,16.5463 19.4803,16.5233 C19.3523,16.0233 18.3793,13.3143 18.3483,12.9473 L18.8453,16.3403 C18.7983,15.7143 17.9683,13.6193 17.5433,12.7563 C17.8083,13.3673 17.0383,12.8603 16.9953,13.2203 L17.4743,13.8903 C16.6893,13.6023 18.2893,18.6063 17.5663,18.6493 C17.4433,17.9573 16.4863,14.4923 16.0423,14.1873 C16.4133,15.8833 17.8013,22.3503 17.5173,23.8063 L17.1233,22.8923 L16.9473,24.1113 C16.5693,21.5123 15.8323,16.0453 15.6003,13.8853 C15.1393,13.2083 15.1953,12.7973 14.8763,12.9803 C14.4943,12.1243 14.6603,11.5853 14.7463,11.4983 L13.7953,11.1483 C14.3923,13.0773 13.7443,13.2653 14.2223,14.8763 L14.5273,12.6173 C15.1403,14.5353 15.6043,18.2613 14.8833,18.0963 C14.5193,17.3653 14.0483,14.6013 13.8543,13.9573 C13.9663,14.6473 13.6513,15.3933 13.4703,14.9323 L13.4363,13.8213 C12.9303,13.1823 13.5913,16.5433 12.7253,14.7753 C12.5573,14.6843 11.7143,12.3493 11.9763,13.5143 C12.7253,15.7003 14.5053,22.5933 14.7443,24.3143 C14.6463,24.1793 13.4133,22.3743 13.0013,21.3053 C12.3683,19.6033 12.3923,17.0273 11.8443,15.5653 C11.9603,16.1043 11.9883,16.7973 11.9853,17.0233 C11.7383,16.5983 11.6653,15.3463 11.4153,15.6603 C11.8063,17.6673 10.7523,15.6153 11.6413,17.3773 C11.4563,18.0093 11.2263,17.0303 10.8883,17.1893 C11.2743,18.4593 11.4443,21.6643 11.1993,22.3073 C11.1233,21.7923 10.9233,21.1423 10.8313,20.8453 C10.1213,20.8103 9.6073,19.9213 8.9913,20.0023 C8.8603,19.5213 8.4863,18.9703 8.4863,18.0803 C8.4533,18.4513 8.4683,19.1493 8.2883,19.2263 C7.7023,17.5263 8.6593,18.8933 8.1043,16.8283 C8.2453,18.0053 7.8573,18.5273 7.6803,19.2943 C7.9763,21.1153 8.3523,19.5523 8.5043,18.7823 C8.8603,21.2813 8.7473,24.0023 8.1203,25.2433 C7.5893,25.9283 7.6993,23.6413 7.6333,24.0103 C6.5463,23.6793 7.0213,28.4933 5.9353,26.7363 C5.4893,25.1473 5.7803,23.5313 5.6453,22.3743 C6.0533,21.7373 6.3863,23.3553 6.6993,23.2713 L6.2703,22.5333 C6.3803,21.9893 6.6373,21.5663 6.8343,22.0223 C6.4553,20.6013 5.1033,21.8483 4.3303,20.5083 C4.2003,21.0523 3.9573,21.6013 4.0643,22.2543 L4.3143,22.0313 C4.5553,23.3353 3.8213,23.8263 4.1493,24.4373 C3.7933,25.3433 3.3163,26.7703 2.8073,26.0213 L2.7953,24.1783 C2.7773,24.7203 3.0833,25.2833 3.2473,24.7283 C2.9833,25.5433 2.6033,22.2103 2.2333,24.5953 L2.5233,25.8923 C2.1033,26.7883 1.4443,28.7073 0.9783,28.0813 C1.0473,29.9163 1.1063,27.8843 1.2993,30.0313 C1.1893,27.3743 2.6343,30.2353 2.2953,27.4273 C2.5323,29.9193 2.8693,28.5063 3.3053,30.6203 C3.3053,30.0133 3.1583,29.4563 3.5913,29.7653 C3.6143,29.5883 3.6653,29.3643 3.6963,29.2333 C3.7103,29.2493 3.7143,29.2603 3.7253,29.2793 L3.7023,29.2073 C3.7233,29.1163 3.7253,29.0973 3.6943,29.1813 C3.5953,28.9143 3.5203,28.5933 3.4943,28.2543 C3.7363,26.8663 4.3763,26.9273 4.5843,26.1943 C4.8233,26.4793 4.4903,26.8923 4.6253,27.5373 L4.9363,26.4533 C4.9823,27.8003 5.6493,28.6773 5.0683,29.4793 L5.6143,29.5273 C5.9613,30.2803 6.4323,30.5433 6.6733,29.9633 C6.9553,30.2393 7.2153,28.4363 7.0693,29.5023 C7.3333,29.2103 7.5883,28.9063 7.8373,28.6003 L7.8763,28.9353 C8.2923,28.9753 8.6713,28.3873 9.0423,28.0563 C9.4183,27.7233 9.8253,27.6713 10.4493,28.8083 C10.6623,28.4333 10.8613,27.9823 11.3593,28.2943 L11.6423,29.4303 C11.9043,28.9763 12.8593,30.3823 12.7773,29.1633 C13.7383,32.1623 14.5733,29.5213 15.2363,29.9113 L14.9143,28.4243 C15.3223,28.4143 15.5973,27.9023 15.9223,27.1933 L15.5643,25.8963 C15.6913,24.7343 16.8323,26.5663 17.4243,26.2493 C17.5203,26.7563 17.3233,26.6713 17.1293,26.4033 C18.7073,29.1093 18.1023,23.8433 19.3723,25.7583 C19.3933,25.2393 19.5603,25.3613 19.7753,25.6483 C19.7613,25.6563 19.7543,25.6843 19.7553,25.7293 C19.7773,25.7393 19.8033,25.7333 19.8273,25.7233 C19.9683,25.9213 20.1243,26.1553 20.2703,26.3353 C20.1033,26.0443 19.9573,25.8083 19.8623,25.7073 C19.9813,25.6413 20.1243,25.4203 20.2093,25.0413 L20.7273,26.3923 C20.7363,26.3693 20.7493,26.3683 20.7583,26.3393 C21.1073,26.7883 20.6993,25.6413 20.2713,24.6363 C20.2933,24.3803 20.2923,24.0813 20.2513,23.7283 C21.1163,25.8993 20.4963,22.8313 21.4673,25.1263 C21.2113,23.9323 22.1013,23.9483 21.3773,21.4993 C21.4903,21.8123 21.5933,21.9433 21.5033,21.9963 C21.7963,22.2043 22.0923,22.4103 22.0383,21.6693 L22.7203,23.3773 L22.3513,20.8953 C22.9813,21.8613 23.3063,22.4343 23.5103,23.8623 C23.4233,21.5863 23.7543,22.9063 23.5683,20.6853 L23.9393,21.8143 C24.1153,21.7033 23.8833,20.0973 24.3293,20.9803 C25.5283,22.9553 26.5243,20.5143 28.3173,22.0933 C26.9053,18.8863 29.3513,23.3833 28.4593,20.8233 C28.8063,21.5763 29.1143,21.9603 29.1903,22.6993 C29.4533,21.7363 30.4553,23.6313 30.0453,21.3473 C30.3923,22.1053 30.3453,22.5293 30.5693,22.9703 C30.5523,22.7853 30.4923,22.2323 30.7173,22.6763 C30.9403,23.1193 30.8773,23.3563 30.9173,23.7253 C31.4083,23.4003 30.5953,20.9833 29.8193,18.7203 C30.4853,19.6843 30.5673,19.4843 30.2383,17.9353 C30.6003,18.6363 31.0383,19.3493 30.7923,19.7363 C31.0253,19.7743 32.3473,20.3933 31.7233,18.5843 C31.9453,19.0223 32.0373,18.6263 32.0143,18.3993 C32.4803,18.3583 32.5733,18.5083 32.9353,18.1913 L32.7163,17.9353 C32.1293,15.6903 32.9013,17.3253 33.1503,16.9433 L33.2163,17.1713 C34.5253,18.4943 33.3033,16.3003 34.6653,17.8573 L34.1763,16.5043 C33.2923,13.5373 35.4233,18.0173 35.4993,16.7473 L35.0903,16.0163 C35.0263,14.9183 37.0233,19.8263 37.3543,20.1293 C37.4833,20.3723 37.4013,20.5663 37.3893,20.7773 C38.5173,22.3463 36.9183,18.9513 37.2513,18.3943 C37.6243,19.3443 37.8823,20.9043 38.2353,20.9963 C38.6003,21.7473 38.2073,17.5533 39.1453,19.3333 C38.8503,18.6003 38.5483,17.8713 38.6083,17.2463 C38.8793,16.8863 40.2303,19.8833 39.9153,17.4113 C40.0083,17.6083 40.0733,17.8033 40.1223,17.9923 C40.2163,17.2983 40.6753,16.7773 40.5353,15.4343 C41.2063,17.8313 41.4443,17.1603 41.6733,16.4403 C41.8993,15.7173 42.1103,14.9633 42.5373,17.2193 L43.2443,16.8513 L43.3053,17.3143 C43.8293,17.5323 43.8193,16.4183 43.8303,15.3003 C43.9923,15.5883 43.9723,16.0263 43.9993,16.2653 C44.8503,17.0673 44.8453,16.8923 45.1953,14.5433 L45.4263,16.0133 C45.4583,15.5753 45.7833,16.1173 46.1453,16.5573 C46.5123,17.0073 46.9073,17.3463 47.1933,16.4563 C47.1963,16.6243 47.2013,16.9133 47.1613,17.1263 C47.4883,16.2253 48.0163,17.2203 48.4193,17.7933 C48.8283,18.3563 49.1343,18.4623 49.2553,15.7513 L49.7823,14.4113 C49.0733,13.9893 49.8923,12.0583 49.5973,11.1583 C49.9033,10.8453 50.3413,12.8093 49.9843,13.0783 L49.9313,12.8063 C49.7833,15.6263 50.8013,13.8283 50.7313,15.7483 C52.0903,15.6403 53.2473,17.3163 54.4003,17.5843 L54.5363,15.3903 L54.9603,15.5663 C55.0063,16.0863 54.8723,17.2843 54.5863,17.1603 C54.5723,18.4043 55.2323,16.1943 55.3183,15.7283 C55.7813,16.7063 54.7123,18.2203 54.8903,18.3043 L55.1513,18.1813 L55.1363,17.9183 C55.4643,17.0643 55.6333,16.1293 55.9853,16.2973 C56.1453,16.7683 55.8773,17.6503 55.9523,17.7493 C55.9253,17.9023 55.9433,17.9793 56.0773,17.8333 L56.5633,18.1063 L56.6703,16.3643 C57.0683,15.5623 57.1663,16.5593 57.2813,14.5743 C57.0763,17.6263 59.1033,16.0633 59.1153,17.0633 C59.7553,15.9253 60.0963,16.0363 60.4673,16.2903 C60.4633,15.9183 60.9203,14.0193 61.2303,14.3543 C59.9863,18.1753 61.4053,16.2363 60.8183,19.0813 C61.1473,17.1763 61.9193,18.9263 62.3863,16.2213 C62.5783,16.6223 61.9323,17.6513 61.8443,18.6213 C63.0233,17.4083 62.9593,20.0713 63.9043,19.9203 C64.1183,19.4383 64.2853,18.6333 64.7613,17.9813 L64.1653,20.5903 C64.4163,20.4133 65.5173,17.8543 65.0753,19.6523 C65.2143,19.2303 65.4193,18.5903 65.5973,18.4813 C65.8593,20.0333 66.8623,19.8833 67.7583,20.1063 C68.6543,20.2843 69.4533,20.8123 68.8983,23.2933 C69.2413,22.3093 69.4223,22.2983 69.5953,22.3563 C69.6253,22.0903 70.2863,21.2513 70.6453,20.6323 C70.5123,21.3203 70.3543,22.0233 70.1923,22.7073 C71.3893,21.1203 70.9073,23.0193 72.0383,21.4923 L71.6483,21.6443 C73.1853,19.9753 74.0393,17.2573 75.6433,14.8723 C74.7663,15.8183 75.0603,14.8823 75.2243,14.0263 C75.3963,13.1693 75.4153,12.4183 74.1723,13.7933 C74.3403,13.2123 74.7653,13.0693 75.0383,12.4573 C74.2423,13.4163 73.9343,13.5313 73.8673,12.8493 L74.0603,12.6093 C72.9433,12.2793 73.0933,11.0353 72.2933,9.6813 L71.7373,10.9943 C71.5813,10.6933 71.7243,10.2753 71.7633,9.8993 C70.5253,11.6863 72.4083,10.3533 71.0773,12.3483 C72.0493,9.5863 69.3913,11.4953 70.5333,8.3983 C70.1463,8.1973 69.9723,9.9523 69.5923,9.7523 L69.8483,8.8943 L69.2863,9.9013 C69.1093,9.6223 69.4153,8.5453 69.7013,7.8493 C69.7303,7.9583 69.9683,7.7313 70.0643,7.7023 C70.1273,6.5923 68.9423,7.6213 68.9583,7.2583 L69.1403,7.9273 C67.7483,8.2263 66.7643,6.6453 65.1133,7.9853 L64.9823,8.6483 C63.7983,9.5773 64.5623,7.7443 63.4983,8.0163 L63.5763,7.8723 C63.2063,8.4603 62.8833,8.7043 62.6623,8.5683 C63.1053,7.8733 62.6453,6.9853 63.1803,6.2283 C61.9213,7.2743 62.4443,7.1163 61.2413,9.3773 L61.3843,8.2663 C60.9423,9.1903 60.7993,9.7013 60.3063,9.8713 C60.8853,9.0353 60.4173,8.1493 61.1193,7.0273 C60.6863,4.4263 59.1873,9.1203 59.4743,5.5403 C58.4343,8.4673 59.9533,7.3893 59.5763,7.9833 C59.5603,9.0083 58.7533,10.1613 58.5393,9.7993 C58.2753,9.6713 58.7963,5.8233 57.9833,5.7533 C58.0583,5.7803 58.1033,5.5513 58.1793,5.5773 C58.0113,4.7543 57.4303,6.5313 57.2693,5.2123 C56.7853,7.0203 56.8133,5.0303 56.4133,7.3703 L57.1953,6.9413 C56.6863,7.4913 55.9443,10.1693 55.4993,8.7683 C55.6093,8.2983 55.8823,7.6963 56.0653,7.3643 C55.9653,6.6483 55.6373,7.7813 55.5303,7.0443 C55.8883,4.6943 56.4573,6.6263 57.1593,4.9173 C57.0873,3.8843 56.0763,6.4913 56.6583,3.9753 C55.8993,7.1793 55.9043,3.4683 55.0663,5.8863 L55.2613,4.4763 C55.1493,4.6883 54.8993,5.3363 54.7473,5.2823 L55.2333,3.4803 C54.6243,4.9953 54.5003,2.0033 53.9723,2.8313 C54.8933,2.8573 54.0253,4.5513 54.3033,5.6213 C53.0733,7.4333 54.0013,1.8623 52.6613,2.4513 C52.8503,2.2633 53.2503,3.3493 52.9403,3.9883 C52.7243,3.6803 52.4413,3.1123 52.3303,2.3563 C51.4733,2.6023 52.3853,3.8253 51.9873,4.6773 C51.7883,2.9343 51.5513,5.3713 51.1913,5.9173 L51.2363,4.4703 C50.3283,3.5203 50.9173,7.4803 50.1323,6.3393 L50.5083,4.3403 L50.0673,4.8493 L50.1743,3.2053 C49.6783,4.4133 49.5433,4.0963 49.0643,3.6483 C49.1833,4.6663 49.0293,6.2763 48.6383,6.3313 C48.3463,5.4783 48.7633,4.9523 48.1943,5.1723 C48.2943,4.2643 48.4213,3.1243 48.7033,4.4513 C48.7203,3.9793 48.8183,3.5403 48.8393,3.0733 C48.5093,2.0923 48.0463,2.8673 47.8323,2.8853 C47.9183,2.9373 48.0213,3.0123 48.0783,3.2173 C47.8093,3.8933 47.5523,4.5683 47.3063,5.2443 C47.1483,4.7113 47.2303,4.2633 47.3173,3.8353 C47.1503,3.9983 47.0643,4.6743 46.8213,4.8143 C46.8203,3.6363 46.7333,2.4243 47.0813,1.8463 L46.3173,3.2073 C46.2303,2.7013 45.7883,1.8363 45.8663,1.3963 C45.3213,0.7483 44.9033,3.7403 44.2143,2.9163 C44.2063,3.1473 44.1663,3.3713 44.0563,3.5543 C43.4693,3.3583 42.7423,1.9863 42.2973,3.6773 L41.5983,1.6563 C41.1483,2.2183 42.5103,4.1963 41.7823,5.1273 C41.2983,5.8923 41.2633,3.3913 40.9493,2.8483 C40.8083,3.9523 40.7003,6.1653 39.8253,4.5783 C39.9323,4.1543 40.1373,4.4363 40.2803,4.2523" mask="url(#painting-d)"/>
    </g>
    <path fill="#ECBA1D" d="M44.4634 11.2761C44.5754 11.4961 44.6744 11.7461 44.7744 12.0001 44.7324 11.7561 44.6374 11.4921 44.4634 11.2761M61.1924 3.6667C61.2004 3.6777 61.2064 3.6717 61.2144 3.6807 61.2164 3.5927 61.2124 3.5047 61.2064 3.4177L61.1924 3.6667zM28.5034 15.6442C28.6394 15.8252 28.7484 16.0712 28.8444 16.3302 28.7694 15.9832 28.6614 15.7022 28.5034 15.6442M19.001 31.2219L19.441 30.8739C19.235 30.9319 19.18 30.6119 19.094 30.3749 19.083 30.7139 19.134 31.2079 19.001 31.2219M16.8184 21.969C16.7424 22.136 16.7184 21.971 16.6414 22.141L16.5374 22.805C16.7494 22.797 16.9734 22.284 16.8184 21.969M18.9595 26.3991C19.0185 25.1831 18.7705 25.5791 18.4975 25.7861 18.5135 25.7831 18.5285 25.7741 18.5425 25.7891 18.3145 27.4811 18.6475 26.9401 18.9595 26.3991M18.436 25.823C18.353 25.876 18.27 25.895 18.2 25.829 18.103 26.504 18.283 25.984 18.436 25.823M21.6084 29.6403C21.4764 29.3293 21.5344 31.1993 21.4564 30.7033 21.3244 32.2563 22.3244 28.8133 21.6084 29.6403"/>
    <polygon fill="#ECBA1D" points="19.07 22.386 19.036 23.89 19.254 22.691"/>
    <path fill="#ECBA1D" d="M20.814 23.572L20.456 23.147C20.454 23.399 20.403 23.546 20.341 23.657 20.567 23.713 20.816 24.018 20.814 23.572M20.3413 23.6574C20.2223 23.6254 20.1093 23.6544 20.0313 23.8984 20.0973 23.8844 20.2393 23.8384 20.3413 23.6574"/>
    <polygon fill="#ECBA1D" points="19.584 21.969 19.671 22.289 19.916 22.416"/>
    <path fill="#ECBA1D" d="M24.814 23.675L25.167 23.206C25.145 22.69 25.001 22.389 24.879 22.607 24.827 22.973 24.699 23.186 24.814 23.675M23.2974 19.6799C23.4154 19.9849 23.4474 20.3189 23.5414 20.8099L23.4094 18.9509 23.2974 19.6799zM24.2856 19.154C24.2716 18.635 24.6116 17.631 24.2016 17.789 24.2266 18.301 23.9226 18.763 24.2856 19.154"/>
    <polygon fill="#ECBA1D" points="30.213 20.486 30.124 20.532 30.84 23.503"/>
    <path fill="#ECBA1D" d="M32.9292 12.1359C32.3082 11.5639 33.3992 13.9649 32.7592 13.2079 32.8772 13.9279 33.2832 13.8249 33.3712 14.4509 33.3912 13.6459 33.6492 14.0169 32.9292 12.1359M33.3711 14.4509C33.3671 14.5779 33.3691 14.7319 33.3821 14.9339 33.3981 14.7299 33.3881 14.5789 33.3711 14.4509"/>
    <polygon fill="#ECBA1D" points="86.715 25.042 86.561 25.704 87.005 24.767"/>
    <path fill="#ECBA1D" d="M88.3931 23.4343L87.3361 25.0693 88.4691 23.7053C88.3711 23.7443 88.1811 23.8213 88.3931 23.4343M49.4702 3.8786L49.5802 4.3346C49.7762 4.8056 49.8622 4.8196 50.0332 4.8516L49.4702 3.8786z"/>
    <polygon fill="#ECBA1D" points="54.303 4.082 54.215 4.061 54.764 5.743"/>
    <path fill="#ECBA1D" d="M57.8501,1.0857 C57.6681,1.0427 57.5361,1.4637 57.3541,1.4187 C57.6711,1.0417 58.2531,3.2447 57.8501,1.0857"/>
    <g transform="translate(27 12.764)">
      <mask id="painting-f" fill="#fff">
        <use xlink:href="#painting-e"/>
      </mask>
      <path fill="#D7A341" d="M0.5381,95.2977 C2.7901,89.7827 5.5631,84.4817 8.8091,79.4857 C9.4941,79.9067 10.1791,80.3277 10.8641,80.7487 C9.4981,79.8037 8.1331,78.8587 6.7681,77.9127 C10.8471,74.0447 13.9461,69.2817 17.5131,64.9377 C20.3401,61.4957 23.6021,58.1497 27.6111,56.0987 C29.3651,55.2017 31.3941,54.9477 30.6771,52.4727 C30.1581,50.6797 28.4181,50.3597 26.7321,49.8797 C23.6551,49.0057 20.8911,47.0687 19.0181,44.4757 C19.6011,44.6037 20.1841,44.7307 20.7661,44.8577 C18.1451,42.4777 15.2421,40.4087 12.1371,38.7077 C13.5671,39.0967 15.0571,39.2667 16.5391,39.2117 C17.2881,37.6377 16.5591,35.5277 14.9991,34.7507 C15.5671,35.2017 16.4731,34.6627 16.6471,33.9587 C16.8211,33.2547 16.5161,32.5297 16.2181,31.8697 C19.1011,33.7027 22.9151,32.1107 26.2861,32.6717 C29.6581,33.2337 32.2511,35.8807 34.4811,38.4707 C35.2821,39.4007 36.0921,40.3857 36.3901,41.5747 C37.4281,45.7177 32.1961,49.1047 33.6961,53.1617 C37.9531,52.4027 41.3471,54.1267 45.4201,55.2037 C53.4281,57.3187 58.4761,50.3627 59.3751,43.4417 C59.8811,39.5397 60.3881,35.6387 60.8941,31.7367 C61.4131,27.7447 61.9131,23.5677 60.5231,19.7887 L55.2161,19.7457 C54.9231,14.1767 54.1891,8.6307 53.0221,3.1787 C54.0251,3.7127 54.7541,4.7347 54.9331,5.8577 C55.2171,4.2807 55.5021,2.7037 55.7871,1.1277 C55.6431,3.4727 55.7511,5.8337 56.1081,8.1557 C56.7211,5.6657 57.0781,3.1117 57.1731,0.5497 C56.9711,3.3787 56.7681,6.2087 56.5661,9.0377 C57.3301,6.9107 57.9061,4.7157 58.2861,2.4877 L58.2531,7.2207 C58.5531,5.4107 58.6531,3.5687 58.5511,1.7367 C58.4531,4.3777 58.3541,7.0177 58.2551,9.6577 C58.3551,7.3297 58.4551,5.0017 58.5561,2.6737 C58.3451,4.6597 58.4981,6.6827 59.0061,8.6137 C59.6081,6.7457 59.9251,4.7867 59.9441,2.8247 C59.7621,4.6847 60.0371,6.5887 60.7371,8.3227 C60.8261,6.4767 60.4831,4.6107 59.7431,2.9177 C59.6611,5.0917 59.9891,7.2807 60.7041,9.3357 C61.1051,6.9777 61.1431,4.5577 60.8171,2.1877 C60.7001,4.7617 61.1551,7.3597 62.1411,9.7407 C61.9591,7.5977 61.7771,5.4537 61.5961,3.3107 C61.6291,5.6017 61.9391,7.8877 62.5171,10.1047 C62.8781,7.6307 62.8521,5.0997 62.4401,2.6317 C62.0091,5.9817 61.9931,9.3837 62.3941,12.7367 C62.4091,10.1537 62.4231,7.5697 62.4381,4.9857 C62.3981,6.6837 62.9241,8.3897 63.9121,9.7717 C64.1541,7.5667 64.2151,5.3427 64.0931,3.1287 C64.0591,5.2847 64.3261,7.4457 64.8831,9.5297 C65.0661,7.2907 65.0031,5.0307 64.6941,2.8057 C64.5991,5.3307 65.1651,7.8777 66.3211,10.1247 C66.3591,8.1927 66.0031,6.2537 65.2801,4.4617 C65.3701,5.6017 65.7121,6.7217 66.2761,7.7157 C66.4491,6.0887 66.1851,4.4167 65.5211,2.9207 C65.3891,5.0727 65.7731,7.2547 66.6331,9.2317 C62.4531,9.4127 58.2951,10.1187 54.2901,11.3297 C58.8991,12.1427 63.7491,11.5347 68.0161,9.6097 C66.5861,7.4957 65.9761,4.8427 66.3361,2.3167 C67.4961,6.8777 68.2641,11.5387 68.6291,16.2307 C66.6631,15.3217 64.2691,16.8637 63.4661,18.8747 C62.6631,20.8847 62.9981,23.1467 63.3461,25.2837 C63.6141,26.9337 63.9231,28.6737 65.0081,29.9457 C65.3701,30.3707 65.8111,30.7327 66.1011,31.2087 C66.9371,32.5847 66.2671,34.3277 65.9251,35.8997 C65.3981,38.3147 65.7341,40.9087 66.8581,43.1097 C67.4511,44.2707 68.2691,45.3657 68.4521,46.6557 C68.6341,47.9467 67.8191,49.5127 66.5161,49.5027 C65.4501,46.5327 64.3831,43.5617 63.3161,40.5907 C65.3601,46.2837 59.6561,55.8617 55.5451,59.2897 C55.3181,59.4787 55.0741,59.6867 55.0111,59.9747 C54.9701,60.1637 55.0131,60.3587 55.0561,60.5467 L56.1291,65.2357 C55.8871,63.6897 55.6451,62.1447 55.4031,60.5997 C55.4801,62.7017 55.5571,64.8027 55.6331,66.9037 C55.6441,67.2027 55.6501,67.5187 55.4971,67.7747 C55.2881,68.1207 54.8571,68.2477 54.4681,68.3557 C53.3901,68.6527 44.6071,71.5287 44.4341,72.7387 C43.0601,82.3067 43.0001,92.0617 44.2581,101.6457 C34.4291,105.3017 23.2281,105.1177 13.5251,101.1417 C22.1141,106.1107 32.6601,107.5847 42.2821,105.1587 C42.7381,105.0437 43.2501,104.8717 43.4331,104.4397 C43.6171,104.0067 43.0711,103.4017 42.7191,103.7137 C44.1571,109.8357 45.5951,115.9587 47.0331,122.0807 C47.6351,124.6437 48.2401,127.2287 48.3001,129.8597 C48.4601,136.8637 44.7621,143.7177 45.8931,150.6317 C43.7741,144.7407 41.8371,138.7837 40.0871,132.7727 C41.1631,132.3297 42.3601,132.1827 43.5111,132.3527 C39.8591,132.3527 36.2631,132.6297 32.6321,132.6137 C31.4811,127.5187 30.7371,122.3327 30.4091,117.1207 C30.9621,117.4277 31.5151,117.7357 32.0681,118.0427 C31.2691,117.0077 29.9121,116.5297 28.6051,116.4937 C27.2981,116.4577 26.0151,116.8057 24.7541,117.1517 C26.0931,117.1227 27.4321,117.0927 28.7711,117.0637 C28.7131,121.2667 29.1681,128.3097 24.6301,130.5617 C22.5801,131.5787 20.1111,131.0147 17.9811,130.1787 C18.2981,129.6377 18.8501,130.6497 18.6471,131.2427 C16.3831,137.8287 14.1191,144.4137 11.8551,150.9997 C12.0771,150.2297 11.0371,149.4587 10.3651,149.8937 C11.4511,150.1247 11.9851,148.6267 12.0451,147.5177 C13.2081,125.7207 11.7401,103.7307 14.9701,82.1417 C14.2051,81.8087 13.6791,80.9897 13.6941,80.1547 C8.7771,84.5617 4.7881,90.2497 0.5381,95.2977" mask="url(#painting-f)"/>
    </g>
  </g>
</svg>
