<svg xmlns="http://www.w3.org/2000/svg" xmlns:xlink="http://www.w3.org/1999/xlink" width="1007" height="371" viewBox="0 0 1007 371">
  <defs>
    <polygon id="particulas-a" points="0 .19 7.949 .19 7.949 16.881 0 16.881"/>
    <polygon id="particulas-c" points=".038 .075 6.88 .075 6.88 9.797 .038 9.797"/>
    <polygon id="particulas-e" points=".115 .153 16.915 .153 16.915 10.925 .115 10.925"/>
  </defs>
  <g fill="none" fill-rule="evenodd" transform="translate(166 61)">
    <path fill="#18404D" d="M110 226.403838C116.212159 224.200728 122.448418 222.0659 128.707269 220 130.863698 222.875588 130.248959 227.442711 127.409366 229.644098 124.569559 231.845915 119.998713 231.299231 117.757077 228.48977M258.885305 218C264.134637 214.869296 266.445086 207.972519 264.060835 202.551356 261.784604 201.567825 258.929586 201.923606 257 203.431178"/>
    <g transform="translate(0 218)">
      <mask id="particulas-b" fill="#fff">
        <use xlink:href="#particulas-a"/>
      </mask>
      <path fill="#18404D" d="M1.87328889,16.8806688 C7.08906667,13.6149026 9.38484444,6.42059091 7.01573333,0.765551948 C4.75395556,-0.260409091 1.91728889,0.110720779 -4.44444444e-05,1.68333117" mask="url(#particulas-b)"/>
    </g>
    <path fill="#18404D" d="M176 236.563437C180.770622 238.462468 186.826344 233.839414 185.906512 229M302 224C307.900034 219.841716 311.03618 212.094398 309.691142 205M197 249L196.689183 242C195.384633 242.438145 194.34494 243.499846 194 244.745452M151.058589 215C150.726597 213.80779 151.869693 212.793256 152.870729 212.263972 153.871571 211.734688 155.080443 210.954633 154.995791 209.708482 154.911528 208.462111 152.611129 209.066693 153.399076 209.942741M86.757514 188C84.8130797 192.022527 86.7698052 197.469978 90.8241669 199.321632 94.8787481 201.173285 100.255957 199.075112 102 194.961159M220.039864 191.853665C219.501263 195.172295 224.550815 197.204245 227.307117 195.213067 230.063645 193.221667 230.466575 189.244659 229.576545 186M266 136C265.995551 132.69029 266.996506 129.134234 269.618886 127.166484 272.241265 125.198951 276.680627 125.717529 278 128.744222M331 155C328.263995 154.897751 325.527991 154.795503 322.791986 154.693254 320.771825 152.745179 323.048225 149.634513 324.811505 147.468363 326.574784 145.301801 326.759096 140.87692 323.900217 141.002622M346 207C348.793942 204.273105 352.941069 202.775342 357 203.027437M337 142.497663C341.333024 144.189872 346.877058 141.418875 348 137M288 179.364337C292.286147 181.099774 297.611479 179.163053 300 175M323 196C327.249578 190.951823 331.553215 185.951461 335.910272 181 339.173382 182.434667 340.889005 186.741929 339.533278 190.0955 338.17755 193.448852 333.985862 195.265388 330.682101 193.931349M420.652498 182C423.363539 176.761378 421.856248 169.618483 417.276457 166 414.955416 166.219568 412.822083 167.888025 412 170.12646M380 184C385.067291 183.352058 387.868875 176.016933 384.583177 172M487.475634 99C490.207822 92.5575872 489.198403 84.40248 485 79M433 155C431.667334 153 430.334437 151 429.002002 149 428.111099 149.99271 427.780468 151.409313 428.147297 152.663149M360.570963 140C359.699465 139.166477 360.285685 137.668907 360.96818 136.664178 361.650676 135.659232 362.408563 134.325726 361.742148 133.309308 361.075734 132.292891 359.218711 134.080495 360.36588 134.391957M358 70.5000418C358.291881 74.774686 362.497284 78.3688749 366.740485 77.9696379 370.983475 77.5708231 374.453295 73.2547985 373.951637 69M412 119.093426C413.140156 122.028762 418.226595 121.372974 419.527589 118.502154 420.828795 115.631335 419.264787 112.22398 416.994288 110M405.890268 53C404.205387 50.1674599 403.300144 46.6235378 404.659772 43.6323686 406.01962 40.6414124 410.276116 38.8747745 413 40.8102619M455 44.2672507L447.393706 48C444.50984 47.2594168 444.892492 43.3924171 445.320096 40.6126565 445.747923 37.8328959 443.524026 33.8219815 441 35.3281491M517 29C517.902355 24.7042876 520.541599 20.9340445 524 19"/>
    <g transform="translate(477)">
      <mask id="particulas-d" fill="#fff">
        <use xlink:href="#particulas-c"/>
      </mask>
      <path fill="#18404D" d="M0.0376939394,9.7965102 C4.5463303,9.18753061 7.86136061,4.28793878 6.61514848,0.074877551" mask="url(#particulas-d)"/>
    </g>
    <path fill="#18404D" d="M435,107 C439.870213,106.250099 443.864255,101.81247 444,97"/>
    <g transform="translate(713 160)">
      <mask id="particulas-f" fill="#fff">
        <use xlink:href="#particulas-e"/>
      </mask>
      <path fill="#18404D" d="M16.9148455,10.925244 C11.3108065,9.321884 5.71979351,7.661104 0.142248052,5.943124 C-0.176777922,2.959264 2.32045584,0.217624 5.41533896,0.153824 C8.51066364,0.090244 11.6658195,2.715504 12.0780143,5.697824" mask="url(#particulas-f)"/>
    </g>
    <path fill="#18404D" d="M633 97.0246514C628.17147 96.679952 623.707081 99.9902865 623 104.439858 624.101482 106.058216 626.156855 107.090891 628.082956 106.993684M686 132.595232C683.56988 128.950807 677.457345 129.198394 676 133M558 78.0041902C551.846737 77.8584652 546.137921 81.5265779 544 87M676.839458 114C675.893187 115.621903 674.946486 117.244029 674 118.866154 675.066409 119.174845 676.226306 118.94016 677 118.259441M695 158C694.779362 159.165324 693.548075 159.209948 692.61012 158.964645 691.671968 158.719075 690.484101 158.534162 690.061098 159.577903 689.638291 160.621644 691.556836 161.670462 691.320677 160.453031M614.923356 171C618.039129 169.291865 618.973774 164.715511 616.866326 161.489158 614.758661 158.26258 610.011538 157.002506 607 158.87036M636.400071 129C638.241512 127.307558 635.515346 124.008114 632.666955 124 629.818788 123.991737 627.785601 126.121842 627 128.372512M582 140.121058C580.56283 142.223539 578.279859 144.002513 575.497079 144 572.714298 143.997481 569.679242 141.550317 570.027386 139M547.088341 94C549.034873 95.3989846 550.98119 96.7979691 552.927723 98.1969537 553.511446 100.50774 550.43555 101.52403 548.163699 102.145586 545.891848 102.767142 543.740916 105.696689 545.880875 107M524 73.8125076C520.635759 74.4616916 516.865701 73.4013031 514 71M529 116C526.713577 112.810676 521.673437 111.993528 519 114.378808M529 118C526.487341 114.579212 521.605872 113.06806 518 114.594678"/>
  </g>
</svg>
