<svg xmlns="http://www.w3.org/2000/svg" xmlns:xlink="http://www.w3.org/1999/xlink" width="111" height="130" viewBox="0 0 111 130">
  <defs>
    <polygon id="pc-working-a" points=".958 .617 63.495 .617 63.495 97 .958 97"/>
    <polygon id="pc-working-c" points=".247 .026 3.523 .026 3.523 6.171 .247 6.171"/>
    <polygon id="pc-working-e" points="0 .525 3.524 .525 3.524 7.839 0 7.839"/>
  </defs>
  <g fill="none" fill-rule="evenodd" transform="translate(19 13)">
    <g transform="translate(4 .383)">
      <mask id="pc-working-b" fill="#fff">
        <use xlink:href="#pc-working-a"/>
      </mask>
      <path fill="#815556" d="M6.3141,70.1614 C5.6471,67.8964 4.9801,65.6324 4.3121,63.3674 C3.2891,59.8954 4.3091,60.4774 7.5981,60.4684 C12.5041,60.4554 17.4061,60.5944 22.3051,60.8334 C22.0541,62.5404 21.5841,64.1914 20.7671,65.7284 C18.5531,69.8944 12.7771,72.5174 8.9491,69.7604 C8.9881,70.8904 9.6121,71.8364 10.5091,72.5004 C9.3241,72.4764 8.1391,72.4524 6.9531,72.4284 C6.6761,71.5764 6.4781,70.7164 6.3141,70.1614 M28.5791,58.4694 C28.6361,61.4534 28.6841,64.5064 27.7371,67.3364 C27.5431,67.9164 27.2871,68.4814 26.9961,69.0284 C26.4851,66.9054 26.2011,64.4294 26.0321,62.5324 C26.9301,61.2084 27.7931,59.8614 28.5791,58.4694 M32.4681,65.8064 C32.6301,68.1954 32.8661,70.5784 33.1401,72.9574 C31.6381,72.9274 30.1351,72.8974 28.6331,72.8664 C28.2731,72.4724 27.9581,71.9164 27.6861,71.2504 C29.7261,69.8984 31.4191,68.0194 32.4681,65.8064 M24.7981,71.8374 C24.3841,72.1954 23.9361,72.5014 23.4601,72.7624 L16.7581,72.6264 C18.2131,71.8264 19.4841,70.6134 20.6261,69.3784 C21.7051,68.2114 22.7171,66.9854 23.6971,65.7334 C23.8791,67.8024 24.1901,69.9964 24.7981,71.8374 M63.2831,76.0164 C63.1841,75.5114 63.0351,74.9854 62.6641,74.6284 C61.6091,73.6174 59.9171,74.6754 58.8791,75.7044 C56.5321,78.0324 54.1851,80.3594 51.8381,82.6874 C50.6831,72.6074 49.5271,62.5264 48.3711,52.4464 C51.8171,54.9264 57.0881,52.7894 59.0901,49.0454 C61.0921,45.3024 60.5671,40.6994 59.2801,36.6544 C58.6861,34.7864 57.7881,32.7984 56.0031,31.9874 C54.2201,31.1774 51.5531,32.5354 51.9251,34.4594 C52.3461,32.5384 55.2841,32.2484 56.6981,33.6164 C58.1111,34.9834 58.3301,37.1514 58.3031,39.1174 C58.2511,42.8904 56.6171,47.6154 52.8461,47.7714 C50.4641,47.8694 48.5131,45.9894 46.9281,44.2084 C43.8311,40.7244 40.7331,36.5144 41.2911,31.8864 C41.6061,29.2704 43.0801,26.8914 43.3261,24.2674 C43.6351,20.9744 41.9261,17.7494 39.5471,15.4504 C37.1681,13.1514 34.1691,11.6204 31.2191,10.1234 C33.8561,10.3574 35.0931,6.3964 33.5411,4.2524 C31.9871,2.1084 29.1251,1.4734 26.5221,0.9944 C24.8501,0.6864 23.1011,0.3834 21.4751,0.8794 C19.8491,1.3754 18.4151,2.9484 18.6861,4.6264 C18.8661,5.7404 19.7191,6.6164 20.5921,7.3304 C22.5471,8.9304 24.8281,10.1284 27.2531,10.8324 C24.6321,12.2824 21.9691,13.7644 19.8891,15.9194 C17.8101,18.0754 16.3621,21.0444 16.7391,24.0154 C17.5771,30.6214 26.6491,34.6044 25.8561,41.2154 C24.3811,41.2444 22.9061,41.2744 21.4311,41.3034 C21.7141,44.8224 21.9981,48.3414 22.2811,51.8594 C22.4531,53.9974 22.6111,56.1964 22.5261,58.3514 C18.8091,58.1654 15.0901,58.0244 11.3671,57.9844 C8.9871,57.9594 4.7721,57.1574 2.6601,58.1454 C-1.2069,59.9554 2.6131,66.4484 3.4031,69.1274 C3.6371,69.9214 3.8321,71.1294 4.1051,72.3704 C3.5751,72.3604 3.0441,72.3494 2.5151,72.3384 C1.4991,72.3184 1.0481,73.3984 1.4351,74.2194 C2.3901,76.2444 4.4611,76.9404 6.7171,77.1614 C8.1111,77.8034 9.8891,77.4824 11.3461,77.4584 C13.5881,77.4224 15.8291,77.3864 18.0711,77.3494 C23.2761,77.4484 28.4801,77.4134 33.6831,77.1784 C34.0491,79.7384 34.4621,82.2914 34.9571,84.8294 C30.8201,84.8354 26.8661,83.2074 22.7721,82.6204 C18.6771,82.0344 13.8501,82.8614 11.6841,86.3854 C11.1771,87.2104 10.8481,88.2444 11.2051,89.1444 C11.4921,89.8684 12.1601,90.3594 12.8081,90.7894 C25.0841,98.9414 44.7131,99.3564 56.8621,90.3164 C61.2851,87.0254 64.3451,81.4254 63.2831,76.0164" mask="url(#pc-working-b)"/>
    </g>
    <path fill="#815556" d="M9.1891 92.5512C8.5631 91.5272 8.5371 90.3652 9.1451 89.3252 9.9591 87.9332 7.7991 86.6742 6.9861 88.0642 5.9401 89.8522 5.9471 92.0422 7.0301 93.8132 7.8681 95.1832 10.0311 93.9282 9.1891 92.5512M70.587 68.557C70.051 68.139 69.344 68.044 68.819 68.557 68.383 68.985 68.288 69.911 68.819 70.325 69.874 71.147 70.335 72.247 70.176 73.576 70.095 74.247 70.808 74.826 71.426 74.826 72.168 74.826 72.595 74.249 72.676 73.576 72.901 71.69 72.086 69.725 70.587 68.557"/>
    <g transform="translate(73 66.383)">
      <mask id="pc-working-d" fill="#fff">
        <use xlink:href="#pc-working-c"/>
      </mask>
      <path fill="#815556" d="M2.6168,0.5975 C1.7338,-0.7385 -0.4322,0.5125 0.4578,1.8595 C1.0318,2.7265 1.1688,3.6435 0.8538,4.6375 C0.3658,6.1745 2.7788,6.8315 3.2638,5.3015 C3.7658,3.7215 3.5328,1.9815 2.6168,0.5975" mask="url(#pc-working-d)"/>
    </g>
    <path fill="#815556" d="M69.8468,90.684 C68.8558,91.774 67.8658,92.865 66.8748,93.955 C65.7948,95.143 67.5578,96.916 68.6428,95.723 C69.6328,94.632 70.6238,93.542 71.6148,92.452 C72.6948,91.263 70.9318,89.49 69.8468,90.684"/>
    <g transform="translate(0 89.383)">
      <mask id="pc-working-f" fill="#fff">
        <use xlink:href="#pc-working-e"/>
      </mask>
      <path fill="#815556" d="M0.6109,1.4144 C-0.1221,3.3644 -0.1961,5.4254 0.3919,7.4234 C0.6639,8.3514 3.5579,7.5614 3.2889,6.6474 C2.7309,4.7454 2.8019,2.8724 3.4989,1.0174 C3.8209,0.1614 0.9539,0.5034 0.6109,1.4144" mask="url(#pc-working-f)"/>
    </g>
  </g>
</svg>
