<svg xmlns="http://www.w3.org/2000/svg" xmlns:xlink="http://www.w3.org/1999/xlink" width="101" height="102" viewBox="0 0 101 102">
  <defs>
    <polygon id="por-aqui-a" points="0 .001 88.236 .001 88.236 89.112 0 89.112"/>
  </defs>
  <g fill="none" fill-rule="evenodd" transform="translate(4 8)">
    <mask id="por-aqui-b" fill="#fff">
      <use xlink:href="#por-aqui-a"/>
    </mask>
    <path fill="#BE4251" d="M75.2619,16.8161 C75.3239,16.1381 75.7409,15.5521 75.9729,14.9121 C76.1709,14.3651 76.2339,13.7701 76.1519,13.1941 C77.9429,13.3421 78.3469,16.4051 78.2019,17.7811 C78.0849,18.8961 77.7189,19.9991 77.8339,21.1141 C77.9839,22.5511 78.5639,23.5431 79.4469,24.6521 C79.3309,24.7631 77.9699,25.2901 77.9739,25.3091 C78.0109,25.4861 78.1969,26.2611 78.0089,26.3821 C77.9159,26.4441 77.7939,26.4241 77.6849,26.4031 L76.2669,26.1281 C76.8469,26.2401 77.3569,26.8701 77.9329,27.0391 C77.5869,28.4471 76.5499,29.5861 75.3819,30.3221 C74.8799,30.6381 73.9329,30.9591 73.3469,31.0381 C70.8979,31.3651 68.8569,31.2831 66.6249,31.3911 C65.7309,31.4341 64.8319,31.5681 63.9649,31.7931 C63.1769,31.9971 61.9209,32.0881 61.3149,32.6371 C60.9759,32.9441 60.7359,33.3411 60.4989,33.7331 C60.2399,34.1641 59.9799,34.5951 59.7199,35.0271 C59.8789,35.5141 60.6329,35.3951 61.0319,35.7161 C61.3909,36.0051 61.3459,36.6061 61.0459,36.9571 C60.7459,37.3081 60.2779,37.4611 59.8249,37.5531 C58.6189,37.8011 57.3489,37.7301 56.1769,37.3501 C56.9439,37.6841 57.7459,37.9621 58.5789,38.0381 C59.4939,38.1221 60.6959,38.0881 60.9919,37.0351 C61.1129,36.6061 61.0519,36.1431 60.9059,35.7221 C60.8569,35.5801 60.7559,35.4151 60.6059,35.4321 C61.2229,35.3591 61.8159,35.7541 62.3599,35.9771 C63.0769,36.2721 63.8259,36.5491 64.4959,36.9451 C65.7379,37.6771 66.9109,38.5211 68.0799,39.3631 C69.8089,40.6081 70.9099,42.5061 72.6109,43.7521 C74.5219,45.1521 76.8849,44.5871 78.8729,43.6121 C80.7339,42.7011 82.3749,41.3571 83.6579,39.7321 C84.3419,38.8681 85.1259,38.1611 85.7699,37.2681 C85.8969,37.0921 86.0279,36.8661 85.9269,36.6741 C85.5989,36.5301 86.0569,36.8131 85.9449,36.4541 C85.8169,36.0421 86.0859,35.8581 85.6959,35.5871 C85.4499,35.4151 84.8249,35.3531 84.5259,35.2341 C84.1959,35.1011 84.1599,34.8041 83.8079,34.8741 C84.3449,34.7671 85.4439,34.9361 85.9899,34.9671 C85.2109,34.7141 83.8849,34.2541 83.1059,34.0021 C83.8349,34.0271 85.1139,34.2601 85.8429,34.2861 C85.7269,34.2821 84.9529,33.8791 84.8469,33.8211 C84.6969,33.7381 84.5449,33.6511 84.3889,33.5781 C84.1069,33.4471 83.8289,33.3471 83.5839,33.1461 C83.6959,33.0561 83.8549,33.0621 83.9979,33.0721 C84.3089,33.0931 84.6119,33.1001 84.9199,33.1031 C85.1409,33.1061 86.2409,33.2241 86.4269,33.3261 C85.7849,32.9761 84.5719,32.4641 83.8879,32.2071 C84.2079,32.3281 84.6729,32.2921 85.0159,32.3441 C85.3769,32.4011 85.0099,32.3081 85.3669,32.3871 C85.6879,32.4591 86.0389,32.6821 86.3629,32.6631 C86.4189,32.4321 86.5679,32.2271 86.7679,32.1001 C86.6999,32.3391 86.7549,32.6101 86.9099,32.8041 C86.9629,32.8691 87.0259,32.9251 87.0869,32.9811 C87.1589,33.0461 87.2319,33.1111 87.3109,33.1681 C87.6229,33.3921 87.9279,33.5921 88.2259,33.8371 C88.2759,33.8791 88.1209,34.2651 88.1069,34.3261 C88.0359,34.6141 87.9909,34.9101 87.9359,35.2021 C87.9009,35.3831 87.8009,35.5221 87.7439,35.6941 C87.6819,35.8821 87.6199,36.0471 87.5249,36.2271 C86.0759,38.9541 84.2969,41.5041 82.2379,43.8041 C80.7019,45.5171 79.2509,46.8851 76.9259,47.0931 C75.8979,47.1851 74.8619,47.1881 73.8659,46.8751 C73.6269,46.7991 71.5239,45.8541 71.7409,45.4821 C71.2369,46.3471 70.4049,47.0171 69.4499,47.3251 C68.4289,47.6561 67.3249,47.5761 66.2599,47.7111 C63.6989,48.0361 63.5489,49.7171 63.2569,51.9181 C63.1859,52.4541 62.3519,58.7541 62.1939,58.6281 C65.9529,61.6271 69.0629,66.8611 71.7029,70.8801 C71.9029,71.1841 72.1069,71.5251 72.0559,71.8831 C72.0049,72.2431 71.5509,72.5421 71.2699,72.3121 C71.7919,72.3111 72.3149,72.3091 72.8359,72.3081 C72.3249,72.4821 71.8139,72.6561 71.3019,72.8301 C70.1159,78.1851 68.9249,83.6801 69.6889,89.1131 C66.4079,85.2951 66.2979,79.7721 66.3559,74.7391 C62.1569,75.6831 58.2699,76.3631 54.0329,77.1651 C49.5229,78.0181 45.2439,76.6161 40.6799,76.7951 C40.4909,76.8011 40.2829,76.8191 40.1509,76.9541 C40.0679,77.0391 40.0289,77.1571 39.9909,77.2701 C38.3779,82.1601 34.8819,86.4011 30.3909,88.9191 C33.2379,85.3661 34.1569,80.6891 34.9799,76.2111 C34.9799,77.0371 28.4429,73.4031 28.1289,73.1561 C31.8099,70.7731 35.2209,67.9761 38.2839,64.8391 C40.3919,62.6821 43.2529,59.7111 46.3459,58.9681 C45.4199,58.9571 44.5469,58.3941 44.2979,57.4641 C43.5799,58.4651 42.3419,59.0681 41.1119,59.0151 C41.7249,59.0891 42.0739,58.3421 42.1989,57.7381 C42.3239,57.1321 42.5729,56.3771 43.1889,56.3371 C43.5059,56.3171 43.7939,56.5161 44.0269,56.7331 C44.6599,57.3251 45.0929,58.1291 45.2389,58.9831 C49.9019,60.1951 54.8829,60.1591 59.5279,58.8791 C56.8989,59.6601 54.0969,59.8531 51.3859,59.4411 C49.3829,59.1371 47.4079,58.5071 45.3839,58.5891 C47.1379,57.3271 47.0269,54.3181 47.3599,52.4111 C47.5769,51.1601 48.5689,47.0461 47.4929,46.1831 C46.9349,45.7361 46.1729,45.6781 45.4719,45.5371 C43.8739,45.2151 41.3879,43.9851 40.2559,42.7751 C40.0269,42.5291 39.8319,42.2501 39.5739,42.0341 C38.2859,40.9511 35.9029,41.2681 34.3789,40.5051 C32.4459,39.5381 30.4159,38.7861 28.8849,37.1841 C27.2379,35.4601 26.2149,32.6371 25.4149,30.4231 C25.3759,30.3131 24.2269,27.8431 24.4469,27.8281 C23.9419,27.8631 23.4369,27.8981 22.9319,27.9321 C22.7149,27.9481 22.4799,27.9591 22.2959,27.8401 C22.1129,27.7231 22.0369,27.4221 22.2099,27.2911 C22.0769,27.4711 21.7479,27.3041 21.7389,27.0801 C21.7279,26.8551 21.9139,26.6711 22.1119,26.5621 C21.9819,26.7681 21.6289,26.7161 21.4979,26.5081 C21.3669,26.3011 21.4159,26.0251 21.5339,25.8121 C20.4339,26.0111 19.0319,26.0541 17.8029,26.0541 C19.5569,25.3531 21.0869,25.1301 22.5769,24.4881 C22.4099,24.1181 22.2869,23.7281 22.2109,23.3311 C22.1489,23.0061 22.2509,22.5321 22.5789,22.5721 C22.4289,22.9421 22.6849,23.3701 23.0239,23.5861 C23.3629,23.8001 23.7709,23.8721 24.1459,24.0151 C24.6439,24.2061 25.0909,24.5291 25.4279,24.9431 C26.1549,25.8341 25.9789,27.5961 26.1919,28.6851 C26.5609,30.5761 27.5499,32.3111 28.8209,33.7631 C30.2649,35.4161 32.0949,36.7231 34.1119,37.5871 C35.1389,38.0261 38.7229,39.6171 39.7269,39.1831 C40.3029,38.9331 39.1319,39.5501 39.7269,39.3441 C40.3249,39.1361 40.9749,39.1581 41.6089,39.1531 C43.9039,39.1341 46.1669,38.6681 48.3379,37.9401 C50.7709,37.1251 52.9469,35.7531 55.4489,35.0901 C56.0849,34.9211 56.7669,34.7661 57.2339,34.3001 C57.4289,34.1051 57.5749,33.8671 57.7139,33.6291 C58.2749,32.6701 58.8329,31.5491 58.8639,30.4141 C58.8959,29.1531 58.1589,29.1561 57.6709,28.1841 C57.6719,28.3541 57.6229,28.5381 57.6299,28.7011 C57.5579,28.1161 57.1809,27.6971 56.7729,27.3021 C56.2349,26.7821 55.7169,26.2011 55.1249,25.7421 C54.8119,25.4981 53.8039,25.0471 53.7809,24.5901 C51.8339,22.3301 51.5489,18.7931 53.1079,16.2501 C52.3459,17.4911 49.6199,18.7901 48.4329,19.6791 C46.6259,21.0321 44.6919,22.2471 42.4599,22.7431 C39.1429,23.4801 35.0809,22.0711 34.0309,18.8391 C33.6439,17.6481 33.6989,16.3651 33.7589,15.1151 C33.8939,12.3061 34.0299,9.4971 34.1639,6.6881 C34.2059,5.8051 34.1839,4.7741 33.4809,4.2381 C32.5649,3.5411 31.2699,4.2031 30.3259,4.8611 C27.3389,6.9451 24.3519,9.0281 21.3649,11.1121 C18.8859,8.8331 16.1819,6.7981 13.3049,5.0481 C12.5629,4.5971 11.7749,4.1541 10.9079,4.0961 C9.3529,3.9931 7.9949,5.1491 7.0739,6.4061 C6.1509,7.6621 5.4439,9.1141 4.2369,10.0991 C3.0299,11.0861 1.0599,11.4111 -0.0001,10.2681 C1.6369,11.3221 3.8589,10.1541 5.0319,8.6001 C6.2039,7.0461 6.8609,5.1041 8.2719,3.7631 C10.3029,1.8341 13.5699,1.6171 16.1369,2.7381 C18.7049,3.8591 20.6399,6.1001 22.0049,8.5461 C23.2359,6.2401 24.4669,3.9331 25.6979,1.6261 C25.9839,1.0901 26.2969,0.5261 26.8279,0.2321 C27.4299,-0.0999 28.1659,-0.0089 28.8449,0.0991 C33.2409,0.8021 37.5799,1.8481 41.8129,3.2251 C43.5229,3.7811 45.4939,4.7211 45.7069,6.5061 C45.9469,8.5231 43.6989,10.4081 44.3999,12.3131 C45.3989,12.1031 46.3979,11.8921 47.3969,11.6821 C47.7009,12.8141 47.7319,14.0191 47.4849,15.1661 C47.4849,14.1301 52.2839,12.5371 53.1419,12.4771 C53.9989,12.4191 54.9989,13.0791 54.8449,13.9241 C55.1989,11.9831 59.8659,9.9901 61.4179,9.4281 C64.3359,8.3701 67.3959,8.4411 70.2909,9.5531 C71.2069,9.9061 71.8889,10.5251 72.7479,10.9641 C73.8179,11.5121 75.5879,11.6381 76.4689,12.4441 C76.3049,12.2941 75.9929,12.5391 76.1019,12.7341 C76.0629,13.4031 76.0239,14.0721 75.9849,14.7401 C75.9549,15.2391 75.9199,15.7581 75.6719,16.1921 C75.3739,16.7141 74.8189,17.0261 74.2889,17.3111 C70.9449,19.1081 67.5589,20.8261 64.1329,22.4621 C63.2019,21.8211 61.9169,21.7361 60.9109,22.2501 C60.7999,22.3061 60.6869,22.3761 60.6299,22.4861 C60.5319,22.6781 60.6409,22.9121 60.7739,23.0831 C61.2729,23.7231 62.1509,24.0441 62.9449,23.8761 C62.1679,23.8561 61.4319,23.3131 61.1839,22.5781 C62.1099,22.4611 63.0649,22.5921 63.9239,22.9571 C65.8069,21.3571 68.3389,20.8311 70.6519,19.9621 C72.9639,19.0931 75.3479,17.5541 75.8459,15.1351 C76.0679,14.0591 76.8489,13.2671 77.5549,14.4331" mask="url(#por-aqui-b)"/>
  </g>
</svg>
