<svg xmlns="http://www.w3.org/2000/svg" xmlns:xlink="http://www.w3.org/1999/xlink" width="125" height="387" viewBox="0 0 125 387">
  <defs>
    <polygon id="poste-luz-colgao-a" points=".051 .046 83.669 .046 83.669 352.556 .051 352.556"/>
  </defs>
  <g fill="none" fill-rule="evenodd" transform="translate(5 23)">
    <path fill="#377591" d="M22.0044409,73 C22.2955188,73.6634932 22.7496972,74.2632735 22.9850626,74.9491029 C22.9903109,74.9659465 22.994348,74.9831564 23,75 C22.6507872,74.3233248 22.2559548,73.6601977 22,73.0194068 C22.0016149,73.0128158 22.002826,73.006591 22.0044409,73"/>
    <path fill="#377591" d="M13.8255282,137.821987 L22.6065228,137.997498 L25.5883948,104.691333 L6.03849099,106.269153 L13.8255282,137.821987 Z M30.8905387,137.646476 L36.5237051,105.743509 C35.8607702,105.567998 27.7422656,106.094086 27.7422656,106.094086 L24.7603936,137.821987 L30.8905387,137.646476 Z M0,104.9957 L0.305216977,103.586726 L3.77427933,102.989101 L20.4735633,91.9505857 C20.4735633,91.9505857 17.0049459,92.5477666 16.7780353,89.2210602 C16.5511247,85.8947982 20.5296236,85.9881078 20.5296236,85.9881078 L18.8442564,84.4449461 L18.9777332,82.68895 L20.2964841,82.3108243 L21.2681953,81.0640314 C21.2681953,81.0640314 19.1014217,80.4068659 18.7379198,78.6610893 C18.2796494,76.4589848 20.1839186,73.3864358 20.9967924,71.4487082 C21.0599714,71.2989687 21.1320489,71.1412311 21.2655257,71.0576969 C21.6699605,70.8048726 22.0681663,71.4353783 22.0841835,71.9321404 C22.093082,72.2187339 22.0646069,72.5 22.0103263,72.775925 C21.9529313,72.6328504 21.8995406,72.4875541 21.856828,72.3382589 C21.8990957,72.4911088 21.9493719,72.644403 22.0054322,72.7994745 C21.8123357,73.7530089 21.2988949,74.6452255 20.8361753,75.5098937 C20.2359746,76.6313852 19.686495,77.9323864 20.0233015,79.1711813 C20.1007181,79.4546645 20.2333051,79.737259 20.4677793,79.8976625 C20.9313888,80.2153592 21.5551704,79.9207677 21.9689485,79.5333111 C23.0897088,78.4833569 23.5510937,76.7149194 23.1070608,75.202861 C23.6476419,76.3550113 24.0872255,77.5387091 23.8589802,78.722407 C23.5208389,80.4730712 21.3665232,81.1662276 21.3665232,81.1662276 L22.3573661,82.3965801 L23.681456,82.7516006 L23.8420731,84.5049308 L22.1802868,86.076974 C22.1802868,86.076974 26.1574509,85.9152375 25.9812615,89.2454984 C25.805962,92.5753151 22.3280012,92.0376746 22.3280012,92.0376746 L39.1954659,102.787375 L42.6729818,103.325015 L43,104.728657 L38.8559899,105.415593 L32.131873,137.64692 L38.9236182,138.020603 L37.9220971,140.471533 C37.9220971,140.471533 35.2699129,140.812779 32.1194152,141.679224 C28.9689175,142.544781 30.7899861,143.076646 28.2966393,145.523132 C26.8279494,146.964098 25.0540426,147.16849 23.3691203,148.049598 C24.424477,148.61301 25.5269954,149.822479 24.9263498,151.240339 C24.7626182,151.627352 24.49344,151.957934 24.1819941,152.225865 C23.3735695,152.921688 22.2332326,153.194063 21.2419448,152.85415 C20.2497672,152.514681 19.4591395,151.541596 19.3639261,150.442765 C19.2682677,149.344823 19.9218592,148.199782 20.9095876,147.846983 C18.944364,147.908301 16.7891584,146.918776 15.3284771,145.53113 C12.7982017,143.128188 14.6108168,142.565221 11.4474163,141.753872 C8.28401589,140.942079 5.62693748,140.646155 5.62693748,140.646155 L4.58804296,138.212998 L11.3731143,137.722457 L4.15424332,105.611543 L0,104.9957 Z"/>
    <g transform="translate(15)">
      <mask id="poste-luz-colgao-b" fill="#fff">
        <use xlink:href="#poste-luz-colgao-a"/>
      </mask>
      <path fill="#377591" d="M5.05927579,22.1325672 C9.86938105,10.3135055 20.8172337,1.50493447 32.8177389,0.226586038 C38.5253179,-0.381728428 44.2925811,0.612887925 49.8250863,2.23180365 C54.1515284,3.49771937 58.4076758,5.16148164 62.2504547,7.63514579 C71.0819495,13.3186678 79.1543495,24.5937986 80.7790863,35.5918577 C81.0686653,30.5148741 80.8865179,25.4068087 80.2366232,20.3680112 C81.1544337,20.3724514 82.0726863,20.3773357 82.9904968,20.38222 C84.65016,38.2857584 82.7274442,57.2114426 82.8476968,75.2801584 C82.9047284,83.7730275 82.9613179,92.2658967 83.0179074,100.758322 C83.0462021,105.000538 83.1664547,109.255187 83.1027916,113.496516 C83.0537179,116.766761 82.3189389,348.930643 83.4869811,352.065904 C82.5342442,351.802153 81.5620547,352.299017 80.5964968,352.500161 C79.6309389,352.70086 78.35856,352.370506 78.1887916,351.335039 C77.9894021,350.119298 79.5120126,120.348712 79.1795495,119.166717 C77.8421811,119.571224 76.5052547,119.975731 75.1678863,120.380682 C75.3871705,119.724412 75.4848758,119.021521 75.4534863,118.325733 C76.2620968,118.290655 77.0702653,118.255133 77.8788758,118.220055 C78.4186863,118.196966 78.4412337,101.767591 78.3108126,100.227712 C77.8704758,95.0135244 77.3960968,89.1590527 74.5820968,84.6797269 C74.0807495,83.8818137 73.4878863,83.1265269 72.7230442,82.6216703 C71.95776,82.1172577 70.9975074,81.8885848 70.1420337,82.1838615 C69.3236968,82.4662615 68.6689389,83.2326489 68.48016,84.1291357 C68.2913811,85.0256225 68.5765389,86.0180187 69.20256,86.6476464 C69.4793179,86.9260502 69.8343284,87.1400703 70.2145389,87.1467307 C70.5943074,87.1533911 70.99176,86.9091772 71.0991916,86.5193231 C71.2331495,86.0362238 70.9740758,85.3537571 71.3852337,85.1077672 C71.7194653,84.9079558 72.1138232,85.2902615 72.2345179,85.6787835 C72.5475284,86.6836125 71.9259284,87.8505106 71.0076758,88.2479131 C70.0889811,88.6462036 68.9943284,88.3629156 68.2140126,87.7101986 C67.2626021,86.9149496 66.5375495,85.563337 66.6056337,84.2565709 C66.7422442,81.6301621 68.9810653,79.2715005 71.4413811,79.3407684 C73.7120337,79.404264 75.3425179,81.1923533 76.3823495,83.1913546 C78.0579284,86.410981 78.9403705,90.0968338 78.9182653,93.7809106 C78.9182653,85.9101206 79.00536,78.0575357 79.0455916,70.2515735 C79.0455916,71.8909143 77.01456,75.4266867 75.9207916,76.6308829 C74.5577811,78.1316879 72.8021811,79.2524074 70.8883074,79.721298 C66.7935284,80.7261269 62.8636547,78.538859 60.8299705,74.7033697 C59.8480547,72.8517848 59.6225811,70.4269634 60.6827495,68.6246653 C63.0740968,64.5618351 72.5134863,64.4605974 71.5187495,70.8394628 C71.1845179,72.9832162 68.7056337,74.4032087 66.8607284,73.4880728 C67.8899495,73.2651722 68.3546021,71.9810514 68.4947495,70.8687684 C68.6574442,69.5864238 68.4456758,67.9746125 67.3165389,67.507942 C66.4301179,67.1416213 65.3845389,67.7650326 64.9570232,68.672176 C64.5299495,69.5784313 64.5989179,70.666293 64.8403074,71.6484766 C64.9976968,72.290537 65.2298021,72.9237169 65.6184126,73.4410062 C67.8506021,76.4084263 72.0041811,74.8263647 73.4626863,72.1928514 C81.4966232,57.6869936 76.7665389,37.6299332 69.2087495,24.0245584 C67.0251916,20.0940477 60.5739916,14.5956842 57.0499705,12.0065735 C54.1024547,9.84061874 50.1173179,8.40464138 44.2399705,7.26349673 C38.5284126,6.15476591 33.4685179,6.10059484 28.5797179,7.65246277 C23.33016,9.31933321 19.1098232,11.2548389 15.4580337,15.5059357 C12.8478442,18.5448439 11.57016,18.5355194 9.15007579,25.0005257 C5.81306526,33.9147747 8.31891789,47.3460917 11.7624758,56.2146062 C14.1339284,62.3221722 16.5182021,70.8106011 10.3698442,75.3565307 C9.25883368,76.1779772 7.95550737,76.7476615 6.60531789,76.7942842 C3.60121263,76.8995181 0.882707368,74.2349231 0.219991579,71.1023257 C-0.0355452632,69.8936892 -0.0271452632,68.5931395 0.426454737,67.4524389 C0.879612632,66.3121823 1.81997053,65.3601923 2.95750737,65.1204187 C3.21923368,65.0653596 3.53799158,65.0706879 3.69538105,65.301137 C3.78424421,65.4316804 3.79750737,65.6030741 3.79706526,65.7646992 C3.79441263,67.8267521 2.23820211,69.8128766 2.83681263,71.7736917 C3.02205474,72.3806741 3.40447579,72.9041797 3.86161263,73.3157911 C5.50668632,74.7948389 8.09256,74.7388917 9.86407579,73.4370099 C17.2052337,68.0412162 5.36211789,54.6836074 3.70024421,48.5813697 C1.34780211,39.9419722 1.68778105,30.4163005 5.05927579,22.1325672" mask="url(#poste-luz-colgao-b)"/>
    </g>
  </g>
</svg>
