<svg xmlns="http://www.w3.org/2000/svg" xmlns:xlink="http://www.w3.org/1999/xlink" width="53" height="371" viewBox="0 0 53 371">
  <defs>
    <polygon id="poste-luz-a" points="0 0 38 0 38 338 0 338"/>
  </defs>
  <g fill="none" fill-rule="evenodd" transform="translate(9 16)">
    <mask id="poste-luz-b" fill="#fff">
      <use xlink:href="#poste-luz-a"/>
    </mask>
    <path fill="#377591" d="M27.2984954,52.0017154 L21.881324,52.1563612 L24.5166784,24.1848601 C24.5166784,24.1848601 31.6909149,23.7214075 32.2762789,23.8755685 L27.2984954,52.0017154 Z M19.9777963,52.311007 L12.2181958,52.1563612 L5.33639798,24.3390212 L22.6131506,22.9486632 L19.9777963,52.311007 Z M34.3379474,23.5871226 L38,22.9811437 L37.7104808,21.7439771 L34.6376849,21.2698593 L19.7315833,11.7928341 C19.7315833,11.7928341 22.8053525,12.2664672 22.9605737,9.33062065 C23.1153083,6.39525888 19.6016646,6.5382699 19.6016646,6.5382699 L21.0696972,5.15179018 L20.9276138,3.60630161 L19.7573724,3.29313171 L18.8824893,2.20867188 C18.8824893,2.20867188 20.786017,1.59736037 21.0842948,0.0542957091 L16.5595237,0 C16.880671,1.5391864 18.7949036,2.11850222 18.7949036,2.11850222 L17.9365644,3.21799033 L16.7711889,3.55103633 L16.6534349,5.09894882 L18.1433639,6.45973503 C18.1433639,6.45973503 14.6268007,6.3773219 14.8272745,9.31025976 C15.0277483,12.2422281 18.0932454,11.7157536 18.0932454,11.7157536 L3.33603944,21.4477747 L0.270542288,21.9747339 L0,23.2162635 L3.67129778,23.7592206 L10.0514245,52.0691002 L4.05472822,52.501042 L4.9729176,54.6462073 C4.9729176,54.6462073 7.32069915,54.9070206 10.1166272,55.6225605 C12.9125552,56.3376156 11.3107113,56.8345183 13.5460913,58.9525357 C14.8374928,60.1756435 16.7419937,61.0482531 18.4781356,60.9944422 C17.6051988,61.3051882 17.0285934,62.3145066 17.1122863,63.2831033 C17.1672706,63.9099279 17.4816057,64.4887589 17.9336449,64.9013093 L15.533312,64.9013093 L15.533312,66.3430543 L17.8484922,66.3430543 L16.6378641,258.742323 L14.89491,258.742323 L14.89491,262.254577 C14.608797,262.53963 14.3801012,262.877523 14.2097958,263.242565 L10.4358282,263.242565 L10.4358282,265.886572 L12.8585441,265.886572 L11.3189833,332.249987 L8.38632435,332.249987 L8.38632435,333.984057 L4.40847686,333.984057 L4.40847686,337.947159 L16.1391126,337.947159 L16.138626,338 L21.7737883,338 L21.7737883,337.947159 L32.5015686,337.947159 L32.5015686,333.984057 L29.229272,333.984057 L29.229272,332.249987 L26.0966259,332.249987 L24.9940201,265.886572 L27.685332,265.886572 L27.685332,263.242565 L23.77512,263.242565 C23.7128369,263.026837 23.5989756,262.821289 23.4471605,262.659371 C23.2768551,262.478062 23.0700557,262.343292 22.8491453,262.227429 L22.8491453,258.742323 L21.6205135,258.742323 L21.2482745,66.3430543 L23.9264486,66.3430543 L23.9264486,64.9013093 L21.3081247,64.9013093 C21.3285614,64.8853115 21.3504578,64.8717376 21.3699212,64.8547702 C21.6453294,64.6186808 21.8832704,64.3273261 22.0282733,63.9860388 C22.5586529,62.7362679 21.5849926,61.6692603 20.6522056,61.1723576 C22.1411614,60.3957351 23.7079711,60.2158805 25.0066714,58.945264 C27.20945,56.7889487 25.6007939,56.3196786 28.3845573,55.55663 C31.1688072,54.7930966 33.5126961,54.4920463 33.5126961,54.4920463 L34.397311,52.3318527 L28.3952622,52.0022002 L34.3379474,23.5871226 Z" mask="url(#poste-luz-b)"/>
  </g>
</svg>
