<svg xmlns="http://www.w3.org/2000/svg" width="155" height="253" viewBox="0 0 155 253">
  <g fill="none" fill-rule="evenodd" transform="translate(19 10)">
    <path stroke="#897A72" stroke-width="3.693" d="M120.701559,193.735715 C122.424165,193.657098 116.127391,28 116.127391,28 L10.3177102,29.2660066 L6,202 L120.701559,193.735715 Z"/>
    <path stroke="#897A72" stroke-width="2.976" d="M100.930673,29.2391507 L102,193.411357 L78.1147599,196.302784 L81.8216715,29 L59.8876503,29.2114524 C59.5350285,39.1166138 58.9430554,47.9820778 58.8432695,57.8588654 C58.8203457,60.1828155 58.9012532,62.541895 58.3524307,64.7928838 C57.802934,67.0438726 56.5030203,69.2279803 54.462803,70.1528313 C52.42326,71.0770068 49.6366711,70.3034827 48.7669156,68.1612602 C47.8978342,66.0190376 49.9245669,63.1195046 52.0632216,63.7680488 C52.8608347,64.0105773 53.4959585,64.6341256 54.0609625,65.2705095 C58.6059408,70.3960354 60.5713187,77.883343 59.1615056,84.6977859 C54.1931114,108.71081 55.8908202,135.320038 55.0129739,159.922832 C54.5531497,172.823457 54.0926512,185.724758 53.632827,198.624707 L28.0094242,201 C28.4389082,189.037737 28.8690663,177.074799 29.2998987,165.112537 C29.7266857,153.236071 30.1534728,141.360281 30.5802598,129.483816 C30.8303988,122.537637 35.1205185,104.953307 29.0625701,100.257442 C27.5691526,99.0995204 25.6327666,98.443545 24.6200745,96.8154288 C22.9648421,94.154371 24.8594259,90.4407799 27.5219566,88.9268345 C30.1838131,87.4122136 33.3486445,87.3237144 36.3064875,86.6258538 C39.2656791,85.9293443 42.4062382,84.2127289 43.1633975,81.1456554 C43.9090949,78.126547 41.9558532,74.9784054 39.4315394,73.302324 C36.9072257,71.6255671 33.8927474,71.0209347 31.0326675,70.1089194 C30.2916897,69.8731466 29.5311593,69.5981909 28.9735718,69.0361193 C28.1557319,68.2112521 27.935259,66.9107859 28.0680822,65.7325973 C28.4496958,62.3270647 31.2039217,59.8315207 32.7964508,56.8360572 C36.2485038,50.3404818 33.8536421,36.809553 34.1219853,29.3323789"/>
    <path fill="#897A72" d="M48.6589105,110.715661 C47.7937296,111.53461 46.6370565,112.00122 45.5261988,112.43314 L47.2459367,115.069555 C47.4019747,115.309662 47.5646526,115.566094 47.5792604,115.854494 C47.5945322,116.142895 47.3986547,116.462584 47.1224343,116.456462 C46.9351887,116.453061 46.7798147,116.308861 46.6483444,116.168062 C45.9544733,115.425294 45.4060163,114.534926 45.047461,113.567696 C44.8615433,114.458065 44.5414995,115.339591 43.957851,116.011618 C43.3735385,116.682965 42.4930858,117.115566 41.6312249,116.972726 C41.9612287,115.747024 42.560149,114.603625 43.3688906,113.655441 C42.3808713,114.052672 41.5688097,114.809043 40.6451976,115.348433 C39.7215855,115.887823 38.5436647,116.195269 37.6160686,115.643635 C37.3790236,115.502836 37.1579145,115.290617 37.1028032,115.011059 C36.9793008,114.389366 37.6811398,113.977851 38.2588123,113.792159 C39.9274228,113.25617 41.625913,112.821528 43.3443229,112.488916 C43.334363,109.948407 42.8961286,108.356083 42.17105,105.929847 C41.6823523,104.29331 39.9772222,101.662337 37.7568348,101.415428 C37.3378562,101.369175 36.9089177,101.265106 36.576258,100.998472 C36.499899,100.936574 35.6121424,99.8265047 35.7728283,99.8156217 C36.2097347,99.784333 36.6473051,99.7537244 37.0848754,99.7231159 C36.9852767,99.927853 37.2316175,100.164559 37.4540547,100.140752 C37.7203153,100.112865 37.9234966,99.8122207 37.8557695,99.5455864 C37.7269552,99.0374847 36.8810301,99.1415537 37.041716,99.651696 C36.6406651,99.6972687 36.2402783,99.741481 35.8385635,99.7870537 C35.7854442,99.7924952 35.7250209,99.7958962 35.6845175,99.7598461 C35.6526459,99.7312782 35.642686,99.6850253 35.6320621,99.6435337 C35.4043131,98.7701702 34.938855,97.9525822 34.6267791,97.1118677 C34.4554693,96.650019 33.4130027,94.3006438 33,94 C34.0384826,94.803304 36.033113,97.2111754 37.2362655,97.7172365 C37.0755795,97.6498978 42.4950778,98.1709231 42.8018419,98.2348609 C43.9472271,98.4770084 45.3449291,98.9109694 46.3561881,99.5367439 C47.0600191,99.9720653 47.4351742,100.765166 48.1058056,101.131109 C48.9344669,101.584115 49.8985825,101.005954 50.717284,100.548186 C52.0963942,99.7754905 53.6341984,99.3122813 55.1998903,99.1986896 C53.2636912,100.336647 51.182742,101.205249 49.0267617,101.775248 C49.0187938,102.138469 49.3262219,102.444555 49.6602096,102.543182 C49.9948613,102.64249 50.3494327,102.582633 50.6907243,102.522777 C52.4602616,102.21057 54.2297988,101.899043 56,101.586836 C55.8764976,102.06773 55.4263114,102.386739 54.9655013,102.507132 C54.5040273,102.627526 54.0193135,102.591476 53.5432316,102.60576 C52.4469817,102.639769 50.8109068,102.899602 49.8441352,103.462799 C50.2146425,105.770002 50.5134386,108.391453 49.1217125,110.204159 C48.9796183,110.38917 48.8249083,110.559218 48.6589105,110.715661"/>
    <path fill="#A5533E" d="M65.0250359,1.05385768 C65.4551417,0.693039353 65.9036513,0.385023708 66.3841973,0.189383002 C66.9840279,-0.0556755996 67.6813308,-0.048906025 68.298202,0.183290385 C68.3970377,0.220523045 69.8925242,1.1012447 69.581703,1.19872658 C68.9300689,1.40384469 68.2389006,1.49184916 67.5504587,1.4593552 C67.6090785,1.31990196 67.6690616,1.17367915 67.6629269,1.02000981 C67.6574739,0.867017421 67.5661361,0.7018398 67.4182234,0.663930183 C67.3050735,0.730948971 67.1871523,0.80338342 67.1189897,0.917112273 C67.0515088,1.03151808 67.0542353,1.20143441 67.1605689,1.28537713 C67.2464537,1.35307288 67.3657382,1.34427243 67.4720718,1.33141024 C67.8551454,1.28740801 68.2382189,1.24205186 68.6206109,1.19737266 C69.5101323,1.09379817 70.3867028,0.908988784 71.2700895,0.7607351 C72.1214399,0.618574033 73.2004532,0.615189245 74,0.30446577 C72.6190266,0.831138676 71.2632733,1.4227995 69.9395564,2.07606345 C70.7336502,1.68478204 69.9947681,4.60788436 69.9422829,4.78457025 C69.5707969,6.03423373 69.3035997,7.33128423 68.5994805,8.44081751 C67.8858185,9.56524385 66.4837147,10.0817624 66.173575,11.4925417 C65.880476,12.8234401 66.2390111,13.8632468 65.4667293,15.2401783 C64.7946465,16.4404238 63.950794,17.6129142 63.8301463,19 C63.6379279,18.5152985 63.4450278,18.0305969 63.2521278,17.5458954 C64.6501419,16.3659585 65.4231053,14.4698007 65.2663314,12.6041059 C64.3120556,11.9961981 63.1614716,13.1158857 62.9849305,14.2233881 C62.8077079,15.3302136 63.098762,16.5324901 62.6686563,17.5594345 C62.0545116,15.7269107 61.9788512,13.7271783 62.4553075,11.8845001 C59.6967687,13.3738065 54.6554659,10.5420935 52.9411776,7.79906183 C50.4982315,9.69725056 47.2312,10.4872599 44.1420729,9.92673914 C45.8652224,8.80840541 48.0000737,8.3406278 50.0619911,8.62901168 C47.1957555,9.02029309 44.2715817,9.05075618 41.3780811,8.7210779 C39.6617479,8.52543719 37.6700379,7.98319426 37,6.3578194 C37.9542758,5.74652681 39.2050588,5.92253575 40.3358756,6.13510039 C42.8531189,6.60693974 45.3587745,7.14985963 47.8507977,7.76182917 C46.0744814,7.22567886 44.332928,6.56293751 42.6424966,5.77969772 C41.5750709,5.28484182 40.4156258,4.60923827 40.1088943,3.46585712 C41.4489702,2.58852025 43.2784533,3.38800701 44.5871744,4.38787318 C45.8965771,5.3870624 47.2025718,6.6489111 48.8193876,6.73353079 C47.6347224,5.2692718 46.6470469,3.64389693 45.893169,1.91968627 C45.6573266,1.38082813 45.4630633,0.696424141 45.8406838,0.26723311 C46.1685457,-0.104416537 46.7935964,-0.0610912593 47.2100696,0.229323492 C47.6265429,0.520415201 47.8807892,0.990223679 48.105044,1.44920084 C48.8432445,2.96016989 49.426716,4.54560427 49.8438709,6.17097914 C50.1785491,7.4605831 56.3772521,6.22445878 57.2579124,5.98278496 C59.0539958,5.4919908 60.759423,4.68302663 62.2658156,3.59650991 C63.1996426,2.92293723 64.067352,1.85740619 65.0250359,1.05385768"/>
    <line x1="121.101" x2="121.899" y1="61" y2="73" stroke="#897A72" stroke-width="4.431"/>
    <line x1="124.211" x2="124.789" y1="150" y2="159" stroke="#897A72" stroke-width="4.431"/>
    <path stroke="#897A72" stroke-width="2.216" d="M25.6453281 213.820582C27.7789155 212.699796 30.1992864 215.919147 29.0277455 218.015716 27.8575606 220.110955 24.8026051 220.466813 22.6113898 219.459103 19.7110127 218.123471 17.9048872 214.890817 18.0038716 211.718027 18.1028559 208.544571 19.9645753 205.547382 22.6113898 203.766096 27.4602672 200.504175 33.9986584 201.354243 39.5302567 203.261909 45.0632109 205.169574 50.3920946 208.025085 56.2321715 208.458766 66.4607807 209.219704 75.5036116 202.544206 84.9356002 198.542632 89.0339593 196.804582 93.5065605 195.531475 97.9174661 196.165368 102.327694 196.799261 106.629445 199.727939 107.74607 204.012204 108.435571 206.660186 107.723019 209.753158 105.582652 211.476575 103.442963 213.198662 99.8768139 213.086251 98.1791644 210.931148 97.7228872 210.351133 97.4096628 209.551616 97.7208533 208.883135 98.0320438 208.214654 99.1879913 208.041714 99.4727408 208.722168M29.5305693 19.0199726C30.9445036 20.41516 33.7000187 19.6058591 34.4384292 17.7724102 35.1768396 15.9389613 34.109796 13.7199741 32.3699333 12.7472312 30.6293943 11.7744884 28.4303918 11.88323 26.5674607 12.6002653 25.1494692 13.1466094 23.8437269 14.0461988 22.9937435 15.2917841 20.5235847 18.9132082 22.9626383 24.2738384 26.9670949 26.134308 30.9708754 27.9941184 35.7543145 27.1465932 39.8338293 25.4541788 43.9140204 23.7617644 47.634473 21.2811384 51.7890461 19.7752323 64.3751575 15.2126994 78.2541634 20.2616037 90.5853474 25.4587921 93.6911342 26.7676453 96.922018 28.1153818 100.296932 27.9921413 104.613117 27.8346308 108.83531 24.8419308 109.810391 20.6926158 110.784119 16.5433008 107.899449 11.7316508 103.63398 11.0719519 101.236174 10.7009125 98.5192025 11.7797607 97.5292456 13.9644779 96.5386126 16.1505131 97.9457849 19.2025267 100.358467 19.4621884"/>
    <path fill="#897A72" d="M24.2051998,71.1559535 C24.4678645,70.5945424 24.6782678,69.9960188 24.9307517,69.5041094 C25.6155804,68.170758 26.2264286,66.7733033 26.5284591,65.2969001 C26.5515356,65.184213 26.5841142,65.0580305 26.6832073,65 C26.7660112,65.522949 26.8033408,66.0539953 26.7945174,66.5843669 C26.788409,66.9912549 26.754473,67.4028664 26.8345619,67.802332 C26.9031127,68.1403933 27.0748289,68.4251474 27.2988066,68.6721143 C26.7694048,68.6991053 26.5970099,67.9305389 25.978017,68.4082781 C25.7689712,68.5695489 25.6339058,68.8084185 25.5097,69.0425647 C25.1397975,69.736906 24.8031523,70.4535149 24.5866405,71.2106101 C24.2730718,72.3084657 25.1594804,72.8091472 25.9909127,72.0142647 C26.3126261,71.7065683 26.4965593,71.3057531 26.7117136,70.9231569 C26.9139722,70.5655272 27.2479026,70.2625542 27.4114741,69.8927786 C27.5078524,69.6748269 27.5214268,69.404243 27.3850041,69.2085588 C27.8030957,69.5722614 28.2870232,69.8597147 28.8048868,70.0506755 C28.1974322,70.4008826 27.4847759,70.5162688 27.0191738,71.0520385 C26.577327,71.5608173 26.3689599,72.1836327 26.1850267,72.8239922 C26.1531268,72.9353298 26.1280142,73.0723087 26.2114968,73.1519319 C26.2664731,73.2032146 26.3485983,73.2092876 26.4239362,73.2133362 C27.7915575,73.2936342 29.6105277,74.0088935 30.3815539,75.2106641 C30.9890085,76.1593949 31.0405912,77.4313419 31.8095813,78.2538901 C32.8208744,79.3362259 34.5475387,79.1533624 36,78.8868271 C35.2133632,79.0312285 34.6038725,79.5939891 34.0724345,80.1580993 C33.6645237,80.5913036 33.3271997,81.0967085 32.9253973,81.5407091 C32.8941762,81.5744477 32.8595615,81.6102107 32.8147659,81.6156089 C32.7692917,81.6210071 32.7285685,81.5946909 32.6912389,81.5690495 C32.0118399,81.1061553 31.417281,80.7012915 30.5586999,80.7012915 C30.4962576,80.7039906 30.429743,80.7107384 30.3754454,80.7438022 C30.252597,80.8173525 30.2390226,81.008988 30.3265776,81.1230246 C30.4134537,81.2363865 30.5715956,81.2775476 30.7134481,81.2579792 C31.0154786,81.2168181 31.2333478,80.9563557 31.4213533,80.7154618 C31.5747441,80.5164038 32.6410136,81.8295119 32.7041345,81.9772872 C31.5387719,82.7566499 30.1005637,83.1061823 28.7105447,82.9719025 C27.3157746,82.8376227 25.9915914,82.3072511 24.7149186,81.728296 C23.6276088,81.728296 21.7197262,80.2572909 20.7763051,79.722196 C19.6862804,79.1027544 18.5982919,78.5501154 17.8089403,77.5595487 C17.3080447,76.9313351 17.2428876,76.3280881 16.4684678,76.6958394 C15.5793443,77.1175725 14.4913557,79.6405485 13.9259818,80.4846894 C13.7196508,80.7944102 13.1929639,81.0811887 13.0707943,80.7289572 C13.7359401,78.7997814 14.9332026,77.059542 16.4935804,75.7531816 C13.5554005,77.9968016 10.3335156,79.8638983 6.93041232,81.2964413 C4.73407364,82.221555 2.35040817,82.9766259 0,82.5926801 C0.0285062499,81.5251893 0.947493448,80.7228843 1.81897023,80.11154 C5.53156992,77.5109651 9.81633076,75.7403609 14.2741653,74.9657215 C9.76746291,74.9657215 5.35849626,77.0291772 0.885051187,76.4785625 C5.16913331,73.7990391 10.9267171,75.8132364 15.6750438,74.0993131 C12.6812089,73.6168504 9.68805264,73.1357373 6.6948964,72.6532747 C5.76097736,72.5028003 4.79176486,72.3381557 4.01802379,71.7929392 C7.89012274,71.7706717 11.7642578,72.5918703 15.2990328,74.1829849 C15.6411078,74.3368332 15.9913275,74.500803 16.365981,74.5129489 C16.7379197,74.52442 17.096284,74.384742 17.4424313,74.2470884 C18.4591542,73.8435742 19.4371901,73.3759565 20.5143191,73.2241326 C21.400049,73.0999744 22.2796704,73.1863453 23.0805603,72.649226 C23.5882431,72.3084657 23.9262457,71.7531276 24.2051998,71.1559535"/>
  </g>
</svg>
