<svg xmlns="http://www.w3.org/2000/svg" xmlns:xlink="http://www.w3.org/1999/xlink" width="155" height="253" viewBox="0 0 155 253">
  <defs>
    <polygon id="reja-pajaro2-a" points=".362 .609 41.881 .609 41.881 41.679 .362 41.679"/>
    <polygon id="reja-pajaro2-c" points=".453 .573 35.739 .573 35.739 28.402 .453 28.402"/>
  </defs>
  <g fill="none" fill-rule="evenodd" transform="translate(12 2)">
    <path stroke="#897A72" stroke-width="4.014" d="M8.04900191,210.944855 C6.21973045,210.944855 5,41.6666937 5,41.6666937 L117.1951,38 L130,214 L8.04900191,210.944855 Z"/>
    <path stroke="#897A72" stroke-width="3.212" d="M21,42.0483783 L27.708838,209.731881 L53.3260525,211.561168 L41.372347,40.9045069 L64.7803086,40.0887529 C65.6313185,50.1864655 66.6866487,59.2109881 67.2639344,69.2911925 C67.4001478,71.6632342 67.4267419,74.0761284 68.1201333,76.3483083 C68.8128762,78.6204882 70.3047381,80.789564 72.5250177,81.6377407 C74.7446488,82.485269 77.6803735,81.565114 78.505438,79.3370289 C79.3305025,77.1089438 77.0304406,74.2427809 74.7796751,75.0060102 C73.939692,75.2913296 73.291705,75.957291 72.7196084,76.6342761 C68.1175388,82.0812827 66.3785468,89.8192743 68.2083478,96.710386 C74.6564343,120.996254 74.1174181,148.246201 76.2300243,173.327072 C77.3372453,186.478351 78.4451149,199.629629 79.5529845,212.78026 L107,214 C105.969318,201.80519 104.938636,189.611028 103.907954,177.416218 C102.884407,165.309597 101.86086,153.202977 100.837313,141.096356 C100.239271,134.015896 94.8225152,116.262546 101.059795,111.182564 C102.597062,109.930401 104.631183,109.169765 105.633325,107.459146 C107.271778,104.664312 105.073552,100.960996 102.161178,99.5402356 C99.2494532,98.1201232 95.8694131,98.1778355 92.6800718,97.6052514 C89.4907305,97.0326672 86.0581509,95.4270972 85.104008,92.3313818 C84.1647836,89.2836519 86.0970691,85.9771893 88.7097733,84.146606 C91.3224775,82.3160227 94.5092242,81.5566841 97.5162989,80.4912755 C98.2953102,80.2150345 99.0937806,79.8992378 99.6613368,79.2987702 C100.495482,78.4175223 100.667371,77.0797634 100.470185,75.8833674 C99.9000347,72.4238697 96.8423665,70.0051395 95.0002414,67.0216065 C91.0072406,60.5513408 92.9155265,46.6225669 92.2707827,39"/>
    <g transform="translate(35)">
      <mask id="reja-pajaro2-b" fill="#fff">
        <use xlink:href="#reja-pajaro2-a"/>
      </mask>
      <path fill="#897A72" d="M8.7402,23.2458844 C7.95447692,21.2436656 7.92152308,18.9572906 7.91506154,16.7706656 C6.13490769,17.2162594 4.35475385,17.6618531 2.5746,18.1074469 C2.08933846,18.2281969 1.57370769,18.3496031 1.09684615,18.1973531 C0.619984615,18.0451031 0.225184615,17.5076344 0.4074,17.0344781 C0.530815385,16.7135719 0.861,16.5337594 1.17115385,16.3946344 C2.80527692,15.6563531 4.58866154,15.2599781 6.37721538,15.2396344 C5.0526,14.3687906 3.82555385,13.2689156 3.10250769,11.8441969 C2.37946154,10.4194781 2.22890769,8.62988438 2.99718462,7.23010312 C4.7754,8.55966562 6.25250769,10.3026656 7.28247692,12.2871656 C7.25598462,10.3335094 6.5394,8.46385313 6.24281538,6.53316563 C5.94623077,4.60379063 6.18336923,2.37779063 7.65272308,1.11844687 C8.02878462,0.796228125 8.51146154,0.545540625 8.99801538,0.622978125 C10.0809692,0.795571875 10.3097077,2.26294688 10.2496154,3.37529063 C10.0758,6.58960312 9.72041538,9.79407188 9.18475385,12.9670406 C13.3033385,14.5243219 17.9879538,14.4803531 22.0774615,12.8443219 C25.7960769,11.3579156 29.1114923,8.59510313 33.0905077,8.21316563 C33.8419846,8.14097813 34.6309385,8.16525937 35.3048769,8.50847813 C35.4606,8.58722813 37.3997077,10.1970094 37.1205692,10.2751031 C36.3639231,10.4890406 35.6072769,10.7029781 34.8499846,10.9162594 C34.9553077,10.5238219 34.4409692,10.2002906 34.0597385,10.3230094 C33.6022615,10.4700094 33.3483231,11.0685094 33.5583231,11.5068844 C33.9595846,12.3462281 35.4076154,11.8546969 34.9501385,11.0245406 C35.6382923,10.7994469 36.3258,10.5743531 37.0139538,10.3499156 C37.1057077,10.3197281 37.2110308,10.2908531 37.2943846,10.3400719 C37.3596462,10.3787906 37.3926,10.4542594 37.4262,10.5225094 C38.1253385,11.9610094 39.2218615,13.2151031 40.0579846,14.5663219 C40.5161077,15.3072281 41.0537077,16.2988219 41.8807846,16.6715719 C39.7840154,15.6524156 37.5567231,14.9088844 35.2732154,14.4665719 C35.5782,14.5256344 32.8902,20.3721656 32.5942615,20.8610719 C31.4886923,22.6906969 29.9140154,24.8359781 28.2702,26.1944156 C27.1265077,27.1400719 25.6093385,27.2975719 24.5981077,28.2287906 C23.3478,29.3798531 23.6825077,31.4030719 23.9138308,33.1007906 C24.3028154,35.9613844 24.0921692,38.9053219 23.2999846,41.6792906 C22.6667538,37.6302281 22.5588462,33.4971656 22.9807846,29.4198844 C22.3986,29.1816656 21.7117385,29.5222594 21.3427846,30.0387281 C20.9744769,30.5551969 20.8497692,31.2042281 20.7341077,31.8309469 C20.1344769,35.0806969 19.5354923,38.3311031 18.9358615,41.5808531 C18.2347846,41.0702906 17.9989385,40.0957594 18.0919846,39.2249156 C18.1850308,38.3534156 18.5455846,37.5383531 18.8189077,36.7075406 C19.4489077,34.7926031 20.0478923,31.8060094 19.7396769,29.7867281 C15.7755231,28.9972594 11.3461385,27.8888531 9.27973846,24.3621656 C9.06909231,24.0018844 8.89075385,23.6291344 8.7402,23.2458844" mask="url(#reja-pajaro2-b)"/>
    </g>
    <g transform="translate(99 69)">
      <mask id="reja-pajaro2-d" fill="#fff">
        <use xlink:href="#reja-pajaro2-c"/>
      </mask>
      <path fill="#BE4251" d="M8.52264,14.4056841 C7.92634909,14.3819568 7.34773091,14.4135932 6.81558545,14.557275 C6.14991273,14.7372068 5.56474909,15.1860477 5.19362182,15.7673659 C5.13405818,15.8616159 4.44024,17.5343886 4.76554909,17.4170705 C5.44889455,17.1718886 6.08969455,16.8067523 6.65064,16.3420932 C6.51056727,16.2643205 6.36525818,16.1825932 6.27165818,16.0527523 C6.17674909,15.9229114 6.14794909,15.7297977 6.24809455,15.6039114 C6.38751273,15.5880932 6.53413091,15.572275 6.66438545,15.623025 C6.79529455,15.673775 6.90329455,15.8154795 6.86794909,15.9519114 C6.83849455,16.0619795 6.73245818,16.1298659 6.63362182,16.1878659 C6.28147636,16.3941614 5.92867636,16.6004568 5.57653091,16.8067523 C4.75769455,17.2859114 3.89762182,17.6899341 3.05522182,18.1288886 C2.24358545,18.5526841 1.32918545,19.2348432 0.452749091,19.4866159 C1.96082182,19.0430477 3.48853091,18.6693432 5.02998545,18.3661614 C4.10576727,18.5474114 6.61922182,20.4825023 6.77762182,20.5945477 C7.89885818,21.386775 8.96314909,22.2831386 10.2748582,22.7484568 C11.6048945,23.2197068 13.1240945,22.7543886 14.29704,23.7166614 C15.4051855,24.6255477 15.7736945,25.707775 17.3164582,26.3503886 C18.6589309,26.9099568 20.1303491,27.3377068 21.1291855,28.4021386 L20.6782036,26.8400932 C18.7342036,26.7570477 16.8556582,25.6886614 15.7822036,24.054775 C16.1965309,22.9501386 17.8924582,23.1406159 18.7571127,23.9381159 C19.6217673,24.736275 20.1532582,25.9087977 21.1795855,26.4802295 C20.5152218,24.5833659 19.28664,22.8921386 17.6934764,21.6794114 C20.9878036,21.1527977 23.4187855,15.6243432 23.0947855,12.280775 C26.3864945,12.2906614 29.6585673,10.8663659 31.9075855,8.445525 C29.7279491,8.619525 27.6209673,9.58970682 26.0651127,11.1359341 C28.7408945,9.63847955 31.23144,7.807525 33.4640945,5.69909318 C34.78824,4.44945682 36.1215491,2.73911591 35.63784,0.978025 C34.4360945,1.08018409 33.49224,2.02004773 32.6734036,2.91245682 C30.8511491,4.89763864 29.0838764,6.93422955 27.3742036,9.01893409 C28.5281673,7.45095682 29.5721673,5.80059318 30.4944218,4.08432045 C31.0776218,2.99879773 31.6215491,1.70763864 31.1417673,0.573343182 C29.4412582,0.702525 28.4129673,2.52095682 27.9521673,4.17395682 C27.4913673,5.82629773 27.2027127,7.69218409 25.8903491,8.78891136 C25.9453309,6.83338864 25.7299855,4.86995682 25.2541309,2.97375227 C25.10424,2.38122955 24.8260582,1.69445682 24.2297673,1.58175227 C23.7120218,1.48486591 23.2119491,1.91657045 23.0476582,2.41945682 C22.8833673,2.92300227 22.97304,3.47136591 23.0797309,3.99007045 C23.4325309,5.70172955 23.9633673,7.37582045 24.6611127,8.97609318 C25.2115855,10.2494568 19.1727491,13.1679114 18.2727491,13.5284341 C16.4374036,14.2639795 14.4731127,14.6825023 12.4976945,14.7451159 C11.2736945,14.7833432 9.85136727,14.4584114 8.52264,14.4056841" mask="url(#reja-pajaro2-d)"/>
    </g>
    <path stroke="#897A72" stroke-width="2.409" d="M5 41.9552737C9.70073728 42.3394748 16.1895169 40.1683072 20.6123302 38.5140526 24.7721199 36.9593321 28.1357125 33.4942228 31.8309999 31.0284347 34.085488 29.5241446 36.5421026 28.0928462 39.2312923 28.0032656 39.5655785 27.9913215 39.9154129 28.0052563 40.2121242 28.163847 40.5004137 28.3184565 40.7077229 28.5931702 40.8884707 28.8705382 41.7099336 30.1306383 42.1893362 31.6833682 41.928904 33.174387 41.6684717 34.6647423 40.5632543 36.0396382 39.1107938 36.3269596 38.1565234 36.5154106 36.9599604 36.0283577 36.8342791 35.0416443M115 37.4361109C108.765923 38.6062962 102.161835 37.9428209 96.3264835 35.5610987 93.8727906 34.5594052 91.5541814 33.263931 89.0384936 32.412831 86.6702884 31.6123403 81.2082114 30.1187492 78.8948228 31.6901057 76.4078484 33.3805792 79.6446348 36.3628238 82.0409008 35.3500209 82.3808939 34.8754046 82.6256106 34.3390696 82.7567788 33.7792816 82.6177797 33.7169458 82.4428888 33.7329926 82.318899 33.8193987M8 211.106037C13.7935909 210.412524 19.3724615 213.244534 24.5508209 215.995535 27.0663914 217.332507 29.5826047 218.66882 32.0988181 220.006451 35.2501921 221.680629 38.6619305 223.404862 42.1797434 222.915517 44.2131575 222.632975 46.4522917 220.915987 45.9206339 218.88616 45.4243343 216.990031 43.0135525 216.517151 41.1035704 216.669289 40.2646183 216.737126 39.3260206 216.91495 38.8522216 217.627562 38.3784226 218.340175 38.9447956 219.625776 39.7522468 219.38275M124 215C117.388809 216.331703 110.717756 217.950896 104.90601 221.322896 102.769651 222.562779 100.745935 224.040126 98.4126113 224.867137 96.1507356 225.668185 93.7131365 225.816363 91.3135142 225.957575 89.9019338 226.04053 88.3571126 226.086123 87.2268184 225.25088 86.0109154 224.352947 85.66848 222.550114 86.3359715 221.20638 87.0041067 219.862012 88.5386291 219.033735 90.0596343 219.035635 90.8230335 219.036268 91.6520875 219.2712 92.0788444 219.894308 92.5056012 220.517415 92.2642229 221.56226 91.520134 221.729436M58.3756085 225.925697C59.7002479 225.101233 61.4220854 226.944458 60.9829071 228.444426 60.5430829 229.944394 58.8826012 230.742952 57.3357892 230.941782 56.3327833 231.070018 55.2645466 231.012377 54.3894191 230.503968 53.4903952 229.982606 52.9000878 229.044154 52.5325989 228.070082 51.5128009 225.366123 52.0197936 222.219817 53.5226877 219.753548 55.0255819 217.286631 57.4352502 215.462836 60.0761329 214.303534 64.0074251 212.577534 68.8958676 212.359275 72.3505221 214.912977 75.712174 217.39738 76.969645 222.362301 75.198077 226.154967 74.3636381 227.939903 72.7470743 229.530543 70.7830428 229.628986 68.8190114 229.726135 66.837542 227.721643 67.4846842 225.859636"/>
    <line x1=".5" x2=".5" y1="75" y2="87" stroke="#897A72" stroke-width="4.817"/>
    <line x1="2.5" x2="2.5" y1="166" y2="175" stroke="#897A72" stroke-width="4.817"/>
  </g>
</svg>
