<svg xmlns="http://www.w3.org/2000/svg" xmlns:xlink="http://www.w3.org/1999/xlink" width="122" height="164" viewBox="0 0 122 164">
  <defs>
    <polygon id="shaking-hands-a" points=".033 .052 97.629 .052 97.629 14 .033 14"/>
  </defs>
  <g fill="none" fill-rule="evenodd" transform="translate(0 8)">
    <g transform="translate(11 132)">
      <mask id="shaking-hands-b" fill="#fff">
        <use xlink:href="#shaking-hands-a"/>
      </mask>
      <path fill="#B4A9A4" d="M97.6287497,3.71802308 C96.3301128,6.02317692 93.5067274,6.89925385 90.9888391,7.80279231 C82.9758335,10.6765615 78.0911631,12.0453308 67.0313978,13.0888692 C57.4936436,13.9891769 47.8973084,14.2858692 38.2725039,13.6897923 C34.7269844,13.4701 31.1885821,13.1577923 27.6600346,12.7539462 C20.727219,11.9597154 13.7133754,11.3975615 7.4654648,8.17702308 C6.80957654,7.83886923 0.0508614525,3.76863846 0.0327944134,4.6151 C0.0448391061,4.05886923 0.0563363128,3.5021 0.0683810056,2.94479231 C0.141196648,-0.3269 32.2682246,0.204023077 34.9038223,0.167946154 C44.2494089,0.0397923077 53.597733,0.0295615385 62.9444145,0.0812538462 C74.5850626,0.145330769 86.0762469,2.1791 97.6287497,3.71802308" mask="url(#shaking-hands-b)"/>
    </g>
    <path fill="#B4A9A4" d="M91.49744,69.318014 C92.2759161,71.5092327 92.6868387,73.4783203 93.305391,75.696348 C94.9951611,81.7540692 94.7918683,88.3348379 92.7318342,94.2743811 C94.980524,87.791547 96.480012,81.3010532 96.5629555,74.3942005 C96.6431884,67.6263165 94.0394137,60.8633566 91.3982331,54.6710436 C90.5454874,52.6718643 89.5870294,51.5661332 87.7926313,50.4521953 C87.1236623,50.0363835 84.0298163,49.5051293 83.8330288,48.7665162 C82.1329585,42.3394884 85.8442727,34.9210778 91.9793796,32.4869375 C92.9513904,32.1012173 94.0101395,31.8019423 94.738199,31.0458214 C95.4662584,30.2902476 95.6473246,28.869922 94.7886156,28.2697305 C94.4226885,28.013678 93.9483385,27.9573246 93.5834956,27.7001778 C92.2352575,26.7481877 93.6019275,24.6778826 94.9295653,23.6985365 C100.286196,19.7444946 105.643369,15.7904527 111,11.8364109 C108.370204,13.3152783 105.417307,14.2032554 102.414537,14.4193681 C104.247967,11.3686226 106.560084,8.61113391 109.238129,6.28204076 C101.245196,11.5179866 92.1338821,16.9886472 82.804096,15.0332376 C88.0403775,12.3375735 90.9542415,5.7299959 89.433069,0 C86.6043168,7.37190535 80.1341833,13.2146081 72.5597631,15.2362194 C62.3224777,17.9690877 67.3164341,28.6893722 64.6042365,35.9157434 C64.0767594,37.3207496 62.3024194,38.1753522 62.3029616,39.6777459 C63.2765987,39.4490494 64.1933139,38.8980988 64.9463106,38.2524962 C65.9183215,40.7123513 68.649493,43.2416906 71.002811,44.4081521 C74.2560386,46.0199699 78.1489609,43.6870469 79.3351069,48.3206128 C79.4213031,48.6543564 79.4955727,49.046642 79.2803534,49.3147312 C79.0640498,49.5833675 78.6715591,49.5893859 78.3321956,49.6369854 C75.9908041,49.9668992 75.1201687,52.8546027 74.6691296,55.1968267 C72.9023793,64.3764191 70.926915,75.2460676 64.5034033,82.3936534 C62.7388214,84.3572699 60.3014758,86.1644098 57.5421142,85.9439201 C57.5128401,86.0932841 57.37948,86.3586377 57.2645518,86.4653262 C58.0712177,86.5829572 58.8762574,86.7093421 59.6818392,86.8368212 C58.9418532,87.9064423 58.0332698,88.8567911 57,89.6408152 C58.048449,89.4186842 59.0665395,89.0515661 60.0168658,88.5536862 C59.1586989,89.3114485 58.29999,90.0686637 57.441281,90.8264259 C58.2278888,91.0233894 59.0996085,90.8406511 59.7436402,90.3433183 C59.0269652,90.9549993 58.5070776,91.7964711 58.276679,92.7145397 C58.9114948,90.1808234 63.1773918,86.6994939 64.9539002,84.8376419 C67.1868688,82.4976063 70.1403072,80.3151416 71.9282,77.6041581 C71.5416725,80.3414034 69.427427,106.504172 68.1800221,106.314868 C69.2295553,106.47408 70.2790884,106.633292 71.3286216,106.792504 C71.3757856,112.343592 71.6652746,117.647381 71.5020982,123.221447 C71.3465114,128.529066 72.6584279,135.283272 71.5666098,140.409793 C73.2552957,132.478731 74.9434394,124.548215 76.6315832,116.617152 C78.0774019,116.395568 79.5226784,116.173984 80.967955,115.951853 C83.7685172,125.000137 85.048449,134.526057 84.7367333,144 C88.0111033,133.007249 89.120269,121.362331 87.9818291,109.941732 C90.1833551,110.441253 92.498725,110.423745 94.6921193,109.891397 C93.3948399,110.20435 91.0480273,72.7894953 91.4486497,69.1806866 C91.4649132,69.2266448 91.4811766,69.2726029 91.49744,69.318014"/>
    <path fill="#897A72" d="M35.8456098,144 C33.7268859,134.563892 29.7363384,125.992801 24.4541007,119.534076 C23.4093108,124.71 22.3645209,129.885925 21.319731,135.062395 C18.2606962,114.457961 18.0660354,93.0032361 20.7489458,72.2935387 C19.2158541,79.4612942 17.6833123,86.6290497 16.1502206,93.7935327 C16.9365625,86.3372562 17.0773342,78.8160762 18.0423901,71.3767074 C18.5361908,67.5697577 20.0962271,55.4475135 22.5547826,52.8039197 C26.178004,48.9118863 33.9160478,46.0408571 23.7656391,43.7834123 C17.5436404,42.3997115 17.1158264,37.7675591 16.1051297,32.5103688 C14.0589912,33.3824766 11.8517351,33.8804344 9.62633262,33.9731538 C7.66102785,34.0544196 5.40758103,33.6589986 4.36224126,32.0064116 C3.76121213,31.0574012 3.68917661,29.8744107 3.73976644,28.7546875 C3.87283968,25.7723951 4.76091108,22.826645 6.29895178,20.2610445 C4.49806394,19.9894312 2.58609845,19.6681857 1.23062104,18.4606518 C-0.124856363,17.2536633 -0.535073866,14.8342322 0.896288279,13.7166907 C2.31940208,16.0275855 5.10734141,17.2362103 7.82874413,17.4489195 C10.5506967,17.6610833 13.2589021,17.0229556 15.9132183,16.3897366 C16.8073385,19.2689469 17.9791528,22.0636188 19.4072156,24.7224842 C21.4247599,19.6403699 23.4670492,14.4524465 23.7881846,9 C24.770837,16.1486662 23.8013819,23.5525834 21.0101433,30.2152908 C22.3782681,26.9493861 30.7288888,21.9867163 34.2327841,21.9736265 C40.1935854,21.9507193 39.941736,26.9302968 41.8581006,30.8921425 C43.2256756,33.7206298 47.0221121,33.1534052 43.740922,34.2136788 C43.0678574,34.4312967 44.8209048,40.4466045 44.7994591,41.0258281 C44.6317428,45.6356188 39.0135227,47.7937993 35.203339,48.7711709 C34.5638176,48.9353388 33.7879236,49.2320409 33.731285,49.8848946 C33.7103892,50.1259651 33.8011209,50.3604906 33.890203,50.5851988 C39.2048842,63.9831529 38.9194916,80.3083132 55.3012472,85.5524137 C56.7117135,86.0034664 58.4928053,86.2379919 59.4694089,85.131904 C59.3907747,85.8060286 59.3132403,86.4801532 59.2346061,87.1542778 C59.7548015,87.1079181 60.2656488,86.9590217 60.7281058,86.7184966 C60.5515913,87.3773498 60.1930634,87.9865708 59.7036618,88.4643485 C60.5108995,88.3116342 61.2917424,88.0187499 62,87.6042396 C61.2120085,88.0803811 60.4240169,88.5570679 59.6365753,89.0332093 C59.886775,89.023392 60.1369747,89.0135746 60.3877242,89.0032118 C57.5601929,90.3721866 54.0947898,89.8109615 51.3321454,88.3181791 C47.5522055,86.2761705 42.6856842,82.4844922 39.9444855,79.195135 C40.2342772,79.5420146 39.7817182,85.4487862 39.7701705,86.3018047 C39.7399266,88.5483414 39.3517047,90.8657811 39.2114829,93.1390427 C38.8612033,98.7938357 38.584609,104.452446 38.2970168,110.110512 C37.7212826,121.422279 37.1164042,132.740046 35.8456098,144"/>
  </g>
</svg>
