<svg xmlns="http://www.w3.org/2000/svg" xmlns:xlink="http://www.w3.org/1999/xlink" width="141" height="272" viewBox="0 0 141 272">
  <defs>
    <polygon id="smartphone-vert-a" points="0 234 125 234 125 0 0 0"/>
  </defs>
  <g fill="none" fill-rule="evenodd" transform="translate(8 19)">
    <path fill="#A5533E" d="M116.600112,97.3504221 C116.597902,136.014264 115.605425,175.192925 112.639046,213.715109 C112.398111,216.845367 112.046655,220.984319 110.408736,223.959691 C109.71356,225.222487 108.786291,226.275828 107.538511,226.953803 C103.96482,228.893471 93.6482546,230.06532 90.4215994,226.877737 C88.9455939,225.420919 88.3239143,222.981864 86.3638277,222.298377 C85.7239122,222.074591 85.0292888,222.083961 84.3512436,222.095536 C72.3105535,222.307748 60.1908409,223.463612 48.1744653,223.463612 C45.7678745,223.61023 43.312102,223.768425 41.0762659,224.669635 C39.0962855,225.468322 37.3848707,226.813798 35.4529669,227.723827 C31.8234633,229.434197 26.2791866,227.984544 22.3601185,227.647762 C17.6309329,227.240426 15.1933963,227.55957 11.4732657,224.306946 C7.73213608,221.036132 8.51793907,206.666378 8.70748227,198.24847 C9.03517649,183.717215 8.70858748,169.132494 8.70969269,154.595728 L8.71300831,95.3622479 C8.71356091,86.8781956 7.85370871,53.9705231 7.85370871,45.4859196 C7.85370871,37.2394339 8.80418798,26.9816237 10.1376216,19.231217 C11.9092703,8.94915406 29.8700079,8.11298543 37.6584097,7.51217871 C56.3961087,6.06858898 74.9442645,5.43250553 93.626703,7.562889 C99.998228,8.29047146 108.129797,9.46452496 112.558366,14.4842927 C121.801222,24.9620312 116.601217,83.871406 116.600112,97.3504221 M118.87021,8.05510956 C109.547226,-1.72370885 78.5792941,0.14265038 66.5518664,0.142099181 C55.2494553,0.141547983 6.55951023,1.28749035 4.0871596,14.5917765 C2.56418277,22.785347 2.56473538,32.6947996 2.56473538,41.4142138 C2.56473538,50.3844236 0.225562327,84.5989884 0.225562327,93.5697493 L0.225562327,156.200267 C0.225562327,171.569344 0.599675286,186.990785 0.226114931,202.354901 C0.0105993421,211.25566 -0.886277071,226.448904 3.38756284,229.907126 C7.63874599,233.347158 10.4238705,233.009273 15.8272332,233.439208 C28.6586998,234.461131 42.005746,233.433696 54.884184,233.433696 C68.5169265,233.433696 82.202719,233.078724 95.8299355,233.433696 C100.785136,233.562677 108.563591,235.009022 113.148547,232.705562 C114.574266,231.989555 115.633608,230.875582 116.4277,229.540027 C118.298265,226.393785 118.70056,222.018368 118.975757,218.708419 C122.362115,177.977031 123.140181,136.562156 123.140181,95.6819433 C123.140181,81.4301464 129.432131,19.1331036 118.87021,8.05510956"/>
    <path fill="#FEFEFE" d="M110.363821,223.114546 C109.669937,224.373534 108.744943,225.423697 107.499482,226.099627 C103.931884,228.033445 93.6350492,229.201759 90.4138409,226.023791 C88.941131,224.570817 88.3200556,222.139669 86.3636128,221.457694 C85.7248869,221.235132 85.031555,221.244474 84.3553219,221.256014 C72.3364644,221.467586 60.2398346,222.619963 48.2457981,222.619963 C45.8431298,222.76614 43.3924742,222.923307 41.1607947,223.822349 C39.1839436,224.618627 37.4757104,225.960045 35.5479497,226.867329 C31.924642,228.57254 26.391224,227.12726 22.4788901,226.790943 C17.7590478,226.385935 15.3260427,226.704117 11.6122764,223.460754 C7.8781018,220.199806 8.66244395,205.873945 8.85218635,197.480878 C9.17927137,182.993454 8.8532895,168.452176 8.85384108,153.960355 C8.85494423,134.274868 8.85604739,114.58993 8.85715054,94.9044428 C8.85770212,86.4465305 8,53.6381176 8,45.1796557 C8,36.9574944 8.94816071,26.7311744 10.279667,19.0035957 C12.0474705,8.75254662 29.9753697,7.9183506 37.7498441,7.31935609 C56.452157,5.88012066 74.9658308,5.24650537 93.6129861,7.3710125 C99.9732177,8.0958508 108.089118,9.26581347 112.510006,14.2709896 C121.735678,24.7171241 116.54479,83.4493598 116.544238,96.8877191 C116.542032,135.43384 115.550848,174.494327 112.590536,212.900865 C112.350048,216.021682 111.998694,220.148149 110.363821,223.114546"/>
    <path fill="#686868" d="M60.163062 212.698386C60.1625094 212.741015 60.1553262 212.783643 60.1426175 212.826272 59.9481187 213.495043 60.1155424 214.278413 60.5890806 214.924485 61.0653816 215.573879 61.7682294 215.969163 62.4672094 215.98245 63.1949221 215.971377 63.8789832 215.632009 64.3807016 215.008081 64.8862879 214.380278 65.0923903 213.597462 64.9327024 212.91319 64.7730145 212.232793 64.2447735 211.623813 63.5209286 211.283891 62.7915582 210.940094 61.981515 210.9257 61.3527093 211.240156 60.8078917 211.513643 60.3763476 212.046777 60.163062 212.698386M62.5025728 217L62.4495277 217C61.6063313 216.983391 60.7730808 216.601395 60.1354343 215.954769 59.9790617 215.958644 59.8331876 215.893317 59.7298601 215.765985 59.0855829 214.968221 58.852958 213.8787 59.091661 212.777 59.3281539 211.679175 59.9879026 210.787849 60.899063 210.330561 61.8019352 209.879362 62.9440629 209.889881 63.9508151 210.363224 64.9691709 210.84155 65.6869377 211.685265 65.9201152 212.68067 66.1521876 213.667772 65.8714905 214.777776 65.1708529 215.646403 64.4845817 216.496761 63.4910907 217 62.5025728 217M31.0793612 214.17122L35.9994149 216.700889C36.1030952 215.253437 35.9253575 213.789128 35.4773105 212.415285 34.1061914 213.226667 32.6160514 213.821718 31.0793612 214.17122M36.4067304 218C36.334789 218 36.2623185 217.983143 36.1951379 217.948867L29.2744775 214.39036C29.0798124 214.289218 28.9708423 214.065021 29.006813 213.838575 29.0433127 213.61213 29.2168185 213.438503 29.4321139 213.412094 31.6437841 213.149125 33.8089039 212.3428 35.6920769 211.079651 35.9142489 210.929062 36.2168262 210.997052 36.361767 211.240916 36.4786718 211.436457 36.4548677 211.684254 36.3199775 211.8517 36.952639 213.668882 37.148891 215.640024 36.8875743 217.557785 36.8653571 217.720736 36.7711984 217.862897 36.6341923 217.939877 36.5633088 217.979772 36.4855486 218 36.4067304 218M93.0021612 210.342675C92.9615581 211.790011 93.082826 213.235724 93.3648821 214.65276L99.8711201 214.199352C99.5419644 212.842373 99.3535661 211.455094 99.3091734 210.060782 97.2200094 210.319409 95.1021526 210.413554 93.0021612 210.342675M93.0411402 216C92.8159284 216 92.6118302 215.84688 92.5576928 215.618553 92.5506549 215.588253 92.5425343 215.558495 92.5360378 215.528196 92.4586213 215.447036 92.4066493 215.338824 92.3985287 215.218709 92.393115 215.149994 92.4034011 215.082903 92.4245147 215.021222 92.0688317 213.307143 91.9356536 211.553026 92.02877 209.799991 92.0433871 209.527297 92.2897124 209.297888 92.5484894 209.330351 94.9402817 209.440727 97.3558944 209.331974 99.7276558 209.003551 99.8700373 208.987319 100.014043 209.026816 100.120694 209.12042 100.230051 209.214564 100.292309 209.35037 100.293392 209.494292 100.30043 211.191057 100.53268 212.882952 100.982562 214.522906 101.021541 214.666287 100.994472 214.819407 100.908393 214.941145 100.822315 215.062343 100.68643 215.139173 100.538093 215.149994L93.5202565 215.638031C93.4726156 215.8063 93.3383547 215.943189 93.1564529 215.987015 93.1180153 215.996213 93.0790364 216 93.0411402 216"/>
    <mask id="smartphone-vert-b" fill="#fff">
      <use xlink:href="#smartphone-vert-a"/>
    </mask>
    <polygon fill="#686868" points="15 202.959 107 202.959 107 202.041 15 202.041" mask="url(#smartphone-vert-b)"/>
  </g>
</svg>
