<svg xmlns="http://www.w3.org/2000/svg" xmlns:xlink="http://www.w3.org/1999/xlink" width="63" height="69" viewBox="0 0 63 69">
  <defs>
    <polygon id="smartphone-axon-a" points="0 0 63 0 63 48 0 48"/>
  </defs>
  <g fill="none" fill-rule="evenodd" transform="translate(0 9)">
    <mask id="smartphone-axon-b" fill="#fff">
      <use xlink:href="#smartphone-axon-a"/>
    </mask>
    <path fill="#4C655B" d="M3.06574039,42.262723 C2.20137572,41.9150174 1.30776014,41.5263615 0.711041381,40.8004237 C-1.01330032,38.7037664 0.726398114,35.5915407 2.45220236,33.4963726 C9.37077606,25.0918742 16.5452953,16.9070186 23.9633285,8.95669669 C25.7812731,7.00746063 27.0961019,5.5652642 29.4398318,4.33005311 C24.9790666,8.28362206 21.1135576,12.8745272 17.2655992,17.447563 C14.5606204,20.6625368 11.8563729,23.8775106 9.15066289,27.0924843 C7.76197549,28.7431552 6.37840701,30.3990379 4.98386943,32.0452415 C4.09902912,33.0898474 2.59333804,34.6131999 2.61381369,36.1171942 C2.62112642,36.6368912 2.89827888,37.1156378 3.23905209,37.5028047 C4.46905325,38.9047953 6.42593975,39.3202551 8.24169057,39.657537 C13.3445135,40.6060957 18.4305171,41.6462343 23.5662472,42.2522993 C25.1545721,42.4399263 26.8277247,42.6156404 28.2961209,41.9723479 C29.1729172,41.5881592 29.9085778,40.9374212 30.5967057,40.2643465 C32.547742,38.3582944 34.2413702,36.1998394 35.928417,34.0488298 C39.9643126,28.9024892 44.0002082,23.7568932 48.0361038,18.6105526 C50.0792805,16.0053666 51.9747401,13.2855196 53.943327,10.621514 C55.6259861,8.34467529 57.2845132,6.14824809 58.7287774,3.71281984 C58.8435872,3.51774733 58.963516,3.30406102 58.9364589,3.07846189 C58.8816134,2.61162804 58.2973263,2.46271772 57.8366243,2.42623469 C54.6724061,2.17680991 51.5074567,1.92812968 48.3432385,1.6787049 C44.6503099,1.38758523 40.9208177,1.09795466 37.2556775,1.64743373 C34.6611209,2.03608966 32.12726,2.84690634 29.7791425,4.03893344 C31.2424197,3.31076198 32.3086157,2.17308715 33.8252759,1.57223402 C38.1763502,-0.148424705 42.3899451,-0.08067051 47.0028151,0.0719625661 C49.7772648,0.163542412 65.1222971,-0.598133865 62.7522413,5.30318204 C61.8725199,7.49067461 60.2790761,9.08103681 58.9254898,10.9759206 C56.2490307,14.7247379 53.5301577,18.4430285 50.7703335,22.1285589 C45.3157683,29.4125071 39.7003231,36.5713706 33.929848,43.597704 C30.2157125,48.1201103 27.4368751,48.6926705 22.1665907,47.3897052 C15.6823932,45.7866857 9.32982477,44.7830301 3.06574039,42.262723" mask="url(#smartphone-axon-b)"/>
  </g>
</svg>
