<svg xmlns="http://www.w3.org/2000/svg" xmlns:xlink="http://www.w3.org/1999/xlink" width="343" height="171" viewBox="0 0 343 171">
  <defs>
    <polygon id="smartphone-horiz-a" points="0 .468 283.686 .468 283.686 133 0 133"/>
    <polygon id="smartphone-horiz-c" points="0 133 284 133 284 1 0 1"/>
  </defs>
  <g fill="none" fill-rule="evenodd" transform="translate(20 18)">
    <mask id="smartphone-horiz-b" fill="#fff">
      <use xlink:href="#smartphone-horiz-a"/>
    </mask>
    <path fill="#897A72" d="M118.021579,9.37327753 C164.894944,9.37562115 212.391772,10.428489 259.0934,13.5730308 C262.888977,13.8284846 267.906756,14.2017048 271.51389,15.9383216 C273.044817,16.6753877 274.321815,17.6579471 275.143744,18.9809163 C277.495264,22.7705374 278.915264,33.7081762 275.051528,37.1298502 C273.284713,38.6942115 270.32844,39.3539383 269.49916,41.4321366 C269.228525,42.1106123 269.239885,42.8470925 269.253918,43.5654097 C269.51052,56.3322379 270.91181,69.1816784 270.91181,81.922141 C271.090229,84.4743348 271.282012,87.0780881 272.373909,89.4480661 C273.34285,91.5479427 274.974012,93.3624846 276.077269,95.4102159 C278.150803,99.2590132 276.393344,105.136793 275.985052,109.292604 C275.491226,114.306176 275.878135,116.890595 271.93421,120.83548 C267.96957,124.802044 250.548676,123.96889 240.343386,123.767339 C222.726031,123.419899 205.045193,123.766167 187.421824,123.765581 L115.611255,123.762066 C105.325109,123.76148 65.4301252,124.673145 55.1446475,124.673145 C45.1471793,124.673145 32.7113205,123.665392 23.3145958,122.251608 C10.8493346,120.373203 9.83562165,101.329595 9.10791341,93.0718767 C7.35713694,73.2050749 6.58599341,53.5392379 9.16939106,33.7316123 C10.0507934,26.9755639 11.4741346,18.3545859 17.5604216,13.6585727 C30.2622381,3.85875771 101.680553,9.37269163 118.021579,9.37327753 M9.76612518,6.96638767 C-2.08970541,16.8511586 0.172939294,49.6851674 0.172271059,62.437348 C0.172271059,74.4208238 1.56153224,126.04533 17.6900593,128.666661 C27.6240452,130.28141 39.6369111,130.280824 50.2083934,130.280824 C61.0832546,130.280824 102.562624,132.760366 113.438153,132.760366 L189.366389,132.760366 C207.998793,132.760366 226.69468,132.364295 245.321071,132.75978 C256.112403,132.988868 274.53164,133.939789 278.724149,129.407828 C282.894605,124.900476 282.484977,121.947524 283.0062,116.21915 C284.24444,102.613894 282.999518,88.463163 282.999518,74.8086916 C282.999518,60.3544626 282.568506,45.8439868 282.999518,31.3950308 C283.155885,26.1418238 284.909335,17.8940661 282.116779,13.0334141 C281.248742,11.5211982 279.898238,10.3986079 278.279104,9.5560793 C274.464817,7.57279736 269.159697,7.14684581 265.147612,6.85506608 C215.767029,3.26406608 165.55917,2.43911454 115.998831,2.43911454 C98.7202711,2.43911454 23.1963181,-4.23197797 9.76612518,6.96638767" mask="url(#smartphone-horiz-b)"/>
    <path fill="#EEECEB" d="M271.058512,16.1218045 C272.589712,16.8598424 273.866936,17.8442841 274.689012,19.1689977 C277.04095,22.9630289 278.461202,33.9150894 274.596779,37.3412751 C272.828982,38.907699 269.872852,39.5682957 269.042757,41.6492341 C268.772741,42.3286045 268.784104,43.0660558 268.798139,43.7853201 C269.055455,56.5689819 270.456994,69.4359516 270.456994,82.1926263 C270.634776,84.7481853 270.825925,87.3553718 271.918684,89.7284747 C272.887129,91.8311201 274.51925,93.6480545 275.622702,95.6984858 C277.696605,99.552358 275.938834,105.437888 275.529801,109.599178 C275.036556,114.619948 275.423533,117.207774 271.479575,121.157274 C267.512894,125.129068 250.089572,124.294816 239.882468,124.093586 C222.261981,123.745687 204.577332,124.092413 186.951499,124.091239 L115.127496,124.087719 C104.84019,124.087132 64.9381153,125 54.6508093,125 C44.651564,125 32.2134946,123.990918 22.8150996,122.575269 C10.348291,120.694387 9.33306119,101.62567 8.6052236,93.3570634 C6.85413592,73.4646531 6.08352367,53.7728859 8.66738053,33.9385565 C9.54893955,27.1741865 10.9718654,18.5412548 17.0599027,13.8390497 C29.7639769,4.02689989 101.194987,9.54751749 117.538918,9.54869084 C164.419946,9.55103755 211.925886,10.604707 258.636484,13.7539817 C262.432066,14.0091856 267.450737,14.382898 271.058512,16.1218045"/>
    <path fill="#897A72" d="M257.469788 68.8367418C257.524599 68.8378469 257.57941 68.8450299 257.634221 68.8577382 258.494112 69.0522304 259.501353 68.8842598 260.332059 68.4107375 261.167036 67.9344526 261.675283 67.2321809 261.692367 66.5326718 261.678131 65.8055361 261.241067 65.1209455 260.439545 64.6197965 259.631618 64.1142272 258.625801 63.9075792 257.745978 64.0672617 256.870427 64.2269443 256.088125 64.7551675 255.651061 65.478988 255.209014 66.2088865 255.190507 67.0189024 255.594826 67.6471345 255.945759 68.1924863 256.631963 68.6234634 257.469788 68.8367418M263 66.4973096L263 66.550353C262.979357 67.393521 262.488194 68.2267434 261.656776 68.8649211 261.661758 69.0212884 261.577762 69.1671576 261.41333 69.2699291 260.388294 69.9141846 258.987411 70.1473543 257.570868 69.9081067 256.159308 69.6716219 255.012549 69.0118954 254.425289 68.1013181 253.845147 67.1979237 253.85796 66.0563869 254.467287 65.049116 255.081596 64.0307944 256.167138 63.3130518 257.44701 63.0798821 258.716203 62.8478175 260.142712 63.1285051 261.260286 63.8291192 262.353658 64.5159199 263 65.5093775 263 66.4973096M259.62436 99.6602136L262.515339 94.1253066C260.860508 94.0092646 259.187696 94.2086189 257.617628 94.7132529 258.544899 96.2551241 259.22494 97.9320801 259.62436 99.6602136M264 93.6676845C264 93.7486164 263.980735 93.8295483 263.941564 93.9057194L259.874801 101.691247C259.759213 101.909644 259.502351 102.032827 259.244205 101.992361 258.984775 101.950705 258.786349 101.756111 258.75681 101.513911 258.456282 99.0252555 257.534148 96.5895632 256.090585 94.4710524 255.91913 94.2217108 255.996831 93.8807258 256.274884 93.7176718 256.498995 93.5861575 256.782185 93.6129365 256.973547 93.7646837 259.050274 93.0535544 261.302952 92.8321819 263.493982 93.1267501 263.680849 93.1517438 263.843314 93.2570743 263.931289 93.4112019 263.976882 93.4915387 264 93.5784214 264 93.6676845M255.726296 33.8864334C257.587157 33.9315477 259.44593 33.7974079 261.267834 33.4840142L260.684881 26.2543034C258.939498 26.6200297 257.15655 26.8293598 255.363863 26.8792863 255.696383 29.2005654 255.817426 31.5531238 255.726296 33.8864334M263 33.8437252C263 34.093959 262.803131 34.3207333 262.509568 34.3808857 262.470611 34.388104 262.432351 34.3971268 262.393394 34.4043451 262.289047 34.4909645 262.149917 34.5481092 261.995483 34.5577336 261.907136 34.5631473 261.820875 34.5523199 261.741571 34.528259 259.537756 34.9240614 257.282462 35.0714347 255.02856 34.9679726 254.677258 34.9517315 254.382998 34.6786398 254.424042 34.3905101 254.56665 31.7335808 254.426824 29.049583 254.004565 26.4137071 253.983696 26.256108 254.034478 26.0955012 254.154825 25.9770011 254.275868 25.8554933 254.450476 25.7869196 254.635519 25.7857166 256.816378 25.7772953 258.992367 25.5192417 261.100879 25.0193757 261.285226 24.976066 261.482094 25.0061422 261.638615 25.1017844 261.794441 25.1974266 261.892527 25.3490105 261.907136 25.513828L262.534611 33.3113769C262.750958 33.364311 262.926957 33.5128873 262.982609 33.7149992 262.99513 33.7577074 263 33.8010171 263 33.8437252"/>
    <mask id="smartphone-horiz-d" fill="#fff">
      <use xlink:href="#smartphone-horiz-c"/>
    </mask>
    <polygon fill="#897A72" points="246.041 118 246.959 118 246.959 20 246.041 20" mask="url(#smartphone-horiz-d)"/>
  </g>
</svg>
