<svg xmlns="http://www.w3.org/2000/svg" xmlns:xlink="http://www.w3.org/1999/xlink" width="107" height="173" viewBox="0 0 107 173">
  <defs>
    <polygon id="sound-rec-a" points="0 0 80.244 0 80.244 129.371 0 129.371"/>
  </defs>
  <g fill="none" fill-rule="evenodd" transform="translate(16 23)">
    <mask id="sound-rec-b" fill="#fff">
      <use xlink:href="#sound-rec-a"/>
    </mask>
    <path fill="#AB514E" d="M10.0815,65.8069 C10.0155,64.6729 9.9495,63.5389 9.8825,62.4049 C9.8655,62.1039 9.8425,61.7879 9.6805,61.5329 C9.4885,61.2339 9.1415,61.0789 8.8135,60.9389 C3.8825,58.8299 1.3075,55.9469 0.4445,50.6269 C-0.5175,44.6999 -0.2155,37.7509 4.3765,33.8829 C7.5695,31.1929 12.8495,29.7239 13.0725,25.5549 C14.1195,25.3389 15.1665,25.1229 16.2145,24.9069 L13.4005,26.8779 C15.7355,25.7719 16.8265,23.0229 17.0925,20.4529 C17.3585,17.8819 17.0215,15.2589 17.5075,12.7209 C18.6365,6.8359 24.0865,2.5469 29.8705,0.9799 C35.6535,-0.5881 41.7755,0.0449 47.7325,0.6879 C49.7425,7.1019 50.3525,13.9499 49.5105,20.6179 C46.5085,15.4509 48.3855,7.3239 43.1725,4.4019 C41.4055,3.4119 39.2735,3.3949 37.2485,3.4499 C33.5165,3.5509 29.7875,3.8069 26.0765,4.2169 C24.8505,4.3519 23.5595,4.5309 22.5845,5.2869 C21.3835,6.2179 20.9345,7.8049 20.6185,9.2919 C20.0665,11.8949 19.5515,14.6179 19.6975,17.2869 C19.7485,18.2019 19.7645,19.5459 20.0395,20.3969 C20.6875,22.4059 20.9465,22.0679 23.2765,22.2619 C24.7525,17.7909 28.3445,8.2689 33.7485,7.5989 C32.9175,9.0409 32.0875,10.4829 31.2565,11.9249 C33.8435,10.7239 36.4295,9.5229 39.0155,8.3219 L35.2405,11.5379 C37.1275,10.9639 39.0145,10.3899 40.9015,9.8159 C40.5295,11.0319 39.7775,12.1279 38.7785,12.9149 C40.8215,12.8089 42.8325,12.1459 44.5395,11.0169 C44.2675,14.7509 45.1195,18.5589 46.9565,21.8199 C47.9355,18.9559 52.2985,18.2939 54.4265,20.4469 C56.4325,22.4759 56.2165,25.9029 54.5915,28.0869 C53.9515,28.9479 52.6805,30.2029 51.6775,30.6579 C51.2485,30.8529 47.4355,31.4499 47.3795,30.9439 C47.1515,28.8659 47.0905,26.7689 47.1985,24.6809 C46.6935,26.1769 47.0955,27.8139 46.9955,29.3899 C46.6765,34.4079 41.2125,38.6699 36.3755,38.5479 C32.7195,38.4559 29.7045,37.2739 26.8875,35.0089 C24.5885,33.1599 23.6185,30.1599 22.7625,27.3369 L22.3455,25.9579 C22.6765,28.3709 23.2985,30.7429 24.1935,33.0069 C24.2615,33.1789 24.3315,33.3699 24.2695,33.5439 C24.2235,33.6699 24.1155,33.7629 24.0085,33.8449 C21.1305,36.0719 16.9075,34.7199 16.0285,31.0409 C15.6555,29.4759 15.8415,27.8389 16.0305,26.2409 C16.6395,27.1799 15.7805,28.4109 14.8175,28.9799 C13.8535,29.5489 12.6675,29.9139 12.1105,30.8849 C13.0595,31.0129 14.0175,31.0779 14.9745,31.0789 C14.0435,31.3759 13.2395,32.0529 12.7905,32.9219 C14.0815,32.7769 15.3735,32.6329 16.6645,32.4889 C15.6585,32.7659 14.7145,33.2609 13.9155,33.9309 C15.0815,34.5089 16.3305,34.9189 17.6125,35.1449 C16.4825,35.9509 14.8505,35.9709 13.7005,35.1939 C13.2205,34.8709 12.8035,34.4159 12.2425,34.2749 C11.6545,34.1279 11.0405,34.3589 10.4995,34.6319 C5.1405,37.3299 0.8855,44.2609 2.1865,50.2999 C3.3365,55.6359 9.6875,59.5459 14.6465,57.2639 C17.7965,55.8139 19.3925,52.7789 21.3845,50.1399 C23.7445,47.0139 26.3265,43.9969 29.5545,41.7359 C33.9065,38.6859 39.7185,37.1899 44.6235,39.2379 C51.1835,41.9769 54.3515,50.0549 60.9865,52.6079 C60.7275,52.9899 60.4675,53.3719 60.2085,53.7539 C60.7375,54.0129 61.4535,53.7799 61.7275,53.2579 C65.4355,55.6629 73.2095,54.6759 75.3295,50.4879 C76.6845,47.8129 75.9025,44.5169 74.4445,41.8969 C72.1815,37.8319 68.3295,34.6809 63.8965,33.2689 C60.0185,32.0329 55.4735,31.9349 52.6125,29.0379 C54.0635,30.0889 55.7965,30.7459 57.5805,30.9219 C58.2235,30.1379 58.4945,29.0609 58.2985,28.0659 C56.4775,27.6349 54.5835,27.5159 52.7235,27.7179 C55.2165,27.6969 57.7095,27.6759 60.2025,27.6549 C58.9415,26.5569 57.3805,25.8069 55.7355,25.5069 C57.0885,25.5119 58.4415,25.5179 59.7955,25.5229 C57.6645,25.7349 55.4925,24.2299 54.9405,22.1609 C56.4845,21.6789 58.0275,21.1979 59.5715,20.7159 C58.9555,23.4769 60.6075,26.3059 62.7915,28.1029 C64.9775,29.8999 67.6615,30.9539 70.1145,32.3629 C73.9435,34.5639 77.3095,37.7759 79.0485,41.8349 C80.7895,45.8939 80.7125,50.8459 78.2655,54.5229 C74.4565,60.2449 66.4285,61.3269 59.6305,60.3109 C59.6485,62.0209 58.0765,63.4119 56.4085,63.7879 C54.7405,64.1629 53.0075,63.7689 51.3435,63.3759 C50.0005,71.3379 49.4255,79.4299 49.6275,87.5019 C49.6465,88.2409 49.6865,89.0259 50.1125,89.6299 C50.5915,90.3079 51.4435,90.5979 52.2465,90.8119 C54.8565,91.5059 57.8015,92.0989 59.0415,94.7809 C60.3815,97.6749 60.0665,100.9759 59.0115,103.8649 C56.2895,111.3159 52.1825,118.3619 50.9925,126.2039 C51.2045,124.7199 49.7435,121.8419 49.3085,120.3789 C48.7645,118.5499 48.3065,116.7739 47.9775,114.8729 C47.1905,110.3139 46.7345,105.6979 46.6165,101.0739 C42.4885,102.3539 37.6295,100.3219 33.8625,102.4409 C29.4735,104.9089 29.4575,111.0969 29.8645,116.1149 C30.2705,121.1339 29.7825,127.4419 25.1315,129.3709 C27.2075,124.8099 23.5835,119.8639 20.5785,115.8539 C17.1685,111.3069 14.2915,106.3599 12.0245,101.1489 C11.2535,99.3759 10.5395,97.4999 10.6585,95.5699 C11.1415,87.6549 21.2855,86.8619 26.3985,83.4789 C26.5945,83.3489 26.8085,83.2139 27.0435,83.2209 C27.4395,83.2319 27.6995,83.6209 27.9215,83.9499 C29.3325,86.0429 31.8105,87.2229 34.3045,87.6209 C36.7965,88.0199 39.3435,87.7329 41.8515,87.4449 C42.6875,87.3489 43.5705,87.2349 44.2385,86.7219 C40.1875,87.2019 36.0525,86.9659 32.0825,86.0259 C30.5315,85.6589 28.9685,85.1669 27.6995,84.2019 C22.9475,80.5869 25.9165,71.3409 25.0885,66.2999 C25.2785,67.4559 11.7325,66.7409 10.8285,66.6919 C10.6265,66.6809 10.4045,66.6609 10.2625,66.5179 C10.1225,66.3769 10.1025,66.1589 10.0905,65.9599 C10.0875,65.9089 10.0845,65.8579 10.0815,65.8069" mask="url(#sound-rec-b)"/>
  </g>
</svg>
