<svg xmlns="http://www.w3.org/2000/svg" xmlns:xlink="http://www.w3.org/1999/xlink" width="107" height="114" viewBox="0 0 107 114">
  <defs>
    <polygon id="what-is-this-a" points="0 0 79.995 0 79.995 107.461 0 107.461"/>
  </defs>
  <g fill="none" fill-rule="evenodd" transform="translate(6 6)">
    <mask id="what-is-this-b" fill="#fff">
      <use xlink:href="#what-is-this-a"/>
    </mask>
    <path fill="#893E4E" d="M67.3683,42.1847 C68.3003,39.3267 68.6133,36.8047 69.0013,34.2987 C69.2043,32.9877 68.5943,32.4287 67.3193,32.3367 C65.0913,32.1767 62.9493,32.5487 60.8413,33.2227 C60.0433,33.4777 59.6273,33.8247 60.4443,34.5547 C62.8983,36.7487 65.0673,39.2117 67.3683,42.1847 M76.5493,40.6117 C76.7543,39.1747 76.1633,37.4097 74.9253,35.8547 C74.6153,35.4647 74.2163,34.9557 73.6753,35.0967 C73.0973,35.2477 73.1803,35.9077 73.0973,36.3927 C72.5683,39.4907 72.1803,42.6217 71.4643,45.6747 C71.0873,47.2807 71.4993,48.5297 72.1933,49.8397 C72.7783,50.9437 73.3553,51.0067 74.0603,49.9187 C75.7873,47.2547 76.5503,44.3327 76.5493,40.6117 M61.5173,23.4067 C58.7043,23.5647 55.9703,25.3327 53.9753,28.2787 C53.5523,28.9047 53.1343,29.8017 53.6763,30.5557 C54.1313,31.1867 54.8983,30.8577 55.5263,30.7017 C59.5183,29.7117 63.5333,28.9147 67.6833,29.1057 C68.8663,29.1597 68.9593,28.5627 68.6463,27.5537 C67.8393,24.9517 65.5703,23.4127 61.5173,23.4067 M35.9983,23.1747 C36.4233,23.0567 36.8463,22.9337 37.2723,22.8227 C37.8423,22.6747 38.5133,22.4237 38.9563,22.8667 C39.3963,23.3067 38.3473,27.5417 38.3683,28.4477 C38.6183,28.0327 38.8693,27.6167 39.1193,27.2017 C38.6563,28.3867 38.7793,29.7087 38.9103,30.9747 C38.9303,31.1617 38.9503,31.3517 39.0233,31.5257 C39.3433,32.2837 40.4303,32.3057 41.1943,31.9987 C43.1333,31.2207 44.2513,29.3677 45.5723,27.8647 C46.8963,26.3567 48.3733,25.2027 50.0323,24.0857 C53.6003,21.6837 57.3453,19.6667 61.7843,19.9257 C64.3973,20.0787 67.1053,20.8437 69.2073,22.4497 C71.5573,24.2467 72.7803,27.4087 73.3473,30.2377 C73.5803,30.2347 73.8033,30.3317 74.0163,30.4267 C76.1123,31.3617 78.7113,32.0127 79.6373,34.3537 C80.4413,36.3857 79.7393,38.7427 79.0203,40.6907 C77.7513,44.1317 76.1433,47.4577 74.5273,50.7577 C73.6543,52.5397 73.6783,53.6047 76.7213,53.6457 C74.9333,54.4727 74.7053,55.1737 75.1443,56.4697 C78.2013,65.4987 79.0773,74.7647 78.4593,84.2927 C77.9733,91.7817 77.0273,99.1807 75.6523,106.6007 C75.2393,104.0467 74.7953,101.5167 74.3233,98.9927 C73.8743,96.5907 73.2033,94.2687 72.1603,92.0657 C71.2103,90.0607 69.7613,88.6307 67.3613,88.8857 C65.1223,89.1247 63.9133,90.6557 63.2513,92.6827 C62.5333,94.8807 62.4293,97.1037 62.1093,99.3717 C61.7303,102.0607 61.4083,104.7587 61.1433,107.4607 C60.2723,104.8807 59.8633,102.5767 59.7453,99.8497 C59.4333,92.6507 60.2533,85.4367 59.6723,78.2437 C59.6723,76.8797 59.3783,75.4537 59.2723,74.0907 C57.9183,74.1387 56.5613,74.0967 55.2133,73.9647 C55.6673,68.5537 55.3083,63.0767 54.1583,57.7697 C53.1373,53.0557 50.3513,48.4287 47.8593,44.3207 C46.4263,41.9587 44.7663,39.6107 42.1043,38.3957 C39.8633,37.3727 39.0633,37.8857 38.8673,40.2657 C38.3693,46.3197 33.5133,51.2487 27.0083,52.0157 C25.3203,52.2147 25.0303,52.8887 25.3063,54.2707 C25.5813,55.6497 25.6623,57.0397 25.5563,58.9347 C21.2543,52.2387 13.4163,50.7477 8.3493,45.5577 C7.5873,44.7767 7.1633,45.3607 6.8053,45.9167 C5.6533,47.7097 4.5723,49.5487 3.4113,51.3367 C3.0803,51.8457 2.9933,52.7717 2.1543,52.6557 C1.3723,52.5487 0.9943,51.7997 0.6803,51.1267 C-0.0667,49.5267 0.1503,47.8107 0.1113,46.1257 C0.0903,45.1717 0.0383,44.2177 0.0003,43.2637 C0.0053,42.4327 0.0103,41.6007 0.0153,40.7687 C0.6623,33.6967 1.1703,26.6077 2.0053,19.5577 C2.6223,14.3447 3.1923,9.0977 4.6093,4.0127 C5.3623,1.3137 8.6003,-0.4663 12.0193,0.1067 C17.0313,0.9477 20.8973,3.7247 24.0333,7.6457 C25.0513,8.9177 24.6943,10.0867 24.0803,11.3167 C23.9753,11.4897 23.8683,11.6627 23.7623,11.8347 C23.5973,12.1457 23.6623,12.1887 23.9393,11.9897 C24.1273,11.8847 24.3153,11.7797 24.5023,11.6747 C27.5593,11.2017 29.9343,9.7497 31.2813,6.7107 C31.9573,7.8547 31.9453,8.9217 31.6113,9.8687 C31.0033,11.5967 31.8983,12.1057 33.3113,12.4097 C35.6173,12.9047 37.9283,13.1097 40.6923,12.3667 C38.8713,16.1487 37.2623,19.4927 35.6533,22.8377 C35.6583,22.9937 35.6623,23.1497 35.6673,23.3057 C35.7773,23.2627 35.8883,23.2187 35.9983,23.1747" mask="url(#what-is-this-b)"/>
  </g>
</svg>
