<svg xmlns="http://www.w3.org/2000/svg" xmlns:xlink="http://www.w3.org/1999/xlink" width="235" height="116" viewBox="0 0 235 116">
  <defs>
    <polygon id="wofers-a" points="0 .494 55.946 .494 55.946 6 0 6"/>
    <polygon id="wofers-c" points=".457 .184 53.069 .184 53.069 5.375 .457 5.375"/>
    <polygon id="wofers-e" points="0 .242 42.59 .242 42.59 66.118 0 66.118"/>
  </defs>
  <g fill="none" fill-rule="evenodd">
    <line x1="35.175" x2="24.5" y1="38" y2="27" stroke="#FFC435" stroke-linecap="round" stroke-linejoin="round" stroke-width="4"/>
    <line x1="33.175" x2="20.175" y1="52" y2="54" stroke="#FFC435" stroke-linecap="round" stroke-linejoin="round" stroke-width="4"/>
    <line x1="29.837" x2="20" y1="44" y2="42" stroke="#FFC435" stroke-linecap="round" stroke-linejoin="round" stroke-width="4"/>
    <line x1="210" x2="201.266" y1="39" y2="28" stroke="#FFC435" stroke-linecap="round" stroke-linejoin="round" stroke-width="4" transform="matrix(-1 0 0 1 411 0)"/>
    <line x1="214" x2="203" y1="53" y2="55" stroke="#FFC435" stroke-linecap="round" stroke-linejoin="round" stroke-width="4" transform="matrix(-1 0 0 1 417 0)"/>
    <g transform="translate(39 24)">
      <g transform="translate(6 61.816)">
        <mask id="wofers-b" fill="#fff">
          <use xlink:href="#wofers-a"/>
        </mask>
        <path fill="#B7B2A7" d="M52.0419,3.3888 C53.3599,2.9848 54.6629,2.5008 55.9459,1.9208 C47.5419,-0.0892 37.9269,0.3018 29.4149,1.4008 C19.6249,2.6658 9.8609,4.0948 -0.0001,4.6958 C7.9549,4.6608 16.5339,6.4508 24.3319,5.8918 C33.6069,5.2258 43.1919,6.1008 52.0419,3.3888" mask="url(#wofers-b)"/>
      </g>
      <g transform="translate(121 61.816)">
        <mask id="wofers-d" fill="#fff">
          <use xlink:href="#wofers-c"/>
        </mask>
        <path fill="#B7B2A7" d="M51.2601,2.83 C51.9301,2.508 52.5451,2.092 53.0691,1.547 C50.9121,0.084 48.1081,0.089 45.5081,0.263 C38.0301,0.763 30.7741,2.576 23.3841,3.619 C15.6851,4.706 8.2201,5.179 0.4571,5.011 C15.9341,5.344 31.1731,5.974 46.5681,3.986 C48.1601,3.781 49.8361,3.515 51.2601,2.83" mask="url(#wofers-d)"/>
      </g>
      <path fill="#897B73" d="M150.532,56.0655 C150.455,57.8105 150.844,60.2975 150.276,61.8915 L150.19,63.8345 C149.147,64.1325 148.087,64.2795 147.011,64.2735 C143.429,64.5805 139.78,64.5515 136.186,64.6905 C134.903,64.7385 133.416,64.9185 131.883,65.0865 C131.474,53.8525 131.066,42.6185 130.657,31.3845 C130.652,31.2345 130.61,31.1145 130.569,30.9935 C130.615,24.5005 130.661,18.0075 130.706,11.5155 C130.707,11.5105 130.705,11.5065 130.705,11.5025 C132.145,10.7675 133.605,10.0655 135.086,9.4025 C138.363,7.9355 141.72,6.6485 145.138,5.5455 C146.61,5.0715 148.951,3.8745 150.348,5.2875 C151.152,6.1005 151.659,11.6095 151.719,12.1535 C153.295,26.4825 151.165,41.6985 150.532,56.0655 M154.3,13.0695 C154.053,10.3315 153.971,5.9235 152.385,3.6415 C149.421,-0.6235 141.625,4.0265 138.051,5.4505 C134.074,7.0345 130.224,8.8755 126.493,10.9355 C125.833,10.5975 124.881,10.8395 124.679,11.6705 C120.984,13.0075 117.037,15.0825 115.92,18.2625 C115.518,19.4075 115.472,20.7275 115.564,22.0795 C115.17,24.0945 115.655,26.4065 116.317,28.6215 L117.212,40.2595 C117.807,47.9925 117.707,56.1945 119.046,63.8355 C119.295,65.2565 119.928,66.1755 120.789,66.7715 C120.903,66.8835 121.038,66.9675 121.187,67.0225 C123.608,68.3255 127.48,67.5235 130.282,67.4165 C134.546,67.2535 138.81,67.0885 143.074,66.9255 C145.178,66.8445 149.834,67.6435 151.634,66.2205 C152.722,65.3605 152.644,64.1285 152.733,62.8625 C153.026,58.6665 153.104,54.4415 153.289,50.2385 C153.671,41.5465 154.113,32.8555 154.429,24.1605 C154.564,20.4645 154.633,16.7585 154.3,13.0695"/>
      <path fill="#897B73" d="M147.3298 41.7149C143.8868 38.9299 140.8128 43.9749 140.2598 47.5519 140.0468 48.6509 140.1478 49.8939 140.3418 50.7759 140.7628 52.6879 142.3178 54.4399 144.4058 54.2369 147.0158 53.9829 147.9548 51.3499 148.1458 49.1049 148.3238 47.0279 149.2228 43.2459 147.3298 41.7149M149.3377 16.2618C146.1497 9.8198 137.3517 11.9708 134.7627 17.6628 133.1777 21.1478 133.7687 25.1808 135.5887 28.4578 136.9507 30.9098 139.4677 34.0008 142.6477 33.0728 142.6787 33.0628 142.7067 33.0488 142.7367 33.0388 143.0637 33.1158 143.4007 33.1788 143.7547 33.2138 151.0557 33.9308 151.4187 20.4658 149.3377 16.2618"/>
      <g transform="translate(0 .758)">
        <mask id="wofers-f" fill="#fff">
          <use xlink:href="#wofers-e"/>
        </mask>
        <path fill="#897B73" d="M3.0637,54.4247 C2.9417,56.1697 2.2637,58.6567 2.6577,60.2507 L2.5217,62.1937 C3.5437,62.4917 4.6007,62.6387 5.6907,62.6327 C9.2817,62.9397 12.9807,62.9107 16.6027,63.0497 C17.8957,63.0977 19.3797,63.2777 20.9147,63.4457 C22.6107,52.2117 24.3087,40.9777 26.0057,29.7437 C26.0277,29.5937 26.0847,29.4737 26.1397,29.3527 L28.2277,9.8747 C28.2277,9.8697 28.2297,9.8657 28.2307,9.8617 C26.8557,9.1267 25.4587,8.4247 24.0347,7.7617 C20.8847,6.2947 17.6327,5.0077 14.2987,3.9047 C12.8627,3.4307 10.6287,2.2337 9.0527,3.6467 C8.1467,4.4597 7.0027,9.9687 6.8797,10.5127 C3.6477,24.8417 4.0647,40.0577 3.0637,54.4247 M4.1627,11.4287 C4.7257,8.6907 5.3127,4.2827 7.1787,2.0007 C10.6677,-2.2643 18.0287,2.3857 21.4847,3.8097 C25.3297,5.3937 29.0177,7.2347 32.5597,9.2947 C33.2657,8.9567 34.2017,9.1987 34.3117,10.0297 C37.8997,11.3667 41.6587,13.4417 42.4257,16.6217 C42.7027,17.7667 42.5977,19.0867 42.3497,20.4387 C42.5197,22.4537 41.7637,24.7657 40.8407,26.9807 L38.6037,38.6187 C37.1177,46.3517 36.2817,54.5537 34.0527,62.1947 C33.6387,63.6157 32.8927,64.5347 31.9527,65.1307 C31.8247,65.2427 31.6777,65.3267 31.5217,65.3817 C28.9207,66.6847 25.0927,65.8827 22.2687,65.7757 C17.9697,65.6127 13.6707,65.4477 9.3727,65.2847 C7.2527,65.2037 2.4477,66.0027 0.7877,64.5797 C-0.2163,63.7197 0.0037,62.4877 0.0587,61.2217 C0.2417,57.0257 0.6457,52.8007 0.9387,48.5977 C1.5447,39.9057 2.0907,31.2147 2.7647,22.5197 C3.0507,18.8237 3.4047,15.1177 4.1627,11.4287" mask="url(#wofers-f)"/>
      </g>
      <path fill="#897B73" d="M7.9461 40.8326C11.7501 38.0476 14.2851 43.0926 14.4371 46.6696 14.5271 47.7686 14.2821 49.0116 13.9851 49.8936 13.3411 51.8056 11.5661 53.5576 9.4751 53.3546 6.8621 53.1006 6.2121 50.4676 6.2751 48.2226 6.3321 46.1456 5.8551 42.3636 7.9461 40.8326M8.822 15.3795C12.785 8.9375 21.447 11.0885 23.418 16.7805 24.624 20.2655 23.565 24.2985 21.348 27.5755 19.689 30.0275 16.787 33.1185 13.674 32.1905 13.643 32.1805 13.617 32.1665 13.587 32.1565 13.248 32.2335 12.9 32.2965 12.536 32.3315 5.063 33.0485 6.235 19.5835 8.822 15.3795"/>
    </g>
    <line x1="213.854" x2="205" y1="45" y2="43" stroke="#FFC435" stroke-linecap="round" stroke-linejoin="round" stroke-width="4" transform="matrix(-1 0 0 1 419 0)"/>
  </g>
</svg>
