<svg xmlns="http://www.w3.org/2000/svg" width="202" height="114" viewBox="0 0 202 114">
  <g fill="none" fill-rule="evenodd">
    <path fill="#DFA104" d="M92.5049275,87.4023991 C77.115929,94.4068802 64.196823,83.4721269 62.8086772,80.3878551 C68.7352685,87.2500184 82.0139977,88.1053629 91.2512808,83.2234301 C101.495509,77.8088836 102.782241,63.3966875 102.709597,61.6220273 C103.192211,73.4451889 103.016715,82.6182199 92.5049275,87.4023991 M79.2297945,58.442877 C84.0573771,59.3851936 88.3131587,64.6207646 84.235031,68.8931746 C82.892917,70.2991023 80.5819779,70.6469903 78.7385491,70.851123 C75.5458138,71.2033237 74.265555,69.7276746 73.7678364,69.549418 C74.2554856,69.7240808 76.0356207,70.6520218 78.1768176,70.1424089 C78.6730977,70.0245295 83.6783342,68.6602909 83.5769204,65.5760192 C83.4639987,62.1402655 81.2523157,60.9550023 79.8929398,60.311697 C78.5335639,59.6676729 76.1492616,59.6360467 74.8294443,60.35698 C74.2044191,60.698399 73.6772114,61.1979489 73.238471,61.7578762 C71.6640404,63.7682952 71.2965054,66.7706264 72.6832127,68.9140192 C68.0397572,64.3239098 73.6642649,57.3575239 79.2297945,58.442877 M129.752547,59.4520398 C127.261796,59.8912125 124.820673,58.3379356 124.199244,55.8488111 C123.551203,53.2454011 125.136423,50.6110837 127.740095,49.9627469 C127.771023,49.9548404 127.80195,49.9519653 127.832159,49.9454963 C127.171171,47.794197 126.373527,45.6982435 125.434191,43.6741676 C123.221788,44.9018386 120.405219,44.2297822 119.006285,42.0756078 C117.544776,39.8265548 118.185624,36.8191922 120.436147,35.3593562 C120.460601,35.3428244 120.485775,35.3313239 120.510229,35.3162296 C119.19185,33.5063493 117.757673,31.7812847 116.206258,30.1640367 C114.51459,32.0443571 111.632569,32.3246801 109.60789,30.7440896 C107.493306,29.0923403 107.118578,26.0411323 108.771407,23.9279281 C108.792265,23.9013334 108.815281,23.8790513 108.836139,23.8531753 C107.009253,22.5744712 105.086707,21.4158028 103.081447,20.387233 C102.09608,22.7196641 99.4607605,23.925053 97.0297073,23.0876779 C94.4922056,22.2150827 93.1443376,19.4513855 94.0182221,16.9162593 C94.0275723,16.8867894 94.0419573,16.8587571 94.0520267,16.8292873 C91.9244955,16.2247959 89.7307936,15.7640599 87.4831483,15.4420478 C87.3004597,17.957767 85.2060138,19.9423101 82.6419,19.9423101 C79.9583912,19.9423101 77.7826705,17.7687287 77.7826705,15.0876908 C77.7826705,15.0575022 77.786986,15.0294699 77.7877052,15 C75.8428626,15.1013475 73.9224744,15.3148243 72.0344523,15.6382739 C72.6458119,18.0921783 71.2641393,20.635211 68.8194204,21.4258657 C66.2668145,22.2510216 63.5272045,20.8522817 62.7007903,18.3006236 C62.6914401,18.270435 62.6856861,18.2409651 62.6763359,18.2107765 C60.5775745,19.017963 58.5457031,19.9660297 56.5879141,21.0420388 C57.9580787,23.1631495 57.4783413,26.0109436 55.4277695,27.5505638 C53.2829764,29.1627804 50.2362481,28.7307955 48.6244167,26.5881215 C48.607874,26.5658394 48.5949276,26.5428385 48.5791041,26.5205565 C46.8644204,27.9581103 45.2475543,29.5099497 43.7378558,31.1688868 C45.7244147,32.7279139 46.1991174,35.5764269 44.7620629,37.7011314 C43.2588376,39.9221521 40.2387215,40.505799 38.0155305,39.0035552 C37.9896377,38.9863046 37.967341,38.9661788 37.9428866,38.9489282 C36.7935307,40.8558433 35.7671659,42.8490117 34.877458,44.9212456 C37.2703911,45.7456827 38.6520637,48.2887155 37.9846029,50.7677771 C37.2876531,53.3575303 34.6214062,54.892119 32.0306803,54.1956242 C32.0019104,54.1877177 31.9760175,54.1762172 31.9479669,54.1690295 C31.6358139,55.6432409 31.3790429,57.141172 31.198512,58.6678542 C31.1143602,59.3851936 31.0539435,60.098939 31,60.8119657 C33.5274323,60.8169972 35.6585597,62.7691953 35.8347751,65.3280411 C36.0196214,68.0040476 33.9985387,70.3221032 31.3222224,70.5061101 C31.2905756,70.5089852 31.259648,70.5068288 31.2287204,70.5082664 C31.5020341,72.7494128 31.9299857,74.949589 32.4981905,77.0994507 C34.8904044,76.2778887 37.5451433,77.4315257 38.5463345,79.7948642 C39.5928381,82.2645817 38.4377282,85.1138134 35.9671165,86.1596338 C35.9397851,86.1704155 35.9124537,86.178322 35.8858416,86.1891037 C36.8726478,88.2038354 37.9910762,90.1459706 39.2353726,92.0032902 C41.2298432,90.4550447 44.1097063,90.6836157 45.82439,92.5905309 C47.6181908,94.5844181 47.4542026,97.6550331 45.4590127,99.4476627 C45.4388738,99.4656321 45.415858,99.4814452 45.3949998,99.4994147 C46.9751844,101.079286 48.6618175,102.557092 50.4491451,103.917018 C51.8279407,101.798063 54.6301251,101.074255 56.8748935,102.320614 C59.2210756,103.6216 60.0661903,106.578649 58.7636348,108.92258 C58.7478114,108.950612 58.729111,108.97577 58.7140068,109.003083 C60.7127929,109.976307 62.7863806,110.830214 64.9362084,111.534615 C65.5461295,109.076398 67.9613593,107.475682 70.493107,107.924199 C73.1356187,108.391404 74.898492,110.910717 74.4302625,113.551503 C74.4252277,113.580973 74.4165968,113.609006 74.4108428,113.637757 C74.4849252,113.647101 74.5575691,113.660758 74.6309322,113.670102 C76.8138454,113.926705 78.9759005,114.022302 81.1156588,113.995708 C80.9006041,111.479988 82.6606004,109.189965 85.1952251,108.790325 C87.8456485,108.371997 90.3335222,110.18044 90.7514044,112.829851 C90.7564392,112.860759 90.7571584,112.890947 90.7614739,112.921855 C92.9681222,112.452494 95.1251425,111.837939 97.2217461,111.081786 C96.1925043,108.771637 97.1095437,106.028784 99.3787664,104.824833 C101.748684,103.566973 104.689683,104.467601 105.948364,106.835971 C105.96203,106.860409 105.97138,106.886285 105.983607,106.911442 C107.904715,105.75493 109.745986,104.474788 111.490159,103.073173 C109.77044,101.22376 109.745986,98.334996 111.496632,96.4604258 C113.327114,94.4996024 116.402612,94.3939422 118.363997,96.2232295 C118.385575,96.244074 118.404275,96.2663561 118.425133,96.2872006 C119.861469,94.5772303 121.192075,92.7723815 122.392497,90.869779 C120.152764,89.6852346 119.181781,86.9553199 120.228284,84.6077944 C121.32082,82.1582027 124.19421,81.0577552 126.644683,82.1495774 C126.67633,82.1639529 126.70438,82.1812036 126.735308,82.1955791 C127.527198,80.1247828 128.180993,77.9806712 128.695254,75.7747449 C126.19875,75.3772612 124.398476,73.1152703 124.622161,70.5600183 C124.857355,67.8890433 127.215045,65.9138443 129.888484,66.1481656 C129.915816,66.1510407 129.941709,66.1560721 129.96904,66.1589472 C130.048157,63.8947999 129.975513,61.6558098 129.752547,59.4520398"/>
    <path fill="#988144" d="M187.33793,53.8323161 C189.722954,52.8465249 192.440636,53.9088124 193.543475,56.2036997 C193.722098,56.0903986 193.901445,55.9792626 194.077899,55.8594666 C195.726733,54.7380028 197.127518,53.3913802 198.275916,51.8917652 C196.413747,50.7876213 195.462775,48.5302604 196.110014,46.3652724 C196.84765,43.8964644 199.388879,42.4632423 201.869361,43.0557274 C202.123917,40.9419774 202.008933,38.779876 201.502712,36.6711777 C199.469151,37.4180986 197.113778,36.730354 195.838101,34.862691 C194.383801,32.7337862 194.872666,29.8601254 196.900442,28.3150456 C195.088171,26.4408876 192.935286,25.0199338 190.606671,24.091154 C190.040426,26.1789241 188.116064,27.698024 185.851811,27.6568892 C183.267915,27.6092595 181.201088,25.5474692 181.112861,23 C179.028677,23.3175316 176.976314,24.0052761 175.049782,25.0762235 C176.313164,26.8305855 176.280622,29.2777436 174.819813,31.0032391 C173.154346,32.9740998 170.247193,33.2743115 168.210739,31.73717 C167.116578,33.6012247 166.37388,35.6370351 166,37.7399601 C168.16084,37.8691377 170.042535,39.4380324 170.463421,41.6564235 C170.944331,44.1894595 169.344673,46.6286793 166.865638,47.2363193 C167.366796,48.5699519 168.029945,49.8660581 168.868826,51.0950496 C169.264401,51.6738231 169.689627,52.2186784 170.136547,52.7361105 C171.599525,51.143401 174.006244,50.6764852 175.997861,51.7503193 C178.270069,52.9757025 179.157402,55.7519388 178.068304,58.0547644 C180.104758,58.738179 182.253304,59.0549889 184.406912,58.9922042 C184.091609,56.8546394 185.246515,54.6961463 187.33793,53.8323161"/>
    <path fill="#E18C23" d="M148.766919,28.9809303 C145.751957,31.0461593 140.234527,30.3097487 139.492172,25.6218143 C139.247129,24.0784174 140.17164,22.6255569 140.957366,21.5098913 C142.318472,19.5765461 143.913778,19.7405097 144.276643,19.5744074 C143.921006,19.7369453 142.431958,20.161825 141.69683,21.6168241 C141.52624,21.9540189 139.920815,25.4549991 141.972955,27.191588 C144.258572,29.1249332 146.129279,28.615933 147.223657,28.2545001 C148.318758,27.8930672 149.526622,26.6198539 149.715283,25.487079 C149.805638,24.9509891 149.743474,24.3749777 149.597461,23.8125111 C149.077016,21.7929068 147.311121,19.8502941 145.229345,19.3562645 C150.521249,19.508822 152.243051,26.5977544 148.766919,28.9809303 M169.651182,17.567635 C166.777897,18.8900374 163.258394,18.1849938 161.167221,15.6492604 C158.783298,12.7570843 159.140381,8.55890216 161.903794,6.08305115 C159.550953,4.05560506 156.835247,2.43093923 153.862211,1.31812511 C153.090218,4.3514525 150.315962,6.60131884 147.0003,6.60131884 C143.219852,6.60131884 140.140558,3.67848868 139.938163,0 C136.172895,0.634468009 132.676523,2.04526822 129.630479,4.06772411 C131.694185,6.44234539 131.95007,9.97611834 130.033101,12.6437355 C127.84579,15.6877562 123.641758,16.4733559 120.481506,14.5036535 C119.147868,17.2482623 118.289858,20.2573516 118,23.4282659 C121.16748,23.3505614 124.107267,25.3829977 124.994913,28.5303867 C126.010502,32.1240421 123.977878,35.8353235 120.435967,37.0130102 C121.793459,39.8374621 123.648987,42.382463 125.89051,44.54108 C127.826996,42.0680806 131.279998,41.1021208 134.316644,42.407414 C137.782657,43.8980574 139.42061,47.7932632 138.11444,51.2450544 C140.142727,51.7348066 142.261368,52 144.442896,52 C145.469327,52 146.481302,51.9365532 147.477374,51.8246302 C146.753089,48.7820353 148.170576,45.5298521 151.113977,44.0285154 C154.473009,42.3168776 158.570061,43.5202281 160.462453,46.6968455 C162.969259,44.8233826 165.125488,42.5186241 166.824882,39.8980574 C163.974005,38.5328818 162.31003,35.3961861 162.986607,32.1981821 C163.757153,28.5496346 167.28533,26.1735876 170.976869,26.7260738 C170.986989,26.4209588 171,26.1158439 171,25.8085903 C171,22.9285332 170.522203,20.1596863 169.651182,17.567635"/>
    <path fill="#F7BE00" d="M26.4378395,37.3036625 C26.3252305,40.4382426 24.4520239,41.3880494 24.1712234,41.8321149 C24.4462491,41.3967566 25.6604046,39.8730023 25.5477956,37.7092713 C25.5066501,36.9336079 25.2489488,33.5305567 22.2012885,32.189653 C18.5934708,30.6034974 15.6540884,33.0059499 14.7084619,34.1901246 C13.7628354,35.3735737 13.3456048,37.6577539 13.9490733,39.0639614 C14.2349268,39.7286085 14.7164023,40.3308542 15.2787252,40.8583634 C17.2999116,42.7536235 20.6341472,43.6780344 23.2797358,42.7528979 C17.346832,46.3409763 10.784473,40.3685853 12.9023875,35.2277287 C14.7395016,30.768208 20.0718243,28.8968926 24.431812,31.9161028 C26.1368271,33.0973752 26.5028062,35.4940229 26.4378395,37.3036625 M38.9821883,30.5135233 C36.8137441,31.5300851 34.1573277,30.9880639 32.5793586,29.0369329 C30.7805028,26.8129773 31.0490318,23.5826183 33.134463,21.6786511 C31.3594283,20.118617 29.3100897,18.8698641 27.065851,18.0136594 C26.4833162,20.3471801 24.3892227,22.0777296 21.8865609,22.0777296 C19.0338007,22.0777296 16.7094364,19.8291037 16.5571256,17 C13.7151932,17.4876014 11.0768231,18.5723693 8.77772364,20.1280498 C10.334759,21.9551037 10.5282154,24.6739166 9.08162345,26.72518 C7.4307473,29.0666824 4.25748471,29.6711049 1.8724848,28.1567834 C0.866222728,30.2675458 0.218721239,32.5814755 0,35.0209335 C2.39077473,34.9607089 4.60902676,36.5250966 5.27890567,38.9464146 C6.04479093,41.7102146 4.51085485,44.5654398 1.83783589,45.4709852 C2.86286611,47.6434234 4.26325952,49.6010848 5.9545594,51.2619769 C7.41631025,49.3594609 10.022197,48.6164493 12.3140779,49.6206759 C14.9307924,50.7671196 16.1666035,53.7638362 15.1805533,56.4195222 C16.711602,56.7953816 18.3105048,57 19.9563279,57 C20.7323191,57 21.4945951,56.9506594 22.2467652,56.8650389 C21.7010449,54.5235366 22.7701081,52.0224028 24.9919694,50.8679776 C27.5263927,49.5510186 30.6188079,50.4761551 32.0473535,52.919241 C33.9400502,51.4782049 35.5663833,49.7062964 36.8491148,47.6898616 C34.6972732,46.6399224 33.4419721,44.2273115 33.9523217,41.7668112 C34.5341346,38.960201 37.1963258,37.1331471 39.9826755,37.5583471 C39.9906159,37.3232536 40,37.0888857 40,36.852341 C40,34.6363669 39.6390739,32.5074646 38.9821883,30.5135233"/>
  </g>
</svg>
