<svg xmlns="http://www.w3.org/2000/svg" xmlns:xlink="http://www.w3.org/1999/xlink" width="85" height="108" viewBox="0 0 85 108">
  <defs>
    <polygon id="working-a" points="0 0 66.835 0 66.835 80.545 0 80.545"/>
  </defs>
  <g fill="none" fill-rule="evenodd" transform="translate(7 14)">
    <mask id="working-b" fill="#fff">
      <use xlink:href="#working-a"/>
    </mask>
    <path fill="#A5523E" d="M35.1431,30.7688 C34.9001,31.0148 33.6321,30.6808 33.3201,30.5688 C32.6581,30.3298 32.0591,29.7898 31.7651,29.1508 C31.6411,28.8798 30.5561,26.5988 31.4771,26.7788 C31.0241,26.6888 30.5301,26.8298 30.1911,27.1458 C30.0941,25.8878 29.8141,26.8278 30.8671,26.1328 C31.5281,25.6968 32.2891,25.4298 32.9531,24.9988 C33.6181,24.5678 34.2081,23.8958 34.2261,23.1038 C33.8071,23.0798 33.3921,22.9878 33.0011,22.8338 C33.3511,22.5818 33.6571,22.2688 33.9001,21.9128 C33.5471,22.0098 33.1941,22.1068 32.8421,22.2038 C34.1101,21.7248 35.4871,21.1508 36.1081,19.9458 C36.6331,18.9258 36.4351,17.5818 35.6401,16.7558 C34.8441,15.9288 33.5081,15.6818 32.4701,16.1678 C33.3141,15.4518 34.1591,14.7358 35.0031,14.0198 C33.6861,14.0858 32.3841,14.4468 31.2221,15.0708 C32.2891,14.2708 33.3571,13.4708 34.4261,12.6708 C33.0551,13.2448 31.7721,14.0308 30.6391,14.9918 C31.9161,14.0668 32.9791,12.8478 33.7221,11.4568 C32.2001,12.3218 30.8351,13.4638 29.7161,14.8098 C31.1841,12.8738 33.4971,10.8638 32.6261,8.2038 C32.2721,7.1218 31.5651,6.1938 30.8221,5.3318 C30.0781,4.4708 29.2791,3.6448 28.6871,2.6728 C28.5341,2.4228 28.3931,2.1538 28.3691,1.8608 C28.3311,1.4108 28.5831,0.9758 28.9241,0.6798 C29.2661,0.3838 29.6891,0.2028 30.1051,0.0258 C29.0311,-0.0982 27.9121,0.2268 27.0711,0.9068 C26.2301,1.5878 25.6801,2.6148 25.5791,3.6918 C25.5461,2.5708 25.4971,1.3898 24.9021,0.4398 C24.5211,1.5118 24.0741,2.5598 23.5621,3.5758 C23.8871,2.8988 23.7911,2.0408 23.3271,1.4518 C23.1371,4.3358 22.1901,7.1658 20.6051,9.5838 C19.6441,11.0508 18.4231,12.4348 18.0721,14.1538 C18.0511,11.8708 18.0701,9.4388 19.3081,7.5198 C19.4681,7.2728 19.6501,7.0288 19.7181,6.7418 C19.7851,6.4548 19.6991,6.1048 19.4361,5.9708 C19.0601,7.5878 18.1251,9.0688 16.8281,10.1028 C16.1991,10.6048 15.4461,11.0588 15.1881,11.8198 C14.8901,11.3248 14.5811,10.7868 14.6281,10.2118 C14.1161,11.3788 13.9871,12.7098 14.2651,13.9528 C13.9141,14.0558 13.5101,13.7368 13.5301,13.3718 C13.1551,15.5808 13.5661,17.9158 14.6741,19.8638 C14.6151,19.7598 13.5641,23.3148 13.5601,23.4578 C13.5461,23.9348 13.5851,24.4978 13.6701,24.9678 C13.9441,26.4768 14.9151,27.2478 15.5961,28.5918 C16.1511,29.6858 16.2501,30.9718 16.0431,32.1808 C16.6041,31.8818 17.1651,31.5828 17.7261,31.2838 C18.2861,30.9848 19.8711,35.3658 19.9651,35.6038 C20.1241,36.0058 20.3561,36.4688 20.7851,36.5238 C21.0141,36.5538 21.2381,36.4528 21.4431,36.3468 C23.1271,35.4738 24.5521,34.0558 26.3891,33.5818 C28.1801,33.1188 30.2011,33.6968 31.4761,35.0368 C31.5391,35.1028 31.6031,35.1778 31.6131,35.2688 C31.6281,35.4038 31.5211,35.5178 31.4251,35.6138 C30.1771,36.8658 29.5731,38.5988 28.7831,40.1808 C28.5461,40.6528 28.2761,41.0888 27.9801,41.4978 C27.0351,42.8028 25.8291,43.8408 24.6401,44.9678 C22.8881,46.6298 21.5561,48.6748 19.8931,50.4188 C17.7421,52.6768 14.5541,54.5058 11.5991,53.5098 C10.2851,53.0668 9.1871,52.1128 7.8641,51.6968 C6.6361,51.3118 5.2561,51.4348 4.1141,52.0298 C4.6791,52.0758 5.2581,51.8028 5.5821,51.3378 C4.8551,50.9668 4.2261,50.2648 3.8131,49.5758 C4.1961,48.9888 4.5791,48.4028 4.9611,47.8158 C4.5551,47.3038 4.1491,46.7908 3.7431,46.2778 C3.6401,46.1478 3.4941,46.0038 3.3361,46.0518 C3.2681,46.0718 3.2151,46.1258 3.1661,46.1768 C2.1111,47.2788 1.0551,48.3808 0.0001,49.4828 C0.5621,50.1538 1.1251,50.8238 1.6881,51.4938 C1.9541,51.1438 2.2201,50.7948 2.4871,50.4448 C2.9891,50.8178 3.4261,51.2778 3.7721,51.7988 C3.4721,52.1668 2.7631,53.3238 3.4131,53.6938 C3.4871,53.7358 3.5761,53.7528 3.6391,53.8098 C3.7791,53.9378 3.7071,54.1708 3.7571,54.3548 C3.8181,54.5788 4.0511,54.7018 4.2351,54.8438 C4.4191,54.9858 4.5791,55.2478 4.4441,55.4378 C5.0591,55.5588 5.7031,55.5298 6.3041,55.3528 C6.4161,55.3208 6.5341,55.2818 6.6481,55.3088 C6.7741,55.3378 6.8681,55.4388 6.9551,55.5348 C7.9241,56.6118 8.9511,57.6358 10.0301,58.6018 C10.3151,58.8568 10.7371,59.1178 11.0431,58.8898 C11.2401,58.7438 11.2721,58.4488 11.1831,58.2208 C11.0951,57.9938 10.9131,57.8158 10.7371,57.6468 C9.6001,56.5528 8.4621,55.4598 7.3251,54.3658 C7.4391,54.4758 8.5921,54.5008 8.8441,54.5968 C9.4321,54.8218 9.9011,55.2958 10.3991,55.6638 C12.4671,57.1888 15.4341,56.9478 17.7071,55.7508 C19.9801,54.5538 21.7151,52.5648 23.3951,50.6218 C22.8391,52.1288 21.9261,53.4768 20.8591,54.6688 C19.8521,55.7928 18.6851,56.4668 17.5581,57.4248 C14.0371,60.4188 10.1261,64.0228 5.1631,63.5198 C5.4811,63.4678 5.8141,63.7328 5.8351,64.0548 C5.8561,64.3768 5.5611,64.6828 5.2391,64.6738 C5.1751,63.2778 5.1101,61.8818 5.0461,60.4858 C5.0261,60.0578 5.0161,59.5938 5.2631,59.2438 C5.5091,58.8928 6.1181,58.7828 6.3441,59.1468 C5.0491,59.2468 3.7571,59.3728 2.4671,59.5258 C2.5311,60.0188 3.4031,59.6358 3.7781,59.9628 C3.9501,60.1138 3.9601,60.3738 3.9571,60.6028 C3.9441,61.6398 3.9311,62.6768 3.9181,63.7128 C3.7021,63.6928 3.5031,63.5458 3.4191,63.3458 C3.1581,63.7128 2.7261,63.9158 2.4051,64.2328 C2.0841,64.5498 1.9001,65.1158 2.2221,65.4318 C2.5311,65.7338 3.0671,65.5858 3.4501,65.7888 C3.9421,66.0498 3.9671,66.7278 3.9701,67.2848 C3.9871,70.7038 4.6981,73.9968 5.0751,77.4358 C5.3791,74.3748 5.3731,71.4698 5.5221,68.4868 C5.5831,67.2668 6.0941,66.8508 7.2331,66.5948 C11.6431,65.6058 16.2151,63.6428 19.7211,60.7418 C23.1751,57.8828 26.9301,55.2878 29.7571,51.7038 C30.5021,50.7588 31.2061,49.7578 32.1661,49.0338 C34.4751,47.2938 37.8201,47.4708 40.1231,45.7248 C39.3541,45.6178 38.6171,45.2868 38.0261,44.7828 C39.7251,47.1698 41.5101,49.9298 40.9331,52.8018 C40.2361,52.6678 39.4991,52.7578 38.8551,53.0548 C40.8621,53.2528 42.8291,53.8428 44.6131,54.7798 C43.0531,54.7468 41.5571,54.1908 40.0951,53.6428 C35.6751,51.9848 31.0181,50.5288 26.2051,50.7748 C23.6801,50.9048 21.0901,51.7898 19.4211,53.6898 C17.7521,55.5898 17.2641,58.6198 18.7151,60.6908 C19.9951,62.5168 22.3541,63.2158 24.0241,64.6938 C21.5391,64.9858 19.1401,65.9768 17.1741,67.5248 C16.1481,68.3318 15.2101,69.3378 14.8351,70.5888 C14.4611,71.8398 14.7871,73.3668 15.8661,74.1008 C16.5141,74.5418 17.3261,74.6478 18.1051,74.7408 C21.9301,75.2018 25.7561,75.6618 29.5811,76.1228 C33.0931,76.5448 37.1311,76.5108 40.4611,77.7788 C40.6441,77.8488 40.8471,77.9518 40.8921,78.1428 C40.9221,78.2718 40.8681,78.4058 40.8071,78.5238 C40.2421,79.6208 38.9021,80.2568 37.6951,80.0028 C37.9481,80.4648 38.5601,80.6048 39.0811,80.5238 C39.6011,80.4418 40.0791,80.1938 40.5901,80.0698 C41.6091,79.8218 42.6721,80.0778 43.7191,80.1438 C46.2411,80.3008 48.7641,79.2388 50.4991,77.4198 C51.6381,76.2248 52.0051,75.8878 50.8441,74.8938 C49.7991,73.9988 47.6221,73.6618 46.3081,73.4568 C49.6691,73.5108 53.0351,73.3458 56.3751,72.9618 C59.0121,72.6588 62.1411,71.7018 63.5941,69.2538 L62.0311,68.7068 C62.5711,69.5008 63.8421,69.4548 64.5871,68.8498 C65.3321,68.2458 65.6691,67.2798 65.9201,66.3538 C66.8441,62.9458 67.0721,59.3508 66.5881,55.8528 C66.1941,53.0098 65.3381,50.2508 64.3421,47.5588 C63.7311,45.9048 63.0621,44.2648 62.1701,42.7428 C59.0401,37.3998 53.5341,34.0928 48.0311,31.6248 C43.9091,29.7758 37.1131,28.1658 33.4951,31.8838 C34.0431,31.5378 34.6921,31.2258 35.1431,30.7688" mask="url(#working-b)"/>
  </g>
</svg>
