<svg xmlns="http://www.w3.org/2000/svg" xmlns:xlink="http://www.w3.org/1999/xlink" width="86" height="102" viewBox="0 0 86 102">
  <defs>
    <polygon id="wow-something-precious-a" points="0 0 71.575 0 71.575 90.899 0 90.899"/>
  </defs>
  <g fill="none" fill-rule="evenodd" transform="translate(5 6)">
    <mask id="wow-something-precious-b" fill="#fff">
      <use xlink:href="#wow-something-precious-a"/>
    </mask>
    <path fill="#357591" d="M26.4153,40.1236 C26.1533,39.7876 26.0073,39.3636 26.0073,38.9376 C26.6093,38.9606 27.1913,39.2966 27.5123,39.8066 C27.3393,38.9446 26.5613,39.1346 25.9253,38.8966 C26.1753,39.1626 26.4323,39.4756 26.5353,39.8336 C26.6063,40.0786 26.6013,40.3376 26.5963,40.5916 C26.5613,42.3056 26.8543,44.1286 26.6373,45.8236 C26.3743,47.8796 25.3213,49.7156 24.5813,51.6196 C23.1893,55.1976 22.8673,59.1846 23.6673,62.9386 C18.2793,58.8586 17.4923,52.2162272 17.4923,50.4842272 C16.7183,50.0322272 18.0046339,49.5892272 18.0486339,50.4842272 C18.3886339,57.5732272 20.8713,60.4806 25.8563,65.5256 C25.1943,65.1696 24.5323,64.8136 23.8703,64.4576 C28.4433,61.8666 34.0803,61.2296 39.1133,62.7356 C39.5713,63.2146 39.9453,63.7546 40.2373,64.3366 C41.8383,67.5256 40.9813,71.9426 38.0143,74.0306 C40.7423,74.9976 46.3233,76.9816 49.1283,75.6486 C49.6703,75.3906 50.1173,75.0116 50.7163,74.9436 C51.4983,74.8546 52.4073,74.9996 53.2013,75.0136 C52.4873,75.3956 51.6903,75.6206 50.8823,75.6706 C50.8913,76.6006 51.6593,77.3946 52.5383,77.6996 C53.7223,78.1106 54.7063,77.7866 55.8983,77.5926 C55.9593,77.7096 55.9883,77.8426 55.9803,77.9746 C55.6403,77.9656 55.2913,77.9586 54.9713,78.0736 C54.1823,78.3586 53.4453,79.6946 52.4993,79.3676 C53.3173,79.8736 53.9913,79.6436 54.8163,79.2996 C54.9343,79.2506 55.0663,79.2006 55.1873,79.2426 C55.3083,79.2856 55.3753,79.4696 55.2713,79.5436 C54.9013,79.8026 54.4223,79.9206 54.0223,80.2296 C53.6903,80.4856 53.3313,80.7166 53.0043,80.9686 C53.3663,81.0246 53.7333,81.0586 54.0983,81.1006 C53.7353,81.0586 50.4143,82.4276 50.3063,82.0236 C50.5043,82.8236 50.7023,83.6226 50.9013,84.4226 C50.7403,84.5136 50.5323,84.3826 50.4563,84.2146 C50.3793,84.0476 50.3863,83.8556 50.3523,83.6746 C50.1913,82.8116 49.1813,82.3806 48.8043,81.5876 C48.6433,81.2496 48.6073,80.8626 48.4513,80.5226 C48.1913,79.9546 47.6203,79.5796 47.0203,79.4076 C45.6063,79.0016 44.0673,78.9516 42.6173,78.6756 C40.0923,78.1966 36.7413,77.9556 34.2193,78.6056 C35.0863,79.0576 35.9543,79.5096 36.8223,79.9616 C37.6373,80.3856 38.6353,80.9676 39.1263,81.7616 C39.4563,82.2966 39.6363,82.9076 39.8123,83.5106 C39.9643,84.0286 40.1153,84.5486 40.1713,85.0846 C40.3723,87.0106 39.0223,89.3176 37.1973,90.0586 C32.7123,91.8796 26.8563,90.1766 22.1133,90.1666 C19.1263,90.1616 16.1413,90.2506 13.1563,90.3396 C11.4343,90.3906 6.9283,89.7886 5.6653,90.5546 C6.7873,89.8736 7.8163,89.1096 8.9563,88.4466 C6.7623,89.7236 3.6853,85.0256 3.1133,83.4906 C1.8503,80.1036 0.9913,76.5376 0.4933,72.9606 C-0.5207,65.6786 0.0263,58.1756 2.1523,51.1336 C2.8203,48.9196 3.6503,46.7306 4.9183,44.7976 C6.3883,42.5576 8.4123,40.7206 10.6323,39.2216 C13.6503,37.1846 17.2073,35.3506 20.9223,35.2476 C23.1193,35.1856 30.0073,35.3856 31.2623,31.0176 C32.0403,28.3106 28.4353,25.8616 28.4543,23.0136 C28.4673,21.1156 30.0743,13.9216 32.3433,13.1246 C30.6413,13.7226 28.9393,14.3206 27.2383,14.9176 C28.1473,14.1856 29.2733,13.6666 30.4713,13.4286 C28.6543,13.9536 26.7173,14.1526 24.8113,14.0096 C27.3103,13.1666 29.7173,11.9306 32.0753,10.8206 C30.4233,10.1756 28.7703,9.5306 27.1183,8.8866 C26.7883,8.7576 26.4483,8.6226 26.2013,8.3886 C25.7023,7.9146 25.7193,7.1776 25.8543,6.5406 C26.6213,2.9286 30.4873,0.0446 34.6193,0.000139265576 C36.1423,-0.0154 37.7853,0.3836 38.7013,1.4676 C39.2923,2.1676 39.5063,3.0596 39.6463,3.9256 C39.8653,5.2766 39.8993,6.7856 38.9453,7.8526 C37.8183,9.1106 35.5513,9.4706 34.9263,10.9796 C37.0383,10.8066 39.1353,10.4986 41.1973,10.0596 C40.1653,10.0796 39.1393,10.3006 38.2123,10.7026 C40.3043,9.0786 42.3973,7.4546 44.4893,5.8306 C42.3833,7.4846 40.0933,8.9546 37.6643,10.2126 C39.6763,10.4166 41.7573,10.0276 43.5033,9.1196 C41.7283,9.4766 40.0203,10.0926 38.4693,10.9356 C38.8593,10.8686 39.2833,10.9926 39.5533,11.2526 C38.6693,11.4006 37.7863,11.5486 36.9023,11.6966 C40.0723,11.7666 43.5273,12.4616 46.5223,13.3486 C52.5643,15.1376 58.9303,21.7996 57.6353,27.7646 C56.9893,30.7416 59.8153,34.6476 56.5693,35.2366 C56.0983,37.1886 53.4923,39.1096 51.9343,40.5266 C50.6103,41.7296 49.7713,43.7366 50.9453,45.0606 C49.9503,44.4516 48.8093,43.8996 47.9223,43.1756 C47.4213,43.5696 47.4203,43.7796 46.9183,44.1726 C46.8353,44.2376 46.7403,44.3066 46.6303,44.3026 C46.3923,44.2936 45.9503,43.8446 45.7823,43.6816 C45.5703,43.4746 45.2513,43.1156 45.2093,42.8076 C45.3083,43.5316 45.4293,44.3046 45.9253,44.8416 C44.9403,45.5696 43.7803,45.7596 42.5693,45.8446 C41.5533,45.9176 40.4503,45.9366 39.4573,45.6706 C37.2673,45.0846 35.5503,43.5856 33.9493,42.0546 C32.7583,40.9156 31.9383,39.3576 30.5463,38.4316 C29.6163,37.8136 28.2873,37.2416 27.1613,37.6046 C26.7553,37.7346 26.3963,38.1806 26.5703,38.5696 C26.6473,38.7446 26.8103,38.8616 26.9573,38.9826 C27.8143,39.6866 28.3213,40.7336 28.6453,41.7936 C29.1823,43.5486 29.5213,45.2226 30.3123,46.8936 C32.2143,50.9106 36.4393,53.4786 40.8093,54.2896 C43.7723,54.8396 46.8163,54.6756 49.7713,54.1666 C52.4973,53.6966 55.1183,53.2896 57.8593,52.9066 C61.1573,52.4456 65.7463,52.8106 68.2323,55.3536 C68.8343,55.9696 69.3543,56.7206 70.1453,57.0606 C70.5933,57.2526 71.0893,57.2946 71.5753,57.3336 C71.0223,57.4426 70.4533,57.5226 69.8953,57.4436 C69.3363,57.3646 68.7833,57.1096 68.4463,56.6566 C68.7053,57.6116 68.9633,58.5666 69.2223,59.5216 C68.8133,59.0616 68.4043,58.6026 67.9953,58.1436 C68.2223,58.6386 68.3733,59.1686 68.4393,59.7086 C67.6963,59.0986 66.9543,58.4886 66.2113,57.8776 C66.1183,58.9216 66.7933,59.8006 67.7213,60.2376 C67.6903,60.3216 67.6583,60.4056 67.6273,60.4906 C66.9503,60.3006 66.1573,59.9216 65.6843,59.3816 C65.2733,58.9126 65.1343,58.2616 64.8263,57.7286 C64.5533,57.2556 64.0953,56.8266 63.5493,56.8306 C61.8143,56.8416 63.3773,59.6426 62.9103,60.3796 C62.7763,60.5736 62.4943,60.6806 62.2963,60.5526 C63.2523,59.5746 61.4783,57.9836 60.8993,57.3856 C60.7343,57.2156 60.5683,57.0456 60.4263,56.8566 C59.9503,56.2246 59.5463,55.0406 58.7533,54.7366 C58.4693,54.6276 58.1523,54.6796 57.8533,54.7326 C55.1163,55.2206 52.4613,56.0866 49.6983,56.5546 C42.7383,57.7336 40.0223,57.7356 33.5463,54.9236 C32.6163,54.5206 31.6773,54.0496 30.6643,54.0186 C29.9963,53.9976 29.3393,54.1706 28.6753,54.2426 C25.0053,54.6446 24.0295037,53.4347474 23.8703,53.1452923 C23.6355641,52.7185088 25.2116595,49.3861794 25.2116595,49.3861794 C25.2116595,49.3861794 25.9807788,48.3038457 26.0546261,48.1723822 C26.0546261,48.1723822 26.3025493,47.5048082 26.3025493,47.5048082 C26.3025493,47.4436867 26.3025493,47.3639231 26.3025493,47.4513735 C26.3025493,47.5388239 26.5703,44.7976 26.6373,42.8076 C26.7043,40.8176 25.1313,40.5136 26.6373,40.5266" mask="url(#wow-something-precious-b)"/>
  </g>
</svg>
