<?xml version="1.0" encoding="UTF-8"?>
<svg width="5221px" height="1826px" viewBox="0 0 5221 1826" version="1.1" xmlns="http://www.w3.org/2000/svg" xmlns:xlink="http://www.w3.org/1999/xlink">
    <!-- Generator: Sketch 64 (93537) - https://sketch.com -->
    <title>footer SITE</title>
    <defs>
        <polygon id="path-999" points="0.784265707 0.363489017 4835.0001 0.363489017 4835.0001 347.608148 0.784265707 347.608148"></polygon>
        <polygon id="path-9999" points="1.00621448 0.303592053 5265.48799 0.303592053 5264.99389 1109.80879 0.51211196 1109.80879"></polygon>
    </defs>
    <g id="footer-SITE" stroke="none" stroke-width="1" fill="none" fill-rule="evenodd">
        <g id="Group-19" transform="translate(-17.000000, -3.740507)">
            <path d="M483.449392,44.319654 L485.897778,43.7405071 C485.897778,43.7415125 485.898785,43.7435234 485.898785,43.7455344 L483.449392,44.319654 Z M2343.09667,481.740507 C2016.63112,481.740507 1726.4697,466.749047 1477.0473,436.900858 C1203.05952,404.112694 977.341076,353.422253 806.160353,286.238189 C738.840304,259.815614 679.88482,230.743643 630.931188,199.827652 C591.706696,175.056048 558.766697,149.044708 533.025938,122.515554 C488.951971,77.0927361 481.30391,46.1867997 481,44.8947791 L485.898785,43.7455344 C486.0286,44.2794355 493.911135,75.2125194 537.304827,119.701262 C562.916776,145.960951 595.69677,171.725953 634.73308,196.280377 C683.555889,226.990248 742.350362,255.878219 809.486253,282.140925 C980.418414,349.008268 1205.74439,399.460414 1479.20788,432.095748 C1821.00276,472.88539 2239.37386,485.794536 2722.70317,470.464234 C2988.68061,462.028396 3288.81973,435.842105 3614.78212,392.632312 C3875.57397,358.061461 4153.38175,312.579321 4440.49099,257.449758 C4929.35105,163.579688 5280.25015,73.0638439 5283.73807,72.1609377 L5285,77.0273809 C5281.51208,77.9312926 4930.4882,168.479312 4441.47819,262.379546 C4154.26933,317.529217 3876.35991,363.028451 3615.46743,397.613378 C3289.32893,440.846297 2989.0137,467.047669 2722.86217,475.489541 C2591.40709,479.659198 2464.71796,481.740507 2343.09667,481.740507 L2343.09667,481.740507 Z" id="Fill-1" fill="#466671"></path>
            <g id="Group-5" transform="translate(607.000000, 84.740507)">
                <mask id="mask-2" fill="white">
                    <use xlink:href="#path-999"></use>
                </mask>
                <g id="Clip-4"></g>
                <path d="M2009.55499,347.608148 C1616.40684,347.608148 1269.25405,331.244102 976.370958,298.870044 C723.356215,270.901304 510.058885,230.988923 342.406745,180.240264 C193.075269,135.037477 108.284212,89.3951653 63.4510603,59.0668647 C14.5557059,25.9907723 1.3236119,3.82337341 0.784265707,2.89604393 L5.13525996,0.368517919 L2.95976283,1.63177803 L5.13324747,0.363489017 C5.26204656,0.584760694 18.6813017,22.8698358 67.1671153,55.5064023 C111.932849,85.6395815 196.582026,130.997258 345.626722,175.959662 C513.106795,226.483027 726.092189,266.219397 978.670223,294.06342 C1270.96366,326.28661 1617.41107,342.579246 2009.5399,342.579246 C2040.83707,342.579246 2072.36669,342.475651 2104.24245,342.26846 C2391.46341,340.398714 2713.71672,329.309986 3062.05386,309.31105 C3340.73082,293.312102 3636.62861,271.606356 3941.52926,244.798287 C4460.66506,199.151951 4830.70988,153.92905 4834.3877,153.477454 L4835.0005,158.469142 C4831.32268,158.919732 4461.19233,204.154703 3941.971,249.807073 C3637.01903,276.620171 3341.06992,298.32994 3062.34165,314.331905 C2713.92099,334.334865 2391.58014,345.42661 2104.27465,347.297362 C2072.43109,347.504553 2040.82097,347.608148 2009.55499,347.608148" id="Fill-3" fill="#466671" mask="url(#mask-2)"></path>
            </g>
            <path d="M2810.62828,545.740507 C2465.99239,545.740507 2150.22771,529.489594 1867.95974,497.126769 C1553.25885,461.046198 1279.29285,404.968765 1053.67131,330.455702 C852.861073,264.135581 728.299328,195.173452 659.167242,148.998258 C584.148597,98.8937958 556.271734,63.956449 556,63.608949 L558.372135,61.7405071 C558.643869,62.0849853 586.36675,96.7866364 661.156937,146.695693 C730.193412,192.764119 854.588092,261.572139 1055.15477,327.763332 C1280.59717,402.163584 1554.34578,458.154394 1868.79507,494.181581 C2261.85694,539.214558 2719.97992,553.001746 3230.43781,535.163413 C3555.17474,523.813761 4069.32519,496.84474 4674.59301,432.817112 C5036.56853,394.524628 5262.31185,360.659998 5264.55013,360.322571 L5265,363.310063 C5262.76172,363.648498 5036.96909,397.521185 4674.93217,435.819713 C4340.79929,471.166002 3818.97991,517.618189 3230.54348,538.183138 C3086.31325,543.223398 2946.2194,545.740507 2810.62828,545.740507" id="Fill-6" fill="#466671"></path>
            <polygon id="Fill-8" fill="#466671" points="518.952006 1814.318 518 82.7405071 567.120087 94.4436881 607 1815.74051"></polygon>
            <path d="M661.157948,107.710678 C666.365722,108.350541 671.541288,109.123584 676.658475,110.121931 C679.163722,110.609589 681.740433,111.156327 684.323184,110.265124 C686.904927,109.373922 689.51586,106.619205 690,103.112474 C678.263887,99.4044709 666.191593,96.9691852 653.926046,95.8356558 C655.079527,86.18864 669.275594,92.0405354 669.761747,88.9703931 C669.918765,85.2563822 668.014415,82.2002588 665.642029,80.7462971 C663.270649,79.2923354 660.482568,79.1331206 657.763936,78.9949342 C660.51075,79.6758529 663.454844,79.4916043 666.315396,78.4612141 C667.289715,78.1097398 668.376765,77.5239495 668.84178,76.2812729 C669.567487,74.3366492 668.275105,72.5342173 667.101494,71.4177109 L655.592856,60.4709414 C654.325637,59.2653148 652.946694,58.0146273 651.292969,58.1027462 C649.877791,58.1778475 648.506901,59.2282648 647.211499,60.2466388 C641.032426,65.1021899 634.852345,69.9577411 628.674278,74.8132922 C632.684285,76.3133161 636.905662,77.0933685 641.205548,77.1304185 C636.612762,78.740591 632.123649,81.4252131 628.012989,85.0170593 C633.561977,89.586224 640.082263,92.2388029 646.903502,92.7024284 C633.925333,91.2775059 621.221947,90.5795642 609.267417,85.6679374 C600.719983,82.1561994 588.548043,75.3229799 578.832031,79.4134989 C582.071037,78.0516615 584.901393,74.9344557 588.063903,73.1420374 C591.771952,71.0392002 595.894689,70.8879962 599.289707,72.7304821 C596.022518,69.2948467 593.44782,64.7376982 591.814226,59.5066404 C593.948065,60.521009 596.081903,61.5353776 598.214736,62.5497461 C593.44782,55.2689228 588.678892,47.9891008 583.91097,40.7082774 C575.732932,50.0538866 566.370211,57.3997978 556.550527,62.1742395 C561.472447,64.7617306 566.612784,66.7554205 571.900075,68.1272714 C567.058676,70.3873207 562.215265,72.6463686 557.373866,74.9064179 C563.923342,78.5022694 570.652987,81.6224793 577.529584,84.2530284 C551.634645,75.5432771 524.35875,81.2740091 498.847298,72.4521065 C502.640901,71.9043675 512.014694,72.442093 512.81589,64.8608643 C513.244671,60.806394 510.839069,57.4238302 507.964426,56.7789601 C511.201419,56.2322225 515.113793,55.0426175 516.567219,50.9090404 C523.444823,31.3326277 487.79361,40.062406 482.718698,44.3131411 C485.551067,46.6092391 488.78806,48.1032548 492.198176,48.6880438 C488.127778,53.4434599 483.825878,57.8233693 479.344817,61.7767031 C484.840458,62.8511528 490.516268,63.031396 496.220261,62.3144287 C495.338542,66.7944732 493.908266,71.1733812 492.009955,75.2078245 C491.407045,76.4905552 437.256859,65.6659506 432.043046,62.1462017 L459.738663,13.2362118 C460.918313,11.1524003 462.156342,8.87232405 462.261021,6.41000186 C462.489503,1.04175897 456.964672,-0.814745842 453.368349,2.14524781 C449.771019,5.10524146 447.791179,10.5936465 445.84556,15.604407 C443.947249,20.4940041 416.185201,75.8066325 416,75.7685811 C461.08439,84.8428242 506.723378,91.0762344 552.488181,96.392407 C574.996154,99.0079359 597.557473,101.287011 620.086583,103.775368 C633.631427,105.270385 647.499366,106.032413 661.157948,107.710678" id="Fill-10" fill="#466671"></path>
            <path d="M44.7589335,384.740507 L44.530396,381.72744 C103.412541,377.263748 167.726229,357.984549 235.685443,324.425768 C290.106575,297.552954 346.968127,261.517031 404.688456,217.320339 C492.302905,150.232998 555.511156,84.2890307 568.712975,70.2018576 L500.049019,74.2887899 C495.038309,80.1920246 446.401089,136.461134 367.533486,192.444148 C318.812704,227.026425 268.245499,254.748458 217.236321,274.840611 C153.447163,299.965624 88.7841248,313.161268 25.0432913,314.059849 L25,311.037715 C88.3753748,310.144171 152.681008,297.020051 216.130884,272.028012 C266.912531,252.025516 317.264286,224.420338 365.785727,189.979094 C448.410608,131.330558 497.66196,72.4422662 498.150245,71.8539575 L498.569063,71.3502685 L576,66.7405071 L573.499175,69.4866193 C572.82665,70.2260347 505.089934,144.242121 406.566088,219.688684 C348.684675,264.011298 291.649959,300.158034 237.047607,327.123526 C168.730989,360.86162 104.034727,380.247601 44.7589335,384.740507" id="Fill-12" fill="#466671"></path>
            <path d="M25.035214,360.740507 L25,357.719687 C99.9856915,356.826531 179.287613,342.293366 260.701368,314.524981 C325.860342,292.300807 392.508365,261.597192 458.794187,223.26802 C571.666115,158.001188 645.25532,92.396025 645.985759,91.7405071 L648,93.9900111 C647.267549,94.6475429 573.442913,160.461143 460.304365,225.88405 C393.84851,264.310896 327.019386,295.09708 261.675287,317.383683 C179.958691,345.255783 100.341856,359.843323 25.035214,360.740507" id="Fill-14" fill="#466671"></path>
            <g id="Group-18" transform="translate(0.000000, 727.740507)">
                <mask id="mask-4" fill="white">
                    <use xlink:href="#path-9999"></use>
                </mask>
                <g id="Clip-17"></g>
                <path d="M5177.35241,1085.34663 C5176.80006,1079.54907 5176.21752,1075.56092 5175.60681,1073.94372 C5182.46247,1075.12316 5186.75354,1064.27977 5183.62956,1057.35812 C5180.50658,1050.43547 5173.50101,1047.06723 5167.04176,1044.23738 C5173.28671,1042.35149 5179.16543,1038.96513 5184.16179,1034.37519 C5174.20227,1035.14102 5164.24376,1035.90886 5154.28323,1036.6767 C5147.55736,847.96865 5136.60078,395.010155 5129.87491,206.302104 C5136.62593,205.834153 5141.69071,196.868614 5139.16134,189.856393 C5133.34499,188.231143 5127.27913,187.718913 5121.31086,188.349892 L5128.86879,186.86855 C5130.32061,183.623083 5129.0509,179.205223 5126.18046,177.511542 C5129.46341,177.935214 5132.90029,176.212349 5134.79883,173.188278 C5124.72964,166.595704 5110.32008,173.045377 5101.09401,165.058006 C5095.90247,160.563664 5094.07838,152.852032 5092.57022,145.709992 C5088.31335,125.54583 5084.05648,105.380663 5079.79961,85.2165014 C5079.27744,82.7449148 5078.78243,80.0136908 5079.85394,77.7745703 C5081.00192,75.3744343 5083.55946,74.3509801 5085.91377,73.653582 C5094.67199,71.0582149 5103.83064,70.1575349 5112.85951,71.0038722 C5109.80998,103.187834 5110.48106,135.810563 5114.8496,167.804325 C5115.06893,135.489539 5115.28726,103.174752 5115.50659,70.8599646 C5126.68049,71.1216147 5137.85238,71.3832647 5149.02628,71.6439084 C5142.25212,103.616538 5135.47795,135.589167 5128.70278,167.561796 C5134.66501,169.879412 5141.05484,170.815314 5147.3501,170.29302 C5144.04501,168.162585 5140.73892,166.03215 5137.43485,163.901714 C5142.85981,140.040237 5148.28478,116.178759 5153.71075,92.3172811 C5155.55194,84.2202185 5157.97667,75.1147969 5158.53607,66.8838903 C5160.17,66.6635005 5171.07829,64.3770816 5171.9858,65.334117 C5164.12604,57.0559121 5155.74209,48.4949238 5146.58344,41.6497561 C5139.25792,36.1752321 5129.20483,34.0488223 5120.64683,31.3739538 C5119.36102,30.9724216 5117.82669,30.232757 5117.83072,28.8822403 C5117.83474,27.934262 5118.6346,27.2096927 5119.35498,26.5978341 C5122.36728,24.0427208 5125.28803,20.9260662 5125.88969,17.014398 C5126.48933,13.1037362 5123.64606,8.5057398 5119.70712,8.70902176 C5117.60635,8.81871351 5115.1615,10.1038178 5113.63723,8.64964733 C5116.41612,7.84054488 5116.90912,3.51929374 5114.751,1.5850961 C5112.59389,-0.349101541 5109.0403,0.0453862194 5106.76346,1.83869538 C5105.33881,2.96077153 5104.24617,4.77420762 5104.64559,6.54738985 C5105.10036,8.56310154 5107.19006,9.68819674 5109.06042,10.5536546 C5104.32666,9.48390843 5099.13813,10.6593209 5095.32093,13.6662838 C5093.41133,15.1697652 5091.76935,17.2861115 5091.6627,19.7184506 C5091.52989,22.7505721 5093.87414,25.4475802 5096.63693,26.6823672 C5099.39972,27.9181605 5102.51766,28.0006809 5105.54204,28.0630743 C5089.69675,41.431379 5074.5477,55.0985684 5059.3423,69.1129474 C5062.67857,69.8334914 5066.01686,70.553029 5069.35313,71.273573 C5073.93497,104.239466 5081.21622,136.826973 5091.10129,168.599339 C5089.78831,169.730472 5088.47533,170.860599 5087.16135,171.990726 C5095.24044,175.381107 5104.04796,169.971995 5112.48523,172.447607 C5108.01809,171.137345 5102.47138,174.172485 5101.88381,179.292775 C5101.47332,182.863292 5104.48562,186.112784 5107.44863,186.51331 C5102.69575,188.247245 5097.94387,189.98118 5093.19199,191.714108 C5096.48501,200.635368 5104.98667,206.811316 5113.61912,206.554697 C5116.24408,394.160799 5124.71153,845.990173 5130.56007,1033.5057 C5122.63189,1033.6476 5114.74195,1035.95113 5107.76354,1040.16168 C5111.27085,1042.93014 5114.77716,1045.6986 5118.28447,1048.46705 C5112.10794,1051.65818 5105.93443,1054.8493 5099.75789,1058.04043 C5100.10802,1067.24447 5109.41457,1074.55054 5117.28138,1071.79819 C5117.45544,1073.06417 5117.62849,1077.93287 5117.80255,1085.34663 L4735.36961,1085.34663 C4735.20259,1084.6764 4734.98427,1084.0253 4734.70356,1083.40438 C4731.485,1076.26938 4724.26412,1072.7985 4717.60767,1069.8821 C4724.04278,1067.93784 4730.1026,1064.44783 4735.25189,1059.71599 C4724.98752,1060.50598 4714.72315,1061.29797 4704.45777,1062.08896 C4704.22535,1055.60205 4703.99697,1049.11615 4703.77361,1042.63025 C4700.11638,937.321134 4702.51999,1014.02888 4699.4272,908.702657 C4697.81943,853.955404 4696.21367,799.210164 4694.5395,744.46593 C4692.92267,691.540164 4690.76657,638.706982 4689.22923,585.814425 C4689.18395,584.269684 4689.15679,582.643428 4689.88622,581.280835 C4691.17103,578.878686 4694.2115,578.194371 4696.60303,576.887127 C4698.99356,575.579883 4700.90417,572.093899 4698.83359,570.32273 C4694.64816,568.516338 4690.03412,567.715286 4685.48447,568.004108 C4685.50157,562.488324 4685.51767,556.973546 4685.53578,551.458768 C4692.33309,551.238378 4699.12939,551.017988 4705.92569,550.796592 C4697.65241,551.066293 4692.10772,528.002848 4695.21158,522.414607 C4714.66177,521.363981 4733.38656,510.886909 4744.46085,494.857825 L4697.73894,490.284987 C4719.07157,488.681878 4745.06754,483.605867 4751.57307,463.220309 C4733.45799,462.557127 4715.43346,459.467644 4698.13032,454.061551 C4710.80634,452.353782 4723.81842,449.667843 4734.21861,442.218868 C4744.61781,434.769892 4751.75216,421.430772 4748.42394,409.076864 C4732.70944,409.39185 4716.98087,409.015477 4701.29957,407.94875 C4703.20314,400.750354 4704.02614,393.26515 4703.72934,385.825232 C4695.75589,386.457218 4687.28038,389.995531 4679.34215,388.556456 C4679.7798,379.424869 4679.16708,370.243972 4677.51605,361.253274 C4671.97639,359.869548 4666.39547,364.579248 4664.71627,370.037671 C4663.03606,375.495087 4664.19711,381.374162 4665.37024,386.96341 C4664.80782,384.282503 4647.89706,389.551733 4646.45631,392.242703 C4644.77006,395.390554 4644.85457,399.15127 4644.98034,402.719774 C4646.7521,452.585241 4648.52387,502.451714 4650.29463,552.317181 C4650.25338,551.165921 4670.7117,553.942431 4672.69777,554.971923 C4670.05873,557.052041 4666.78685,560.368958 4666.06748,563.79758 C4665.23844,567.760572 4668.21855,572.5538 4672.25508,572.249883 C4669.97623,575.055577 4667.69738,577.86127 4665.41954,580.66797 C4669.74784,579.732068 4672.96741,584.932866 4673.17165,589.357771 C4674.42627,616.62875 4670.53865,644.134208 4671.28317,671.565196 C4672.11523,702.141016 4674.61945,732.650418 4675.11345,763.238315 C4676.00084,818.289484 4676.95162,873.339647 4677.99596,928.386791 C4679.97398,1032.55471 4676.75744,954.684634 4680.00618,1058.82035 C4671.83352,1058.96727 4663.70211,1061.34124 4656.5094,1065.6796 C4660.12336,1068.5336 4663.73833,1071.3876 4667.35329,1074.2416 C4660.98761,1077.53034 4654.62293,1080.81908 4648.25826,1084.10882 C4648.27436,1084.52646 4648.31359,1084.93805 4648.36491,1085.34663 L1132.58852,1085.34663 L1165.73796,241.229366 L1207.84584,240.226039 C1207.84584,232.071615 1211.92261,144.411805 1211.92261,144.411805 L1169.10844,155.366891 L1169.72821,139.591406 L1151.86566,144.197453 C1151.86566,144.197453 1151.61615,149.738396 1151.15635,159.959856 L1124.28305,166.83622 C1124.28305,166.83622 1122.24366,115.870817 1118.16789,121.98739 C1114.09212,128.102956 1059.06172,211.686057 1059.06172,211.686057 L1118.16789,289.153591 L1122.24366,242.264897 L1147.48504,241.664108 C1137.25588,469.303673 1112.45216,1021.52918 1109.68333,1085.34663 L952.458925,1085.34663 L896.578354,488.324625 C909.970736,488.118324 922.600483,480.350336 929.91795,464.24477 C935.736306,451.440019 937.745516,435.012422 938.112747,418.741814 C939.038372,377.570173 925.824072,313.905685 893.652575,307.118886 C889.090855,306.155812 884.328918,305.909257 879.546859,306.356075 L876.289062,271.558632 L859.191163,278.48632 C859.191163,278.48632 860.226454,290.274661 862.066636,311.207671 C843.473652,320.002131 828.131422,340.168306 827.984529,371.058106 C827.780288,413.995885 844.679983,459.833954 870.747387,479.342984 C872.844128,480.91389 875.006267,482.271451 877.205632,483.435794 C893.225983,665.668006 916.213673,927.07049 930.161429,1085.34663 L323.570346,1085.34663 L334.659733,802.302666 L449.322506,782.968741 L449.322506,722.007299 L337.513072,729.473383 L338.579553,702.278886 L460.769064,697.694978 L460.769064,628.92127 L341.808172,619.88428 L343.259994,582.796393 L328.554634,586.614471 C328.554634,586.614471 328.031455,598.284063 327.113879,618.767236 L158.996276,605.996701 L155.176061,709.158269 L323.345983,702.849484 C322.949574,711.703319 322.536061,720.934534 322.107456,730.502875 L156.220407,741.579729 L152.468609,833.023401 L318.771183,804.98156 C314.883559,891.778931 310.360071,992.823147 306.222931,1085.34663 L1.00621448,1085.34663 L1.00621448,1104.77706 L5265.48799,1104.77706 L5265.48799,1085.34663 L5177.35241,1085.34663 Z" id="Fill-16" fill="#18404D" mask="url(#mask-4)"></path>
            </g>
        </g>
    </g>
</svg>
