<?xml version="1.0" encoding="UTF-8"?>
<svg width="816px" height="192px" viewBox="0 0 816 192" version="1.1" xmlns="http://www.w3.org/2000/svg" xmlns:xlink="http://www.w3.org/1999/xlink">
    <title>LOGO</title>
    <g id="LOGO--simbolos" stroke="none" stroke-width="1" fill="none" fill-rule="evenodd">
        <g id="LOGO--LOGO" transform="translate(-0.000300, 0.500200)" fill="#FFFFFF">
            <path d="M140.346,82.157 C139.645,82.425 139.258,83.581 138.993,84.222 C138.566,85.258 138.227,86.33 137.982,87.424 C137.711,88.631 137.282,89.797 136.703,90.889 C136.339,91.579 135.808,92.187 135.187,92.658 C134.235,93.38 133.063,93.81 132.075,94.498 C130.941,95.288 129.821,96.1 128.718,96.935 C124.534,100.102 122.101,105.066 122.159,110.313 C122.198,120.702 120.849,130.692 114.718,139.08 C113.889,140.215 112.428,142.059 111.683,143.252 C110.949,144.427 109.871,145.798 109.137,146.972 C108.387,148.173 104.539,153.011 103.948,154.298 C103.366,155.562 101.218,160.292 100.718,161.447 C100.199,162.645 99.695,163.847 99.134,165.027 C98.016,167.375 96.771,169.662 95.405,171.875 C92.678,176.29 89.47,180.407 85.854,184.129 C84.95,185.058 84.022,185.963 83.07,186.843 C82.581,187.293 81.627,188.562 80.903,188.564016 C80.776,188.564016 80.653,188.52 80.535,188.472 C80.262,188.358 79.985,188.198 79.852,187.933 C79.726,187.684 79.753,187.38 79.858,187.12 C80.105,186.513 80.81,186.083 81.279,185.647 C82.811,184.224 84.231,182.686 85.527,181.045 C98.025,166.075 105.813,147.742 107.913,128.354 C108.153,126.136 108.288,123.907 108.32,121.676 C108.377,117.544 109.889,113.564 112.589,110.437 L118.51,103.767 C120.84,101.215 123.034,98.543 125.086,95.762 C125.393,95.346 125.649,94.895 125.848,94.419 C126.454,92.964 126.788,91.397 126.833,89.823 C126.851,89.199 126.927,88.401 126.652,87.823 C126.359,87.208 125.813,86.813 125.963,86.051 C125.978,85.974 126.006,85.889 126.075,85.853 C126.108,85.836 126.146,85.832 126.183,85.828 C126.299,85.818 126.43,85.814 126.568,85.818 C127.036,85.83 127.583,85.935 127.89,86.219 C128.431,86.722 128.903,87.295 129.295,87.922 C130.198,89.365 132.255,87.606 132.862,86.687 C133.923,84.436 134.588,82.019 134.825,79.542 C134.952,78.211 135.384,76.928 136.089,75.791 C136.393,75.3 136.793,74.869 137.26,74.53 C137.541,74.326 138.362,73.676 138.686,73.985 C138.798,74.092 138.834,74.27 138.772,74.412 C138.47,75.101 137.925,75.609 137.545,76.243 C137.082,77.014 136.968,77.946 137.231,78.806 C137.32,78.903 137.468,78.917 137.573,78.838 C137.854,78.627 138.102,78.376 138.31,78.094 C138.7,77.564 139.152,76.493 139.95,76.74 C141.396,77.185 139.208,79.14 138.741,79.609 C138.117,80.234 137.723,81.051 137.621,81.927 C137.578,82.231 137.777,82.517 138.076,82.585 C138.285,82.548 138.475,82.438 138.613,82.276 L138.803,82.077 C139.066,81.688 139.514,81.538 139.951,81.433 C140.148,81.386 140.358,81.345 140.547,81.416 C140.735,81.487 140.878,81.715 140.789,81.894 C140.71,82.053 140.511,82.095 140.346,82.157 M106.677,91.167 C106.588,91.174 106.497,91.154 106.406,91.103 C105.697,90.705 105.773,88.807 105.78,88.105 C105.791,86.986 106.007,85.871 106.413,84.829 C107.101,83.064 108.298,81.407 109.591,80.041 C110.262,79.334 110.993,78.685 111.776,78.104 C112.578,77.509 115.322,76.593 116.32,76.592 C117.909,76.592 118.821,76.169 119.44,75.876 C120.57,75.34 120.813,73.708 121.053,72.682 C121.419,71.12 121.91,69.585 122.521,68.1 C122.787,67.45 123.078,66.809 123.39,66.179 C123.615,65.726 123.781,65.121 124.153,64.779 C124.983,64.016 126.245,63.874 127.285,63.579 C128.319,63.287 129.348,62.983 130.374,62.669 C131.37,62.364 132.365,62.049 133.354,61.723 C134.281,61.419 135.254,60.939 136.221,60.844 C136.393,60.827 136.585,60.815 136.72,60.923 C136.826,61.009 136.87,61.148 136.905,61.281 C137.07,61.924 136.898,62.464 136.811,63.113 C136.71,63.861 136.598,64.609 136.474,65.354 C136.228,66.844 135.936,68.325 135.6,69.797 C134.926,72.74 134.074,75.641 133.05,78.481 C132.621,79.668 132.26,81.123 131.594,82.197 C130.961,83.219 129.845,83.843 128.643,83.845 C128.017,83.846 127.391,83.793 126.775,83.683 C125.335,83.428 123.876,84.022 123.026,85.211 C122.078,86.326 121.196,87.494 120.381,88.71 C117.549,92.936 114.904,97.286 112.454,101.746 C112.074,102.438 111.67,103.119 111.243,103.785 C110.97,104.213 110.551,105.034 110.096,105.295 C109.917,105.397 109.688,105.362 109.499,105.276 C108.617,104.874 108.324,103.89 108.238,103.096 C108.134,102.138 108.109,101.437 107.912,99.777 C107.653,97.58 107.483,95.894 108.444,93.901 C109.744,91.703 111.578,89.869 113.777,88.568 C116.133,87.461 118.053,85.6 119.234,83.281 C119.695,82.376 119.901,81.273 119.953,80.267 C119.984,79.686 120.139,78.022 119.529,77.676 C119.081,77.423 117.727,77.922 117.257,78.055 C116.508,78.271 115.783,78.563 115.093,78.928 C113.852,79.582 112.291,80.612 111.549,81.845 C110.528,83.542 109.611,85.303 108.808,87.113 C108.535,87.727 107.662,91.084 106.677,91.167 M65.252,103.478 L65.048,106.505 L64.805,110.12 C64.771,110.772 64.157,118.372 62.554,117.628 C62.528,117.616 62.502,117.601 62.487,117.578 C62.471,117.556 62.466,117.528 62.461,117.502 C62.182,115.982 62.942,112.686 63.218,110.401 C63.413,108.785 63.401,107.131 63.45,105.502 C63.492,104.106 63.235,102.487 63.843,101.195 C63.869,101.139 63.897,101.084 63.926,101.03 C64.101,100.709 64.391,100.375 64.753,100.418 C64.983,100.444 65.171,100.623 65.272,100.831 C65.61,101.521 65.302,102.724 65.252,103.478 M39.387,67.45 C39.617,68.646 39.859,69.841 40.114,71.032 C40.309,71.946 40.809,73.237 40.39,74.163 C40.16,74.674 39.623,74.637 39.167,74.778 C38.661,74.933 38.083,75.222 37.694,75.587 C36.567,76.643 35.959,78.14 36.034,79.683 C36.08,80.651 36.043,81.628 36.075,82.598 C36.099,83.345 36.427,84.627 35.957,85.274 C35.935,85.305 35.909,85.336 35.874,85.351 C35.839,85.367 35.8,85.365 35.762,85.36 C34.722,85.235 33.561,84.532 32.753,83.898 C32.29,83.536 31.71,83.109 31.592,82.501 C31.475,81.896 31.754,81.267 32.063,80.762 C32.525,80.01 32.237,79.21 31.43,78.878 C30.86,78.641 30.308,78.361 29.783,78.034 C28.735,77.378 27.799,76.544 27.03,75.576 C26.148,74.467 25.317,73.318 24.537,72.135 C23.867,71.115 23.028,70.078 23.9,68.92 C24.357,68.314 24.856,67.74 25.392,67.203 C26.002,66.593 26.783,66.058 27.043,65.203 C27.091,65.043 27.051,64.866 26.969,64.72 C26.784,64.387 26.386,64.128 26.129,63.843 C25.753,63.424 25.366,63.014 24.968,62.6169913 C24.068,61.859 23.006,60.985 22.354,59.995 C21.734,59.055 22.107,58.382 22.487,57.44 C22.742,56.806 22.968,56.158 23.208,55.518 C23.683,54.254 23.166,52.85 23.61,51.636 C23.863,50.942 24.811,51.001 25.435,50.871 C26.25,50.701 27.083,50.616 27.916,50.6169913 C29.593,50.619 31.256,50.974 32.791,51.645 C33.865,52.114 34.976,52.51 36.065,52.941 C36.783,53.224 37.579,53.413 38.278,53.715 C38.673,53.884 38.863,54.101 38.939,54.356 C39.048,54.721 38.924,55.163 38.838,55.649 C38.748,56.156 38.617,56.662 38.52,57.171 C38.318,58.22 38.205,59.286 38.186,60.354 C38.164,61.474 38.552,62.747 38.739,63.852 C38.942,65.053 39.158,66.253 39.387,67.45 M41.778,77.42 C42.236,77.613 42.645,77.907 42.975,78.279 C43.438,78.803 44.021,79.249 44.381,79.857 C44.519,80.092 44.653,80.355 44.425,80.578 C44.218,80.78 43.852,80.722 43.656,80.533 C43.075,79.972 42.317,79.634 41.511,79.576 C40.891,79.532 40.285,79.789 39.886,80.267 C39.502,80.651 39.034,81.092 38.459,80.834 C37.857,80.563 38.155,79.821 38.311,79.348 C38.428,78.995 38.598,78.646 38.745,78.303 C38.923,77.893 39.011,77.244 39.422,76.989 C39.505,76.937 39.602,76.902 39.715,76.888 C40.34,76.811 41.216,77.181 41.778,77.42 M40.258,88.236 C39.851,88.758 39.313,89.161 38.699,89.405 C38.356,89.566 38.024,89.757 37.79,90.059 C36.678,91.505 36.719,93.407 36.283,95.112 C35.828,96.88 35.188,98.598 34.372,100.23 C33.715,101.549 32.944,102.81 32.071,103.996 C31.345,104.982 29.663,106.353 30.061,107.742 C30.185,108.178 30.633,108.476 30.9,108.833 L32.92,111.499 C33.896,112.771 34.571,114.249 34.893,115.82 C34.893,115.888 34.878,115.956 34.851,116.018 C34.742,116.272 34.448,116.388 34.195,116.278 C32.291,115.079 32.019,112.472 30.064,111.36 C29.205,110.872 28.208,111.383 27.507,111.891 C26.642,112.518 25.825,113.214 25.068,113.968 C24.64,114.393 24.124,114.703 23.607,115.002 C23.354,115.149 22.264,115.573 22.053,115.137 C21.969,114.963 22.012,114.749 22.114,114.585 C22.44,114.06 23.072,113.765 23.425,113.219 C23.96,112.392 24.408,111.512 24.762,110.594 C25.223,109.398 25.094,107.803 24.226,106.803 C23.931,106.464 23.504,106.281 23.603,105.847 C23.622,105.761 23.663,105.664 23.731,105.554 C23.995,105.119 24.5,105.125 24.931,105.211 C25.247,105.274 25.491,105.407 25.821,105.402 C26.168,105.397 26.508,105.278 26.854,105.251 C26.951,105.243 27.051,105.241 27.146,105.215 C27.267,105.179 27.373,105.106 27.475,105.031 C30.149,103.087 31.892,99.974 32.826,96.852 C33.536,94.482 34.557,92.216 35.861,90.112 C36.863,88.421 38.344,87.065 40.117,86.217 C40.526,86.022 40.857,86.479 40.855009,86.835 C40.852,87.325 40.553,87.863 40.258,88.236 M19.948,106.266 C19.908,106.364 19.837,106.454 19.757,106.523 C19.336,106.884 18.745,106.891 18.244,107.089 C17.738,107.289 17.262,107.568 16.843,107.915 C15.995,108.614 15.388,109.577 15.12,110.642 C14.81,111.878 14.97,113.203 15.569,114.328 C15.866,114.886 16.265,115.39 16.742,115.806 C17.142,116.154 17.835,116.473 17.783,117.113 C17.778,117.187 17.759,117.262 17.712,117.319 C17.382,117.718 16.387,117.528 15.978,117.455 C12.77,116.877 10.639,113.808 11.216,110.6 C11.971,107.817 14.365,105.789 17.234,105.499 C17.701,105.452 19.878,105.424 19.977,106.035 C19.99,106.114 19.977,106.193 19.948,106.266 M145.616,79.518 C146.078,79.116 146.782,79.162 147.185,79.625 L186.031,124.128 C187.998,117.936 189.358,111.474 190.023,104.806 L148.686,77.32 C148.174,76.98 148.034,76.29 148.375,75.779 C148.714,75.267 149.404,75.127 149.917,75.468 L190.216,102.263 C190.385,99.945 190.5,97.611 190.5,95.25 C190.5,93.667 190.457,92.095 190.381,90.531 L150.216,72.788 C149.655,72.54 149.401,71.884 149.649,71.321 C149.897,70.759 150.552,70.505 151.116,70.754 L190.2,88.018 C189.731,81.781 188.666,75.714 187.054,69.87 L151.349,68.563 C150.735,68.542 150.256,68.026 150.278,67.412 C150.301,66.799 150.805,66.326 151.43,66.342 L186.415,67.621 C185.029,63.04 183.313,58.603 181.283,54.344 L150.519,63.189 C150.416,63.219 150.312,63.232 150.21,63.232 C149.728,63.232 149.283,62.915 149.143,62.428 C148.972,61.838 149.314,61.221 149.904,61.052 L180.271,52.32 C178.453,48.73 176.439,45.258 174.199,41.946 L148.468,58.427 C148.283,58.546 148.075,58.602 147.869,58.602 C147.502,58.602 147.144,58.422 146.931,58.09 C146.6,57.573 146.751,56.885 147.268,56.553 L172.909,40.132 C155.646,15.854 127.308,0 95.25,0 C42.645,0 0,42.644 0,95.25 C0,118.857 8.608,140.441 22.829,157.083 C23.483,154.802 24.187,152.534 24.965,150.29 C26.26,147.301 27.201,144.171 27.769,140.964 C27.63,138.13 28.064,135.297 29.046,132.636 C29.78,130.962 30.517,129.289 31.255,127.618 C31.491,127.084 34.45,120.8 34.763,120.493 C35.156,120.11 35.602,119.394 36.157,119.956 C36.583,120.387 36.449,121.76 36.496,122.331 C36.573,123.249 36.645,124.168 36.712,125.087 C36.849,126.925 36.967,128.764 37.07,130.604 C37.265,134.142 37.398,137.684 37.469,141.227 C37.538,144.734 37.401,148.25 37.492,151.753 C37.656,157.931 38.379,164.083 39.654,170.131 C39.861,171.109 40.077,172.073 40.306,173.031 C41.255,173.703 42.214,174.36 43.19,174.998 C42.618,173.025 42.136,171.025 41.767,169.002 C40.991,164.74 40.494,160.431 40.281,156.104 C40.106,152.548 39.097,129.549 38.741,126.78 C38.609,125.751 38.476,124.721 38.344,123.691 L37.982,120.877 C37.866,119.966 37.649,119.135 37.977,118.225 C38.288,117.365 39.035,116.752 39.646,116.07 C40.464,115.159 40.97,113.856 41.691,112.851 C43.059,110.943 44.231,108.901 45.188,106.757 C45.71,105.587 46.001,104.318 46.041,103.038 C46.062,102.391 46.019,101.743 45.912,101.104 C45.826,100.585 45.768,100.286 45.499,99.823 C45.432,99.708 45.381,99.583 45.316,99.466 C44.911,98.739 44.391,97.891 43.824,97.33 C42.896,96.412 42.177,95.604 41.323,94.433 C40.67,93.539 39.647,92.644 40.248,91.52 C40.642,90.787 41.945,90.799 42.652,90.903 C44.13,91.121 45.623,91.208 47.117,91.166 C47.902,91.143 48.631,90.756 49.088,90.117 C49.404,89.676 49.367,88.524 49.406,87.993 C49.458,87.262 49.455,86.528 49.394,85.799 C49.276,84.361 48.936,82.943 48.391,81.608 C47.255,78.822 45.365,76.867 43.001,75.103 C42.888,75.018 42.79,74.953 42.701,74.838 C42.518,74.599 42.351,74.347 42.231,74.072 C41.851,73.204 41.878,72.169 41.783,71.241 C41.301,66.511 41.468,61.737 42.279,57.053 C42.848,53.763 45.157,51.043 48.308,49.945 C48.248,49.966 47.546,49.412 47.433,49.352 C47.105,49.178 46.757,49.045 46.4,48.95 C45.697,48.766 44.952,48.743 44.239,48.882 C43.525,49.02 42.818,49.32 42.243,49.77 C41.655,50.232 41.527,50.986 40.649,51.091 C40.619,51.095 40.589,51.096 40.559,51.096 C40.499,51.096 40.44,51.087 40.39,51.054 C40.265,50.976 39.967,50.205 39.91,50.042 C39.782,49.678 39.82,49.267 39.707,48.887 C39.453,48.019 38.636,46.241 39.397,45.463 C39.831,45.017 40.331,45.003 40.909,45.008 C41.385,45.011 42.124,45.166 42.537,44.853 C43.155,44.388 43.523,43.509 44.046,42.935 C44.463,42.479 44.966,42.102 45.521,41.829 C46.646,41.272 47.906,41.167 49.097,41.57 C49.58,41.733 50.228,41.976 50.58,42.349 C50.932,42.72 51.033,43.251 51.636,43.328 C52.474,43.435 52.745,42.928 52.992,42.292 C53.228,41.687 53.527,40.77 54.367,41.441 C54.88,41.85 54.85,42.559 54.89,43.151 C54.924,43.651 54.77,44.161 54.907,44.645 C55.26,45.897 56.303,46.591 57.294,47.308 C59.908,49.206 63.32,50.643 66.595,49.935 C66.783,49.894 66.974,49.847 67.165,49.872 C67.356,49.896 67.549,50.011 67.603,50.196 C67.629,50.285 67.621,50.381 67.654,50.467 C67.783,50.812 68.721,51.061 69.036,51.284 C69.593,51.678 70.118,52.124 70.608,52.597 C71.557,53.515 72.373,54.567 73.03,55.712 C74.339,57.995 74.988,60.633 74.885,63.262 C74.816,65.062 74.797,66.864 74.828,68.666 C74.833,68.923 75.022,69.268 75.112,69.509 C75.218,69.796 75.334,70.08 75.46,70.359 C75.709,70.916 75.995,71.455 76.316,71.973 C76.952,73.005 77.726,73.951 78.609,74.783 C79.202,75.342 79.845,75.847 80.528,76.294 C80.867,76.514 81.215,76.721 81.573,76.913 C81.746,77.006 81.918,77.041 82.009,77.229 C82.2,77.631 81.909,77.97 81.581,78.171 C81.213,78.397 80.846,78.398 80.435,78.332 C80.068,78.272 79.69,78.232 79.33,78.142 C79.234,78.119 79.135,78.095 79.035,78.097 C78.924,78.101 78.815,78.141 78.727,78.21 C78.496,78.387 78.412,78.821 78.304,79.094 C78.181,79.404 78.058,79.714 77.934,80.024 L76.995,82.387 L75.059,87.257 C74.835,87.82 74.612,88.384 74.387,88.947 C73.643,90.771 72.454,92.381 70.929,93.628 C68.574,95.553 66.2,97.595 63.364,98.697 C56.803,101.245 54.025,110.925 53.732,111.516 C53.3,112.514 53.177,113.62 53.378,114.688 C53.519,115.428 53.886,116.117 54.427,116.642 C54.96,117.16 58.536,119.365 59.186,120.084 C59.56,120.499 59.851,121.011 59.905,121.566 C60.036,122.91 59.364,124.481 59.025,125.773 L57.961,129.825 C57.546,131.408 57.131,132.99 56.715,134.573 C54.321,143.394 52.162,152.278 50.242,161.214 C49.046,166.78 48.426,172.45 48.348,178.14 C49.324,178.694 50.31,179.231 51.307,179.751 C51.128,173.417 51.547,167.073 52.591,160.808 C55.063,147.683 58.453,134.749 62.739,122.098 C71.21,120.868 79.232,117.508 86.05,112.33 C86.434,112.038 86.817,111.745 87.199,111.451 C90.377,108.998 93.477,106.443 96.492,103.792 C97.999,102.466 99.485,101.117 100.95,99.743 C101.681,99.056 102.408,98.364 103.128,97.666 C103.742,97.071 104.045,96.542 104.997,96.593 C105.245,96.606 105.503,96.647 105.703,96.796 C106.071,97.069 106.107,97.853 106.148,98.267 C106.383,100.694 106.556,103.128 106.666,105.564 C106.723,106.824 106.763,108.085 106.786,109.345 C106.802,110.19 106.947,110.806 106.529,111.601 C105.95,112.698 105.286,113.7 104.458,114.646 C103.674,115.542 96.742,122.896 96.355,123.495 C96.014,124.019 95.471,124.52 95.645,125.215 C95.924,126.331 97.491,125.071 97.863,124.759 C98.606,124.134 99.352,123.531 100.04,122.842 C100.951,121.903 101.906,121.005 102.898,120.152 C103.581,119.563 104.561,118.402 105.581,118.791 C106.983,119.323 106.333,121.997 106.259,123.106 C106.145,124.819 105.972,126.528 105.74,128.229 C105.276,131.635 104.574,135.006 103.646,138.313 C102.602,142.028 101.469,145.718 100.251,149.379 C99.648,151.189 99.023,152.993 98.378,154.789 C98.056,155.686 97.741,156.589 97.395,157.477 C97.141,158.129 96.587,158.482 95.983,158.847 C95.493,159.142 94.893,159.329 94.37,159.56 C93.247,160.057 92.125,160.554 91.003,161.053 C88.834,162.012 86.665,162.972 84.498,163.932 C82.141,164.976 79.784,166.02 77.428,167.064 C76.405,167.516 75.381,167.97 74.359,168.423 C73.454,168.823 72.171,169.159 71.424,169.781 C71.094,170.055 70.762,170.34 70.531,170.701 C70.504,170.743 70.48,170.786 70.457,170.829 C69.881,171.957 70.833,173.562 71.183,174.642 C71.654,176.095 72.103,177.554 72.529,179.02 C73.357,181.874 74.1,184.752 74.755,187.649 C74.772,187.719 74.785,187.788 74.799,187.857 C74.825,188.001 74.819,188.14 74.834,188.283 C81.414,189.72 88.24,190.5 95.25,190.5 C136.881,190.5 172.25,163.782 185.205,126.566 L145.509,81.088 C145.106,80.625 145.154,79.923 145.616,79.518" id="LOGO--Fill-4"></path>
            <g id="LOGO--Group-2" transform="translate(224.249900, 65.634962)">
                <path d="M9.35,7.95953815 C11.233,6.35753815 13.613,5.46053815 16.084,5.42153815 C17.495,5.39753815 18.905,5.34553815 20.313,5.26153815 C29.08,4.73953815 37.855,6.18353815 45.993,9.48653815 C46.366,9.63953815 46.705,9.86453815 46.99,10.1495382 C48.163,11.3255382 48.161,13.2295382 46.985,14.4005382 C44.939,16.9255382 42.505,19.1055382 39.774,20.8625382 C36.302,23.0985382 32.934,25.4685382 29.395,27.6045382 C27.629,28.6705382 25.845,29.7055382 24.044,30.7135382 C23.292,31.1345382 19.732,32.3885382 20.355,33.3855382 C21.276,34.8565382 24.928,34.5145382 26.363,34.2755382 C28.041,33.9975382 29.761,34.4015382 31.139,35.3985382 C33.993,37.4615382 34.631,41.4435382 32.569,44.2965382 C25.035,52.8165382 14.389,57.9495382 3.029,58.5335382 C2.846,58.5765382 2.659,58.5985382 2.471,58.5985382 C1.107,58.5985382 -1.42108547e-14,57.4915382 -1.42108547e-14,56.1285382 C-1.42108547e-14,53.7955382 0.254,51.4715382 0.756,49.1935382 L4.649,31.6785382 C5.259,28.9505382 6.014,26.2565382 6.909,23.6085382 C8.031,20.2895382 8.605,16.8105382 8.612,13.3075382 C8.616,11.4995382 8.865,9.70053815 9.35,7.95953815" id="LOGO--Fill-29"></path>
                <path d="M63.5512,42.7115382 C63.5512,38.0695382 64.1422,33.4465382 65.3122,28.9545382 C65.5342,28.2275382 65.8212,27.5195382 66.1682,26.8415382 C69.4202,20.5015382 77.1952,17.9985382 83.5342,21.2515382 C89.2722,23.2665382 92.9952,28.8205382 92.6812,34.8935382 C92.4742,37.5585382 91.3162,40.0605382 89.4182,41.9435382 C84.8602,46.4675382 78.7202,49.0425382 72.2992,49.1235382 C69.6932,49.1565382 67.1932,48.1015382 65.3982,46.2115382 C64.4732,45.2365382 63.8342,44.0255382 63.5512,42.7115382" id="LOGO--Fill-31"></path>
                <path d="M108.4926,29.1695382 C106.7416,33.2115382 106.8816,37.8225382 108.8736,41.7515382 C111.0546,44.6915382 114.2636,46.7005382 117.8606,47.3785382 C125.6836,50.4615382 134.5896,47.4165382 138.8876,40.1905382 C141.6076,36.0075382 141.7746,30.6575382 139.3196,26.3145382 C137.9006,24.1915382 135.8206,22.5985382 133.4036,21.7785382 C128.8956,20.3205382 124.0776,20.1115382 119.4616,21.1725382 C114.6906,21.8195382 110.5676,24.8255382 108.4926,29.1695382" id="LOGO--Fill-33"></path>
                <path d="M178.6234,2.57673815 C177.6594,1.42473815 174.5024,2.37373815 173.3044,2.70573815 C171.4704,3.21073815 170.9024,5.27773815 170.4874,6.92973815 C168.1874,16.0977382 165.4894,25.1617382 162.4024,34.0977382 C160.2894,38.7667382 159.5714,43.9497382 160.3364,49.0177382 C161.1864,51.2517382 163.3064,53.3337382 165.7384,53.7247382 C167.9054,54.0737382 168.6284,51.8787382 169.5784,50.3547382 C170.7354,48.4997382 171.9304,46.6667382 173.1604,44.8577382 C174.3004,43.1847382 175.8884,41.8677382 177.7414,41.0577382 C180.1324,43.6197382 182.7054,46.0037382 185.4404,48.1917382 C188.7784,50.8637382 192.7494,52.6317382 196.9694,53.3247382 C198.4884,53.5757382 203.2054,54.0807382 204.1794,52.5647382 C204.8044,51.5937382 202.4354,49.0317382 201.6974,47.9437382 C200.2864,45.8657382 197.9424,43.0947382 196.3684,41.1657382 C193.5644,37.7307382 192.6964,35.7717382 190.0804,32.1927382 C192.3164,30.1397382 194.6284,28.1717382 197.0094,26.2897382 C200.1174,23.2617382 202.2344,19.3627382 203.0824,15.1067382 C203.3224,14.8057382 203.2724,14.3667382 202.9724,14.1267382 C202.7764,13.9717382 202.5144,13.9307382 202.2814,14.0217382 C198.0564,15.5237382 194.0054,17.4757382 190.1954,19.8437382 C188.1384,21.3097382 185.9414,22.5747382 183.6404,23.6187382 C182.5314,24.6817382 180.9764,25.1427382 179.4674,24.8547382 C176.8934,24.3627382 175.2064,21.8777382 175.6974,19.3047382 C176.1434,16.9727382 176.7064,14.6657382 177.3874,12.3897382 C177.9394,10.5377382 178.3594,8.64673815 178.6444,6.73473815 C178.7844,5.78473815 179.3564,3.45473815 178.6234,2.57673815" id="LOGO--Fill-35"></path>
                <path d="M244.7084,8.95563815 C240.3084,9.51363815 236.1084,11.1366382 232.4784,13.6846382 C231.0834,15.0176382 230.0514,16.6846382 229.4794,18.5276382 C228.2524,22.6066382 229.3654,27.0306382 232.3774,30.0426382 C236.0094,33.2746382 239.4494,36.7156382 242.6814,40.3466382 C246.1154,46.0496382 244.3554,53.4526382 238.7234,57.0026382 C236.8144,58.3416382 234.5364,59.1146382 232.2074,59.2146382 C230.4684,59.2896382 227.6064,59.1136382 226.2274,57.8756382 C224.2764,56.1226382 227.8714,53.3996382 228.9624,52.1006382 C230.9364,49.7476382 232.8614,47.3566382 234.7384,44.9276382 C235.1474,44.3976382 235.4624,43.8036382 235.6694,43.1676382 C235.8354,42.6646382 235.7284,42.1096382 235.3874,41.7026382 L234.0704,40.1586382 C233.5114,39.6246382 232.8894,39.1596382 232.2164,38.7766382 C228.5124,36.6646382 225.0134,32.0196382 223.9444,27.8926382 C223.0414,24.3986382 222.4884,21.9116382 222.7024,18.3086382 C222.9584,14.0126382 225.2654,10.3036382 228.4734,7.61963815 C228.6204,7.49763815 228.7694,7.37363815 228.8894,7.22563815 C229.0314,7.05263815 229.1314,6.85063815 229.2444,6.65663815 C229.7174,5.84563815 230.4284,5.17863815 231.2544,4.73363815 C231.9444,4.36163815 235.5224,3.37863815 236.6134,3.00763815 C237.6824,2.64363815 238.7494,2.28063815 239.8164,1.91763815 C241.1744,1.45463815 242.5294,0.994638153 243.8864,0.532638153 C244.4264,0.349638153 244.9714,0.184638153 245.5214,0.0386381527 C246.2084,-0.131361847 246.8844,0.275638153 247.0504,0.944638153 L247.5094,6.30763815 C247.5694,7.01863815 247.3034,7.72063815 246.7824,8.20863815 L244.7084,8.95563815 Z" id="LOGO--Fill-37"></path>
                <path d="M273.3627,32.6119382 C273.3627,29.4429382 274.9197,26.4759382 277.5267,24.6749382 C281.3667,22.0209382 285.8067,20.3609382 290.4467,19.8439382 C293.7087,19.4809382 297.0097,19.9199382 300.0627,21.1259382 C303.4087,22.4439382 305.7187,25.5439382 306.0257,29.1269382 C306.1857,30.9699382 305.7007,32.8099382 304.6537,34.3349382 C303.5447,35.9529382 302.7987,37.7919382 302.4677,39.7249382 C302.1207,41.7639382 300.7777,43.4939382 298.8877,44.3349382 C294.7177,46.1909382 290.0527,46.6239382 285.6127,45.5689382 C282.8117,44.9029382 280.1277,43.8199382 277.6507,42.3559382 C274.6717,40.0379382 273.0597,36.3749382 273.3627,32.6119382" id="LOGO--Fill-39"></path>
                <path d="M326.6967,13.6851382 C326.5387,13.6021382 326.3607,13.5401382 326.1577,13.4991382 C324.6607,13.2011382 323.3767,13.6531382 322.1467,14.5121382 C320.8247,15.4371382 319.6617,16.8491382 319.1867,18.4121382 C317.5367,23.8581382 317.0807,29.6461382 317.8587,35.2831382 C318.2517,38.1231382 318.9537,40.9191382 319.9507,43.6091382 C320.4897,45.0621382 321.8457,49.9521382 323.8027,49.9123821 C325.5127,49.8761382 326.5607,47.9631382 326.8217,46.4961382 C327.3897,43.3021382 327.6387,40.0601382 327.5637,36.8171382 C327.5247,35.1651382 327.5067,33.4651382 327.8387,31.8381382 C327.9277,31.3971382 328.1957,30.8501382 328.6397,30.9251382 C328.8097,30.9551382 328.9477,31.0751382 329.0737,31.1941382 C329.6757,31.7601382 330.2257,32.3841382 330.7137,33.0541382 C331.0907,33.5711382 331.4287,34.1171382 331.8197,34.6231382 C332.1987,35.1161382 332.6227,35.5711382 333.0467,36.0221382 C335.0597,38.1761382 337.0787,40.2921382 338.9537,42.5641382 C339.7977,43.7941382 340.6747,45.0021382 341.5837,46.1851382 C341.8927,47.0151382 342.8177,47.4391382 343.6477,47.1271382 C343.9737,47.0061382 344.2527,46.7821382 344.4407,46.4881382 C345.2797,45.1741382 345.9957,43.7881382 346.5817,42.3421382 L347.4677,41.2331382 C350.3267,37.9171382 352.1937,33.8631382 352.8567,29.5351382 C353.5697,24.8831382 351.9207,20.1801382 348.4567,16.9941382 C347.0707,15.7191382 344.9157,15.8101382 343.6407,17.1941382 C343.3777,17.4811382 343.1647,17.8091382 343.0127,18.1661382 C342.9067,18.4151382 342.8237,18.6721382 342.7607,18.9341382 C342.2567,21.1011382 341.8507,23.2891382 341.5467,25.4921382 C341.2977,27.2941382 340.7067,29.0331382 339.8047,30.6131382 C339.4797,31.1811382 339.0897,31.7091382 338.6417,32.1881382 C337.8717,32.6351382 336.8977,32.5151382 336.2587,31.8941382 C334.4737,30.7221382 333.0997,29.0231382 332.3267,27.0341382 C331.0307,23.7031382 329.5477,20.4621382 328.3567,17.0831382 C327.9127,15.8241382 327.8197,14.2701382 326.6967,13.6851382" id="LOGO--Fill-41"></path>
                <path d="M372.3227,3.70073815 L379.4357,41.3937382 C379.8717,43.6947382 380.4197,45.9727382 381.0827,48.2217382 C381.4037,49.3157382 381.6637,50.4297382 381.8577,51.5547382 C382.0537,52.6917382 381.9047,53.8207382 382.4157,54.8717382 C382.6287,55.3097382 382.8717,55.7637382 383.2857,56.0187382 C383.6677,56.2547382 384.1357,56.2877382 384.5827,56.3157382 C386.7637,56.4487382 388.8177,55.9367382 390.7177,54.8287382 C391.6097,54.3087382 392.4327,53.6717382 393.1597,52.9367382 C393.6367,52.4557382 395.0627,51.1297382 395.0627,50.4107382 C396.7987,47.3227382 398.9077,44.4627382 401.3437,41.8927382 C402.2607,40.9297382 403.8747,39.9267382 405.2547,39.9987382 C406.9057,40.0867382 407.7027,41.3597382 408.5227,42.5037382 C409.6457,44.0727382 410.1617,45.8457382 411.0097,47.5867382 C411.8517,49.3157382 411.8397,52.1817382 414.0627,52.6197382 C415.8417,52.9697382 417.8387,52.1987382 419.4687,51.5347382 C421.0357,50.8957382 422.5187,50.0587382 423.8787,49.0517382 C426.6067,47.0287382 428.8057,44.3197382 430.2187,41.2307382 C430.7267,40.1207382 431.1347,38.9637382 431.4337,37.7787382 C431.5847,37.1867382 431.7267,36.5957382 431.8607,35.9997382 C432.8857,31.4397382 433.4407,26.7757382 433.5127,22.1037382 C433.5847,17.5717382 433.9637,12.9767382 433.0527,8.49673815 C432.9037,7.75473815 432.7187,7.01873815 432.4527,6.31073815 C432.2457,5.76073815 431.9817,5.21673815 431.5597,4.80573815 C431.1387,4.39573815 430.5347,4.13773815 429.9577,4.24973815 C429.1707,4.40573815 428.6617,5.17373815 428.3697,5.91973815 C427.8757,7.18173815 427.9977,8.37873815 427.8387,9.68373815 C427.6637,11.1287382 427.4347,12.5637382 427.1527,13.9897382 C426.5297,17.1327382 425.8427,20.9147382 424.3037,23.7577382 C422.6037,26.8967382 420.6587,29.8997382 418.4887,32.7357382 C418.3627,32.8927382 418.2097,33.0277382 418.0357,33.1327382 C417.2247,33.6217382 416.1727,33.3607382 415.6837,32.5507382 C414.6777,30.8787382 414.1157,28.9767382 414.0517,27.0267382 C413.9307,23.4057382 413.9947,19.7807382 414.2407,16.1657382 C414.3567,14.4587382 414.9557,12.0077382 413.0017,11.1487382 C410.4317,10.0217382 406.1197,11.6337382 403.8407,12.9137382 C401.7687,14.0787382 400.2667,16.0407382 399.6847,18.3447382 L398.5337,21.3527382 L394.5917,31.9587382 C393.8027,34.1417382 391.7367,37.6037382 389.3957,38.4547382 C387.0287,39.3147382 386.1837,35.9647382 385.5927,34.4177382 C384.8047,32.3527382 384.2297,30.2097382 383.8797,28.0297382 C383.5357,25.8917382 383.3047,23.7377382 383.1887,21.5757382 C382.8667,15.6327382 382.3697,9.70173815 381.6967,3.78873815 C381.6047,2.97273815 381.3487,2.18373815 380.9477,1.46973815 C380.4537,0.593738153 379.4737,0.109738153 378.4787,0.249738153 C376.4777,0.531738153 374.5587,1.22473815 372.8407,2.28773815 C372.3617,2.58373815 372.1487,3.16673815 372.3227,3.70073815" id="LOGO--Fill-43"></path>
                <path d="M469.643,5.95563815 C469.737,7.13663815 469.34,8.63063815 469.094,9.45763815 C468.813,10.3956382 468.846,11.3006382 468.76,12.2796382 C468.539,14.8326382 468.531,17.4046382 468.74,19.9586382 C468.934,22.3236382 469.314,24.6726382 469.872,26.9786382 C470.284,28.6786382 470.663,31.1706382 472.259,32.1936382 C474.458,33.6016382 478.007,33.1416382 480.497,33.3476382 C481.574,33.4356382 482.65,33.6286382 483.719,33.7746382 C484.753,33.9166382 486.497,33.7516382 487.099,34.7886382 C487.316,35.1626382 487.381,35.6196382 487.278,36.0396382 C487.152,36.5536382 486.787,36.9836382 486.356,37.2926382 C484.322,38.7556382 480.912,38.4626382 478.532,38.3806382 C477.242,38.3356382 474.421,37.4736382 473.507,38.7316382 C473.131,39.2496382 473.104,39.9356382 473.131,40.5746382 C473.262,43.7296382 474.6,46.6096382 475.359,49.6596382 C475.642,50.7976382 475.642,51.9876382 475.359,53.1256382 C475.312,53.3116382 475.259,53.4966382 475.2,53.6806382 C475.155,53.8186382 475.062,53.9356382 474.937,54.0126382 C474.651,54.1866382 474.276,54.0966382 474.1,53.8096382 C471.679,51.5996382 469.58,49.0416382 467.884,46.2366382 C467.052,44.8566382 466.33,43.4206382 465.689,41.9416382 C465.077,40.5306382 464.86,39.0216382 463.88,37.7696382 C462.886,36.5026382 460.955,36.6026382 459.482,36.3896382 C458.48,36.2456382 457.476,36.1016382 456.474,35.9566382 C455.588,35.8786382 454.734,36.2996382 454.256,37.0476382 C452.878,39.2036382 451.252,41.1986382 449.419,42.9826382 C447.593,44.7616382 445.979,46.7336382 443.982,48.3396382 C443.362,48.8386382 442.615,49.3356382 441.833,49.1886382 C440.987,49.0296382 441.066,45.9456382 441.13,45.4266382 C441.424,43.0476382 442.011,40.7146382 442.878,38.4786382 L449.998,20.4626382 C452.391,14.5236382 456.007,9.15763815 460.614,4.71263815 C462.178,3.20063815 464.496,2.77263815 466.498,3.62463815 C467.432,4.02163815 468.535,3.82563815 469.247,4.74163815 C469.487,5.05263815 469.605,5.47863815 469.643,5.95563815" id="LOGO--Fill-45"></path>
                <path d="M502.81,5.38143815 C502.784,5.39943815 502.757,5.41843815 502.733,5.44043815 C501.942,6.09243815 501.727,7.32443815 501.557,8.27443815 C501.329,9.56043815 500.916,10.8154382 500.606,12.0854382 C499.935,14.8524382 499.411,17.6554382 499.039,20.4794382 C498.298,26.1124382 498.166,31.8244382 498.644,37.4854382 C498.835,39.7554382 499.124,42.0174382 499.511,44.2624382 C499.877,46.3964382 500.075,48.6464382 501.564,50.3344382 C502.975,51.9354382 505.513,51.5524382 507.478,51.6014382 C509.854,51.6574382 512.237,51.4724382 514.574,51.0434382 C521.166,49.8374382 528.645,46.7264382 532.422,40.9234382 C532.743,40.4324382 533.034,39.9074382 533.142,39.3314382 C533.233,38.8424382 533.069,38.1064382 532.557,37.8094382 C532.079,37.5314382 531.345,37.6284382 530.949,37.8504382 C528.419,39.2624382 525.847,40.5674382 523.294,41.9334382 C521.037,43.1424382 518.659,44.0024382 516.114,44.3604382 C514.831,44.5404382 513.537,44.5934382 512.244,44.5344382 C511.396,44.4954382 510.086,44.5864382 509.479,43.9244382 C508.352,42.6944382 508.774,40.5344382 508.758,38.9754382 C508.747,37.7894382 508.779,36.5944382 508.719,35.4094382 C508.571,32.4584382 508.348,29.5124382 508.05,26.5734382 C507.455,20.6944382 506.558,14.8464382 505.367,9.05943815 C505.143,7.97243815 504.999,6.87743815 504.501,5.87143815 C504.4,5.66443815 504.281,5.45543815 504.097,5.31743815 C503.73,5.03643815 503.19,5.11343815 502.81,5.38143815" id="LOGO--Fill-47"></path>
                <path d="M549.2768,7.46253815 C549.2158,7.50853815 549.1578,7.55953815 549.0998,7.61453815 C548.6578,8.06253815 548.5808,8.98553815 548.4098,9.58253815 C548.1738,10.4065382 547.9558,11.2375382 547.7538,12.0705382 C547.3488,13.7355382 547.0108,15.4195382 546.7418,17.1125382 C546.2068,20.4675382 545.9378,23.8645382 545.939789,27.2625382 C545.9428,32.3995382 546.0588,37.5375382 546.2888,42.6715382 C546.5288,48.0945382 551.1218,52.2945382 556.5468,52.0525382 C557.0788,52.0285382 557.6088,51.9615382 558.1318,51.8525382 C564.0258,51.2145382 569.7828,49.6565382 575.1918,47.2345382 C579.5338,45.4885382 583.8128,43.5945382 588.0248,41.5555382 C589.1278,40.7745382 590.3318,40.3635382 590.8448,38.9865382 C591.1098,38.2705382 591.0538,37.3935382 590.5388,36.8295382 C590.1728,36.4295382 589.6328,36.2345382 589.1008,36.1285382 C587.3828,35.7835382 585.4578,35.9205382 583.7168,36.0525382 C581.8728,36.1915382 580.0018,36.4455382 578.2098,36.9095382 C574.6888,37.8165382 571.2268,38.9335382 567.8388,40.2485382 C566.1358,41.0485382 563.9778,41.3735382 562.1458,41.7555382 C560.4188,42.1155382 558.6058,42.6005382 556.8518,42.4375382 C556.7808,42.4315382 556.7088,42.4235382 556.6418,42.3985382 C556.5558,42.3655382 556.4828,42.3055382 556.4128,42.2455382 C555.5638,41.5265382 555.7718,40.2165382 555.7008,39.1745382 C555.6178,37.9645382 555.5508,36.7525382 555.5008,35.5405382 C555.3978,33.1145382 555.3848,30.6905382 555.3848,28.2635382 C555.3848,22.4315382 554.9258,16.6095382 554.0158,10.8505382 C553.8328,9.68753815 553.3658,8.67653815 552.3978,7.95653815 C551.5838,7.35153815 550.1828,6.79353815 549.2768,7.46253815" id="LOGO--Fill-49"></path>
            </g>
        </g>
    </g>
</svg>