<?xml version="1.0" encoding="UTF-8"?>
<svg width="1594px" height="1317px" viewBox="0 0 1594 1317" version="1.1" xmlns="http://www.w3.org/2000/svg" xmlns:xlink="http://www.w3.org/1999/xlink">
    <title>map</title>
    <g id="map--simbolos" stroke="none" stroke-width="1" fill="none" fill-rule="evenodd">
        <g id="map--Group-138">
            <polygon id="map--Fill-1" fill="#EEECEB" points="432 787.28709 384 790 387.857046 716 431.734423 718.145848"></polygon>
            <polygon id="map--Fill-2" fill="#EEECEB" points="491 784.475748 442.702492 790 442 716.468706 486.434579 716"></polygon>
            <polygon id="map--Fill-3" fill="#EEECEB" points="383 976.525679 431.29595 971 432 1044.5313 387.563863 1045"></polygon>
            <polygon id="map--Fill-4" fill="#EEECEB" points="552 782.281584 504.094583 785 499 713.771589 551.734946 713"></polygon>
            <polygon id="map--Fill-5" fill="#EEECEB" points="611 780.474321 562.70405 786 562 712.468696 606.436137 712"></polygon>
            <polygon id="map--Fill-6" fill="#EEECEB" points="609 871.766513 561 874 562.012802 794.895545 608.12615 788"></polygon>
            <polygon id="map--Fill-7" fill="#EEECEB" points="551.57784 874.855151 506.51185 876 506 795 552 795.809846"></polygon>
            <polygon id="map--Fill-8" fill="#EEECEB" points="503.778214 972.511849 551.308643 967 552 1040.36621 502 1041"></polygon>
            <polygon id="map--Fill-9" fill="#EEECEB" points="503 889.563298 551.29595 884 552 958.030355 505.476636 965"></polygon>
            <polygon id="map--Fill-10" fill="#EEECEB" points="562 884.721733 607.507231 884 608 958 562.192488 957.183994"></polygon>
            <polygon id="map--Fill-11" fill="#EEECEB" points="694 423.28709 646 426 649.85717 352 693.735958 354.145848"></polygon>
            <polygon id="map--Fill-12" fill="#EEECEB" points="753 421.474321 704.70405 427 704 353.470238 748.436137 353"></polygon>
            <polygon id="map--Fill-13" fill="#EEECEB" points="753 503.436809 704.70405 509 704 434.969511 750.521807 428"></polygon>
            <polygon id="map--Fill-14" fill="#EEECEB" points="696 510.49243 648.507004 516 648 435 693.563009 435.811383"></polygon>
            <polygon id="map--Fill-15" fill="#EEECEB" points="704 610.71291 752 608 748.14141 682 704.265577 679.854152"></polygon>
            <polygon id="map--Fill-16" fill="#EEECEB" points="645 613.525679 693.29595 608 694 681.529762 649.565421 682"></polygon>
            <polygon id="map--Fill-17" fill="#98C2A1" points="702 523.50757 749.492996 518 750 599 704.436991 598.188617"></polygon>
            <polygon id="map--Fill-18" fill="#98C2A1" points="826 795.50757 873.494527 790 874 871 828.436991 870.188617"></polygon>
            <polygon id="map--Fill-19" fill="#98C2A1" points="1187 959.50757 1234.493 954 1235 1035 1189.43546 1034.19015"></polygon>
            <polygon id="map--Fill-20" fill="#98C2A1" points="247 880.507465 294.492996 875 295 956 249.43546 955.188632"></polygon>
            <polygon id="map--Fill-21" fill="#98C2A1" points="639 181.507465 686.492996 176 687 257 641.436991 256.188632"></polygon>
            <polygon id="map--Fill-22" fill="#98C2A1" points="250.357164 457.162648 490.990729 443 491 519.132889 245 527"></polygon>
            <polygon id="map--Fill-23" fill="#EEECEB" points="814 419.281584 766.09319 422 761 350.770037 813.734938 350"></polygon>
            <polygon id="map--Fill-24" fill="#EEECEB" points="873 416.474206 824.70405 422 824 348.468706 868.434579 348"></polygon>
            <polygon id="map--Fill-25" fill="#EEECEB" points="749 333.285598 701 336 704.857046 262 748.734423 264.147353"></polygon>
            <polygon id="map--Fill-26" fill="#EEECEB" points="808 331.474321 759.70405 337 759 263.468696 803.436137 263"></polygon>
            <polygon id="map--Fill-27" fill="#EEECEB" points="869 329.280031 821.094731 332 816 260.770037 868.736479 260"></polygon>
            <polygon id="map--Fill-28" fill="#EEECEB" points="946 330.474321 897.702515 336 897 262.468696 941.435992 262"></polygon>
            <polygon id="map--Fill-29" fill="#EEECEB" points="566 346.474321 517.702515 352 517 278.470238 561.435992 278"></polygon>
            <polygon id="map--Fill-30" fill="#EEECEB" points="871 507.764977 823 510 824.014313 430.895545 870.126178 424"></polygon>
            <polygon id="map--Fill-31" fill="#EEECEB" points="813.577826 510.855151 768.511867 512 768 431 814 431.811383"></polygon>
            <polygon id="map--Fill-32" fill="#EEECEB" points="808 158.475748 759.70405 164 759 90.4687057 803.434579 90"></polygon>
            <polygon id="map--Fill-33" fill="#EEECEB" points="808 241.436702 759.702492 247 759 172.969645 805.521807 166"></polygon>
            <polygon id="map--Fill-34" fill="#EEECEB" points="751 248.493967 703.507004 254 703 173 748.563009 173.811383"></polygon>
            <polygon id="map--Fill-35" fill="#EEECEB" points="869 156.281584 821.09319 159 816 87.7715894 868.734938 87"></polygon>
            <polygon id="map--Fill-36" fill="#EEECEB" points="756 74 804 71.2885827 803.735958 2.14434371 759.85717 0"></polygon>
            <polygon id="map--Fill-37" fill="#EEECEB" points="814 0.470237723 814.70405 74 863 68.4743213 858.436137 0"></polygon>
            <polygon id="map--Fill-38" fill="#EEECEB" points="868.577826 247.855151 823.510321 249 823 168 869 168.809846"></polygon>
            <polygon id="map--Fill-39" fill="#EEECEB" points="824 606.816298 867.646005 605 868 678 824.263187 675.857264"></polygon>
            <polygon id="map--Fill-40" fill="#EEECEB" points="765.778159 608.513273 813.307131 603 814 676.36622 764 677"></polygon>
            <polygon id="map--Fill-41" fill="#EEECEB" points="765 525.563191 813.29595 520 814 594.030489 767.478193 601"></polygon>
            <polygon id="map--Fill-42" fill="#EEECEB" points="824 520.721748 869.508771 520 870 594 824.192488 593.183977"></polygon>
            <polygon id="map--Fill-43" fill="#EEECEB" points="1009 962.524252 1057.29595 957 1058 1030.53129 1013.56542 1031"></polygon>
            <polygon id="map--Fill-44" fill="#EEECEB" points="1009 879.563298 1057.29749 874 1058 948.030355 1011.47671 955"></polygon>
            <polygon id="map--Fill-45" fill="#EEECEB" points="1066 872.506033 1113.493 867 1114 948 1068.43699 947.188617"></polygon>
            <polygon id="map--Fill-46" fill="#EEECEB" points="1057 772.285598 1009 775 1012.85717 701 1056.73596 703.147353"></polygon>
            <polygon id="map--Fill-47" fill="#EEECEB" points="1116 769.474321 1067.70405 775 1067 701.468696 1111.43614 701"></polygon>
            <polygon id="map--Fill-48" fill="#EEECEB" points="1060 859.49243 1012.507 865 1012 784 1057.56454 784.809846"></polygon>
            <polygon id="map--Fill-49" fill="#EEECEB" points="889 966.525679 937.297485 961 938 1034.5313 893.564008 1035"></polygon>
            <polygon id="map--Fill-50" fill="#EEECEB" points="891 875.233487 939 873 937.987198 952.104455 891.872306 959"></polygon>
            <polygon id="map--Fill-51" fill="#EEECEB" points="948.42216 872.144849 993.48815 871 994 952 948 951.188617"></polygon>
            <polygon id="map--Fill-52" fill="#EEECEB" points="937 777.182194 893.353982 779 893 706 936.735283 708.142691"></polygon>
            <polygon id="map--Fill-53" fill="#EEECEB" points="996.221786 774.486727 948.691357 780 948 706.63378 998 706"></polygon>
            <polygon id="map--Fill-54" fill="#EEECEB" points="997 857.436702 948.70405 863 948 788.969645 994.523364 782"></polygon>
            <polygon id="map--Fill-55" fill="#EEECEB" points="1124 1051.56319 1172.29749 1046 1173 1120.03049 1126.47671 1127"></polygon>
            <polygon id="map--Fill-56" fill="#EEECEB" points="1112 1029.43681 1063.70405 1035 1063 960.969511 1109.52336 954"></polygon>
            <polygon id="map--Fill-57" fill="#EEECEB" points="938 862.278267 892.492769 863 892 789 937.807512 789.816006"></polygon>
            <polygon id="map--Fill-58" fill="#EEECEB" points="1070 599.71291 1118 597 1114.14295 671 1070.26558 668.854152"></polygon>
            <polygon id="map--Fill-59" fill="#EEECEB" points="1011 602.525679 1059.29749 597 1060 670.529762 1015.56401 671"></polygon>
            <polygon id="map--Fill-60" fill="#EEECEB" points="1011 519.563191 1059.29595 514 1060 588.030489 1013.47664 595"></polygon>
            <polygon id="map--Fill-61" fill="#EEECEB" points="1068 512.50757 1115.493 507 1116 588 1070.43546 587.188617"></polygon>
            <polygon id="map--Fill-62" fill="#EEECEB" points="1118 409.474321 1069.70251 415 1069 341.470238 1113.43599 341"></polygon>
            <polygon id="map--Fill-63" fill="#EEECEB" points="1061 499.49243 1013.50549 505 1013 424 1058.56446 424.811383"></polygon>
            <polygon id="map--Fill-64" fill="#EEECEB" points="950 603.718416 997.905269 601 1003 672.229963 950.263521 673"></polygon>
            <polygon id="map--Fill-65" fill="#EEECEB" points="891 606.525679 939.29595 601 940 674.529762 895.563863 675"></polygon>
            <polygon id="map--Fill-66" fill="#EEECEB" points="892 515.233527 940 513 938.987198 592.105868 892.87385 599"></polygon>
            <polygon id="map--Fill-67" fill="#EEECEB" points="950.423707 512.144849 995.48815 511 996 592 950 591.188617"></polygon>
            <polygon id="map--Fill-68" fill="#EEECEB" points="1247 512.563298 1295.29595 507 1296 581.030355 1249.47664 588"></polygon>
            <polygon id="map--Fill-69" fill="#EEECEB" points="1298 492.49243 1250.507 498 1250 417 1295.56454 417.811383"></polygon>
            <polygon id="map--Fill-70" fill="#EEECEB" points="1129 508.235023 1177 506 1175.9872 585.104455 1129.87385 592"></polygon>
            <polygon id="map--Fill-71" fill="#EEECEB" points="1186.42371 505.143312 1231.48815 504 1232 585 1186 584.188617"></polygon>
            <polygon id="map--Fill-72" fill="#EEECEB" points="939 416.182194 895.353995 418 895 345 938.735274 347.142691"></polygon>
            <polygon id="map--Fill-73" fill="#EEECEB" points="997.223319 414.486727 949.69289 420 949 346.635319 999 346"></polygon>
            <polygon id="map--Fill-74" fill="#98C2A1" points="998 497.436809 949.702515 503 949 428.969511 995.523286 422"></polygon>
            <polygon id="map--Fill-75" fill="#EEECEB" points="939 502.278252 893.491246 503 893 429 938.807506 429.816023"></polygon>
            <polygon id="map--Fill-76" fill="#EEECEB" points="825 970.71291 873 968 869.14141 1042 825.265577 1039.85415"></polygon>
            <polygon id="map--Fill-77" fill="#EEECEB" points="766 972.525794 814.29595 967 815 1040.53129 770.565421 1041"></polygon>
            <polygon id="map--Fill-78" fill="#EEECEB" points="765 889.563298 813.297485 884 814 958.030355 767.476714 965"></polygon>
            <polygon id="map--Fill-79" fill="#EEECEB" points="822 882.507465 869.492996 877 870 958 824.436991 957.188632"></polygon>
            <polygon id="map--Fill-80" fill="#EEECEB" points="814 782.285598 766 785 769.85717 711 813.735958 713.145803"></polygon>
            <polygon id="map--Fill-81" fill="#EEECEB" points="873 780.474321 824.70405 786 824 712.468696 868.434579 712"></polygon>
            <polygon id="map--Fill-82" fill="#EEECEB" points="816 870.49243 768.507004 876 768 795 813.563009 795.809846"></polygon>
            <polygon id="map--Fill-83" fill="#EEECEB" points="705 974.718416 752.905417 972 758 1043.22996 705.265054 1044"></polygon>
            <polygon id="map--Fill-84" fill="#EEECEB" points="647 885.235023 695 883 693.987198 962.104455 647.87385 969"></polygon>
            <polygon id="map--Fill-85" fill="#EEECEB" points="705.42216 883.143312 750.48815 882 751 963 705 962.18708"></polygon>
            <polygon id="map--Fill-86" fill="#EEECEB" points="694 787.182155 650.353982 789 650 716 693.735283 718.142736"></polygon>
            <polygon id="map--Fill-87" fill="#EEECEB" points="752.221786 784.486727 704.691357 790 704 716.63378 754 716"></polygon>
            <polygon id="map--Fill-88" fill="#EEECEB" points="1182 610.71291 1230 608 1226.14295 682 1182.26558 679.854152"></polygon>
            <polygon id="map--Fill-89" fill="#EEECEB" points="1123 613.525679 1171.29749 608 1172 681.529762 1127.56401 682"></polygon>
            <polygon id="map--Fill-90" fill="#EEECEB" points="1302 606.816298 1345.64448 605 1346 678 1302.26472 675.857264"></polygon>
            <polygon id="map--Fill-91" fill="#EEECEB" points="1243.77668 608.513273 1291.30864 603 1292 676.36622 1242 677"></polygon>
            <polygon id="map--Fill-92" fill="#EEECEB" points="1545 701.468696 1545.70407 775 1594 769.474321 1594 769.452737 1589.43599 701"></polygon>
            <polygon id="map--Fill-93" fill="#EEECEB" points="1415 777.182194 1371.35399 779 1371 706 1414.73681 708.142691"></polygon>
            <polygon id="map--Fill-94" fill="#EEECEB" points="1474.22184 774.486727 1426.69287 780 1426 706.63378 1476 706"></polygon>
            <polygon id="map--Fill-95" fill="#EEECEB" points="1488 602.525679 1536.29595 597 1537 670.529762 1492.56386 671"></polygon>
            <polygon id="map--Fill-96" fill="#EEECEB" points="1369 606.525679 1417.29595 601 1418 674.529762 1373.56542 675"></polygon>
            <polygon id="map--Fill-97" fill="#EEECEB" points="1292 782.285598 1244 785 1247.85705 711 1291.73442 713.145803"></polygon>
            <polygon id="map--Fill-98" fill="#EEECEB" points="1351 780.474321 1302.70251 786 1302 712.468696 1346.43599 712"></polygon>
            <polygon id="map--Fill-99" fill="#EEECEB" points="1172 787.182155 1128.35399 789 1128 716 1171.73681 718.142736"></polygon>
            <polygon id="map--Fill-100" fill="#EEECEB" points="1230.22332 784.486727 1182.69289 790 1182 716.63378 1232 716"></polygon>
            <polygon id="map--Fill-101" fill="#EEECEB" points="753 867.436809 704.70405 873 704 798.969511 750.523364 792"></polygon>
            <polygon id="map--Fill-102" fill="#EEECEB" points="763 1242.96809 763.702515 1317 812 1311.4367 809.523286 1236"></polygon>
            <polygon id="map--Fill-103" fill="#EEECEB" points="694 872.278252 648.492769 873 648 799 693.807512 799.816023"></polygon>
            <polygon id="map--Fill-104" fill="#EEECEB" points="233 950.281584 185.094731 953 180 881.770037 232.736479 881"></polygon>
            <polygon id="map--Fill-105" fill="#EEECEB" points="290 1039.76498 242 1042 243.012802 962.895545 289.12615 956"></polygon>
            <polygon id="map--Fill-106" fill="#EEECEB" points="375 955.182194 331.353982 957 331 884 374.735283 886.142691"></polygon>
            <polygon id="map--Fill-107" fill="#EEECEB" points="375 1040.27827 329.491229 1041 329 967 374.807512 967.816006"></polygon>
            <polygon id="map--Fill-108" fill="#EEECEB" points="867 1135.76651 819 1138 820.012802 1058.89555 866.12615 1052"></polygon>
            <polygon id="map--Fill-109" fill="#EEECEB" points="808.576293 1137.85515 763.51185 1139 763 1058 809 1058.80985"></polygon>
            <polygon id="map--Fill-110" fill="#EEECEB" points="905 1149.23502 953 1147 951.987198 1226.10445 905.872306 1233"></polygon>
            <polygon id="map--Fill-111" fill="#EEECEB" points="952 1136.27825 906.492769 1137 906 1063 951.807512 1063.81602"></polygon>
            <polygon id="map--Fill-112" fill="#EEECEB" points="571 617.714459 619 615 615.14141 689 571.265577 686.854152"></polygon>
            <polygon id="map--Fill-113" fill="#EEECEB" points="512 619.525679 560.29595 614 561 687.531304 516.565421 688"></polygon>
            <polygon id="map--Fill-114" fill="#EEECEB" points="512 536.563298 560.297485 531 561 605.030355 514.476714 612"></polygon>
            <polygon id="map--Fill-115" fill="#EEECEB" points="569 529.50757 616.492996 524 617 605 571.436991 604.190154"></polygon>
            <polygon id="map--Fill-116" fill="#EEECEB" points="561 430.28709 513 433 516.85717 359 560.735958 361.145848"></polygon>
            <polygon id="map--Fill-117" fill="#EEECEB" points="620 427.474206 571.70405 433 571 359.468706 615.436137 359"></polygon>
            <polygon id="map--Fill-118" fill="#EEECEB" points="563 517.492535 515.507004 523 515 442 560.56454 442.811368"></polygon>
            <polygon id="map--Fill-119" fill="#EEECEB" points="451 621.71991 498.905417 619 504 690.228427 451.265054 691"></polygon>
            <polygon id="map--Fill-120" fill="#EEECEB" points="0 794 48 791.287033 47.7344227 722.144344 3.85704635 720"></polygon>
            <polygon id="map--Fill-121" fill="#EEECEB" points="168 786.281584 120.094731 789 115 717.770037 167.736479 717"></polygon>
            <polygon id="map--Fill-122" fill="#EEECEB" points="227 784.474321 178.70405 790 178 716.470238 222.436137 716"></polygon>
            <polygon id="map--Fill-123" fill="#EEECEB" points="321 614.714402 369 612 365.14283 686 321.264042 683.854197"></polygon>
            <polygon id="map--Fill-124" fill="#EEECEB" points="369.221841 789.486727 321.692869 795 321 721.635319 371 721"></polygon>
            <polygon id="map--Fill-125" fill="#EEECEB" points="188 621.71291 236 619 232.14283 693 188.264042 690.854152"></polygon>
            <polygon id="map--Fill-126" fill="#EEECEB" points="129 623.525794 177.29595 618 178 691.531294 133.565421 692"></polygon>
            <polygon id="map--Fill-127" fill="#EEECEB" points="68 625.718416 115.90681 623 121 694.229963 68.2650616 695"></polygon>
            <polygon id="map--Fill-128" fill="#EEECEB" points="394 532.235023 442 530 440.987198 609.104455 394.87385 616"></polygon>
            <polygon id="map--Fill-129" fill="#EEECEB" points="451.42216 530.144849 496.48815 529 497 610 451 609.190154"></polygon>
            <polygon id="map--Fill-130" fill="#EEECEB" points="499.221786 431.488265 451.691357 437 451 363.635319 501 363"></polygon>
            <g id="map--Group-137" transform="translate(305.000000, 432.000000)">
                <path d="M29.9732406,152.131743 C-7.53563226,173.077088 5.11766565,236.047299 0.205862998,271.475947 C38.9859351,270.604574 77.7660072,269.734743 116.547624,268.86337 C121.05011,268.763123 126.400576,269.09625 128.757624,272.927208 C130.157024,275.203574 130.019556,278.065996 129.837294,280.732553 C128.43326,301.192088 127.03077,321.654708 125.626736,342.115785 C125.274569,347.240694 125.106208,352.950116 128.456428,356.848933 C131.213525,360.05682 135.651138,361.162616 139.813814,361.929116 C155.2551,364.773032 171.113427,365.349835 186.719984,363.633306 C190.803886,363.182968 195.210607,362.407215 197.992417,359.392109 C201.092413,356.036165 201.222159,350.98837 201.174277,346.423299 C200.028189,239.176532 197.388482,131.945187 193.258243,24.7724472 C193.029643,18.876412 193.19028,12.0627359 197.785442,8.35207394 C200.454497,6.19600352 204.036406,5.64233451 207.437597,5.16423592 C217.770918,3.71297535 228.105783,2.25863028 238.440649,0.807369718 C245.779005,-0.224397887 254.573912,-0.717919014 259.193787,5.07015845 C263.260698,10.1626796 261.915358,17.5192289 260.531404,23.8856514 C250.462208,70.2211162 249.552444,118.521412 257.871616,165.202342 C258.302557,167.622137 258.860155,170.225461 260.702854,171.858708 C262.474501,173.428722 265.009176,173.717123 267.369313,173.922243 C318.524656,178.351595 370.19126,176.909588 421.01915,169.633236 C433.199802,167.888947 446.602227,165.058912 453.817017,155.10675 C459.385271,147.423243 459.865639,137.30606 460.137487,127.825827 C460.413969,118.26694 460.688907,108.708053 460.963844,99.1491655 C461.105946,94.2047007 461.578592,88.5801021 465.498766,85.5588275 C468.469017,83.268581 472.539017,83.2146021 476.292375,83.2639542 C490.133465,83.4413134 503.973009,83.6202148 517.814098,83.7975739 C518.47055,138.026292 519.125457,192.258095 519.780364,246.486813 C519.835969,251.170637 520.274633,256.602454 524.143836,259.248961 C526.83915,261.090412 530.376265,260.94544 533.63381,260.72644 C557.347931,259.142546 581.060508,257.555567 604.77463,255.971673 C609.615381,255.647799 614.656929,255.354771 619.148603,257.190053 C630.303647,261.750496 632.578831,276.24768 633.193578,288.266461 C635.470307,332.666398 637.743946,377.064792 640.019131,421.463187 C640.204482,425.081313 640.677127,429.234602 643.682903,431.262665 C645.463817,432.465623 647.734368,432.601342 649.882895,432.701588 C682.467609,434.199116 715.055411,435.69356 747.641669,437.191088 C758.654611,437.696947 770.297745,438.065546 779.986971,432.811088 C786.230212,429.425842 790.660102,424.354912 792.519791,417.510391 C794.62507,415.500835 792.261844,416.569616 791.579134,413.742665" id="map--Stroke-131" stroke="#BE4251" stroke-width="5" stroke-dasharray="10"></path>
                <path d="M794.160148,390.69307 C800.89148,384.510175 807.852956,378.119077 811.586235,374.601196 L806.28674,368.993563 C802.588986,372.474429 795.646045,378.851647 788.931704,385.017577 C788.721639,385.210358 788.51003,385.406225 788.298421,385.599006 C784.727324,382.145901 781.148504,378.705133 777.572774,375.296753 L772.242387,380.875084 C775.697639,384.169337 779.154436,387.494436 782.606599,390.828788 C778.102569,394.969739 773.995499,398.76214 771.425298,401.183478 C769.973381,402.551457 766.573734,405.757802 767.298148,410.151682 L774.920709,408.987281 C774.953146,408.80838 775.194102,408.236204 776.726337,406.791112 C779.32743,404.340471 783.545711,400.449365 788.154774,396.211253 C792.467275,400.410809 796.759696,404.622704 800.999601,408.828429 L806.441199,403.358056 C802.283157,399.232527 798.072599,395.102373 793.846595,390.981471 C793.950083,390.885851 794.055115,390.788689 794.160148,390.69307" id="map--Fill-133" fill="#BE4251"></path>
                <path d="M59.4712414,141.733715 C59.5299359,142.378377 59.540748,142.990652 59.5036778,143.553575 C58.5707442,157.831758 39.3946342,153.629117 39.3946342,141.545561 C39.3946342,136.898751 44.3203381,128.93918 49.4947214,128.744856 C55.2004444,128.528941 58.9831503,136.292645 59.4712414,141.733715" id="map--Fill-135" fill="#BE4251"></path>
            </g>
        </g>
    </g>
</svg>