<?xml version="1.0" encoding="UTF-8"?>
<svg width="165px" height="279px" viewBox="0 0 165 279" version="1.1" xmlns="http://www.w3.org/2000/svg" xmlns:xlink="http://www.w3.org/1999/xlink">
    <title>principal</title>
    <defs>
        <polygon id="principal--path-1" points="0 0.05 101.058873 0.05 101.058873 202 0 202"></polygon>
        <polygon id="principal--path-3" points="0.711130201 0.251 42.0524 0.251 42.0524 137.433649 0.711130201 137.433649"></polygon>
        <polygon id="principal--path-5" points="0.6602 0.4414 38.198 0.4414 38.198 76.6634 0.6602 76.6634"></polygon>
    </defs>
    <g id="principal--simbolos" stroke="none" stroke-width="1" fill="none" fill-rule="evenodd">
        <g id="principal--principal" transform="translate(0.000000, -1.000000)">
            <g id="principal--Group-3" transform="translate(0.000000, 77.749000)">
                <mask id="principal--mask-2" fill="white">
                    <use xlink:href="#principal--path-1"></use>
                </mask>
                <g id="principal--Clip-2"></g>
                <path d="M62.4014,0.215 C62.5174,0.789 62.7134,1.36 62.7364,1.938 C63.0654,9.93 63.5644,17.921 63.6254,25.915 C63.6874,34.035 64.3784,42.048 66.1484,49.97 C67.7244,57.029 70.6304,63.452 74.8234,69.382 C78.7734,74.967 83.9394,77.007 90.5404,75.81 C92.4684,75.461 94.3954,75.098 96.3134,74.693 C99.4254,74.037 100.4644,74.834 100.5614,78.118 C100.7394,84.156 100.9644,90.193 101.0134,96.232 C101.0754,103.842 101.0964,111.455 100.9284,119.062 C100.6434,132 100.4784,144.95 99.7324,157.864 C99.0784,169.209 97.6974,180.511 96.6344,191.832 C96.5104,193.159 96.4094,194.491 96.2204,195.809 C96.0714,196.849 95.7444,197.855 94.4844,198.028 C93.3104,198.189 92.6004,197.517 92.0304,196.572 C90.5324,194.088 89.1304,191.534 87.4594,189.171 C81.4184,180.627 73.1684,174.921 63.4884,171.29 C58.9314,169.58 54.0544,169.747 49.2824,170.27 C37.5054,171.56 27.5804,176.554 19.5154,185.313 C15.1064,190.101 10.4994,194.708 5.8914,199.307 C4.8664,200.33 3.5464,201.166 2.2124,201.744 C0.6094,202.437 -0.2136,201.686 0.0474,199.954 C0.1984,198.954 0.4774,197.952 0.8474,197.009 C2.2794,193.359 3.5984,189.65 5.2744,186.111 C9.8354,176.478 13.1534,166.482 14.9754,155.963 C16.6534,146.272 19.5594,136.908 22.9994,127.7 C24.3984,123.955 25.5924,120.132 26.7924,116.317 C31.7404,100.591 37.3154,85.091 43.5144,69.818 C44.7704,66.724 45.3994,63.548 45.6234,60.222 C46.3684,49.197 48.6704,38.482 52.4414,28.097 C53.7054,24.615 54.6874,21.126 54.9634,17.384 C55.1394,15.008 55.8774,12.613 56.7234,10.362 C57.7984,7.506 59.2114,4.776 60.5394,2.02 C60.8814,1.308 61.4484,0.704 61.9124,0.05 C62.0754,0.105 62.2384,0.16 62.4014,0.215" id="principal--Fill-1" fill="#91201F" mask="url(#principal--mask-2)"></path>
            </g>
            <path d="M157.2658,16.4635 C157.3398,17.3245 157.4798,17.9185 157.4268,18.4955 C156.9898,23.2865 155.8448,27.9255 154.3738,32.4935 C153.7568,34.4075 152.5848,35.7635 150.6428,36.4255 C147.0908,37.6365 144.9268,40.2515 143.7758,43.6725 C142.4018,47.7545 140.7878,51.7905 140.3708,56.1305 C139.8388,61.6545 137.0168,65.9095 133.3548,69.8895 C128.2998,75.3825 121.7688,77.3965 114.7668,78.5665 C113.7438,78.7375 112.7478,79.0785 111.5498,79.3905 C112.3758,80.9385 113.5138,80.8565 114.5648,80.8385 C119.0348,80.7635 123.2148,79.4805 127.2818,77.7275 C128.1748,77.3425 129.0738,76.3065 130.0688,77.0355 C131.1058,77.7955 130.5378,79.0715 130.4728,80.1275 C129.9158,89.1525 127.2198,97.6835 124.4008,106.1825 C123.7838,108.0435 123.0648,109.8725 122.4688,111.7405 C121.9538,113.3535 120.9348,114.3755 119.3838,115.0495 C112.7658,117.9295 106.1728,120.8685 99.5698,123.7845 C99.0678,124.0065 98.5498,124.1945 98.0588,124.4385 C95.7778,125.5725 95.2908,126.7325 96.0348,129.2225 C96.9558,132.3035 97.8938,135.3805 98.7958,138.4675 C99.1038,139.5205 99.3638,140.5905 99.5828,141.6665 C100.4518,145.9395 99.0878,148.0685 94.8698,149.0285 C91.4208,149.8135 87.9568,150.4375 84.3858,150.2455 C80.9058,150.0595 79.3278,148.8905 78.6958,145.4855 C77.7478,140.3755 77.6698,135.1955 77.7488,130.0125 C77.9338,117.8805 81.0728,106.2815 84.0758,94.6565 C85.0368,90.9345 85.9918,87.2115 86.9718,83.4955 C87.3508,82.0545 87.7808,80.6275 88.2088,79.1995 C88.6178,77.8335 89.5018,77.1595 90.9818,77.1535 C97.0508,77.1305 102.4908,75.0155 107.6608,72.0365 C115.6478,67.4365 123.1718,62.2135 129.5708,55.5175 C133.5498,51.3545 136.6448,46.5255 139.7068,41.6825 C140.5988,40.2715 140.8768,38.7805 140.1328,37.2075 C139.4338,35.7305 139.7608,34.3445 140.3348,32.8975 C140.9048,31.4605 141.3518,29.9585 141.6808,28.4475 C141.8808,27.5285 142.2798,27.0595 143.1818,26.9485 C145.0628,26.7175 145.9418,25.4055 146.1128,23.7515 C146.4088,20.8825 148.0238,19.4975 150.6778,18.8355 C152.1878,18.4595 153.6108,17.7345 155.0798,17.1845 C155.7118,16.9485 156.3618,16.7595 157.2658,16.4635" id="principal--Fill-4" fill="#91201F"></path>
            <g id="principal--Group-8" transform="translate(64.000000, 0.749000)">
                <mask id="principal--mask-4" fill="white">
                    <use xlink:href="#principal--path-3"></use>
                </mask>
                <g id="principal--Clip-7"></g>
                <path d="M15.9104,0.8866 C16.0894,1.0566 16.1834,1.1026 16.1974,1.1666 C16.6034,3.0276 17.1914,4.7396 18.9214,5.8806 C21.1814,7.3726 23.5274,8.7896 26.2864,8.6516 C28.8694,8.5216 30.6394,9.7456 32.2374,11.4016 C34.4944,13.7396 35.7754,16.5576 35.8794,19.8486 C35.9164,21.0246 36.0084,22.2096 35.9084,23.3766 C35.5504,27.5406 37.4844,30.6086 40.4554,33.2166 C40.9814,33.6776 41.5004,34.1486 42.0144,34.6236 C42.0594,34.6656 42.0414,34.7746 42.0524,34.8526 C41.1754,35.3756 40.0954,35.7276 39.4764,36.4656 C38.8014,37.2716 38.5354,38.4286 38.1214,39.4446 C37.2934,41.4786 36.4694,43.5156 35.6724,45.5626 C34.8534,47.6636 33.5964,49.4686 31.7704,50.7656 C29.4794,52.3946 27.1554,54.0096 24.6994,55.3656 C22.4364,56.6146 20.4234,58.1026 19.1734,60.3276 C17.7594,62.8446 16.4794,65.4646 15.4394,68.1546 C14.4324,70.7606 15.1074,72.3866 17.3584,74.0926 C17.9834,74.5656 18.6514,74.9816 19.2874,75.4406 C21.4344,76.9906 21.7074,77.6986 21.0414,80.2256 C19.8414,84.7766 18.5514,89.3056 17.4184,93.8736 C15.6054,101.1826 13.8344,108.5036 12.1504,115.8436 C10.6894,122.2136 10.0444,128.6836 10.1744,135.2276 C10.1894,135.9596 9.9784,136.6966 9.8724,137.433649 C8.4264,137.4416 8.2424,136.4626 8.0014,135.7106 C6.8564,132.1296 5.4464,128.5876 4.7674,124.9146 C3.8444,119.9156 3.3084,114.8236 2.9494,109.7476 C2.4014,102.0036 2.1974,94.2366 1.7454,86.4856 C1.5674,83.4376 1.1664,80.3976 0.7664,77.3666 C0.5464,75.7006 0.9904,74.4036 1.9694,73.0136 C3.9054,70.2636 5.7514,67.4166 7.3014,64.4366 C9.3324,60.5326 9.1794,56.7406 5.8194,53.4396 C4.9864,52.6206 4.2584,51.6676 3.6174,50.6886 C2.6984,49.2826 3.1624,48.4296 4.8154,48.4136 C5.9104,48.4036 7.0074,48.5776 8.1034,48.5766 C10.9334,48.5746 11.9054,47.6266 11.9424,44.7456 C11.9994,40.3456 10.5344,36.5016 7.0764,33.7336 C4.9964,32.0686 4.2474,30.0866 4.3334,27.5966 C4.4584,23.9946 4.5024,20.3866 4.7444,16.7926 C4.9484,13.7656 6.1734,11.1996 8.7774,9.4176 C9.1994,9.1296 9.4814,8.6376 9.8124,8.2586 C8.1574,6.2426 7.1144,6.2796 3.3244,8.4246 C2.1364,7.6446 2.1584,6.3136 2.0944,5.1326 C2.0724,4.7296 2.7804,3.9536 3.2044,3.9166 C4.7934,3.7776 5.6794,2.7656 6.6624,1.7216 C8.0834,0.2116 10.1074,-0.2394 11.8024,0.8566 C13.3104,1.8316 14.5844,1.9926 15.9104,0.8866" id="principal--Fill-6" fill="#91201F" mask="url(#principal--mask-4)"></path>
            </g>
            <g id="principal--Group-11" transform="translate(126.000000, 34.749000)">
                <mask id="principal--mask-6" fill="white">
                    <use xlink:href="#principal--path-5"></use>
                </mask>
                <g id="principal--Clip-10"></g>
                <path d="M26.3892,11.1124 C27.0782,11.6404 27.6072,12.0164 28.1032,12.4304 C29.4092,13.5214 30.4052,13.5554 31.5602,12.3284 C32.1342,11.7174 32.6452,10.9424 32.8942,10.1504 C33.4572,8.3614 33.8992,6.5284 34.2752,4.6904 C34.5772,3.2204 34.8622,1.7834 36.2412,0.4414 L36.2412,3.1954 C36.9902,3.1184 37.5592,3.0594 38.1282,3.0004 C38.1492,3.1404 38.2362,3.3234 38.1792,3.4134 C37.9282,3.8094 37.6052,4.1614 37.3622,4.5614 C36.4512,6.0624 36.5252,6.4064 38.0472,7.7054 C37.4052,9.7434 36.7902,11.8424 36.0812,13.9094 C35.3972,15.8974 34.1042,17.4664 32.4102,18.6904 C31.1382,19.6094 29.8282,20.4764 28.5432,21.3774 C25.8302,23.2804 23.9142,25.7634 22.7762,28.9094 C21.1262,33.4714 20.7862,38.2494 20.2082,42.9964 C19.8472,45.9544 19.4612,48.9104 19.0042,51.8554 C18.2772,56.5444 16.2822,60.6864 13.3042,64.3464 C11.0262,67.1444 8.7132,69.9184 6.3132,72.6124 C5.2802,73.7714 4.0172,74.7384 2.7962,75.7144 C2.3472,76.0724 1.7192,76.2054 0.6602,76.6634 C0.9602,75.4674 1.0622,74.7284 1.3282,74.0544 C5.1942,64.2434 7.2292,54.0514 7.5862,43.5314 C7.7112,39.8554 9.2002,36.8774 11.6752,34.3034 C12.5432,33.4004 13.4622,32.5334 14.4332,31.7424 C18.0472,28.7954 21.0822,25.3174 23.8962,21.6244 C26.0542,18.7934 27.0102,15.6854 26.2222,12.1364 C26.1772,11.9374 26.2862,11.7044 26.3892,11.1124" id="principal--Fill-9" fill="#91201F" mask="url(#principal--mask-6)"></path>
            </g>
            <path d="M62.2825,42.5728 C59.2735,41.9908 58.7285,41.3928 58.9585,38.9898 C59.0735,37.7838 58.6155,37.0228 57.6165,36.5088 C55.0715,35.1988 53.4495,32.9888 51.9235,30.6908 C50.6575,28.7868 50.7185,27.9848 52.1595,26.2938 C52.3115,26.1148 52.4875,25.9558 52.6425,25.7798 C54.2475,23.9638 54.2515,23.3238 52.6075,21.6198 C51.9555,20.9428 51.2615,20.3058 50.5735,19.6638 C49.5495,18.7078 49.2785,17.6388 49.7405,16.2628 C50.1605,15.0138 50.3825,13.6908 50.6105,12.3858 C50.8905,10.7888 51.1715,10.3418 52.8395,10.1888 C54.2275,10.0618 55.7085,9.9808 57.0295,10.3278 C59.2935,10.9228 61.4695,11.8568 63.6745,12.6688 C64.6225,13.0178 65.0415,13.7748 64.8275,14.7238 C63.6755,19.8388 65.2955,24.6738 66.2865,29.5688 C66.7345,31.7788 66.7465,31.9188 64.9595,33.0298 C63.1235,34.1708 62.2705,35.8048 62.2815,37.9358 C62.2885,39.4058 62.2825,40.8768 62.2825,42.5728" id="principal--Fill-12" fill="#91201F"></path>
            <path d="M123.7431,118.0836 C123.6291,118.8056 123.6321,119.5696 123.3841,120.2416 C119.9221,129.6646 114.5271,137.8606 107.5201,145.0156 C107.1751,145.3676 106.6701,145.5626 105.8851,145.5846 C106.0401,145.1426 106.0771,144.5916 106.3681,144.2726 C113.0541,136.9406 117.8521,128.4336 121.9111,119.4586 C122.1771,118.8716 122.6031,118.3576 122.9541,117.8096 C123.2171,117.9006 123.4801,117.9926 123.7431,118.0836" id="principal--Fill-14" fill="#91201F"></path>
            <path d="M66.4324,45.5875 C66.0834,45.9715 65.7984,46.4625 65.3724,46.7195 C63.9114,47.6005 63.1714,48.9305 62.9034,50.5345 C62.1644,54.9575 60.4004,58.8845 57.5494,62.3645 C56.2134,63.9955 56.3194,65.0275 57.5944,66.8075 C58.3224,67.8255 59.1074,68.8065 59.7774,69.8605 C60.1634,70.4685 60.3704,71.1905 60.6584,71.8615 C60.4974,71.9435 60.3364,72.0265 60.1754,72.1085 C58.9684,70.4435 57.9594,68.5715 56.4994,67.1695 C55.0204,65.7505 53.0964,64.7955 51.2204,63.5375 C51.6124,63.3975 52.0484,63.1225 52.4944,63.1045 C54.2084,63.0315 55.5754,62.2195 56.4284,60.8655 C57.6684,58.8975 58.7044,56.7945 59.7334,54.7035 C60.8014,52.5345 61.6784,50.2695 62.7904,48.1235 C63.4994,46.7545 64.5924,45.6625 66.0674,45.1225 C66.1894,45.2775 66.3104,45.4325 66.4324,45.5875" id="principal--Fill-16" fill="#91201F"></path>
            <path d="M52.4172,68.7303 C52.3842,69.2093 52.4762,69.7403 52.2982,70.1573 C50.6492,74.0253 44.7322,75.7293 41.2442,73.3743 C39.2892,72.0533 38.3932,69.7863 39.0892,67.9233 C40.3632,64.5153 42.0262,63.3083 45.4512,63.7013 C44.2932,64.3333 43.4362,64.7563 42.6262,65.2533 C40.6332,66.4783 40.1472,67.8313 40.8782,69.9703 C41.4992,71.7883 43.0192,72.7753 45.0702,72.6613 C47.0222,72.5523 48.7202,71.8693 50.0752,70.4083 C50.6872,69.7493 51.3422,69.1313 51.9782,68.4943 C52.1242,68.5733 52.2712,68.6513 52.4172,68.7303" id="principal--Fill-18" fill="#91201F"></path>
            <path d="M88.4702,72.7193 C88.3612,69.0353 89.1642,60.9803 89.9262,59.6013 C90.4362,61.3033 89.9082,62.7293 89.8922,64.1283 C89.8742,65.6133 89.7522,67.1013 89.5972,68.5803 C89.4472,70.0143 89.1972,71.4383 88.9912,72.8663 C88.8172,72.8173 88.6442,72.7683 88.4702,72.7193" id="principal--Fill-20" fill="#91201F"></path>
        </g>
    </g>
</svg>