<?xml version="1.0" encoding="utf-8"?>
<!-- Generator: Adobe Illustrator 25.0.1, SVG Export Plug-In . SVG Version: 6.00 Build 0)  -->
<svg version="1.1" id="Layer_1" xmlns="http://www.w3.org/2000/svg" xmlns:xlink="http://www.w3.org/1999/xlink" x="0px" y="0px"
	 viewBox="0 0 1864 1160" style="enable-background:new 0 0 1864 1160;" xml:space="preserve">
<style type="text/css">
	.st0{fill-rule:evenodd;clip-rule:evenodd;fill:#AB514E;}
	.st1{fill-rule:evenodd;clip-rule:evenodd;fill:#E0A103;}
	
		.st2{opacity:0.6992;fill-rule:evenodd;clip-rule:evenodd;fill:#FFFFFF;fill-opacity:0;stroke:#FFFFFF;stroke-width:1.0368;enable-background:new    ;}
	.st3{fill-rule:evenodd;clip-rule:evenodd;fill:#893E4E;}
	.st4{fill:none;stroke:#FFFFFF;stroke-width:1.0368;stroke-opacity:0.4779;}
</style>
<g id="Rectangle_2--simbolos">
	<g id="Rectangle_2--Group_2_" transform="translate(1.000000, 1.000000)">
		<g id="Rectangle_2--path6-_x2B_-Mask4-_x2B_-path4-_x2B_-Mask6-Mask">
			<g id="Rectangle_2--Mask">
				<rect id="Rectangle_2--path-1_1_" x="-51.5" y="-12.3" class="st0" width="1930.2" height="1200.6"/>
			</g>
			<g id="Rectangle_2--Group">
				<g id="Rectangle_2--path6" transform="translate(-227.251969, -90.881013)">
					<path id="Rectangle_2--Mask4" class="st1" d="M1280.4,1145.2c-338.4,137-757.9,217.1-1197.9,282.8
						C-25.9,1054-54,555.4-59.9,22.3C295.9-22.3,669.4-25.6,1055.8,1.8C1173.9,350.6,1244.6,734.9,1280.4,1145.2z"/>
				</g>
			</g>
			<path id="Rectangle_2--Mask4_1_" class="st2" d="M1401.3,347.7c-338.4,137-757.8,217.1-1197.8,282.8
				C95,256.4,66.9-242.2,61-775.3c355.8-44.6,729.3-47.9,1115.7-20.4C1294.8-447,1365.5-62.7,1401.3,347.7z"/>
			<g id="Rectangle_2--Group_1_">
				<g id="Rectangle_2--path4" transform="translate(1127.462992, -61.564557)">
					<path id="Rectangle_2--Mask6" class="st3" d="M-1.3,1290.1C-36,1116.8,42.4,500.4,77.2,163.7L360.4-14.6
						c274.7,70.9,788.7,306.4,1166.7,570.8c38.1,111.9,68.3,239.7,68.3,392.9c-77.8,116.5-626.7,449.8-844.6,449.8L-1.3,1290.1z"/>
				</g>
			</g>
			<path id="Rectangle_2--Mask6_1_" class="st4" d="M1489.4,1374.4c-34.7-173.4,43.8-789.6,78.5-1126.3l283.3-178.3
				c274.7,70.9,788.7,306.4,1166.7,570.8c38.1,111.9,68.3,239.7,68.3,392.9c-77.8,116.5-626.7,449.8-844.6,449.8L1489.4,1374.4z"/>
		</g>
	</g>
</g>
</svg>
