<?xml version="1.0" encoding="utf-8"?>
<!-- Generator: Adobe Illustrator 25.0.1, SVG Export Plug-In . SVG Version: 6.00 Build 0)  -->
<svg version="1.1" id="Layer_1" xmlns="http://www.w3.org/2000/svg" xmlns:xlink="http://www.w3.org/1999/xlink" x="0px" y="0px"
	 viewBox="0 0 1864 1160" style="enable-background:new 0 0 1864 1160;" xml:space="preserve">
<style type="text/css">
	.st0{fill-rule:evenodd;clip-rule:evenodd;fill:#357591;}
	.st1{filter:url(#Adobe_OpacityMaskFilter);}
	.st2{fill-rule:evenodd;clip-rule:evenodd;fill:#FFFFFF;}
	.st3{mask:url(#Group_Copy--mask-2_1_);}
	.st4{fill-rule:evenodd;clip-rule:evenodd;fill:#897B73;}
	.st5{filter:url(#Adobe_OpacityMaskFilter_1_);}
	.st6{mask:url(#Group_Copy--mask-2_2_);}
	.st7{fill:none;stroke:#FFFFFF;stroke-width:1.0364;}
	.st8{filter:url(#Adobe_OpacityMaskFilter_2_);}
	.st9{mask:url(#Group_Copy--mask-2_3_);}
	.st10{fill-rule:evenodd;clip-rule:evenodd;fill:#339D66;}
	.st11{filter:url(#Adobe_OpacityMaskFilter_3_);}
	.st12{opacity:0.5377;mask:url(#Group_Copy--mask-2_4_);}
	.st13{fill:none;stroke:#FEFEFE;stroke-width:1.0364;}
</style>
<g id="Group_Copy--simbolos">
	<g id="Group_Copy--Group-Copy" transform="translate(1.000000, 1.000000)">
		<g id="Group_Copy--path6-_x2B_-Mask4-_x2B_-path4-_x2B_-Mask6-Mask">
			<g id="Group_Copy--Mask">
				<polyline id="Group_Copy--path-1_6_" class="st0" points="-40,1174.6 -40,-25.5 1889.4,-25.5 1889.4,1174.6 				"/>
			</g>
			<defs>
				<filter id="Adobe_OpacityMaskFilter" filterUnits="userSpaceOnUse" x="697.9" y="-671.2" width="2410.2" height="2743.3">
					<feColorMatrix  type="matrix" values="1 0 0 0 0  0 1 0 0 0  0 0 1 0 0  0 0 0 1 0"/>
				</filter>
			</defs>
			<mask maskUnits="userSpaceOnUse" x="697.9" y="-671.2" width="2410.2" height="2743.3" id="Group_Copy--mask-2_1_">
				<g class="st1">
					<rect id="Group_Copy--path-1_2_" x="-40" y="-25.5" class="st2" width="1929.4" height="1200.1"/>
				</g>
			</mask>
			<g id="Group_Copy--Group" class="st3">
				<g id="Group_Copy--path1" transform="translate(712.000000, -623.000000)">
					<g id="Group_Copy--Mask1">
						<path id="Group_Copy--path-3_1_" class="st4" d="M59.9,2114.5C-11,1706.8-31,1293,0.1,873L578.4-48.2
							C1138.9,118.5,1737.1,350,2353.3,612.6c63.8,413.5,49.9,884.3,0,1381.7c-158.7,274.2-374.1,505.8-638.2,700.8L59.9,2114.5z"/>
					</g>
				</g>
			</g>
			<defs>
				<filter id="Adobe_OpacityMaskFilter_1_" filterUnits="userSpaceOnUse" x="990.7" y="-355.7" width="1102.8" height="1255.2">
					<feColorMatrix  type="matrix" values="1 0 0 0 0  0 1 0 0 0  0 0 1 0 0  0 0 0 1 0"/>
				</filter>
			</defs>
			<mask maskUnits="userSpaceOnUse" x="990.7" y="-355.7" width="1102.8" height="1255.2" id="Group_Copy--mask-2_2_">
				<g class="st5">
					<rect id="Group_Copy--path-1_3_" x="-40" y="-25.5" class="st2" width="1929.4" height="1200.1"/>
				</g>
			</mask>
			<g id="Group_Copy--path1_1_" class="st6">
				<g transform="translate(995.000000, -318.842648)">
					<g id="Group_Copy--Mask1_1_">
						<path id="Group_Copy--path-5_1_" class="st7" d="M30,952.4C-2.4,766-11.5,576.8,2.7,384.8L267.1-36.2
							c256.2,76.2,529.7,182,811.4,302.1c29.2,189,22.8,404.2,0,631.6c-72.6,125.4-171,231.2-291.7,320.4L30,952.4z"/>
					</g>
				</g>
			</g>
			<defs>
				<filter id="Adobe_OpacityMaskFilter_2_" filterUnits="userSpaceOnUse" x="-909.5" y="-640.1" width="1596.7" height="1584.6">
					<feColorMatrix  type="matrix" values="1 0 0 0 0  0 1 0 0 0  0 0 1 0 0  0 0 0 1 0"/>
				</filter>
			</defs>
			<mask maskUnits="userSpaceOnUse" x="-909.5" y="-640.1" width="1596.7" height="1584.6" id="Group_Copy--mask-2_3_">
				<g class="st8">
					<rect id="Group_Copy--path-1_4_" x="-40" y="-25.5" class="st2" width="1929.4" height="1200.1"/>
				</g>
			</mask>
			<g id="Group_Copy--Group_1_" class="st9">
				<g id="Group_Copy--path5" transform="translate(-839.000000, -593.000000)">
					<path id="Group_Copy--Mask5" class="st10" d="M1506.8,1452.4C1312.3,1646.3-31.1,1464.5-68,1348.5
						C-129.9,1153.6,946.7-83.3,1139.3-46.3C1254.1,2.2,1613,1242.3,1506.8,1452.4L1506.8,1452.4z"/>
				</g>
			</g>
			<defs>
				<filter id="Adobe_OpacityMaskFilter_3_" filterUnits="userSpaceOnUse" x="-672.7" y="-521.4" width="1597.7" height="1585.7">
					<feColorMatrix  type="matrix" values="1 0 0 0 0  0 1 0 0 0  0 0 1 0 0  0 0 0 1 0"/>
				</filter>
			</defs>
			<mask maskUnits="userSpaceOnUse" x="-672.7" y="-521.4" width="1597.7" height="1585.7" id="Group_Copy--mask-2_4_">
				<g class="st11">
					<rect id="Group_Copy--path-1_5_" x="-40" y="-25.5" class="st2" width="1929.4" height="1200.1"/>
				</g>
			</mask>
			<g id="Group_Copy--path5_1_" class="st12">
				<g id="Group_Copy--Mask5_1_" transform="translate(-610.000000, -478.000000)">
					<path class="st13" d="M1515.1,1456.5c-194.5,193.9-1537.9,12.2-1574.7-103.9C-121.5,1157.8,955-79.1,1147.6-42.1
						C1262.5,6.4,1621.3,1246.5,1515.1,1456.5L1515.1,1456.5z"/>
				</g>
			</g>
		</g>
	</g>
</g>
</svg>
